<?xml version="1.0" encoding="UTF-8"?>
<!DOCTYPE svg PUBLIC "-//W3C//DTD SVG 1.1//EN" "http://www.w3.org/Graphics/SVG/1.1/DTD/svg11.dtd">
<!-- Creator: CorelDRAW X8 -->
<svg xmlns="http://www.w3.org/2000/svg" xml:space="preserve" width="760px" height="97px" version="1.1" style="shape-rendering:geometricPrecision; text-rendering:geometricPrecision; image-rendering:optimizeQuality; fill-rule:evenodd; clip-rule:evenodd"
viewBox="0 0 7599 968"
 xmlns:xlink="http://www.w3.org/1999/xlink">
 <defs>
  <style type="text/css">
   <![CDATA[
    .fil0 {fill:white}
   ]]>
  </style>
 </defs>
 <g id="Layer_x0020_1">
  <metadata id="CorelCorpID_0Corel-Layer"/>
  <polygon class="fil0" points="1,198 78,204 154,189 230,213 306,180 382,222 458,171 534,231 610,163 686,239 761,154 837,248 913,145 989,257 1065,136 1141,266 1217,127 1293,275 1369,119 1445,283 1521,110 1597,292 1673,101 1749,301 1825,93 1901,309 1977,84 2053,318 2129,75 2205,327 2281,67 2357,335 2433,58 2509,344 2585,50 2661,352 2737,41 2812,360 2888,33 2964,368 3040,25 3116,376 3192,18 3268,383 3344,11 3420,390 3496,5 3572,395 3648,1 3724,397 3800,0 3876,397 3952,2 4028,394 4104,6 4180,389 4256,12 4332,383 4408,19 4484,375 4560,26 4636,368 4712,34 4788,360 4863,42 4939,351 5015,50 5091,343 5167,59 5243,334 5319,67 5395,326 5471,76 5547,317 5623,85 5699,309 5775,93 5851,300 5927,102 6003,291 6079,111 6155,282 6231,120 6307,274 6383,128 6459,265 6535,137 6611,256 6687,146 6763,247 6839,155 6914,239 6990,163 7066,230 7142,172 7218,221 7294,181 7370,212 7446,190 7522,203 7598,199 7598,210 7598,220 7598,231 7598,242 7598,253 7598,263 7598,274 7599,285 7598,296 7599,307 7598,317 7599,328 7598,339 7599,350 7598,360 7599,371 7597,382 7599,393 7597,404 7599,414 7597,425 7599,436 7597,447 7599,457 7597,468 7599,479 7597,490 7599,501 7597,511 7599,522 7597,533 7599,544 7597,554 7599,565 7597,576 7599,587 7597,598 7599,608 7597,619 7599,630 7597,641 7599,651 7597,662 7599,673 7597,684 7599,695 7597,705 7599,716 7597,727 7599,738 7597,748 7599,759 7597,770 7599,781 7597,792 7599,802 7597,813 7599,824 7597,835 7599,845 7597,856 7599,867 7597,878 7599,889 7597,899 7599,910 7597,921 7599,932 7597,942 7599,953 7597,964 7598,968 2,968 3,964 0,953 4,942 0,932 4,921 0,910 4,899 0,889 4,878 0,867 4,856 0,845 4,835 0,824 4,813 0,802 4,792 0,781 4,770 0,759 4,748 0,738 4,727 0,716 4,705 0,695 4,684 0,673 4,662 0,651 4,641 0,630 4,619 0,608 4,598 0,587 4,576 0,565 4,554 0,544 4,533 0,522 3,511 0,501 3,490 0,479 3,468 0,457 3,447 0,436 3,425 0,414 3,404 0,393 3,382 1,371 3,360 1,350 3,339 1,328 3,317 1,307 3,296 1,285 3,274 1,263 3,253 1,242 3,231 1,220 3,210 "/>
 </g>
</svg>
