<?xml version="1.0" encoding="UTF-8"?>
<!DOCTYPE svg PUBLIC "-//W3C//DTD SVG 1.1//EN" "http://www.w3.org/Graphics/SVG/1.1/DTD/svg11.dtd">
<!-- Creator: CorelDRAW X8 -->
<svg xmlns="http://www.w3.org/2000/svg" xml:space="preserve" width="700px" height="460px" version="1.1" style="shape-rendering:geometricPrecision; text-rendering:geometricPrecision; image-rendering:optimizeQuality; fill-rule:evenodd; clip-rule:evenodd"
viewBox="0 0 70000 46000"
 xmlns:xlink="http://www.w3.org/1999/xlink">
 <defs>
  <style type="text/css">
   <![CDATA[
    .str0 {stroke:#E6E6E6;stroke-width:1999.96}
    .str3 {stroke:white;stroke-width:312.52}
    .str2 {stroke:#CCCCCC;stroke-width:208.347}
    .str1 {stroke:#E6E6E6;stroke-width:208.347}
    .fil2 {fill:#CCCCCC}
    .fil0 {fill:#CF4647}
    .fil1 {fill:#E6E6E6}
    .fil3 {fill:white}
   ]]>
  </style>
 </defs>
 <g id="Layer_x0020_1">
  <metadata id="CorelCorpID_0Corel-Layer"/>
  <g id="_2185176166960">
   <path class="fil0 str0" d="M15600 7963l38800 0c440,0 800,360 800,800l0 26018c0,430 -352,782 -782,782l-38818 0c-440,0 -800,-360 -800,-801l0 -25999c0,-440 360,-800 800,-800z"/>
   <rect class="fil1 str1" x="7400" y="36389" width="55200" height="1000"/>
   <path class="fil2 str2" d="M7400 37538l55200 0 0 0c0,275 -225,500 -500,500l-54200 0c-275,0 -500,-225 -500,-500l0 0z"/>
  </g>
  <g id="_2150409071472">
   <g>
    <path class="fil3 str3" d="M29739 22752c-20,30 -58,125 -110,282 -53,159 -117,357 -193,599 -76,238 -159,507 -247,802l-273 908c-103,308 -184,610 -276,907l-230 804 -173 601 -81 288c-34,95 -69,201 -126,318 -58,116 -127,227 -196,332 -81,104 -161,192 -253,261 -92,70 -184,104 -288,104 -161,0 -276,-55 -357,-161 -81,-110 -115,-306 -115,-594l0 -260c0,-96 46,-277 115,-539 69,-265 150,-562 253,-894 92,-334 208,-677 311,-1033l311 -967c-276,300 -564,599 -875,887 -311,299 -633,564 -956,794 -334,231 -667,426 -1001,576 -334,150 -657,219 -968,219 -356,0 -656,-81 -909,-242 -253,-161 -472,-357 -633,-610 -161,-254 -288,-541 -369,-852 -45,-298 -91,-621 -91,-932l0 -115c0,-34 5,-72 12,-108 27,-576 109,-1163 242,-1766 138,-608 310,-1209 529,-1808 219,-599 472,-1186 760,-1757 299,-548 610,-1089 944,-1596 334,-506 693,-978 1071,-1405 380,-428 768,-796 1168,-1105 398,-311 801,-553 1208,-725 403,-173 806,-265 1205,-265 460,0 905,127 1335,377 426,256 829,659 1207,1223 85,127 138,254 161,383 23,126 35,249 35,362 0,270 -64,484 -192,638 -127,161 -277,231 -461,231 -161,0 -311,-81 -449,-254 -138,-173 -299,-414 -461,-725 -161,-288 -333,-495 -529,-622 -196,-127 -403,-184 -633,-184 -357,0 -726,150 -1129,449 -403,299 -794,679 -1186,1163 -391,483 -771,1036 -1128,1658 -357,621 -679,1255 -956,1911 -276,656 -495,1290 -656,1923 -161,633 -242,1197 -242,1704 0,173 12,345 35,518 23,184 69,334 126,484 58,149 150,264 265,357 115,92 253,138 415,138 184,0 403,-58 633,-184 242,-127 484,-288 737,-496 253,-207 518,-437 771,-690 254,-254 507,-519 726,-783 218,-265 426,-519 587,-760 173,-242 299,-449 391,-634l667 -2142c85,-227 196,-389 337,-484 138,-97 280,-145 426,-145 69,0 142,12 213,35 69,23 136,60 193,110 57,46 100,115 133,196 35,80 58,173 58,288 0,288 -23,559 -69,810 -46,254 -115,495 -196,737 -69,236 -161,477 -253,720 -93,242 -185,495 -277,760l-43 -20zm9559 1759c-222,300 -481,592 -776,876 -296,285 -601,538 -914,759 -313,222 -622,400 -924,535 -304,134 -576,201 -818,201 -242,0 -441,-80 -593,-242 -152,-161 -228,-437 -228,-829 0,-276 42,-598 122,-967 -131,231 -296,472 -493,703 -195,241 -422,460 -674,656 -254,196 -537,357 -850,472 -313,115 -654,184 -1025,184 -164,0 -326,-23 -480,-69 -161,-46 -299,-115 -414,-219 -115,-103 -208,-241 -288,-414 -69,-173 -104,-392 -104,-645l23 -276c23,-173 81,-461 196,-841 115,-380 276,-875 507,-1485 230,-610 541,-1336 955,-2199 104,-231 219,-392 369,-495 138,-104 287,-150 449,-150 69,0 138,11 218,34 70,12 139,47 208,93 69,46 115,103 161,172 34,58 57,138 57,231 0,57 -11,115 -23,161 -34,103 -80,230 -161,391l-299 569c-115,207 -230,438 -357,682 -127,245 -242,506 -345,762 -104,265 -196,535 -277,806 -80,276 -126,541 -138,794 0,116 23,208 69,300 46,92 138,138 254,138 322,0 644,-104 944,-322 299,-216 575,-484 829,-804 253,-323 483,-668 691,-1037 207,-368 368,-702 506,-1006 92,-204 184,-422 253,-656 70,-230 150,-449 242,-645 81,-196 184,-364 300,-495 103,-131 241,-196 414,-196 173,0 322,69 426,208 104,138 161,299 161,495 0,103 -34,253 -103,437 -69,184 -150,403 -254,645l-334 779c-126,277 -230,553 -334,841 -103,282 -195,564 -264,834 -69,276 -104,529 -104,760 0,218 115,322 334,322 161,0 357,-46 587,-161 231,-104 472,-254 726,-449 253,-196 506,-426 760,-691 253,-265 483,-546 679,-852l80 1220 54 85z"/>
    <path class="fil3 str3" d="M39533 24062c-55,139 -109,300 -161,482 -54,182 -80,345 -80,489 0,90 15,161 46,215 29,55 87,81 172,81 107,0 240,-37 400,-112 159,-74 330,-172 514,-297 185,-122 378,-262 576,-421 201,-161 400,-334 597,-495 195,-173 384,-346 564,-518 179,-173 341,-334 483,-472 40,-46 87,-70 143,-93 55,-23 104,-34 144,-34 104,0 184,34 253,127 70,80 104,195 104,333 0,127 -35,265 -104,415 -69,150 -195,299 -368,449 -322,345 -645,679 -979,1002 -322,311 -656,598 -978,840 -323,242 -645,426 -968,576 -322,138 -633,207 -932,207 -207,0 -380,-34 -518,-103 -139,-69 -242,-162 -334,-277 -81,-115 -138,-253 -173,-403 -35,-161 -46,-322 -46,-495 0,-299 35,-598 115,-909 81,-311 161,-599 265,-852 184,-472 357,-933 541,-1394l507 -1266 2290 -5768c86,-230 207,-393 363,-495 156,-92 310,-138 468,-138 161,0 299,46 431,150 126,99 196,265 196,492 0,107 -24,221 -64,340 -46,116 -92,247 -161,384 -127,278 -276,622 -449,1029l-576 1336c-196,478 -403,979 -610,1497l-622 1519c-207,493 -391,956 -564,1398l-449 1144 -36 37z"/>
    <path class="fil3 str3" d="M50276 22439c72,-50 138,-89 199,-119 60,-30 119,-46 173,-46 111,0 195,51 251,150 57,99 92,219 92,364 0,155 -35,314 -104,475 -69,162 -161,297 -299,403 -541,480 -1025,918 -1439,1313 -426,395 -818,735 -1198,1019 -380,288 -748,507 -1105,668 -357,161 -737,242 -1152,242 -380,0 -679,-81 -886,-254 -207,-161 -311,-391 -311,-691l0 -69c0,-11 11,-46 11,-69 24,-172 104,-380 242,-622 138,-230 300,-472 495,-725 196,-253 403,-507 622,-760 219,-253 415,-495 610,-725 185,-231 334,-438 461,-634 127,-184 184,-345 184,-460 0,-69 -23,-127 -71,-173 -54,-34 -138,-57 -254,-57 -207,0 -414,57 -628,161 -219,103 -433,253 -645,426 -207,184 -414,380 -613,610 -198,230 -379,472 -564,714 -172,253 -334,495 -483,748 -138,254 -265,484 -369,691l-126 277 -173 414 -207 461 -196 449 -161 380c-46,115 -81,184 -104,230 -23,57 -58,161 -115,311l-207 527 -242 633 -230 622 -196 528c-58,149 -92,250 -104,305 -57,149 -115,299 -184,437 -69,138 -144,257 -233,362 -87,103 -188,190 -302,253 -116,57 -242,92 -380,92 -185,0 -334,-46 -449,-129 -116,-80 -185,-253 -185,-495 0,-115 12,-242 46,-368 23,-127 70,-245 115,-369 35,-127 93,-242 139,-357 46,-115 92,-230 126,-341 265,-598 547,-1197 829,-1803 282,-605 553,-1197 818,-1784 260,-588 501,-1163 725,-1739 219,-564 403,-1112 553,-1635l161 -456c69,-196 150,-391 242,-576 92,-184 196,-357 311,-495 115,-138 241,-210 368,-210 207,0 354,46 445,138 92,101 138,230 138,414 0,35 -5,92 -15,173 -12,81 -23,161 -42,248l-49 241c-12,81 -35,139 -46,173 184,-203 391,-403 608,-604 218,-200 449,-380 679,-542 230,-161 472,-299 714,-397 242,-103 483,-155 725,-155 173,0 334,23 502,69 161,48 311,119 438,212 134,92 239,207 320,345 80,138 121,303 121,488 0,246 -65,507 -185,783 -126,281 -276,564 -467,841 -184,283 -388,557 -606,823 -218,265 -414,507 -610,725l-483 565c-127,149 -196,253 -198,310 0,70 23,127 69,173 46,46 126,69 230,69 90,0 216,-51 380,-149 170,-104 403,-265 702,-502 300,-242 686,-553 1148,-956 461,-398 1036,-898 1712,-1505l-88 -84z"/>
   </g>
  </g>
 </g>
</svg>
