<?xml version="1.0" encoding="UTF-8"?>
<!DOCTYPE svg PUBLIC "-//W3C//DTD SVG 1.1//EN" "http://www.w3.org/Graphics/SVG/1.1/DTD/svg11.dtd">
<!-- Creator: CorelDRAW X8 -->
<svg xmlns="http://www.w3.org/2000/svg" xml:space="preserve" width="259px" height="802px" version="1.1" style="shape-rendering:geometricPrecision; text-rendering:geometricPrecision; image-rendering:optimizeQuality; fill-rule:evenodd; clip-rule:evenodd"
viewBox="0 0 1415 4381"
 xmlns:xlink="http://www.w3.org/1999/xlink">
 <defs>
  <style type="text/css">
   <![CDATA[
    .str0 {stroke:#003D83;stroke-width:17.0679}
    .str1 {stroke:#003D83;stroke-width:4.26375}
    .fil2 {fill:none}
    .fil3 {fill:black}
    .fil0 {fill:#003D83}
    .fil1 {fill:white}
    .fil4 {fill:#003D83;fill-opacity:0.301961}
    .fil5 {fill:#003D83;fill-opacity:0.600000}
   ]]>
  </style>
 </defs>
 <g id="Layer_x0020_1">
  <metadata id="CorelCorpID_0Corel-Layer"/>
  <g id="_2525871513232">
   <g>
    <path class="fil0" d="M66 4151c-1,0 -2,1 -3,1 -7,1 -11,5 -15,11 -2,3 -3,7 -4,11l0 181c0,1 1,2 1,3 2,7 5,12 11,15 3,2 7,4 12,4l164 0 0 -227 -164 0c0,1 -1,1 -2,1l0 0zm153 191l0 22 -148 0c-6,0 -12,-3 -13,-9 -1,-4 0,-8 3,-11 2,-2 5,-4 9,-5l149 0 0 3 0 0zm-84 -178l84 0 0 162 -147 0c-4,0 -7,0 -10,1l-4 0 0 -150c0,-6 4,-11 9,-13 1,0 3,0 5,0 20,0 41,0 63,0z"/>
    <polygon class="fil0" points="92,4199 193,4199 193,4213 92,4213 "/>
   </g>
   <g>
    <path class="fil0" d="M524 4217l8 0c1,0 2,-1 2,-2l0 -44c0,-3 -2,-6 -6,-6 -3,0 -6,2 -6,6l0 45c0,0 1,1 2,1z"/>
    <g>
     <path class="fil0" d="M570 4274c-12,4 -27,6 -43,6 -15,0 -30,-2 -42,-6 -1,0 -1,0 -1,1 11,9 27,17 38,23l0 13c0,3 2,6 5,6 4,0 6,-2 6,-6l0 -13c11,-6 26,-14 38,-23 0,-1 0,-2 -1,-1l0 0z"/>
     <path class="fil0" d="M597 4223c0,-7 -3,-20 -24,-28 -9,-4 -21,-7 -34,-8l-2 0 0 10c14,2 26,5 35,9 8,4 14,10 14,17l0 2c-1,11 -17,20 -38,24 -7,2 -14,2 -21,2 -7,0 -14,0 -20,-2 -22,-3 -37,-12 -38,-24l0 -2c0,-7 5,-13 14,-17 9,-5 21,-8 35,-9l0 -10c-14,1 -27,4 -37,8 -21,8 -23,21 -23,28l0 17c0,10 5,18 15,23 14,9 34,13 54,13 21,0 41,-4 55,-13 10,-5 15,-13 15,-23l0 -17z"/>
     <path class="fil0" d="M518 4208c-16,2 -24,8 -24,13 0,7 12,16 34,16 21,0 34,-9 34,-16 0,-3 -2,-6 -7,-8 0,0 0,-1 -1,-1l0 0c-1,0 -1,-1 -1,-1 0,0 -1,0 -1,0 -1,0 -1,0 -1,-1l-1 0c-1,0 -2,0 -2,0l-1 0c0,0 -1,0 -1,-1l-1 0c-1,0 -1,0 -2,0l-4 0 0 7c0,3 -3,6 -6,6l-8 0c-3,0 -6,-3 -6,-6l0 -7 -1 -1 0 0z"/>
     <polygon class="fil1" points="446,4197 609,4197 609,4220 446,4220 "/>
     <path class="fil0" d="M641 4204l-34 -57 -159 0 -37 63 0 169c0,1 0,1 1,1l231 0c0,0 1,0 1,-1l0 -169 -3 -6zm-187 -43l2 -3 144 0 2 3 16 27 5 9 2 5 2 2 -198 0 1 -2 24 -41 0 0zm178 59l0 148 -209 0 0 -154 209 0 0 6z"/>
     <path class="fil0" d="M470 4340l0 17 -6 0 0 -17 -6 0 0 -6 19 0 0 6 -7 0zm11 -6l11 0c4,0 8,2 8,7 0,4 -2,6 -5,7 2,2 3,4 6,4 0,0 1,0 2,-1l1 6c-2,0 -3,0 -5,0 -5,0 -9,-6 -12,-9l0 0 0 9 -7 0 0 -23 1 0zm6 6l0 4 5 0c2,0 2,-1 2,-2 0,-1 -1,-2 -2,-2l-5 0zm24 8l-8 -14 7 0 5 8 4 -8 7 0 0 0 -8 14 0 9 -6 0 0 -9 -1 0zm45 -4l-6 7 -1 0 -6 -7 0 13 -6 0 0 -23 5 0 8 9 7 -9 5 0 0 23 -6 0 0 -13zm12 13l0 -23 18 0 0 6 -12 0 0 3 10 0 0 5 -10 0 0 3 12 0 0 6 -18 0 0 0zm26 -7c2,0 3,1 3,4 0,2 -1,3 -3,3 -2,0 -4,-1 -4,-3 0,-3 2,-4 4,-4zm-3 -16l6 0 -1 14 -4 0 -1 -14z"/>
    </g>
   </g>
   <path class="fil2" d="M89 420c4,0 7,-4 7,-8 0,-4 -4,-7 -8,-7 -4,0 -8,4 -7,8 1,3 4,7 8,7zm-30 0c5,0 8,-4 8,-8 0,-4 -3,-8 -7,-8 -4,0 -8,3 -8,7 0,5 3,9 7,9l0 0zm59 0c4,0 7,-4 7,-7 0,-4 -3,-8 -7,-8 -4,0 -7,3 -7,7 -1,4 3,8 7,8z"/>
   <path class="fil0" d="M45 545l0 -114 180 0 0 62 8 0 0 -87c0,-10 -6,-15 -15,-15l-164 0c-8,-1 -16,5 -16,15l0 146 131 0 0 -7 -124 0zm73 -140c4,0 7,4 7,8 0,4 -4,7 -8,7 -4,0 -7,-4 -7,-8 1,-4 4,-7 8,-7zm-29 0c4,0 7,3 7,7 0,4 -3,8 -7,8 -4,0 -7,-3 -7,-7 0,-5 3,-8 7,-8zm-29 0c4,0 7,3 7,7 0,4 -3,8 -8,8 -4,0 -7,-4 -7,-8 0,-4 3,-7 8,-7l0 0z"/>
   <path class="fil0" d="M61 530l64 0 0 -87 -64 0 0 87 0 0zm152 -87l-76 0 0 35 76 0 0 -35zm-76 87l29 0 0 -40 -29 0 0 40zm44 -6l-1 -2c0,0 0,0 0,-1l0 -1 -2 -1 0 11 4 0c1,-1 1,-2 2,-3 -1,-1 -2,-2 -3,-3l0 0zm7 -23l3 -4 3 3 1 1 1 2c2,1 3,3 4,4 2,-1 4,-2 6,-3l0 -15 -29 0 0 23 1 -2 10 -9 0 0z"/>
   <path class="fil0" d="M265 539l-6 0c-1,0 -1,0 -1,-2 -2,-3 -3,-6 -4,-9 -1,-2 -1,-2 1,-4 2,-2 5,-5 7,-8l-10 -10 -1 2 -7 7c0,0 0,0 -1,0l-1 0c-3,-1 -7,-3 -9,-4 -1,0 -2,0 -2,0 -1,-1 -1,-1 -1,-2l0 -12 -13 0 0 12c0,1 -1,2 -1,2 -2,0 -3,1 -4,1 -3,1 -5,2 -7,3 0,0 0,0 -1,0 -1,0 -1,0 -1,0l-7 -7c-1,-1 -1,-1 -1,-2l-10 10c1,0 1,1 2,1l7 7c1,1 1,2 0,3 0,1 0,2 -1,3 -1,2 -2,4 -3,7 -1,1 -1,2 -2,2l-11 0 0 13 11 0c1,0 1,1 2,2 1,3 2,6 4,8 1,4 1,3 -1,5l-2 2c-2,2 -4,4 -5,6l9 9 1 -1 7 -7c1,-1 2,-1 2,-1 1,0 1,0 1,1 3,1 6,3 9,4 4,1 3,0 3,4l0 10 13 0 0 -12c0,-1 1,-2 2,-2 4,-1 7,-2 10,-4 1,0 2,-1 2,-1 1,0 1,1 2,2 2,2 5,5 8,8l10 -10c-1,-1 -2,-2 -2,-2l-7 -7c0,-1 0,-2 0,-2 2,-3 3,-7 5,-11 0,-1 0,-1 1,-1l12 0 0 -13c-5,0 -8,0 -9,0l0 0zm-28 10c0,1 0,1 -1,1 0,1 -1,1 -1,2 0,1 0,1 0,1 0,1 -1,1 -1,1 0,1 0,1 0,1l-1 2c-1,0 -1,0 -2,0l-1 1c0,0 0,1 -1,1 -1,0 -1,1 -1,1 -1,0 -1,0 -1,0 -1,0 -1,1 -2,1l-3 0c-1,0 -2,0 -3,-1 -5,-1 -9,-4 -10,-9 -1,-1 -2,-4 -2,-6l0 -3c0,-1 0,-1 1,-1 0,-1 1,-1 1,-2 0,0 0,0 0,-1 0,-1 1,-1 1,-2 0,0 0,0 0,-1l2 -1c0,-1 0,-1 1,-1l1 -1c0,0 0,0 1,0 1,0 1,-1 1,-1 1,0 1,0 1,-1 1,0 2,0 2,0l5 0c3,0 5,2 7,3 4,3 6,7 6,12 0,2 0,3 0,4l0 0z"/>
   <path class="fil1" d="M222 531zm0 0c1,0 1,0 0,0 1,0 1,0 0,0l-1 0 -205 0 206 0zm-11 6l1 -1c0,0 0,0 -1,1zm-2 2c0,0 1,-1 1,-2 0,1 0,2 -1,2zm7 -6c0,0 1,-1 1,-1 -1,0 -1,1 -1,1zm-3 1l1 -1c0,1 -1,1 -1,1zm5 -2c1,0 1,-1 2,-1 -1,1 -1,1 -2,1zm17 21c0,1 0,1 0,1 0,0 0,0 0,-1zm2 -3c0,1 -1,1 -1,2 0,-1 1,-1 1,-2zm-14 11l1 0 -211 0 210 0zm11 -6l-1 2c0,-1 1,-1 1,-2zm-4 4c-1,0 -2,1 -2,1 0,0 1,0 2,-1zm2 -2l-1 1 1 -1zm-5 3c-1,0 -1,1 -2,1 1,0 1,-1 2,-1zm-20 -15zm13 -13l1 0c-1,-1 -1,-1 -1,0zm-12 11c0,-1 0,-1 1,-2 -1,1 -1,2 -1,2zm26 11c0,1 0,1 0,1 0,0 0,0 0,-1zm-3 4c-1,0 -1,1 -1,1 0,0 0,-1 1,-1zm-3 2c-1,0 -1,0 -1,0 0,0 1,0 1,0zm5 -3c-1,0 -1,0 -2,0 1,0 2,0 2,0zm-7 4l-2 0 2 0zm10 -9c0,1 -1,1 -1,1 0,0 1,0 1,-1zm-19 -20c0,0 0,0 1,0 -1,0 -1,0 -1,0zm-3 1c1,0 1,0 2,0 -1,0 -2,0 -2,0zm23 16c0,1 0,1 -1,1 1,0 1,0 1,-1zm-27 -12c0,0 1,0 1,-1 0,1 -1,1 -1,1zm2 -2c1,-1 1,-1 1,-1 0,0 0,1 -1,1z"/>
   <path class="fil2" d="M165 818l-57 0 -1 5c-1,9 -2,15 -2,22 0,8 1,15 2,21l1 5 58 0 0 -5c1,-6 2,-13 2,-21 0,-7 -1,-13 -2,-22l-1 -5 0 0zm54 94z"/>
   <path class="fil0" d="M162 928l-10 4 7 -12c5,-11 10,-22 14,-35l1 -4 11 0 3 -3 2 3 17 0 0 -11 -31 0 1 -6c0,-5 1,-13 1,-19 0,-7 -1,-15 -1,-20l-1 -6 45 0 1 4c2,8 3,15 3,22 0,7 -1,15 -3,22l-1 4 10 0c3,-8 4,-17 4,-25 0,-55 -44,-99 -99,-99 -54,-1 -98,43 -98,98 0,54 44,98 98,98 9,0 18,-1 27,-3l0 -12 -1 0zm4 -62l-1 5 -57 0 -1 -5c0,-6 -2,-13 -2,-21 0,-7 1,-13 2,-22l1 -5 58 0 0 5c1,9 2,15 2,22 -1,7 -1,15 -2,21l0 0zm-1 -105c20,7 37,21 48,39l4 8 -43 0 -1 -4c-4,-13 -9,-25 -14,-36l-7 -12 13 5 0 0zm-29 -8l4 6c10,13 16,28 21,43l2 6 -54 0 2 -6c4,-15 11,-29 20,-43l5 -6 0 0zm-76 47c11,-18 27,-32 48,-39l13 -4 -7 12c-6,11 -10,22 -14,35l-1 4 -44 0 5 -8 0 0zm-9 67c-1,-8 -3,-16 -3,-22 0,-7 2,-15 3,-23l1 -4 45 0 0 6c-1,5 -1,13 -1,20 0,7 0,14 1,20l0 6 -45 0 -1 -3 0 0zm57 61c-20,-7 -37,-21 -48,-39l-5 -8 44 0 1 4c4,13 8,24 14,35l7 12 -13 -4 0 0zm28 8l-4 -6c-9,-13 -15,-28 -20,-43l-2 -6 54 0 -2 6c-5,15 -12,29 -20,43l-6 6z"/>
   <path class="fil0" d="M264 920l-5 0c-1,0 -2,0 -3,-1 -1,-4 -2,-7 -4,-10 -1,-3 -1,-3 1,-4 3,-3 5,-6 8,-8l-10 -11 -2 2 -7 7c-1,1 -1,1 -1,1l-1 0c-5,-2 -8,-4 -12,-5 -1,0 -2,0 -2,-2l0 -12 -14 0 0 13c0,1 -1,2 -2,2 -4,1 -7,3 -11,4 0,0 -1,1 -1,1 0,0 0,0 -1,-1l-8 -7c0,-1 -1,-1 -1,-1l-10 10c1,0 1,1 2,1l7 7c1,1 1,1 0,3 -2,3 -3,7 -5,10 0,2 -1,2 -2,2l-12 0 0 15 12 0c2,0 2,1 2,2 2,3 3,6 4,9 2,4 2,2 -1,5l-2 3 -5 5c3,3 7,7 10,10 0,0 1,0 1,-1 2,-2 5,-4 7,-7 1,-1 2,-1 2,-1 1,0 1,0 2,1 3,1 6,3 9,4 4,1 3,0 4,4l0 11 14 0 0 -12c0,-2 1,-2 2,-3 4,-1 7,-2 11,-4 1,0 1,-1 2,-1 0,0 0,1 2,2 3,3 5,5 7,8l11 -11 -2 -1 -8 -8c0,0 0,-2 0,-2 2,-3 4,-7 4,-11 0,-1 1,-1 2,-1l12 0 0 -15c-1,-2 -4,-2 -6,-2zm-29 11c0,0 0,0 -1,1 0,1 0,1 0,2 0,0 -1,0 -1,1 0,0 0,1 -1,2 0,0 -1,0 -1,1 0,0 0,1 -1,1 0,1 0,1 -1,1l-1 1c-1,0 -1,0 -1,0 -1,0 -1,1 -2,1 -1,0 -1,0 -1,0 -1,0 -1,1 -2,1l-3 0c-9,0 -16,-8 -16,-16 0,-1 0,-3 0,-3 0,-1 0,-1 1,-1 0,-1 1,-2 1,-2 0,-1 0,-1 0,-1 0,-1 1,-1 1,-2 0,-1 1,-1 1,-1 0,-1 0,-1 1,-1 1,-1 1,-1 1,-1l1 -1c1,0 1,-1 2,-1 0,0 1,0 1,0 1,0 1,0 1,-1 1,0 2,0 2,0l3 0c9,0 16,7 16,16l0 3 0 0z"/>
   <path class="fil1" d="M212 913c0,0 1,0 1,0 0,0 -1,0 -1,0zm7 30l2 0 -208 0 206 0zm5 -1c-1,0 -1,1 -2,1 1,0 1,-1 2,-1zm-21 -15c0,-1 0,-2 1,-3 -1,1 -1,2 -1,3zm24 14c-1,0 -1,1 -2,1 1,0 1,-1 2,-1zm7 -9c0,1 0,1 0,2 0,-1 0,-1 0,-2zm-1 3c0,0 0,1 -1,2 1,-1 1,-2 1,-2zm-19 -23c1,0 2,0 2,0 0,0 -1,0 -2,0zm15 28l-1 1 1 -1zm2 -3c0,1 0,1 -1,1 1,0 1,0 1,-1zm-24 -20c0,0 0,-1 1,-1 -1,0 -1,1 -1,1zm28 11c0,1 0,2 -1,3 1,-1 1,-2 1,-3zm-16 -16l-1 0 -202 0 203 0zm-10 3l1 -1c0,0 0,1 -1,1zm10 -3zm-15 11c0,0 1,-1 1,-2 0,0 -1,1 -1,2zm1 -3c0,-1 1,-1 1,-2 0,1 0,1 -1,2zm8 -7c1,0 1,0 1,-1 0,0 -1,1 -1,1zm3 -1l1 0 -204 0 203 0zm-6 2c1,0 1,-1 2,-1 0,1 -1,1 -2,1zm-2 2c1,0 1,0 1,0 0,0 0,0 -1,0z"/>
   <path class="fil1" d="M232 937c0,0 -1,0 -1,1 0,-1 1,-1 1,-1zm3 -6c0,0 0,0 -1,1 0,-1 0,-1 1,-1zm-31 -7c0,-1 0,-1 1,-1 -1,0 -1,1 -1,1zm1 -3c0,-1 0,-1 0,-1 0,0 0,1 0,1zm1 -2c0,-1 1,-1 1,-2 0,0 -1,1 -1,2zm16 24l-1 0 -205 0 206 0zm12 -9c0,0 -1,0 -1,1 0,-1 1,-1 1,-1zm-4 5c0,1 0,1 -1,1 1,0 1,-1 1,-1zm-5 3c-1,0 -1,0 -1,0 0,0 1,0 1,0zm3 -1c-1,0 -1,0 -1,0 0,0 0,0 1,0z"/>
   <path class="fil0" d="M147 1352l-78 0c-4,0 -7,0 -11,-1 -11,-2 -19,-11 -20,-23 0,-7 0,-15 0,-23l0 -5c0,-6 0,-10 0,-15 1,-4 2,-7 5,-9 2,-1 5,-2 9,-2 5,1 10,2 14,4 2,0 5,1 7,2 3,1 5,2 7,3 5,2 10,1 15,-1 5,-3 8,-7 9,-13 1,-7 0,-14 -4,-18 -6,-6 -12,-8 -20,-6l-11 4c-3,1 -6,2 -9,3 -2,1 -5,2 -9,2 -6,1 -11,-3 -11,-9 -2,-2 -2,-5 -2,-7l0 -32c0,-12 5,-21 15,-26 9,-4 18,-3 23,-2 4,2 9,3 13,4 4,1 7,2 11,3 1,0 3,0 4,0 0,-1 0,-1 -1,-2 0,0 0,-2 -1,-3 -1,-2 -2,-3 -2,-5 -3,-4 -4,-9 -6,-13 -2,-6 -2,-13 -1,-20 4,-11 14,-20 26,-22 9,-1 17,0 23,3 11,5 17,14 18,26 0,7 -1,14 -5,21 -1,2 -2,4 -3,6 -2,3 -3,5 -4,8 0,0 0,1 -1,1l1 0c5,-1 9,-2 15,-4l4 -1c6,-2 13,-3 20,-3 13,1 25,13 26,26 0,8 -2,15 -4,21 0,2 0,3 -1,5 -1,4 -2,9 -3,14 2,-1 4,-2 5,-3l3 -2c6,-3 12,-6 19,-8 9,-1 19,0 26,6 7,5 11,13 12,22 2,10 0,17 -4,24 -5,10 -13,15 -24,15 -8,1 -16,-1 -24,-5 -2,-1 -3,-2 -5,-3 -1,-1 -4,-2 -6,-3 0,0 -1,0 -2,-1 0,5 2,9 3,14l1 4c2,7 4,14 4,22 -1,14 -11,25 -25,26 -7,1 -14,1 -21,1l-5 0c-5,0 -9,0 -15,0zm-22 -11l43 0c6,0 13,0 20,-1 7,0 14,-7 14,-15 0,-7 -2,-12 -4,-19l-1 -4c-2,-6 -3,-12 -3,-19 0,-4 2,-7 3,-8 2,-1 4,-2 9,-1 2,1 4,2 6,2 2,2 4,3 7,4 1,0 2,2 4,2 7,4 12,5 18,4 7,0 13,-3 16,-10 3,-4 4,-10 3,-17 -1,-6 -4,-11 -8,-15 -5,-3 -11,-4 -17,-3 -5,1 -10,3 -15,6l-3 2c-3,1 -5,3 -9,4 -5,2 -9,1 -10,-1 -2,-1 -4,-4 -3,-9 0,-6 1,-12 3,-18 1,-2 1,-3 1,-5 2,-6 4,-12 3,-18 0,-8 -7,-14 -15,-15 -5,0 -11,1 -17,3l-4 1c-6,1 -11,3 -17,4 -2,0 -9,1 -12,-4 -4,-4 -1,-11 1,-13 1,-2 2,-5 4,-8 1,-2 3,-4 3,-6 3,-5 4,-11 4,-16 -1,-8 -4,-13 -11,-16 -5,-3 -10,-3 -17,-2 -9,1 -15,6 -17,14 -1,5 -1,9 0,13l5 12c1,2 2,4 2,5 1,1 1,2 1,3 2,1 2,3 3,6 2,4 0,7 -1,8 -2,1 -4,4 -9,4 -2,0 -5,0 -9,-1 -3,-1 -7,-2 -10,-3 -4,-1 -8,-3 -13,-3 -6,-2 -11,-1 -15,1 -7,3 -10,9 -10,17l0 32c0,1 0,3 1,5l0 0c2,0 5,0 6,-1 3,-1 6,-2 9,-3 4,-1 8,-3 11,-4 12,-4 23,-1 32,8 7,8 9,18 7,29 -2,8 -7,15 -14,19 -7,4 -16,5 -24,2 -3,0 -5,-1 -7,-3 -3,-1 -5,-1 -7,-2 -4,-1 -8,-2 -12,-3l-1 0 0 1c-1,4 -1,8 -1,13l0 5c0,8 0,15 1,23 1,6 5,11 11,13 2,0 5,0 9,0l41 0 15 1zm-76 -55z"/>
   <g>
    <path class="fil0" d="M176 1550c8,1 15,4 23,6 1,0 3,1 3,3 1,1 0,3 -1,4 -1,0 -3,0 -4,0 -4,0 -9,-2 -13,-3 2,6 5,11 6,17 5,22 -6,44 -26,54 -2,1 -3,2 -3,4 0,9 -6,16 -15,18 -1,0 -1,1 -1,1l-6 0c-4,-1 -9,-3 -13,-8 -5,-8 -4,-19 3,-25 8,-7 20,-6 27,1 1,1 1,2 2,3 24,-10 31,-41 17,-61 -1,4 -2,8 -2,13 -1,3 -2,5 -6,4 -3,0 -3,-3 -2,-6l5 -21c1,-1 2,-3 3,-4l3 0zm-33 74c-7,0 -11,5 -12,11 0,6 5,11 11,11 7,0 12,-4 12,-11 0,-5 -5,-11 -11,-11zm80 10c-3,3 -5,3 -8,0 -2,-2 -3,-4 -6,-7 -3,3 -4,5 -6,7 -2,3 -4,3 -7,1 -2,-3 -1,-4 1,-6 2,-2 4,-4 7,-7 -3,-2 -5,-5 -8,-6 -1,-2 -2,-5 0,-6 2,-3 4,-2 6,0 2,3 4,5 7,7 2,-2 4,-4 5,-6 4,-4 5,-3 9,0l0 3c-3,2 -6,5 -10,8 4,3 7,6 10,9l0 3 0 0zm-114 -28c3,3 5,5 7,7 2,2 2,4 1,6 -2,2 -5,1 -6,-1 -3,-2 -4,-4 -7,-7 -3,3 -5,5 -7,7 -2,2 -4,3 -6,0 -2,-2 -1,-4 1,-5 2,-3 4,-4 6,-7 -2,-3 -5,-5 -7,-7 -2,-2 -2,-4 -1,-6 2,-2 4,-2 6,0 2,3 4,5 7,7 2,-2 5,-4 7,-7 2,-1 4,-2 6,0 2,2 1,4 -1,6 -1,3 -3,5 -6,7z"/>
    <path class="fil0" d="M146 1575c3,2 5,4 7,6 2,2 3,4 1,6 -2,2 -4,1 -6,-1 -2,-2 -4,-4 -7,-7 -2,3 -5,5 -6,7 -2,2 -4,3 -6,1 -3,-2 -2,-4 0,-6 3,-2 5,-4 8,-7 -3,-2 -5,-4 -8,-7 -1,-2 -2,-4 0,-6 2,-1 4,-1 6,1 2,2 4,5 7,8 2,-3 4,-6 7,-8 1,-2 4,-2 5,0 2,2 2,4 0,6 -2,2 -5,4 -8,7z"/>
    <path class="fil0" d="M121 1725l-6 0c-9,-6 -9,-11 -2,-19l19 -18 -84 0 0 -149c-4,-1 -7,-1 -11,-2l0 -44c2,0 3,-1 5,-1l223 0c2,0 4,1 5,1l0 44c-3,1 -6,1 -9,2l0 149 -83 0c0,0 0,1 -1,2 6,5 12,11 18,16 7,8 7,13 -1,20l-6 0c-12,-11 -23,-22 -36,-35 -9,11 -20,22 -31,34l0 0zm121 -186l-174 0 0 129 174 0 0 -129zm-185 -11l195 0 0 -17 -195 0 0 17z"/>
   </g>
   <g>
    <path class="fil0" d="M26 1982l16 0 0 15 -16 0 0 -15zm80 -31l16 0 0 15 -16 0 0 -15zm-48 15l16 0 0 16 -16 0 0 -16zm32 16l16 0 0 15 -16 0 0 -15zm-32 15l16 0 0 16 -16 0 0 -16zm48 0l16 0 0 16 -16 0 0 -16zm-32 31l16 0 0 16 -16 0 0 -16zm64 -124c0,-1 0,-1 0,0zm-64 31l16 0 0 16 -16 0 0 -16z"/>
    <path class="fil0" d="M279 2057c-19,-10 -38,-19 -57,-28 -9,-5 -16,-11 -19,-22 0,-2 -1,-4 0,-6 5,-7 7,-16 10,-24 0,-1 1,-2 2,-3 7,-6 9,-18 5,-26 -1,-2 -1,-4 0,-6 1,-6 3,-13 2,-19 -3,-17 -14,-27 -31,-32 -7,-2 -13,-3 -20,-2 -5,0 -10,1 -14,3 -1,0 -1,0 -2,0 -6,3 -12,7 -16,11l0 1 15 0 0 16 -16 0 0 -16 0 0c-5,5 -7,10 -9,16 0,3 -1,6 0,9 0,2 0,4 1,7 1,2 1,5 2,8 0,1 0,2 -1,3l-2 4c-1,5 -1,10 1,15 1,3 3,6 6,9 0,1 1,2 2,2 0,0 0,1 0,1 1,1 1,2 2,4 2,5 4,11 6,16 0,1 0,2 1,3 0,2 1,4 1,6 -1,3 -1,5 -2,7l-7 10c-3,2 -5,4 -8,5l0 0c-3,2 -6,3 -8,4 -5,3 -11,6 -16,9 -3,1 -6,2 -8,4 -3,1 -5,3 -8,4 -5,3 -11,5 -16,8 -1,0 -2,1 -2,1 -2,0 -2,1 -3,2 -1,1 -1,2 -1,3l0 13 215 0 0 -13c-1,-4 -2,-6 -5,-7l0 0zm-157 2l-16 0 0 -16 16 0 0 16zm49 -15l-17 0 0 -16 17 0 0 16zm0 -47l-17 0 0 -15 17 0 0 15 0 0zm0 -46l-17 0 0 -16 17 0 0 16z"/>
   </g>
   <g>
    <path class="fil0" d="M246 2285c-8,-9 -16,-17 -25,-27l-7 7 -152 0c-11,1 -21,9 -24,18 0,2 0,3 0,4l0 122c0,1 0,2 0,3 3,12 14,20 27,20l71 0c17,11 34,22 51,33l9 6 0 -39 20 0c11,-1 20,-9 23,-19 1,-1 1,-2 1,-4l0 -111 5 -5c7,-5 6,-3 1,-8l0 0zm-15 123c0,1 0,2 -1,3 -2,6 -8,11 -15,12l-29 0 0 31c-15,-10 -31,-20 -46,-30 -1,-1 -3,-1 -4,-1l-71 0c-9,0 -16,-5 -18,-14 0,0 0,-1 0,-1l0 -120c0,0 0,-2 0,-2 2,-7 8,-11 15,-12l141 0c-21,22 -42,43 -63,64 -1,1 0,6 2,7 6,8 14,14 21,21 3,3 5,4 8,1 20,-20 39,-39 59,-59l0 99 1 1 0 0zm40 -148c0,7 -9,21 -15,23 -2,0 -5,-1 -6,-2 -8,-7 -15,-14 -22,-22 -1,-1 -2,-4 -1,-6 2,-7 17,-16 24,-15 10,2 20,13 20,22z"/>
    <path class="fil0" d="M117 2391c5,-14 11,-29 17,-44 9,10 19,19 28,29 -13,5 -29,11 -43,17 -1,0 -2,-1 -2,-2l0 0z"/>
   </g>
   <path class="fil0" d="M219 2820l-144 0 0 -173 3 -1 19 0c2,0 4,2 4,3 2,6 7,10 13,10l49 0c6,0 11,-4 13,-10 1,-1 1,-3 4,-3l19 0 0 2 0 17c0,1 0,3 1,3 1,5 5,8 10,7 4,0 8,-5 8,-9l0 -26c0,-7 -6,-13 -14,-13l-47 0 0 -3c-1,-13 -11,-20 -21,-19 -8,0 -19,5 -20,19l0 3 -47 0c-5,0 -8,2 -10,4 -2,2 -4,6 -4,10l0 184c0,7 6,13 13,13l137 0c5,0 9,-2 12,-6 2,-3 2,-7 2,-11l0 -1 0 0zm-82 -208c7,0 13,6 13,13 0,7 -6,13 -13,13 -4,0 -6,-1 -9,-4 -3,-2 -4,-5 -4,-9 0,-7 6,-13 13,-13z"/>
   <path class="fil0" d="M209 2691c0,0 0,0 0,0 -15,0 -29,6 -41,17 -10,10 -16,24 -16,39 0,30 25,55 55,55 16,0 30,-5 41,-16 11,-11 17,-25 17,-40 0,-29 -25,-54 -56,-55zm28 35c-9,18 -18,35 -27,52 -3,6 -11,7 -15,2 -5,-7 -10,-13 -16,-20 -4,-6 -2,-13 5,-14 3,-2 7,0 9,3l7 8c0,0 0,1 0,1 3,-5 6,-10 8,-15 4,-8 8,-15 12,-24 2,-3 6,-5 9,-5 4,1 7,3 8,7 1,2 1,4 0,5l0 0zm-100 -54c-2,1 -4,1 -5,2 1,-1 3,-3 4,-5 -2,1 -4,1 -6,2 -2,-2 -4,-3 -7,-3 -5,0 -9,5 -9,10l0 2c-9,0 -16,-4 -20,-10 -1,1 -1,3 -1,5 0,4 1,7 4,8 -2,0 -3,0 -4,-1 0,5 3,9 7,10 0,0 -2,1 -2,1l-2 0c1,4 5,7 9,7 -4,3 -8,4 -12,4l-2 0c4,3 9,4 14,4 18,0 27,-15 27,-28l0 -1c3,-3 4,-4 5,-7l0 0zm-10 46l-26 0c-4,0 -8,3 -8,8l0 25c0,5 4,8 8,8l26 0c5,0 8,-3 8,-8l0 -25c0,-5 -3,-8 -8,-8l0 0zm2 4l2 0 0 8 -7 0 0 -7 5 0 0 -1zm-21 12c2,-2 4,-3 6,-3 3,0 5,1 6,3 1,1 1,3 1,4 0,4 -3,7 -7,7 -4,0 -8,-3 -8,-7 1,-2 1,-3 2,-4l0 0zm23 17c0,2 -2,4 -4,4l-26 0c-2,0 -4,-2 -4,-4l0 -17 7 0c-1,1 -1,3 -1,4 0,6 5,11 11,11 7,0 12,-5 12,-11 0,-1 -1,-3 -1,-4l6 0 0 17zm-6 30l-7 0 0 -5c0,-2 1,-2 1,-2l6 0 0 -8 -7 0c-8,0 -10,6 -10,9l0 6 -4 0 0 8 4 0 0 22 10 0 0 -22 6 0 1 -8 0 0z"/>
   <g>
    <path class="fil0" d="M75 3166l20 -59 12 0 19 59 -11 0 -5 -16 -20 0 -5 16 -10 0zm25 -48l-7 25 15 0 -8 -25zm63 9l0 -23 10 0 0 62 -10 0 0 -7 0 0c-3,5 -7,7 -14,7 -11,0 -17,-8 -17,-21l0 -4c0,-12 6,-21 17,-21 7,0 11,3 14,7l0 0zm-21 14l0 4c0,9 4,13 10,13 7,0 11,-4 11,-13l0 -4c0,-8 -4,-13 -11,-13 -6,0 -10,5 -10,13zm59 -21c11,0 17,6 17,14l-9 0c-1,-3 -3,-7 -9,-7 -4,0 -7,3 -7,6 0,5 6,6 12,7 8,1 15,4 15,12 0,10 -8,15 -20,15 -11,0 -18,-5 -18,-13l10 0c1,3 4,5 9,5 6,0 9,-2 9,-5 0,-5 -5,-6 -11,-7 -8,-2 -15,-4 -15,-13 -1,-10 8,-14 17,-14l0 0z"/>
    <path class="fil0" d="M254 3039c-7,-8 -15,-16 -23,-25l-4 4c-3,0 -6,-1 -9,-1l-143 0c-17,0 -31,14 -31,31l0 115c0,17 14,31 31,31l143 0c17,0 31,-14 31,-31l0 -111 6 -6c4,-4 4,-2 -1,-7l0 0zm-14 124c0,12 -10,22 -22,22l-143 0c-12,0 -22,-10 -22,-22l0 -115c0,-12 10,-22 22,-22l144 0 -25 26c-2,1 -1,5 1,7 5,7 12,12 19,19 3,3 5,4 8,1 15,-15 15,-15 18,-19l0 103 0 0zm37 -147c0,6 -8,20 -14,21 -2,1 -4,-1 -5,-2 -7,-6 -14,-13 -20,-20 -1,-1 -3,-4 -2,-5 2,-7 16,-15 23,-14 9,1 18,11 18,20z"/>
    <path class="fil0" d="M170 3102c5,-14 10,-28 15,-41 9,9 17,17 26,26 -13,5 -26,11 -40,17 0,-1 -1,-2 -1,-2l0 0z"/>
   </g>
   <g>
    <path class="fil0" d="M163 3730c3,1 4,1 7,2 2,0 3,2 3,4 -3,10 -7,20 -10,30 0,2 -2,2 -6,1 -1,0 -3,-1 -3,-4 2,-10 3,-20 5,-29 0,-2 1,-4 2,-5 1,1 2,1 2,1l0 0zm-22 178c11,8 12,11 9,20 7,5 13,9 20,14 5,3 5,8 -1,11l-17 9c-5,2 -7,1 -10,-2 -9,-10 -18,-19 -30,-25 -2,0 -2,0 -4,1 -7,5 -15,6 -23,3 -18,-5 -30,-17 -34,-36 -3,-9 0,-17 7,-24 6,-7 13,-14 19,-21 8,-10 11,-22 12,-35 0,-8 0,-17 1,-25 1,-10 6,-18 13,-25 4,-5 10,-6 16,-5 12,1 21,5 31,11 28,17 50,40 66,70 3,7 6,14 7,23 0,7 -2,14 -7,19 -9,7 -18,11 -28,12 -8,0 -18,0 -27,1 -8,0 -14,1 -20,4l0 0zm-33 -116c0,4 3,9 5,14 8,16 19,29 30,41 11,11 24,22 38,29 6,3 11,6 18,6 6,1 10,-2 10,-8l0 -5c0,-6 -3,-11 -6,-15 -15,-27 -36,-48 -61,-65 -7,-4 -14,-7 -22,-8 -8,-2 -12,2 -12,11zm74 98c-36,-19 -64,-46 -82,-83l0 3c0,6 0,12 0,17 -1,11 -4,21 -9,31 -1,1 -1,3 -1,4 3,18 19,34 36,38 2,0 5,0 7,-2 3,-1 7,-3 10,-4 9,-3 17,-4 26,-4 5,0 9,0 13,0l0 0zm16 -95c-1,-1 -3,-2 -3,-3 -1,-1 0,-3 0,-4l19 -23c2,-2 4,-2 6,-1 2,2 4,3 5,5 2,2 2,4 0,5 -8,6 -16,13 -23,20 -2,1 -3,1 -4,1zm28 39c-2,0 -3,-1 -4,-4 -1,-2 0,-4 2,-4 10,-3 20,-7 30,-10 2,0 4,0 4,3l2 7c1,2 -1,4 -2,4 -11,1 -22,3 -32,4l0 0z"/>
    <path class="fil0" d="M133 3821c9,-6 23,-5 32,3 9,8 10,22 3,32 -12,-11 -24,-22 -35,-35l0 0z"/>
   </g>
   <path class="fil2" d="M98 3423l-7 24 15 0 -7 -24 -1 0zm51 10c-6,0 -10,5 -10,14l0 3c0,9 4,14 10,14 6,0 10,-5 10,-14l0 -3c0,-8 -4,-14 -10,-14z"/>
   <path class="fil2" d="M197 3545l3 -3 1 -1 1 -1c-2,-2 -2,-5 -3,-7l-13 0 0 -22 13 0c1,-2 1,-4 3,-7l-4 -3 -1 -2 -1 -1 0 -1 -3 -2 3 -3 9 -9 2 -3 3 3 2 1 1 1c1,1 2,3 3,4 3,-1 5,-1 7,-3l0 -12 10 0 0 -63c0,-12 -10,-22 -22,-22l-137 0c-12,0 -22,10 -22,22l0 114c0,13 10,23 22,23l121 0 1 -2 1 -1 0 0zm-84 -74l-5 -15 -19 0 -5 15 -10 0 19 -58 12 0 19 58 -11 0zm55 0l-9 0 0 -7 0 0c-3,5 -7,8 -13,8 -11,0 -17,-8 -17,-22l0 -4c0,-13 6,-21 17,-21 6,0 10,3 13,7l0 0 0 -23 10 0 0 62 -1 0zm10 -13l9 0c1,4 4,6 9,6 6,0 8,-3 8,-6 0,-4 -5,-5 -11,-6 -8,-2 -15,-5 -15,-13 0,-10 9,-14 18,-14 10,0 16,6 16,14l-9 0c0,-3 -2,-6 -8,-6 -4,0 -7,2 -7,6 0,4 6,5 11,6 8,2 14,4 14,13 0,9 -7,14 -18,14 -10,0 -17,-5 -17,-14l0 0zm56 51z"/>
   <path class="fil0" d="M93 3412l-19 59 10 0 5 -16 19 0 5 16 11 0 -20 -59 -11 0zm-2 35l7 -24 1 0 8 24 -16 0zm68 -15c-2,-4 -7,-7 -13,-7 -10,0 -17,9 -17,22l0 4c0,13 6,21 17,21 6,0 11,-2 13,-7l1 0 0 7 9 0 0 -63 -10 0 0 23zm0 18c0,9 -4,14 -10,14 -6,0 -10,-5 -10,-14l0 -3c0,-9 4,-14 10,-14 7,0 11,6 11,14l-1 3zm55 7c0,-8 -7,-11 -15,-13 -5,-1 -11,-1 -11,-6 0,-3 3,-6 8,-6 6,0 7,4 8,7l9 0c0,-9 -6,-14 -17,-14 -9,0 -17,4 -17,14 0,8 6,11 15,12 5,2 11,2 11,7 0,3 -3,6 -9,6 -5,0 -8,-3 -8,-6l-10 0c0,8 6,13 17,13 12,1 19,-4 19,-14l0 0z"/>
   <path class="fil0" d="M193 3549l2 -1 -121 0c-12,0 -22,-10 -22,-23l0 -114c0,-12 10,-22 22,-22l138 0c12,0 22,10 22,22l0 63 8 0 0 -63c0,-17 -13,-31 -30,-31l-138 0c-17,0 -30,14 -30,31l0 114c0,17 13,31 30,31l126 0 -4 -4 -3 -3z"/>
   <path class="fil1" d="M234 3509zm12 17c0,1 -1,1 -1,2 1,-1 1,-1 1,-2zm-2 5l-2 1 2 -1zm1 -2c0,1 0,1 0,1 0,0 0,0 0,-1zm-4 5zm-15 -22l1 -1c-1,0 -1,0 -1,1zm-5 6c0,0 0,-1 0,-1 0,0 0,1 0,1zm-1 5c0,-2 0,-2 1,-3 -1,0 -1,1 -1,3zm4 -9l1 -1c-1,0 -1,0 -1,1zm-2 2c0,0 1,-1 1,-1 0,0 -1,1 -1,1zm5 -6c1,0 1,0 1,0 0,0 0,0 -1,0zm13 24c0,0 0,1 -1,1 0,0 1,0 1,-1zm-6 2l1 0 -222 0 221 0zm0 -27zm7 25c0,0 0,0 0,0 0,0 0,0 0,0 0,0 0,0 0,0zm1 -22c0,-1 0,-1 -1,-1 1,0 1,1 1,1zm-4 23c-1,0 -1,1 -1,1 0,0 0,-1 1,-1zm-10 -25c1,0 1,0 2,-1 0,1 -1,1 -2,1zm3 -1zm-5 2c1,0 1,-1 1,-1 0,1 0,1 -1,1zm-2 2c1,-1 1,0 0,0zm-3 7c0,-1 0,-1 0,0zm0 -3c0,-1 1,-1 1,-1 0,0 -1,1 -1,1zm2 -2c0,-1 0,-1 0,0 0,-1 0,-1 0,0zm23 13c0,0 -1,0 -1,1 0,-1 0,-1 1,-1zm-2 2c0,1 0,1 0,0 0,1 0,1 0,0zm3 -5c0,1 0,1 0,0zm-8 10c-1,0 -1,0 -1,0 0,0 0,0 1,0zm2 -1c-1,0 -1,0 -1,0 0,0 1,0 1,0z"/>
   <g>
    <path class="fil0" d="M526 3963l-15 0c-4,0 -9,-1 -13,-2 -42,-9 -71,-35 -84,-77 -1,-6 -2,-13 -3,-20l0 -14c0,-3 0,-6 1,-9 6,-36 26,-63 59,-80 2,-1 4,-1 6,-2 1,1 1,1 1,2 13,31 27,62 40,94 0,2 1,2 2,3 6,2 11,5 16,7 21,11 42,21 63,32 5,2 9,4 15,7l0 0c0,1 -1,1 -1,2 -16,28 -39,46 -70,54 -6,2 -11,2 -17,3l0 0z"/>
    <g>
     <path class="fil0" d="M533 3742c1,0 3,0 5,1 5,0 9,1 13,2 2,1 4,1 5,1l-18 39 -11 23 -20 -47 -6 -16 7 -2c3,0 5,0 8,-1 2,0 3,0 4,0l13 0 0 0zm1 -12l-15 0c-4,1 -8,1 -13,2 -7,1 -14,3 -20,6 13,32 27,65 41,98 15,-33 30,-64 46,-97 -6,-2 -12,-4 -18,-5l-21 -4zm109 103c-6,-34 -24,-60 -54,-77 -2,-1 -4,-3 -7,-4 -15,32 -30,64 -46,96 32,16 64,32 96,48 2,-5 4,-9 6,-14 3,-9 5,-17 6,-26l0 -14c-1,-3 -1,-6 -1,-9l0 0zm-15 -11c1,4 2,8 3,11l-19 40 -6 -4 22 -47 0 0zm-34 43l-7 -4 31 -62c2,3 4,6 5,9l-29 57zm16 -77l-33 67 -8 -3 35 -71 6 7 0 0zm-30 -3l7 -16c3,2 6,4 8,5l-36 73 -7 -4 28 -58zm47 95l-5 -2 10 -20c-1,7 -3,14 -5,21 0,0 0,1 0,1l0 0z"/>
    </g>
   </g>
   <g id="_2525871477264">
    <path class="fil0" d="M644 3397c0,-10 -6,-17 -17,-17l-197 0c-9,0 -19,7 -19,18l0 169 232 0 0 -3c1,-55 1,-111 1,-167l0 0zm-136 0c4,0 8,4 8,9 0,5 -4,8 -8,8 -5,0 -9,-4 -9,-9 0,-4 3,-8 9,-8zm-35 0c4,0 8,4 8,8 0,5 -4,9 -8,9 -5,0 -9,-3 -9,-8 -1,-5 3,-9 9,-9zm-35 0c4,0 8,4 8,9 0,5 -4,9 -8,8 -5,0 -9,-4 -9,-9 0,-4 4,-8 9,-8zm197 162l-215 0 0 -133 215 0 0 133z"/>
    <path class="fil0" d="M516 3444l-75 0 0 100 75 0 0 -100zm99 0l-88 0 0 47 88 0 0 -47 0 0zm-53 59l-35 0 0 41 35 0 0 -41zm18 41l35 0 0 -41 -35 0 0 41z"/>
   </g>
   <path class="fil2" d="M557 3057l0 14 14 0c-4,-5 -9,-10 -14,-14l0 0zm0 87c5,-4 10,-8 14,-14l-14 0 0 14zm0 -27l21 0c1,-5 2,-11 2,-16 0,-6 -1,-11 -2,-17l-21 0 0 33zm-122 -69l0 2c2,-2 3,-4 4,-7 8,-12 19,-22 31,-30 2,-2 4,-3 6,-4l-2 0c-21,-1 -39,18 -39,39zm49 82c4,6 8,10 14,14l0 -14 -14 0zm27 0l0 21c5,1 11,3 16,3 6,0 12,-2 17,-3l0 -21 -33 0zm0 -46l33 0 0 33 -33 0 0 -33zm33 -13l0 -21c-5,-1 -11,-2 -17,-2 -5,0 -11,1 -16,2l0 21 33 0zm-46 13l-21 0c-1,6 -3,11 -3,17 0,5 2,11 3,16l21 0 0 -33zm-62 68l0 1c0,22 17,40 39,40l1 0c-2,-1 -4,-3 -6,-4 -3,-2 -6,-4 -9,-6 -10,-10 -19,-19 -25,-31zm62 -95c-6,4 -10,9 -14,14l14 0 0 -14 0 0z"/>
   <path class="fil0" d="M436 3050c1,-2 2,-4 3,-7 -1,2 -2,5 -3,7zm-2 4c0,-2 1,-3 2,-5 -1,2 -2,4 -2,5zm181 -10l4 5 -4 -5zm4 5c1,2 2,3 2,5 0,-2 -1,-3 -2,-5z"/>
   <path class="fil0" d="M497 3000c-7,-3 -14,-4 -22,-4 -29,0 -52,23 -52,52 0,8 1,15 4,22 0,0 0,1 0,1l57 0c3,-5 8,-10 14,-14l0 -57c0,0 -1,0 -1,0l0 0zm-27 13c-12,8 -22,18 -31,30 -1,2 -2,5 -3,7 -1,2 -2,3 -2,5 0,-2 1,-3 2,-5l0 -2c0,-21 17,-40 40,-40l1 0c-3,2 -5,3 -7,5zm57 35c6,0 12,1 17,3l0 -54c-5,0 -11,-1 -17,-1 -5,0 -11,1 -16,1l0 54c5,-2 11,-3 16,-3zm101 22c3,-7 4,-14 4,-22 0,-29 -23,-52 -52,-52 -8,0 -15,1 -22,4 0,0 -1,0 -1,0l0 57c5,3 10,8 14,14l57 0c0,-1 0,-1 0,-1l0 0zm-29 -45c-5,-4 -9,-8 -15,-12 -2,-1 -4,-2 -6,-3l1 0c21,0 38,16 39,37 -1,-1 -2,-2 -3,-3 -4,-7 -9,-13 -16,-19l0 0zm-160 18zm182 104c0,2 -1,3 -2,5 1,-2 2,-4 2,-5zm-159 35c-11,-8 -20,-18 -26,-30 6,12 15,21 26,30zm-26 -30c-1,-2 -2,-3 -2,-5 0,2 1,3 2,5zm195 -68l-53 0c1,6 2,11 2,17 0,5 -1,11 -2,16l53 0c1,-5 1,-11 1,-16 0,-6 0,-11 -1,-17l0 0zm-104 69c-5,0 -11,-1 -16,-3l0 54c5,0 11,1 16,1 6,0 12,-1 17,-1l0 -54c-5,2 -11,3 -17,3z"/>
   <path class="fil0" d="M627 3131l-57 0c-3,5 -8,9 -13,13l0 57 2 0c6,2 13,4 20,4 29,0 53,-23 53,-53 -1,-7 -3,-15 -5,-21l0 0zm-9 21c0,22 -18,40 -40,40l0 0c2,-1 4,-2 6,-3 12,-9 23,-19 31,-31 1,-2 2,-4 3,-6l0 0zm-134 -22l-57 0c0,1 0,1 1,1 -3,7 -5,14 -5,22 0,29 23,52 53,52 7,0 15,-1 21,-4 1,0 1,0 1,0l0 -57c-6,-4 -10,-8 -14,-14l0 0zm-9 63c-22,0 -40,-18 -39,-40l0 -1c-1,-2 -2,-3 -2,-5 0,2 1,3 2,5 6,12 15,21 26,30 3,3 5,5 8,7 2,1 4,2 7,3 -1,0 -1,1 -2,1zm3 -109l-54 0c0,6 -1,11 -1,17 0,5 1,11 1,16l54 0c-2,-5 -3,-11 -3,-16 0,-6 1,-11 3,-17l0 0z"/>
   <path class="fil0" d="M462 3182c3,3 5,5 8,7 -3,-3 -5,-4 -8,-7z"/>
   <g id="_2525871475920">
    <path class="fil0" d="M631 2655l-1 -4c0,-3 -2,-4 -5,-5 -10,-4 -21,-8 -32,-12l-63 -22c-1,0 -1,-1 -1,-1l-3 0 -7 2c-4,2 -10,4 -14,6 -25,8 -50,18 -75,26 -3,2 -5,3 -6,7 -2,22 -3,42 -1,60 2,21 6,39 12,56 11,27 27,46 48,60 13,9 26,14 40,16 1,0 1,0 2,0l5 0c1,0 2,0 3,0 2,-1 4,-1 6,-2 30,-7 54,-25 70,-53 9,-16 16,-35 19,-56 4,-22 4,-45 2,-71 1,-3 1,-5 1,-7zm-20 102c-7,21 -18,38 -32,51 -14,13 -31,22 -50,24l-2 0c-3,0 -6,0 -9,-1 -26,-7 -46,-22 -60,-45 -10,-15 -16,-32 -20,-51 -4,-22 -4,-45 -2,-73 1,-4 2,-6 6,-8 17,-6 35,-12 52,-19 11,-3 21,-7 32,-11 1,0 3,0 4,0 20,7 39,14 58,21l28 10c2,0 3,1 4,4 0,7 0,16 1,21l0 4c-1,31 -3,52 -10,73l0 0z"/>
    <path class="fil0" d="M495 2723l0 -1c0,-7 0,-14 0,-20 1,-9 4,-16 11,-22 9,-8 20,-11 32,-6 12,4 19,13 21,25 1,4 1,8 1,11l0 13c1,1 2,1 3,1 2,1 2,2 2,4l0 44c0,6 -4,10 -10,10l-55 0c-5,0 -9,-3 -10,-7 0,-1 -1,-3 -1,-3l0 -43c1,-4 2,-5 6,-6l0 0zm55 1l0 -23c-3,-15 -18,-23 -31,-17 -9,4 -14,10 -14,20l0 19c15,1 30,1 45,1zm-16 41l0 -1c0,-4 -1,-9 -2,-13 0,-1 0,-1 1,-1 2,-3 2,-7 -1,-9 -2,-2 -6,-2 -9,0 -2,2 -3,6 0,9 0,0 0,0 0,1 0,3 -1,6 -1,9 -1,2 -1,4 -2,5l14 0z"/>
   </g>
   <path class="fil0" d="M600 2262l-70 69 -25 -25 -82 81 9 10 73 -73 27 26 78 -79 12 12 11 -44 0 -1 -46 11 13 13 0 0zm3 74l21 0 0 135 -21 0 0 -135zm-53 29l21 0 0 106 -21 0 0 -106z"/>
   <polygon class="fil1" points="538,2358 543,2353 538,2353 "/>
   <path class="fil0" d="M494 2395l21 0 0 76 -21 0 0 -76zm-54 29l21 0 0 47 -21 0 0 -47z"/>
   <path class="fil2" d="M555 1981c0,-1 0,-1 0,0 -1,1 -2,3 -3,5 -10,-4 -19,-3 -27,4 -3,3 -5,4 -6,7l17 0c9,0 17,-7 19,-16l0 0zm-10 -9c1,0 2,0 2,-1 1,-2 3,-3 5,-5 -2,-3 -5,-6 -9,-8 -2,0 -4,-1 -6,-1 3,-11 1,-20 -7,-28 -8,-7 -18,-9 -28,-5 -7,-16 -24,-22 -37,-18 -6,3 -12,6 -16,12 -6,8 -7,17 -5,27 0,0 -1,0 -2,0 -12,2 -22,14 -21,28 1,13 12,24 25,24l60 0c7,-16 23,-26 39,-25z"/>
   <path class="fil2" d="M565 1984c-3,13 -13,22 -25,24l-24 0c0,3 1,6 2,9 -2,1 -5,1 -6,2 -9,3 -14,13 -12,23 2,9 10,16 19,16l89 0c13,0 24,-11 24,-24 2,-13 -8,-26 -21,-27 0,0 -1,0 -1,-1 2,-10 1,-19 -5,-27 -4,-6 -9,-10 -16,-11 -7,-3 -16,-2 -24,3 2,4 2,9 0,13l0 0z"/>
   <path class="fil0" d="M624 1998c-2,0 -2,-1 -2,-2 -1,-21 -17,-39 -37,-41 -9,-1 -17,0 -23,4 -2,-2 -5,-5 -8,-8 -3,-2 -4,-4 -4,-7 -2,-20 -20,-35 -39,-32 -2,0 -2,0 -3,-2 -10,-12 -22,-17 -37,-15 -20,1 -36,20 -37,41 0,1 0,2 -2,2 -15,8 -23,26 -19,42 3,17 18,29 35,29l58 0c-1,2 -2,3 -4,4 -10,7 -15,20 -11,33 3,13 13,22 25,24l93 0c17,0 31,-12 35,-29 3,-17 -5,-35 -20,-43l0 0zm-178 -1c-12,0 -23,-11 -24,-24 -1,-14 8,-26 21,-28 1,0 1,0 2,0 -3,-10 -1,-19 4,-27 4,-6 10,-10 17,-12 12,-4 29,2 37,18 10,-4 19,-2 27,5 9,8 10,17 7,28 2,0 4,1 6,1 4,2 7,5 10,8l-5 5c-1,1 -1,1 -2,1 -17,-2 -33,9 -38,25l-62 0zm162 60l-89 0c-9,0 -17,-7 -18,-16 -2,-10 3,-19 11,-23 2,0 4,-1 6,-1 -1,-4 -1,-7 -1,-10 0,-4 1,-7 3,-11 1,-2 3,-5 5,-6 8,-8 18,-9 28,-5 0,-2 1,-3 2,-5 3,-5 7,-8 11,-10 7,-4 16,-5 23,-3 7,2 12,6 17,12 5,8 7,17 4,26 1,0 1,0 2,1 13,2 22,14 21,27 -1,14 -12,24 -25,24l0 0z"/>
   <path class="fil0" d="M483 2047c0,1 0,1 0,0 -6,6 -11,12 -16,17l-1 1 0 -13 -34 0 0 -9 34 0 0 -12 1 0 16 16c0,0 0,0 0,0l0 0z"/>
   <path class="fil0" d="M432 2018l9 0 0 30 -9 0 0 -30zm122 -101c0,0 0,-1 0,0 6,-6 11,-12 16,-17l1 -1 0 13 33 0 0 9 -33 0 0 13 -1 -1c-5,-4 -10,-10 -16,-16l0 0z"/>
   <polygon class="fil0" points="596,1916 604,1916 604,1947 596,1947 "/>
   <g id="_2525871474352">
    <path class="fil0" d="M411 1686l0 -21c2,-4 3,-8 5,-12 5,-38 10,-76 15,-115 3,-20 17,-34 38,-34 39,0 79,0 119,0 18,0 33,14 35,31 5,33 9,66 13,100 2,7 2,14 5,21 4,11 4,23 1,34 -4,15 -17,23 -34,23l-165 0c-10,0 -19,-4 -25,-12 -3,-5 -5,-10 -7,-15l0 0zm217 -44c0,-2 0,-3 -1,-5 -5,-33 -9,-66 -13,-99 -2,-15 -13,-24 -28,-24l-117 0c-15,0 -26,9 -28,24 -3,23 -6,47 -10,71 -1,11 -3,22 -4,34 8,-6 18,-5 26,-5l148 0c9,-1 18,-1 27,4l0 0zm-101 5l-81 0c-12,0 -22,7 -25,18 -1,4 0,9 0,13 0,16 10,26 27,26l161 0c12,0 22,-7 25,-18 0,-5 0,-9 0,-13 0,-17 -9,-27 -27,-27 -27,1 -53,1 -80,1l0 0z"/>
    <path class="fil0" d="M555 1547c0,5 0,9 -1,13 0,4 -1,6 -5,5 -3,0 -5,-2 -4,-5 1,-7 1,-15 2,-22 0,-3 2,-6 6,-5 8,0 15,1 23,2 3,0 5,2 5,5 0,3 -2,4 -5,4 -3,0 -6,-1 -8,-1 3,8 6,14 7,22 4,19 -3,35 -20,46 -16,12 -34,13 -52,3 -17,-10 -25,-25 -24,-44 1,-12 5,-21 12,-29 3,-2 5,-5 8,-2 3,2 3,5 -1,8 -11,13 -13,30 -5,44 8,14 23,22 40,19 15,-1 29,-14 32,-29 3,-13 0,-24 -10,-34l0 0zm48 114c8,0 14,6 14,14 0,8 -7,15 -14,15 -9,0 -15,-7 -14,-15 -1,-8 5,-14 14,-14zm5 15l0 -2c-2,-1 -4,-2 -6,-3 -3,0 -5,2 -4,5 1,1 3,4 5,4 1,0 3,-3 5,-4l0 0z"/>
   </g>
   <path class="fil0" d="M531 1340l-7 0c-1,0 -1,0 -2,-1 -18,-4 -34,-13 -46,-26 -5,-6 -9,-13 -14,-20 -9,3 -18,7 -24,15 -4,7 -7,14 -8,22 0,3 -2,6 -6,5 -3,0 -4,-3 -4,-6 2,-13 6,-25 17,-33 6,-6 14,-9 21,-14 -2,-6 -3,-12 -5,-19 0,-3 -1,-4 -4,-4l-31 0c-2,0 -5,-2 -7,-3l0 -5c2,-1 5,-2 7,-3 9,0 18,0 27,0l8 0 0 -29c-2,0 -5,-1 -7,-3 -15,-7 -25,-19 -26,-37 0,-3 0,-7 5,-7 4,0 5,3 5,6 0,14 11,26 25,30 2,-4 4,-9 7,-11 7,-5 10,-11 11,-20 2,-11 10,-17 20,-22 2,0 4,-2 4,-4 4,-10 10,-16 19,-20 2,-1 4,-2 6,-3l13 0c1,1 2,2 4,2 10,4 16,10 21,20 1,2 2,4 4,5 9,5 18,12 19,23 2,9 4,14 11,19 3,2 5,7 7,11 14,-4 25,-17 25,-30 0,-1 0,-2 1,-3 1,-1 3,-4 5,-4 1,0 3,3 4,5 0,1 0,3 0,5 -3,18 -14,30 -30,36 -2,1 -4,2 -4,3 0,9 1,17 1,27l34 0c3,0 5,1 8,3l0 4c-3,1 -6,3 -8,3 -10,1 -20,0 -31,0 -2,0 -3,0 -4,3 -1,7 -3,14 -4,21 1,1 3,1 4,2 20,7 31,23 34,43 0,2 -1,5 -2,6 -2,1 -5,1 -6,0 -1,-1 -2,-3 -2,-5 -3,-19 -16,-33 -33,-35 -10,19 -26,33 -46,41 -6,4 -11,6 -16,7l0 0zm-58 -137c-6,3 -8,8 -9,16 -1,12 -2,24 -1,36 2,32 17,56 46,70 4,1 9,3 13,4l0 -102c-10,-1 -19,-3 -28,-5 -10,-3 -17,-9 -21,-19l0 0zm60 24l0 102c3,-1 6,-1 8,-2 21,-9 38,-23 46,-45 7,-22 7,-44 3,-66 0,-5 -3,-10 -8,-12 -5,14 -17,19 -30,21 -6,0 -13,1 -19,2l0 0zm-6 -9c11,-2 21,-3 31,-6 10,-1 14,-8 15,-18 2,-10 -1,-18 -9,-24 -7,-6 -16,-8 -24,-10 -18,-2 -35,-1 -49,10 -8,6 -11,14 -10,24 2,9 6,15 15,18 10,3 21,4 31,6l0 0zm19 -68c-5,-7 -13,-10 -21,-9 -7,1 -14,5 -15,9l36 0z"/>
   <line class="fil2" x1="592" y1="928" x2="423" y2= "887" />
   <path class="fil1" d="M446 911l76 0 -76 0zm163 0c4,0 8,-1 12,-3 -4,2 -8,3 -12,3z"/>
   <path class="fil0" d="M592 928zm50 -54c0,1 0,3 1,4l-1 -4zm-39 66l0 -3 0 3zm-11 11l-2 0 -574 0 576 0zm-3 0c0,0 -1,0 -1,-1 1,1 1,1 1,1zm-7 -5c0,-1 0,-1 0,-1 0,0 0,1 0,1zm19 -13c0,1 1,1 1,1 0,0 -1,0 -1,-1zm-7 -5c0,0 0,0 1,1 0,0 -1,-1 -1,-1zm6 3c0,0 1,1 1,2 -1,-1 -1,-1 -1,-2zm-4 -2c1,0 1,1 1,1 0,0 0,0 -1,-1zm3 1l0 1c0,0 0,-1 0,-1zm-18 14c0,0 0,0 -1,-1 1,1 1,1 1,1zm4 5c0,0 0,-1 -1,-1 1,0 1,1 1,1zm8 -21l-1 0 -576 0 577 0zm-10 20c0,-1 0,-1 0,-2 0,1 0,2 0,2zm20 -13c0,1 0,2 0,2 0,-1 0,-1 0,-2zm-16 15c0,0 0,-1 -1,-1 0,1 1,1 1,1zm16 -8c0,2 -1,3 -2,4 1,-1 2,-2 2,-4zm35 -58l0 -1 0 1z"/>
   <path class="fil0" d="M644 892l0 -4c0,-2 -1,-3 -1,-5l0 -2c0,-1 0,-2 0,-3 0,-1 -1,-2 -1,-4 0,-3 -1,-7 -1,-11l-2 -7 -2 -14 -2 -11 -1 -7 -3 -19 -1 -6c-1,-6 -2,-12 -3,-18 -1,-7 -5,-13 -9,-19 -6,-6 -14,-10 -22,-10l-45 0 0 11 42 0c6,1 10,3 14,7 4,4 6,9 7,13 2,8 3,17 4,25 2,8 3,17 4,25 2,8 3,17 5,25 1,7 2,14 4,22l-4 2c-2,0 -6,3 -7,9 0,2 -2,5 -5,7 -2,1 -4,2 -7,2l-164 0c-6,-1 -10,-5 -11,-9l0 -2 -11 1 0 -2c1,-8 3,-16 4,-24 1,-8 3,-17 4,-25 1,-8 3,-17 4,-25 2,-9 3,-17 5,-26 0,-4 1,-8 3,-11 5,-8 12,-13 21,-13l41 0 0 -11 -41 0c-13,0 -24,6 -31,19 -2,5 -4,10 -4,14 -1,7 -3,12 -3,19l-1 7 -3 13 -2 13 -1 5 -4 20 -4 23 0 0 0 2 0 63 0 2c0,1 1,2 1,3 3,10 10,18 20,22 4,2 8,2 14,2l162 0c11,0 21,-4 27,-12 5,-6 8,-13 8,-22l0 -40 2 -14zm-11 13l0 40c0,6 -2,11 -5,15 -5,5 -11,8 -18,8l-163 0c-3,0 -6,-1 -9,-2 -7,-3 -11,-8 -14,-15 0,-1 0,-2 0,-3l0 -58c0,1 0,2 0,2 2,10 11,18 21,19l165 0c4,0 8,-1 11,-3 1,-1 3,-1 4,-2 4,-4 7,-8 9,-14 0,-1 0,-1 0,-1l0 1c-1,4 -1,9 -1,13l0 0zm5 -21l0 -1 0 1zm-116 27l86 0 -86 0zm-27 -78l-13 0 -454 0 467 0zm78 0l-13 0 -533 0 546 0z"/>
   <path class="fil0" d="M572 833l-26 0c-1,0 -1,0 -1,-1l0 -74 -5 0 0 74c0,1 0,3 1,5 -1,-2 -1,-4 -1,-5l0 -74 5 0 0 -12 -35 0 0 86c0,1 0,1 -1,1l-29 0c0,0 0,1 1,1 15,15 30,30 45,44l1 1c0,0 0,0 0,-1 16,-14 31,-29 45,-45 1,1 2,1 2,0l-2 0zm-50 -70l0 -1 0 1z"/>
   <path class="fil1" d="M495 833l14 0 -508 0 494 0zm65 0l-14 0 -517 0 531 0z"/>
   <path class="fil0" d="M592 928l-3 0 -572 0 575 0zm7 3c1,0 1,0 1,0 0,0 -1,0 -1,0zm-16 1c2,-2 4,-3 6,-3 -2,0 -4,1 -6,3zm-1 13c0,-1 -1,-1 -1,-1 0,0 1,1 1,1zm15 -15c1,0 1,0 2,0 -1,0 -2,0 -2,0zm4 3l0 0 0 0zm-11 18l-1 0c1,0 1,0 1,0zm3 -23l1 0 -581 0 580 0zm2 1c1,0 1,0 1,1 0,-1 0,-1 -1,-1zm-11 19c0,0 0,0 0,0 0,0 0,0 0,0zm18 -14l1 1c0,0 -1,0 -1,-1zm-19 12l-1 0c0,0 0,0 1,0zm20 -9c0,0 0,0 0,0 0,0 0,0 0,0zm-15 14c-1,-1 0,0 0,0zm-7 -16c-1,2 -1,3 -1,5 0,1 0,2 0,4 0,-2 0,-3 0,-4 0,-2 0,-3 1,-5zm5 14c0,0 0,0 0,0 0,0 0,0 0,0zm6 -15c-4,0 -6,3 -6,6 0,3 3,5 6,5 1,0 2,0 4,-1 1,-2 1,-3 1,-4 1,-3 -2,-6 -5,-6l0 -6 0 6z"/>
   <path class="fil0" d="M603 937c0,-1 0,-2 0,-2 0,0 0,-1 -1,-1 0,0 -1,0 -1,-1l0 0c0,-1 -1,-1 -1,-2 0,0 0,0 -1,0l0 -1c-1,0 -1,0 -2,0 0,0 0,-1 -1,-1 0,0 0,0 -1,-1 -1,0 -1,0 -1,0l-2 0 0 6c3,0 5,2 5,6 0,1 0,2 -1,4 -2,1 -3,1 -4,1 -4,0 -6,-2 -6,-5 0,-3 3,-6 6,-6l0 -6 -3 0c-2,0 -4,2 -6,3 -1,1 -1,2 -2,3 -1,1 -1,3 -1,5 0,1 0,2 0,3 0,1 0,1 1,2 0,0 1,0 1,1 0,0 0,0 0,1l1 0c0,1 0,1 0,2l1 0 1 1 1 1c0,0 0,1 1,1l0 0c1,0 2,0 2,0l2 0c4,0 8,-2 10,-5 0,-1 1,-2 2,-4l0 -2c0,-1 0,-2 0,-3 0,0 0,0 0,0l0 0z"/>
   <g id="_2525871469872">
    <path class="fil0" d="M644 394l0 191c0,1 -1,1 -1,1 -2,10 -8,17 -18,20 -1,0 -1,0 -3,0l-191 0c0,0 -1,0 -1,0 -10,-3 -16,-8 -19,-17 -1,-1 -1,-2 -1,-4l0 -191c0,-1 0,-1 0,-1 3,-10 8,-15 17,-19 1,0 3,0 4,-1l191 0c0,0 1,1 2,1 9,2 15,7 18,16 1,1 1,3 2,4l0 0zm-223 96l0 89c0,3 0,5 0,7 2,7 8,10 16,10l181 0c8,0 13,-4 16,-10 0,-2 0,-4 0,-7l0 -180c0,-7 -2,-12 -9,-15 -2,-1 -5,-1 -8,-1l-181 0c-9,0 -16,6 -16,16 1,29 1,60 1,91l0 0z"/>
    <path class="fil0" d="M465 417l0 -10c0,-3 1,-5 4,-5 3,0 5,2 5,5l0 10c8,1 15,6 20,13 3,5 4,11 4,18 0,11 -8,23 -24,26l0 98c0,3 -2,6 -5,6 -3,0 -4,-2 -4,-5l0 -97c-16,-5 -25,-14 -24,-31 0,-15 9,-24 24,-28zm4 48c11,0 20,-9 20,-19 0,-12 -11,-20 -20,-19 -10,0 -19,8 -18,19 -1,10 8,19 18,19zm112 39c-17,-6 -24,-16 -24,-30 0,-11 7,-24 24,-28l0 -38c0,-1 0,-2 1,-3 0,-2 2,-3 4,-3 3,0 4,1 5,4 1,1 1,2 1,3l0 37c16,6 24,15 24,30 0,13 -8,23 -24,28l0 68c-1,3 -3,4 -5,4 -2,0 -5,-1 -5,-4l0 -66c-1,0 -1,-1 -1,-2zm5 -10c10,0 19,-9 19,-19 0,-12 -10,-20 -20,-19 -10,0 -18,9 -18,19 -1,10 8,19 19,19l0 0zm-54 10c16,5 24,15 25,29 0,14 -8,23 -25,29l0 9c0,4 -2,6 -5,6 -2,0 -4,-2 -5,-6l0 -9c-16,-4 -25,-14 -24,-30 1,-15 10,-24 24,-28l0 -96c0,-4 2,-5 5,-5 3,0 5,2 5,6l0 95 0 0zm-5 49c12,0 20,-9 20,-20 0,-12 -10,-20 -20,-19 -9,1 -18,9 -18,20 -1,10 8,19 18,19l0 0z"/>
   </g>
   <path class="fil0" d="M427 55c0,-10 8,-15 15,-15l135 0 10 -10 -154 0c-8,-1 -16,5 -16,15l0 147 10 0 0 -137z"/>
   <polygon class="fil1" points="632,206 632,67 "/>
   <path class="fil0" d="M623 76l-10 10 -3 3 15 0 0 115 -181 0 0 -115c32,0 64,0 95,0 1,-5 2,-11 5,-17l23 -23 -115 0c-7,0 -15,5 -15,16l0 147 195 0 0 -145 -9 9zm-106 -12c4,0 8,3 8,7 0,4 -4,8 -8,8 -4,0 -8,-4 -8,-8 0,-4 4,-7 8,-7zm-29 0c4,0 7,2 7,7 0,4 -3,8 -7,8 -4,0 -8,-3 -8,-8 0,-4 4,-7 8,-7zm-29 0c4,0 7,3 7,7 0,4 -3,8 -7,8 -4,0 -8,-4 -8,-8 0,-4 3,-7 8,-7z"/>
   <polygon class="fil0" points="458,192 522,192 522,105 458,105 "/>
   <polygon class="fil1" points="534,104 534,110 536,104 "/>
   <path class="fil0" d="M557 122l-24 7 0 16 77 0 0 -40 -16 0 -9 10c-12,3 -17,3 -28,7zm-24 70l35 0 0 -35 -35 0 0 35zm41 0l35 0 0 -35 -35 0 0 35zm51 -136c-1,-1 -1,-2 -3,-2 -1,-2 -2,-3 -4,-5 -1,-2 -4,-4 -5,-6l-4 -4c-3,-3 -6,-6 -9,-10l-1 0 0 0c-5,4 -8,7 -10,10l-10 10 -21 20c-1,2 0,7 2,9 3,4 7,8 11,11 4,3 7,7 10,10 3,2 5,3 9,0l10 -10 13 -13 10 -10 2 -2c5,-6 5,-3 0,-8l0 0zm4 -48c-7,-2 -22,8 -25,15 0,2 1,5 3,6 7,8 14,15 22,22 2,1 4,3 6,3 6,-2 15,-16 15,-24 0,-9 -11,-21 -21,-22zm-51 96c-5,-5 -10,-10 -15,-14 -4,-4 -8,-8 -12,-12 -1,4 -3,8 -4,12 -1,5 -3,10 -4,14 -2,5 -3,10 -6,15l3 2c15,-6 26,-9 40,-14l-2 -3 0 0z"/>
   <g id="_2525871468720">
    <path class="fil0" d="M271 97c-6,6 -12,11 -18,16 -2,2 -3,1 -4,-1 -2,-2 -4,-4 -7,-6 -1,-1 -1,-1 -2,0 -3,2 -5,5 -7,6 -3,3 -3,3 -5,0 -2,-2 -5,-4 -7,-6 -1,-1 -2,-1 -3,0l-7 7c-2,1 -3,2 -4,0 -2,-2 -4,-4 -6,-6 -1,-2 -2,-2 -3,0l-7 7c-2,1 -3,1 -4,0 -2,-3 -5,-5 -7,-7 -2,-2 -2,-2 -3,0 -3,1 -5,3 -7,5 -2,3 -4,3 -7,3 -2,0 -3,0 -4,2 -14,29 -54,33 -73,7 -21,-27 -5,-67 28,-72 18,-3 37,7 45,24 1,2 2,3 4,3l88 0c1,0 3,0 5,1 6,6 12,10 17,15 -2,0 -2,1 -2,2zm-155 -1c0,-9 -6,-16 -15,-15 -7,0 -14,7 -14,15 0,8 7,15 15,14 8,1 14,-6 14,-14z"/>
    <path class="fil0" d="M38 88c1,-5 2,-10 3,-15 9,-32 30,-51 61,-58 25,-6 48,0 68,16 11,9 19,21 25,35 0,1 0,2 0,3l-7 0c-4,1 -7,-1 -9,-5 -11,-21 -29,-34 -53,-37 -36,-5 -69,21 -75,58 -3,22 3,42 18,58 11,13 26,21 43,23 29,2 56,-14 69,-41 0,-1 1,-2 3,-2l11 0c0,2 -1,4 -1,5 -12,25 -30,42 -56,49 -24,5 -45,1 -65,-13 -16,-11 -28,-27 -33,-46 -1,-5 -2,-10 -3,-14 1,-6 1,-11 1,-16l0 0zm205 124c0,4 -3,8 -8,10 -5,2 -10,1 -14,-2 -12,-13 -25,-25 -36,-38 -5,-5 -5,-13 0,-18 5,-5 13,-5 18,0 12,12 24,24 36,36 3,3 5,6 4,12l0 0zm-54 -58c-1,2 -1,3 -2,3 -2,3 -5,6 -7,9 -2,1 -5,1 -6,0 -1,-2 -1,-4 0,-6 3,-3 6,-6 8,-8 2,0 3,-1 5,0 0,0 1,1 2,2l0 0z"/>
   </g>
   <path class="fil0" d="M272 3516l-5 0c-1,0 -2,-1 -2,-2 -1,-3 -2,-6 -3,-8 -1,-2 -1,-2 0,-4 3,-2 5,-5 7,-6l-8 -9 -2 2 -6 6c-1,0 -1,0 -1,0l-1 0c-4,-2 -7,-3 -10,-4 -1,-1 -2,-1 -2,-2l0 -10 -12 0 0 10c0,1 -1,2 -1,2 -4,1 -7,2 -10,4 0,0 -1,1 -1,1 -1,0 -1,0 -1,-1l-7 -6c0,-1 -1,-1 -1,-1l-8 8c1,0 1,1 1,1l6 6c1,1 1,1 1,2 -2,3 -3,6 -4,9 -1,2 -2,2 -2,2l-11 0 0 12 11 0c2,0 2,0 2,2 1,2 1,5 3,7 1,3 1,2 -1,5l-2 2 -4 4c2,3 5,6 8,9 0,-1 1,-1 1,-1 2,-2 5,-4 6,-7 1,0 1,0 2,0 1,0 1,0 2,0 2,2 5,3 8,4 3,1 2,0 3,3l0 10 12 0 0 -11c0,-1 1,-2 2,-2 3,-1 6,-1 9,-3 1,-1 1,-1 1,-1l2 2c2,2 5,4 7,7l8 -9 -1 -2 -7 -6c0,-1 0,-2 0,-2 1,-3 3,-7 4,-10 0,-1 0,-1 1,-1l11 0 0 -12 -5 0zm-25 9c0,0 0,0 -1,1 0,1 -1,1 -1,2 0,0 0,0 0,1 0,1 -1,1 -1,2 0,0 -1,0 -1,1 -1,0 -1,1 -1,1 0,-1 0,-1 -1,-1l-1 1c0,0 0,1 -1,1 -1,0 -1,0 -2,0 0,0 0,0 -1,1 -1,0 -1,0 -2,0l-3 0c-8,0 -14,-6 -14,-14 0,-1 0,-1 1,-2 0,-1 0,-1 1,-1 0,-1 0,-1 0,-2 0,0 1,0 1,-1 0,-1 0,-1 1,-2 0,0 0,0 0,-1 1,-1 1,-1 2,-1 0,-1 0,-1 1,-1l1 -1c1,0 1,0 1,0 1,0 1,-1 2,-1 0,0 1,0 1,-1 1,0 1,0 2,0l3 0c7,0 13,6 13,14 0,2 0,3 0,4l0 0zm697 -3292l-160 0 0 -17c0,-13 10,-23 23,-23l113 0c13,0 24,10 24,23l0 17zm-127 -67l7 0 0 27 -7 0 0 -27zm87 0l6 0 0 27 -6 0 0 -27z"/>
   <path class="fil2 str0" d="M960 65l22 26c4,6 12,9 18,5 5,-3 8,-11 4,-18l-24 -64"/>
   <g>
    <path class="fil0" d="M962 6c4,0 8,2 11,4 8,9 4,21 -1,30l-16 24 -61 91c-9,13 -22,15 -29,15 -5,0 -10,-2 -15,-3 -6,-2 -13,-7 -20,-14 -5,-4 -10,-11 -14,-21 -7,-16 -3,-34 12,-44l115 -76c1,-2 3,-3 5,-3 5,-3 9,-3 13,-3l0 0zm0 -6c-5,0 -10,1 -15,3 -2,2 -4,3 -6,4l-115 77c-17,12 -22,33 -15,51 4,10 11,19 15,23 5,4 13,12 23,15 5,2 11,3 17,3 13,0 26,-5 34,-17l61 -92 16 -23c8,-12 10,-27 0,-38 -4,-4 -10,-6 -15,-6l0 0zm35 98c-11,0 -20,9 -20,20l41 0c-1,-11 -10,-20 -21,-20l0 0z"/>
   </g>
   <path class="fil0" d="M977 118l6 0 0 13 -6 0 0 -13zm34 0l6 0 0 13 -6 0 0 -13z"/>
   <path class="fil3" d="M817 460zm167 0l0 3 0 -3z"/>
   <g>
    <path class="fil0" d="M972 469l0 88c0,3 -2,5 -5,5l-134 0c-2,0 -5,-2 -5,-5l0 -88 144 0 0 0zm12 -12l-166 0 0 100c0,9 7,16 17,16l133 0c9,0 17,-7 17,-16l0 -98c-1,0 -1,-1 -1,-2z"/>
   </g>
   <ellipse class="fil0" cx="900" cy="573" rx="25" ry="33"/>
   <path class="fil0" d="M905 389l-9 0 0 29 9 0 0 -29zm-88 71l-25 0c-5,0 -8,4 -8,9l0 31c0,1 0,2 2,2l5 0c0,0 2,-1 2,-2l0 -30c0,-1 0,-2 1,-2l24 0 0 -8 -1 0zm192 0l-25 0 0 9 23 0c1,0 2,0 2,1l0 31c0,0 0,1 2,1l5 0c0,0 2,0 2,-1l0 -32c-1,-4 -4,-9 -9,-9l0 0z"/>
   <circle class="fil0" cx="859" cy="407" r="8"/>
   <circle class="fil0" cx="942" cy="407" r="8"/>
   <g>
    <path class="fil0" d="M945 385c11,0 21,9 21,21l0 3c0,12 -10,21 -21,21l-95 0c-11,0 -21,-9 -21,-21l0 -3c0,-12 10,-21 21,-21l95 0 0 0zm0 -12l-95 0c-18,0 -32,15 -32,33l0 3c0,18 14,33 32,33l95 0c18,0 32,-15 32,-33l0 -3c0,-18 -14,-33 -32,-33l0 0zm18 472c-2,-1 -4,-1 -6,-1l-104 0c-4,0 -9,0 -14,1 -7,0 -11,6 -11,13 1,7 7,12 14,12l94 0c8,0 16,0 25,-1 6,-1 11,-6 11,-12 1,-6 -3,-11 -9,-12l0 0zm-3 13c-1,1 -2,0 -2,0l-116 0c-1,0 -2,-1 -2,-2 0,0 1,-2 2,-2 0,-1 1,0 3,0l115 0c1,0 2,2 2,2 0,1 -2,2 -2,2l0 0z"/>
   </g>
   <polygon class="fil2" points="901,924 881,924 49,924 0,924 "/>
   <path class="fil0" d="M817 896c1,0 1,3 2,4 0,9 0,19 2,28 4,28 28,50 57,51 15,0 30,0 45,0 28,-1 53,-22 57,-48 1,-10 1,-20 2,-31 0,-1 1,-4 2,-5 2,-2 3,-3 4,-5l-175 0c1,2 2,4 4,6zm58 75c-1,-11 7,-25 17,-29 6,-3 11,-3 17,0 12,6 15,17 18,29l-52 0zm91 -66c0,-7 0,-7 8,-6 -1,17 2,34 -9,49 -7,10 -17,17 -30,21 -2,-7 -5,-14 -7,-22 2,1 5,1 8,1 10,2 19,-3 23,-11 6,-10 6,-21 7,-32l0 0zm-70 -7c0,3 -1,8 4,8 5,0 5,-5 5,-8l52 0c-1,13 0,25 -6,37 -3,5 -7,7 -13,6 -9,-2 -18,-2 -26,-6 -8,-5 -17,-4 -25,0 -4,2 -8,3 -13,4 -3,1 -7,2 -11,2 -7,1 -12,-2 -16,-8 -3,-8 -4,-17 -5,-26 0,-2 0,-5 0,-9l54 0zm-69 1c8,-1 8,-1 9,6 0,9 1,20 5,29 5,12 13,17 27,14 2,0 4,0 6,-1 -3,7 -6,14 -8,22 -4,-2 -9,-4 -13,-6 -15,-10 -24,-25 -24,-43 0,-6 -1,-12 -1,-18 -1,-1 -1,-2 -1,-3l0 0z"/>
   <path class="fil0" d="M881 924l39 0c3,0 6,-1 6,-4 0,-3 -3,-4 -6,-4l-39 0c-3,0 -5,0 -5,3 0,4 2,5 5,5l0 0z"/>
   <path class="fil2" d="M828 824c-4,0 -4,0 -4,4l0 61 153 0 0 -65 -149 0zm71 -68c-39,1 -67,30 -73,58l149 0c-6,-30 -37,-59 -76,-58l0 0z"/>
   <path class="fil0" d="M986 812c-12,-49 -65,-78 -114,-61 -33,11 -58,42 -58,75 -1,21 0,43 0,65 0,5 4,8 9,8l155 0c7,0 10,-3 10,-10l0 -49c0,-9 0,-19 -2,-28l0 0zm-87 -56c40,0 70,28 76,58l-149 0c5,-28 34,-57 73,-58l0 0zm78 133l-153 0 0 -61c0,-4 0,-4 4,-4l149 0 0 65z"/>
   <path class="fil0" d="M959 861l-116 0c-3,0 -5,-2 -5,-5 0,-3 2,-5 5,-5l116 0c3,0 6,2 6,5 0,3 -3,5 -6,5z"/>
   <g>
    <path class="fil0" d="M833 1122c-1,0 -2,1 -4,1 -6,1 -11,5 -14,11 -3,3 -4,7 -4,11l0 181c0,1 0,2 0,3 2,7 6,11 11,15 4,2 8,3 12,4l164 0 0 -227 -164 0c0,1 -1,1 -1,1zm152 191l0 22 -147 0c-7,0 -12,-3 -13,-9 -1,-4 0,-8 2,-11 2,-2 6,-4 9,-5l150 0 0 3 -1 0zm-84 -178l85 0 0 162 -148 0c-4,0 -7,0 -10,1l-4 0 0 -150c0,-6 4,-11 9,-13 1,0 3,0 5,0 20,0 41,0 63,0l0 0z"/>
    <polygon class="fil0" points="858,1170 959,1170 959,1184 858,1184 "/>
   </g>
   <g>
    <path class="fil0" d="M959 2273l0 36c-23,2 -41,22 -41,46 0,23 18,43 41,46l0 35 -163 0 0 -163 163 0 0 0zm11 -12l-186 0 0 187 186 0 0 -59c-1,1 -4,1 -5,1 -20,0 -35,-16 -35,-35 0,-20 15,-35 35,-35 1,0 4,0 5,0l0 -59z"/>
   </g>
   <path class="fil0" d="M807 2395l70 0 0 12 -70 0 0 -12zm0 18l47 0 0 12 -47 0 0 -12z"/>
   <path class="fil2" d="M959 2355c0,11 -9,21 -21,22 6,7 13,12 21,12l11 0 0 26c21,-12 35,-35 35,-60 0,-25 -14,-49 -35,-61l0 26 -11 0c-9,0 -16,5 -21,12 11,1 21,10 21,23l0 0z"/>
   <path class="fil0" d="M959 2276l0 33c-18,0 -31,12 -37,26 4,-3 8,-4 13,-4l3 0c5,-6 12,-11 21,-11l11 0 0 -27c21,13 35,36 35,61 0,25 -14,48 -35,61l0 -27 -11 0c-7,0 -15,-4 -21,-11 -1,0 -1,0 -3,0 -4,0 -9,-1 -12,-4 7,15 21,27 36,27l0 32c34,-10 58,-41 58,-78 0,-37 -24,-68 -58,-78z"/>
   <path class="fil0" d="M938 2377c12,-1 21,-11 21,-22 0,-13 -10,-22 -21,-24 -5,7 -8,16 -8,24 0,8 3,16 8,22z"/>
   <path class="fil0" d="M938 2377c-5,-6 -8,-14 -8,-22 0,-7 3,-17 8,-24l-3 0c-4,0 -9,2 -13,4 -3,7 -4,13 -4,20 0,7 2,13 5,19 3,2 8,4 12,4 2,0 2,0 3,-1l0 0z"/>
   <polygon class="fil2 str0" points="796,2996 1005,2996 1005,3205 796,3205 "/>
   <path class="fil2 str1" d="M838 2996l0 209m41 -209l0 209m45 -209l0 209m41 -209l0 209m40 -138l-209 0m209 28l-209 0m209 90l-209 0m209 -29l-209 0m152 29l-98 0c-19,0 -35,-16 -35,-35l0 -98c0,-20 16,-35 35,-35l98 0c19,0 35,15 35,35l0 98c0,19 -16,35 -35,35z"/>
   <circle class="fil2 str1" cx="899" cy="3101" r="84"/>
   <circle class="fil2 str1" cx="899" cy="3101" r="42"/>
   <path class="fil0" d="M906 3173l0 -29 12 0 0 -44 -34 0 0 44 14 0 0 30 -65 0 0 -29 12 0 0 -45 -13 0 0 -30 14 0 0 -3c0,-6 1,-11 3,-16 5,-9 12,-15 23,-19 6,-1 13,-2 20,-2 2,0 5,0 7,1l4 0 3 0 0 31 -15 0c-1,0 -2,1 -3,1 -2,1 -3,3 -3,4l0 3 73 0 0 74 12 0 0 30 -64 0 0 -1z"/>
   <g>
    <path class="fil1" d="M891 3032l10 0c1,0 1,0 2,1l0 26 -12 0c-2,0 -3,0 -5,1 -2,1 -4,3 -4,6l0 6 73 0 0 74 12 0 0 24 -58 0 0 -23 12 0 0 -50 -39 0 0 50 14 0 0 24 -60 0 0 -24 13 0 0 -50 -13 0 0 -24 13 0 0 -6c0,-5 1,-11 4,-15 4,-10 12,-14 21,-17 5,-2 11,-3 17,-3l0 0zm0 -5c-7,0 -14,1 -20,2 -12,4 -20,10 -25,20 -2,6 -4,11 -4,18l-13 0 0 36 13 0 0 39 -13 0 0 35 71 0 0 -36 -14 0 0 -38 28 0 0 38 -12 0 0 35 70 0 0 -35 -13 0 0 -74 -72 0c0,-1 1,-1 1,-2 1,0 2,-1 3,-1l18 0 0 -36 -5 -1 -5 0c-3,0 -6,0 -8,0l0 0z"/>
   </g>
   <path class="fil0" d="M937 3065c-10,0 -18,-9 -18,-19 0,-10 8,-18 18,-18 5,0 10,1 14,6 3,3 5,8 5,13 0,10 -9,18 -19,18l0 0z"/>
   <g>
    <path class="fil1" d="M937 3031c9,0 16,7 16,15 0,9 -7,16 -16,16 -9,0 -16,-7 -16,-16 0,-8 7,-15 16,-15l0 0zm0 -6c-11,0 -21,10 -21,21 0,12 9,22 21,22 12,0 22,-10 22,-22 0,-5 -3,-11 -7,-15 -4,-4 -9,-6 -15,-6l0 0z"/>
   </g>
   <g>
    <path class="fil0" d="M826 3810c-3,-1 -7,0 -9,3 -2,3 0,7 2,9 3,1 7,0 9,-3 2,-3 1,-7 -2,-9z"/>
    <path class="fil0" d="M1017 3846c-1,-3 -2,-6 -3,-8l-13 -35c0,-1 -1,-3 -1,-4l-3 2c-3,3 -6,5 -10,8l-6 6c-6,5 -12,11 -19,16 0,0 -1,1 -1,2 -1,3 -2,7 -3,10 0,1 0,2 -1,3 -8,28 -15,56 -22,84 -2,-16 -4,-32 -4,-35 0,-1 0,-2 -1,-3 -2,0 -3,0 -4,1l0 -3c0,-12 5,-22 12,-32 5,-6 10,-11 15,-17 1,-1 2,-1 0,-2 -2,-4 -5,-8 -7,-13 -14,-24 -26,-49 -39,-74l-5 -10c0,0 0,1 -1,1 -5,10 -9,20 -14,29 -12,23 -23,46 -37,68 0,0 0,1 1,1 3,4 7,9 11,13 6,7 11,14 15,23 1,5 2,10 2,16 -1,0 -2,0 -4,0 0,0 0,0 -1,1 0,3 -3,18 -4,33 -5,-19 -10,-37 -15,-56 -6,-23 -12,-46 -18,-69 -1,-3 -2,-4 -4,-6l-4 0c-14,3 -27,7 -40,11 -4,1 -5,2 -3,5 5,21 10,41 16,61l19 72c1,2 1,5 3,8l168 0c1,-3 1,-6 2,-8 8,-33 17,-64 25,-96l0 -1c-2,-1 -2,-1 -2,-2l0 0zm-44 -16c1,-1 2,-2 3,-3 1,-1 3,-1 3,-3 2,-2 5,-4 8,-6 1,-1 1,-1 3,-1 1,1 3,1 4,2 2,0 3,0 4,1 1,0 2,0 2,2 2,5 4,10 6,15l2 6 -39 -10 4 -3 0 0zm-66 8c2,2 2,6 0,8 -2,2 -6,2 -8,0 -3,-2 -3,-6 0,-8 2,-2 6,-2 8,0zm-34 19c-4,-6 -9,-11 -13,-17l-2 -1c16,-24 28,-50 41,-75l0 65c0,1 0,1 -1,1 -6,3 -9,11 -6,17 3,7 11,9 17,5 4,-3 6,-7 5,-12 0,-4 -3,-8 -7,-10l-1 0c0,0 0,0 0,0l0 -66c7,13 13,25 20,38 6,13 14,25 21,38 -2,2 -5,4 -7,7 -6,7 -12,14 -16,23 -3,7 -4,13 -5,20l0 1 -33 0c0,-2 -1,-4 -1,-6 -1,-10 -6,-20 -12,-28zm-34 86c0,0 -1,-1 -1,-1 -2,1 -3,1 -5,1l-6 0c-1,-3 -2,-6 -2,-9 3,-1 7,-2 11,-3 -1,-2 -1,-4 -2,-6 -3,1 -8,2 -11,3 -1,-4 -2,-8 -3,-11 4,-2 8,-2 12,-3 -1,-3 -1,-4 -2,-7 -4,1 -8,3 -11,4 -1,-4 -2,-8 -3,-11 3,-1 8,-2 11,-3 -1,-3 -1,-4 -2,-7 -3,1 -7,3 -11,4 -1,-4 -2,-8 -3,-11 4,-1 8,-2 12,-3 -1,-3 -1,-4 -2,-7 -3,2 -7,3 -11,4 -1,-4 -2,-8 -3,-11 4,-1 8,-2 12,-3 -1,-2 -1,-4 -2,-6 -4,1 -7,2 -11,3 -1,-4 -2,-7 -3,-11 4,-1 8,-2 12,-2 -1,-3 -1,-5 -2,-7 -3,1 -7,3 -11,3 -3,-11 -6,-21 -8,-31 12,-4 25,-7 38,-11 12,47 24,93 37,141l0 1 -30 0zm35 0c0,0 0,-1 0,-1 2,-17 4,-36 5,-39 0,-1 0,-3 0,-4l45 0 0 2c1,3 3,24 5,43l-55 0 0 -1zm64 0l28 -106 19 6 -27 100 -20 0zm46 0l-19 0 26 -99 18 6 -25 93z"/>
   </g>
   <path class="fil0" d="M1389 216l0 -2 -1 -4c-3,-12 -11,-22 -23,-30 -9,-6 -19,-9 -29,-13 -1,0 -3,-1 -4,-1l-1 0c-3,-2 -6,-3 -9,-4 -4,-2 -7,-4 -10,-6 -1,-1 -1,-2 -1,-2 0,-4 0,-9 0,-13l0 -1c5,-5 9,-14 11,-22 3,-2 6,-5 7,-8 4,-9 6,-17 3,-24 0,-1 0,-3 -1,-4 0,-1 0,-2 0,-2 1,-5 2,-9 2,-13 1,-2 1,-3 2,-5 1,-8 0,-17 -2,-26 -4,-14 -14,-23 -28,-26 -6,-7 -15,-8 -20,-9 -2,0 -4,0 -6,0l-8 0 -2 0c-10,0 -19,2 -29,7 -10,4 -18,12 -22,22 -6,13 -6,25 -5,34 0,5 2,10 2,15 0,1 1,2 1,3 -3,5 -4,10 -3,16 0,4 2,9 4,13 2,3 4,5 6,7l1 0c2,9 6,17 12,23l0 4c0,4 0,7 -1,10 0,1 -1,1 -3,3l-9 5c-3,1 -6,3 -10,4 -1,1 -2,1 -4,1 -9,4 -19,8 -29,14 -13,9 -20,20 -23,33 0,1 0,1 0,2 0,0 0,1 -1,2l0 1 0 13 233 0 0 -16 0 -1zm-150 -50c4,-2 7,-5 8,-10 0,-4 0,-9 0,-14 0,-3 0,-6 -2,-9 -6,-5 -9,-13 -10,-21 0,-1 -1,-2 -2,-2 -2,-2 -4,-3 -5,-5 -2,-2 -3,-6 -3,-9 -1,-4 0,-8 3,-10 1,-1 1,-1 1,-3 -2,-7 -3,-13 -4,-20 0,-10 0,-20 4,-29 3,-8 9,-14 17,-18 8,-3 16,-5 25,-5l1 0c1,0 1,-1 2,-1l1 0c0,0 1,1 2,1 2,0 5,0 7,1 6,1 12,2 15,7 1,1 1,1 2,1 12,2 20,9 23,20 1,7 2,14 1,21 -1,5 -1,12 -3,18 -1,3 -2,7 1,10 0,0 1,0 1,1 1,6 0,11 -3,15 -1,3 -3,5 -7,6 0,6 -5,18 -9,22 -3,3 -4,6 -3,9 1,4 1,8 1,12 0,4 1,6 3,9 2,2 5,4 8,5 -13,7 -26,10 -40,10 -14,0 -27,-3 -38,-9 0,-1 1,-2 3,-3zm150 412c0,0 0,0 0,0 -2,-11 -9,-25 -29,-31 -3,-1 -7,-3 -10,-3 -5,-2 -10,-3 -15,-5 -1,0 -2,0 -3,-1 -1,-1 -3,-2 -5,-2 4,0 7,-1 10,-2 6,-5 12,-10 17,-16l-7 -5c0,-1 -2,-2 -4,-2 -3,-2 -5,-4 -5,-10 0,-9 1,-17 2,-26l0 -2c2,-14 3,-29 0,-44 -5,-27 -27,-48 -55,-53 0,0 -1,0 -1,-1 -1,0 -1,0 -1,0l-1 0c-3,-1 -6,-1 -9,-1 -3,0 -5,0 -9,1l-1 0 -2 0c-1,0 -2,1 -3,1 -32,7 -53,33 -54,66 -1,11 1,21 2,32 0,3 1,7 1,10 1,7 1,14 1,20 0,2 -2,4 -6,6 -1,1 -2,1 -3,1l-9 5c5,7 11,13 17,18 3,1 6,2 11,2l0 0c-2,1 -4,1 -6,2 -4,2 -8,3 -11,5 -3,0 -5,1 -8,2 -2,1 -5,1 -8,2 -21,6 -28,20 -29,31l0 1 -1 1 0 27 233 0 0 -26 1 -3zm-145 -65c-7,7 -17,12 -25,12 -5,0 -10,-2 -13,-5 0,0 1,0 1,0 8,-2 12,-8 12,-16 1,-7 0,-14 0,-21 -2,-14 -4,-27 -4,-41 1,-28 18,-50 46,-56 1,-1 3,-1 5,-1 3,-1 5,-2 7,-2 2,0 3,0 7,2 1,0 2,0 3,1 24,4 42,22 47,45 3,13 1,27 -1,40 -1,10 -2,19 -3,29 0,9 4,16 14,20 0,0 0,0 1,1 -5,3 -9,4 -15,4l0 0c-9,0 -18,-3 -24,-11 -1,1 -1,2 -1,2 -2,9 1,14 6,20 4,3 8,6 13,8 -14,8 -31,12 -48,12 -17,0 -33,-4 -47,-12 4,-2 8,-5 12,-8 4,-4 7,-8 8,-13 1,-4 0,-7 -1,-10l0 0z"/>
   <g>
    <path class="fil0" d="M900 3357l111 0c4,0 6,2 6,7l0 219c0,5 -2,8 -7,8l-219 0c-5,0 -7,-2 -7,-8l0 -220c0,-4 2,-5 6,-5l49 0c20,-1 41,-1 61,-1l0 0zm106 12l-211 0 0 209 211 0 0 -209z"/>
    <path class="fil0" d="M900 3450l-88 0c-4,0 -5,-1 -5,-6l0 -58c0,-4 1,-6 5,-6l176 0c5,0 6,2 6,6l0 58c0,5 -1,6 -6,6l-88 0zm-85 -10l71 -24 0 -1 -71 -24 0 49 0 0zm171 -50l-72 25 0 0c24,8 48,17 72,25l0 -50 0 0zm-23 52l-1 -2c-20,-7 -40,-13 -60,-20 -1,-1 -2,0 -3,0 -17,6 -35,12 -52,17 -2,2 -5,3 -8,3l0 1c41,1 82,1 124,1l0 0zm-125 -53l1 1c20,7 40,14 60,21 1,0 2,0 3,0 19,-7 39,-14 58,-20 1,0 2,-1 3,-1 -42,-1 -83,-1 -125,-1l0 0zm109 85l-37 0c-1,0 -2,0 -3,-2 0,-1 -1,-4 -1,-5 0,-3 1,-5 4,-5l74 0c2,1 3,3 3,6 0,3 -1,4 -3,6l-37 0zm0 17l-37 0c-2,-1 -3,-3 -3,-6 0,-3 1,-5 3,-6l75 0c2,1 3,3 3,6 0,3 -1,5 -3,6l-38 0zm0 18l-37 0c-2,-1 -3,-3 -3,-6 0,-3 1,-6 3,-6l46 0c2,0 3,2 3,6 0,3 -1,5 -3,6l-9 0zm-47 -41c0,-4 -1,-6 -5,-6l-83 0c-4,0 -5,2 -5,6l0 34c0,5 1,6 5,6l83 0c3,0 5,-2 5,-6 0,-11 0,-23 0,-34zm-29 20c-2,-1 -4,-2 -7,-3l28 -12 0 24c-7,-3 -14,-6 -21,-9l0 0zm2 -17c-6,3 -13,6 -20,9 -6,-3 -13,-6 -20,-9l40 0zm-58 2c9,4 18,8 27,12 -2,1 -4,2 -7,3 -6,2 -13,5 -20,8l0 -23 0 0zm17 26c7,-3 14,-6 22,-9 7,3 14,6 22,9l-44 0zm115 33l-37 0c-1,0 -2,0 -3,-1 0,-2 -1,-4 -1,-6 0,-3 1,-5 4,-5l74 0c2,1 3,3 3,6 0,3 -1,5 -3,6l-37 0zm0 17l-37 0c-2,0 -3,-3 -3,-5 0,-3 1,-6 3,-6l75 0c2,0 3,2 3,6 0,2 -1,5 -3,5l-38 0zm0 18l-37 0c-2,-1 -3,-3 -3,-6 0,-3 1,-5 3,-6l46 0c2,1 3,3 3,6 0,3 -1,5 -3,6l-9 0zm-47 -41c0,-4 -1,-6 -5,-6l-83 0c-4,0 -5,2 -5,6l0 34c0,5 1,6 5,6l83 0c3,0 5,-1 5,-6 0,-11 0,-22 0,-34l0 0zm-29 20c-2,-1 -4,-2 -7,-2l28 -13 0 25c-7,-4 -14,-7 -21,-10l0 0zm2 -16c-6,2 -13,5 -20,8 -6,-3 -13,-6 -20,-8l40 0zm-58 1c9,4 18,8 27,12 -2,1 -4,2 -7,3 -6,3 -13,6 -20,9l0 -24 0 0zm17 27c7,-3 14,-7 22,-10 7,3 14,7 22,10l-44 0z"/>
   </g>
   <g>
    <path class="fil0" d="M958 1504c0,-4 -2,-7 -5,-9 -3,-2 -7,-3 -11,-2l-85 16c-6,1 -10,6 -10,11l0 14 -40 38 0 128 81 25 7 -1 98 -19 0 -129 -36 -62 0 -10 1 0zm-102 16c0,-2 1,-4 4,-4l85 -16c1,0 3,0 3,1 1,1 1,2 1,3l0 11 -93 17 0 -12 0 0zm-4 20l30 52 -64 -20 34 -32 0 0zm32 173l-66 -20 0 -28 66 21 0 27zm0 -37l-66 -21 0 -74 66 20 0 75zm101 23l-93 17 0 -32 93 -17 0 32 0 0zm-91 -23l0 -75 89 -17 0 75 -89 17zm90 -99l-4 1 -89 17 -34 -57 94 -18 33 57z"/>
    <path class="fil0" d="M920 1641l0 23 -6 1 0 -9 -1 3 -1 2 -5 1 -1 -4 -1 4 0 4 -6 1 0 -22 6 -1 5 9 2 -4 2 -7 6 -1zm13 -2l0 23 -6 1 0 -23 6 -1zm12 -2l0 17 10 -1 -1 5 -15 3 0 -23 6 -1zm35 -5l-3 4 -5 6 8 12 -7 1 -6 -7 0 0 -1 1 0 7 -6 2 0 -23 6 -1 0 7 3 -4 3 -4 8 -1z"/>
   </g>
   <g>
    <circle class="fil0" cx="879" cy="1945" r="10"/>
    <path class="fil0" d="M900 2064c-29,0 -55,-14 -70,-37l-12 0c17,29 47,48 83,48 36,0 66,-19 83,-48l-12 0c-16,22 -42,37 -72,37l0 0zm0 -171c30,0 56,15 71,37l12 0c-17,-28 -48,-48 -83,-48 -36,0 -67,20 -83,48l12 0c16,-22 42,-37 71,-37z"/>
    <path class="fil0" d="M993 1952l28 0 7 -11 -69 0c-12,-19 -34,-32 -59,-32 -25,0 -47,13 -60,32l-68 0 7 11 56 0c-2,3 -2,7 -3,10l-46 0 11 17 -11 16 46 0c0,3 1,6 3,9l0 1 -56 0 -7 11 69 0c13,20 35,32 59,32l0 0c24,0 47,-12 59,-32l69 0 -7 -11 -56 0 0 0c1,-4 2,-7 4,-10l45 0 -10 -16 10 -17 -45 0 -4 -10 28 0zm-83 -2l-21 21 -10 -10 -35 34c-2,-5 -2,-11 -2,-16 0,-32 26,-57 58,-58l1 0c32,0 58,26 58,58 0,5 0,11 -3,17l-46 -46 0 0z"/>
   </g>
   <path class="fil0" d="M813 2844l0 -209c0,-2 0,-2 2,-3 6,-1 10,-2 16,-2 5,-1 12,-2 18,-3 6,-1 12,-3 18,-4 6,-1 12,-1 18,-3 6,-1 12,-2 18,-3 6,-1 12,-2 18,-3 5,-1 9,-2 14,-2 2,-1 2,0 2,1l0 17c0,1 1,2 2,2l41 0c2,0 2,0 2,2l0 207c0,2 0,2 -2,2l-158 0c-2,0 -5,1 -7,1l-2 0zm111 -217c-2,0 -4,0 -5,1 -5,1 -9,2 -14,2 -6,1 -12,3 -18,4 -5,0 -9,1 -13,2 -6,1 -12,2 -18,4 -5,0 -9,1 -14,2 -4,0 -10,2 -14,2 -2,0 -2,1 -2,2l0 183 2 0c4,-1 8,-2 12,-2 5,-1 9,-2 13,-3 4,0 9,-1 13,-2 5,-1 9,-2 13,-2l18 -4c3,0 6,-1 9,-1 5,-1 10,-2 15,-3 2,0 2,0 2,-3l0 -180c1,-1 1,-2 1,-2l0 0zm-29 203l71 0c3,0 3,0 3,-3l0 -180c0,-2 0,-2 -2,-2l-28 0c-2,0 -2,0 -2,2l0 15c0,1 1,1 2,1l13 0c1,0 2,1 2,2l0 6c0,1 -1,2 -2,2l-12 0c-2,0 -2,0 -2,2l0 9c0,2 0,2 2,2l12 0c1,0 2,1 2,2l0 6c0,2 -1,2 -2,2l-12 0c-2,0 -2,0 -2,1l0 11c0,1 0,2 2,2l13 0c1,0 2,0 2,1l0 6c0,1 -1,2 -2,2l-13 0c-2,0 -2,0 -2,2l0 10c0,1 0,2 2,2l12 0c1,0 3,0 2,2l0 5c0,2 -1,2 -2,2l-13 0c-1,0 -1,1 -1,1l0 11c0,1 0,2 2,2l12 0c2,0 2,0 2,1l0 6c0,1 -1,1 -2,1l-12 0c-2,0 -2,1 -2,2l0 10c0,1 0,2 2,2l12 0c2,0 2,0 2,2l0 5c0,2 0,3 -2,3l-13 0c-1,0 -2,0 -2,1l0 11c0,1 1,2 2,2l13 0c1,0 2,0 2,1l0 6c0,1 -1,2 -2,2l-13 0c-2,0 -2,1 -2,2l0 7c0,1 0,2 -2,2 -5,1 -11,2 -16,3 -3,0 -6,1 -8,1 -6,2 -11,3 -16,4l0 0z"/>
   <path class="fil0" d="M937 2795c-2,-6 -5,-12 -16,-14 -1,0 -3,0 -5,0 -3,-1 -5,-1 -8,-2 -1,0 -1,0 -2,0 -1,0 -1,-1 -3,-1 2,0 4,0 6,-1 3,-3 6,-7 9,-11l-4 -2c0,0 -1,0 -2,0 -2,0 -3,-1 -3,-4 0,-5 1,-10 1,-14l0 -2c2,-7 2,-15 0,-22 -3,-14 -14,-23 -29,-23l-6 0c-1,0 -3,1 -4,1l-1 1c0,0 -1,0 -2,0 -16,7 -27,23 -28,40 0,6 0,11 1,16 0,2 1,4 1,6 0,3 0,7 0,9 0,2 0,3 -3,4 0,1 -1,1 -1,1l-6 4c3,3 6,5 10,7l5 0c-1,1 -1,1 -2,2 -3,1 -5,2 -7,3 -1,1 -2,2 -4,2 -1,1 -2,1 -4,2 -11,5 -15,13 -16,19l0 1 0 14 5 -1 56 -10 55 -10 6 -1 0 -14 1 0zm-77 -20c-3,4 -9,7 -13,8 -3,1 -5,0 -7,-1l0 -1c5,-2 7,-5 7,-9 0,-4 0,-8 -1,-11 0,-7 -2,-14 -1,-21 0,-15 9,-28 23,-34 2,-1 2,-1 3,-1 2,-1 3,-1 4,-1l5 0c12,0 22,7 25,19 1,7 0,14 -1,21l-2 16c0,4 2,8 7,9 0,0 1,0 1,1 -3,1 -5,2 -8,3 -4,1 -9,0 -12,-3 0,0 -1,0 -1,1 -1,4 1,7 4,9 2,2 4,3 6,4 -7,5 -16,8 -25,10 -9,2 -17,1 -25,-2 2,-1 5,-3 7,-6 2,-2 3,-4 4,-7 1,-1 1,-2 0,-4l0 0zm-7 -116l-7 10 -1 0 -8 -7 0 15 -8 1 0 -27 7 -1 9 9 9 -12 7 -2 0 27 -8 1 0 -14 0 0zm22 -15l9 -2 9 25 -7 1 -2 -4 -10 2 -2 4 -8 2 11 -28 0 0zm1 16l7 -1 -4 -9 -3 10 0 0zm45 -13l0 12c-2,2 -7,5 -11,6 -8,1 -15,-3 -15,-11 0,-9 7,-16 15,-17 4,0 8,0 10,2l-3 6c-2,-1 -4,-1 -7,-1 -4,1 -7,4 -7,8 0,4 3,7 7,6 2,0 3,0 4,-2l0 -2 -5 1 0 -6 12 -2z"/>
   <polygon class="fil2" points="1145,746 1402,746 1402,979 1145,979 "/>
   <path class="fil0" d="M1413 920l0 -1c-2,-9 -7,-19 -23,-24 -3,-1 -5,-2 -8,-3 -4,-1 -8,-2 -12,-4 -1,0 -2,0 -3,-1 -1,-1 -3,-1 -4,-2 3,0 5,0 8,-1 6,-4 10,-8 14,-13l-5 -4c0,-1 -2,-2 -3,-2 -3,-1 -5,-2 -5,-7 0,-7 1,-13 2,-21l0 -2c1,-11 3,-23 0,-35 -4,-21 -21,-38 -43,-42l-3 0c-2,0 -4,0 -7,0 -2,0 -4,0 -7,0l-1 0 -1 1c-1,0 -2,0 -2,0 -25,6 -42,27 -43,53 -1,9 1,17 2,25 0,3 0,5 1,8 1,6 1,11 1,16 0,2 -1,3 -5,4 -1,1 -1,1 -2,2l-7 4c4,5 8,10 14,14 2,0 5,1 8,1l0 0c-1,0 -3,1 -4,2 -3,1 -7,2 -10,3l-1 0c-1,0 -2,0 -3,-1 -2,-1 -3,-1 -4,-1l0 0c-3,-1 -5,-2 -7,-3 -3,-1 -6,-3 -9,-5l0 -1c0,-4 0,-8 -1,-10l0 -1c4,-4 8,-12 10,-18 2,-2 4,-4 5,-6 3,-7 4,-13 2,-19 0,-1 0,-2 -2,-3 0,-1 0,-1 1,-1l2 -11c0,-1 0,-3 0,-4 1,-6 1,-13 -1,-20 -3,-11 -12,-19 -23,-21 -5,-5 -11,-7 -15,-7 -2,-1 -4,-1 -5,-1l-6 0 -1 1c-8,0 -16,2 -23,5 -8,4 -14,10 -18,18 -4,10 -4,19 -3,27 0,4 1,8 1,12 0,0 1,1 1,2 -2,3 -3,8 -2,12 0,4 1,7 3,11 1,3 4,4 5,5l0 0c2,7 5,13 10,18l0 3c0,3 0,6 -1,9 0,0 0,1 -2,2 -2,2 -5,3 -7,4 -2,1 -5,2 -8,3 -1,1 -2,1 -3,1 -8,3 -16,6 -24,11 -9,7 -15,11 -17,22 0,0 0,42 -1,43 0,0 0,0 0,1l0 12 295 0 0 -60 0 0zm-115 -51c-6,6 -13,9 -20,9 -4,0 -7,-1 -10,-4 0,0 0,0 1,0 6,-3 9,-7 10,-13 0,-5 0,-11 -1,-16 -1,-11 -3,-22 -3,-33 1,-22 15,-39 36,-44 2,0 3,0 4,-1 3,-1 5,-1 6,-1 2,0 3,0 5,1 2,0 2,1 3,1 19,3 34,17 37,35 2,11 1,22 0,32 -2,8 -3,15 -3,23 0,8 3,13 11,16 0,0 0,1 1,1 -4,2 -8,3 -12,3 -7,0 -14,-3 -18,-9 -1,1 -1,1 -1,2 -2,6 1,11 5,15 3,3 7,5 10,7 -12,6 -24,9 -38,9 -13,0 -26,-3 -38,-9 4,-2 7,-4 10,-7 3,-3 6,-6 7,-11 0,-1 -1,-4 -2,-6l0 0zm-115 20c3,-1 5,-4 6,-7 1,-4 1,-8 1,-12 0,-2 0,-5 -2,-6 -5,-5 -7,-11 -8,-17 0,-1 -2,-1 -2,-2 -1,-1 -3,-2 -4,-3 -1,-3 -2,-6 -2,-9 -1,-2 0,-5 2,-8 1,0 1,-1 1,-1 -1,-6 -2,-11 -3,-17 -1,-7 -1,-16 3,-23 3,-6 8,-11 14,-14 6,-2 13,-4 20,-4l0 0c1,0 1,0 2,0l0 0c1,0 1,0 2,0 2,0 3,0 5,1 5,1 9,2 12,6 1,0 2,0 2,0 9,2 15,7 18,16 1,5 2,11 1,16 -1,5 -2,9 -3,14 0,3 -1,6 2,8 0,0 0,1 0,1 1,4 1,8 -2,12 -1,3 -3,5 -5,5 0,5 -4,13 -7,17 -3,2 -3,5 -3,7 0,3 1,6 1,10 0,3 1,5 3,6 2,2 3,4 6,5 -10,5 -20,8 -32,8 -11,0 -21,-3 -30,-8 0,1 1,0 2,-1l0 0z"/>
   <g>
    <path class="fil4" d="M1374 2309l-120 0c-3,0 -5,-2 -5,-5l0 -7c0,-2 2,-4 5,-4l120 0c2,0 4,2 4,4l0 7c0,3 -1,5 -4,5l0 0z"/>
    <path class="fil5" d="M1374 2378l-120 0c-3,0 -5,-2 -5,-5l0 -7c0,-2 2,-4 5,-4l120 0c2,0 4,1 4,4l0 7c0,3 -1,5 -4,5l0 0z"/>
    <path class="fil0" d="M1374 2446l-120 0c-3,0 -5,-2 -5,-5l0 -7c0,-2 2,-4 5,-4l120 0c2,0 4,2 4,4l0 7c0,3 -1,5 -4,5z"/>
    <path class="fil4" d="M1228 2264c-3,-3 -8,-3 -12,0l-28 28 -6 -6c-3,-3 -8,-3 -12,0 -3,3 -3,9 0,11l12 12c3,2 8,2 12,0l34 -34c3,-3 3,-8 0,-11l0 0z"/>
    <path class="fil5" d="M1228 2332c-3,-3 -8,-3 -12,0l-28 28 -6 -5c-3,-3 -8,-3 -12,0 -3,2 -3,8 0,11l12 11c3,3 8,3 12,0l34 -34c3,-3 3,-8 0,-11l0 0z"/>
    <path class="fil0" d="M1228 2400c-3,-3 -8,-3 -12,0l-28 29 -6 -6c-3,-3 -8,-3 -12,0 -3,3 -3,8 0,11l12 11c3,3 8,3 12,0l34 -34c3,-3 3,-7 0,-11l0 0z"/>
   </g>
   <path class="fil4" d="M1224 2000c-2,-4 -5,-8 -8,-11 -4,-3 -8,-6 -13,-8 -5,-2 -11,-4 -16,-6 -6,-2 -11,-4 -15,-6 -3,-2 -6,-4 -9,-6 -1,-2 -3,-4 -4,-6 0,-2 -1,-5 -1,-7 0,-3 1,-6 2,-9 1,-2 2,-4 4,-6 2,-2 5,-4 8,-5 6,-2 16,-2 22,1 3,1 6,3 8,6 2,2 3,5 4,8 2,4 2,7 2,12l0 2 19 0 0 -2c0,-13 -4,-23 -10,-31 -6,-7 -15,-11 -25,-12l0 -20 -17 0 0 19c-5,0 -9,2 -13,3 -5,2 -9,5 -12,8 -4,3 -6,7 -8,12 -1,4 -3,9 -3,14 0,6 2,11 3,15 2,4 5,8 9,11 4,3 8,6 13,8 5,3 10,5 17,6 5,2 10,4 14,6 3,2 6,4 9,6 2,2 3,4 4,6 1,3 1,5 1,8 0,3 -1,6 -2,8 -1,2 -3,5 -5,7 -3,1 -5,3 -8,4 -6,2 -14,3 -23,1 -3,-1 -6,-3 -9,-4 -3,-2 -5,-5 -6,-8 -2,-4 -3,-8 -3,-13l0 -3 -19 0 0 3c0,7 1,13 3,18 2,6 6,10 10,13 4,4 9,6 14,8 4,1 8,2 13,3l0 17 17 0 0 -18c4,0 9,-2 13,-3 5,-2 9,-4 13,-7 3,-3 6,-7 8,-12 2,-4 3,-9 3,-15 -1,-5 -2,-11 -4,-15l0 0z"/>
   <path class="fil5" d="M1317 2000c-2,-4 -4,-8 -8,-11 -3,-3 -8,-6 -13,-8 -4,-2 -10,-4 -16,-6 -6,-2 -11,-4 -15,-6 -3,-2 -6,-4 -8,-6 -2,-2 -4,-4 -5,-6 0,-2 -1,-5 -1,-7 0,-3 1,-6 2,-9 1,-2 2,-4 5,-6 1,-2 4,-4 7,-5 6,-2 16,-2 22,1 3,1 6,3 8,6 2,2 4,5 5,8 1,4 1,7 1,12l0 2 19 0 0 -2c0,-13 -3,-23 -10,-31 -6,-7 -14,-11 -25,-12l0 -20 -17 0 0 19c-4,0 -9,2 -13,3 -4,2 -8,5 -12,8 -3,3 -6,7 -7,12 -2,4 -3,9 -3,14 0,6 1,11 3,15 1,4 4,8 8,11 4,3 8,6 13,8 5,3 11,5 17,6 5,2 10,4 14,6 4,2 6,4 9,6 2,2 3,4 4,6 1,3 1,5 1,8 0,3 -1,6 -2,8 -1,2 -3,5 -5,7 -2,1 -5,3 -8,4 -6,2 -14,3 -22,1 -4,-1 -7,-3 -10,-4 -3,-2 -4,-5 -6,-8 -2,-4 -2,-8 -2,-13l0 -3 -20 0 0 3c0,7 1,13 3,18 3,6 6,10 10,13 4,4 9,6 14,8 4,1 8,2 13,3l0 17 17 0 0 -18c5,0 9,-2 13,-3 5,-2 10,-4 13,-7 4,-3 7,-7 8,-12 2,-4 3,-9 3,-15 -1,-5 -2,-11 -4,-15l0 0z"/>
   <path class="fil0" d="M1410 2000c-1,-4 -4,-8 -8,-11 -3,-3 -8,-6 -13,-8 -4,-2 -10,-4 -16,-6 -6,-2 -11,-4 -14,-6 -4,-2 -7,-4 -9,-6 -2,-2 -4,-4 -4,-6 -1,-2 -1,-5 -1,-7 0,-3 0,-6 1,-9 1,-2 3,-4 5,-6 2,-2 5,-4 8,-5 5,-2 15,-2 22,1 3,1 6,3 7,6 3,2 4,5 5,8 1,4 2,7 2,12l0 2 18 0 0 -2c0,-13 -3,-23 -10,-31 -5,-7 -14,-11 -25,-12l0 -20 -17 0 0 19c-4,0 -8,2 -12,3 -5,2 -9,5 -13,8 -3,3 -5,7 -7,12 -2,4 -3,9 -3,14 0,6 1,11 3,15 2,4 4,8 9,11 3,3 8,6 12,8 5,3 11,5 17,6 6,2 10,4 14,6 4,2 7,4 9,6 2,2 4,4 4,6 1,3 1,5 1,8 0,3 0,6 -1,8 -2,2 -3,5 -6,7 -2,1 -5,3 -8,4 -6,2 -14,3 -22,1 -4,-1 -6,-3 -9,-4 -3,-2 -5,-5 -7,-8 -2,-4 -2,-8 -2,-13l0 -3 -20 0 0 3c0,7 1,13 4,18 2,6 5,10 9,13 5,4 9,6 14,8 5,1 9,2 13,3l0 17 17 0 0 -18c5,0 10,-2 14,-3 4,-2 9,-4 12,-7 4,-3 7,-7 9,-12 1,-4 3,-9 3,-15 -2,-5 -3,-11 -5,-15l0 0z"/>
   <g>
    <path class="fil0" d="M1273 2623c-57,0 -104,47 -104,105 0,57 47,104 104,104 58,0 105,-47 105,-104 0,-58 -47,-105 -105,-105zm0 197c-51,0 -92,-42 -92,-92 0,-51 42,-93 92,-93 51,0 93,42 93,93 0,50 -41,92 -93,92z"/>
    <polygon class="fil0" points="1276,2675 1265,2675 1265,2737 1320,2770 1325,2761 1276,2732 "/>
   </g>
   <g>
    <path class="fil0" d="M1358 2992l-15 0 0 12 15 0c5,0 8,3 8,8l0 31 -185 0 0 -31c0,-5 4,-8 9,-8l14 0 0 -12 -14 0c-12,0 -21,9 -21,20l0 185c0,11 9,20 21,20l168 0c11,0 20,-9 20,-20l0 -185c0,-11 -9,-20 -20,-20zm8 64l0 141c0,4 -3,8 -8,8l-168 0c-5,0 -9,-4 -9,-8l0 -141 185 0z"/>
    <path class="fil0" d="M1236 2992l75 0 0 12 -75 0 0 -12zm-16 32c3,0 5,-2 5,-4l0 -31c0,-3 -3,-5 -5,-5 -3,0 -5,2 -5,5l0 31c0,2 2,4 5,4zm107 0c3,0 5,-2 5,-4l0 -31c0,-3 -3,-5 -5,-5 -3,0 -5,2 -5,5l0 31c0,2 3,4 5,4zm-63 101l8 0c10,0 17,-6 17,-15 0,-8 -7,-14 -17,-14 -11,0 -15,8 -16,14l-9 0c0,-10 8,-22 25,-22 16,0 26,9 26,21 1,11 -9,19 -16,20 8,0 19,6 19,19 0,14 -12,24 -29,24 -18,0 -27,-10 -28,-22l9 0c1,8 7,14 19,14 12,0 20,-7 20,-16 0,-10 -8,-16 -20,-16l-9 0 0 -7 1 0z"/>
   </g>
   <g>
    <path class="fil0" d="M1358 3365l-15 0 0 12 15 0c5,0 8,3 8,8l0 31 -185 0 0 -31c0,-5 4,-8 9,-8l14 0 0 -12 -14 0c-12,0 -21,9 -21,20l0 185c0,11 9,20 21,20l168 0c11,0 20,-9 20,-20l0 -185c0,-11 -9,-20 -20,-20l0 0zm8 64l0 141c0,4 -3,8 -8,8l-168 0c-5,0 -9,-4 -9,-8l0 -141 185 0z"/>
    <path class="fil0" d="M1236 3365l75 0 0 12 -75 0 0 -12zm-16 32c3,0 5,-2 5,-4l0 -31c0,-3 -3,-5 -5,-5 -3,0 -5,2 -5,5l0 31c0,2 2,4 5,4zm107 0c3,0 5,-2 5,-4l0 -31c0,-3 -3,-5 -5,-5 -3,0 -5,2 -5,5l0 31c0,2 3,4 5,4zm-28 66l0 8 -34 73 -10 0 35 -73 -43 0 0 -8 52 0z"/>
   </g>
   <g>
    <path class="fil0" d="M1358 3738l-15 0 0 12 15 0c5,0 8,3 8,8l0 31 -185 0 0 -31c0,-5 4,-8 9,-8l14 0 0 -12 -14 0c-12,0 -21,9 -21,20l0 185c0,11 9,20 21,20l168 0c11,0 20,-9 20,-20l0 -185c0,-11 -9,-20 -20,-20l0 0zm8 64l0 141c0,4 -3,8 -8,8l-168 0c-5,0 -9,-4 -9,-8l0 -141 185 0z"/>
    <path class="fil0" d="M1236 3738l75 0 0 12 -75 0 0 -12zm-16 32c3,0 5,-2 5,-4l0 -31c0,-3 -3,-5 -5,-5 -3,0 -5,2 -5,5l0 31c0,2 2,4 5,4zm107 0c3,0 5,-2 5,-4l0 -31c0,-3 -3,-5 -5,-5 -3,0 -5,2 -5,5l0 31c0,2 3,4 5,4zm-148 77l189 0 0 10 -189 0 0 -10zm0 50l189 0 0 10 -189 0 0 -10z"/>
    <path class="fil0" d="M1310 3796l0 157 -10 0 0 -157 10 0zm-63 0l0 157 -10 0 0 -157 10 0z"/>
   </g>
   <path class="fil5" d="M1271 1627c-2,-4 -5,-8 -9,-11 -3,-3 -8,-6 -12,-8 -5,-2 -11,-4 -17,-6 -6,-2 -11,-4 -14,-6 -4,-2 -7,-4 -9,-6 -2,-2 -4,-4 -4,-6 -1,-2 -1,-5 -1,-7 0,-3 0,-6 1,-9 2,-2 3,-4 5,-6 2,-2 5,-4 8,-5 6,-2 15,-2 22,1 3,1 6,3 7,6 3,2 4,5 5,8 1,4 2,7 2,12l0 2 18 0 0 -2c0,-13 -3,-23 -9,-31 -6,-7 -15,-11 -26,-12l0 -20 -16 0 0 19c-5,0 -9,2 -13,3 -5,2 -9,5 -12,8 -4,3 -6,7 -8,12 -2,4 -3,9 -3,14 0,6 1,11 3,15 2,4 5,8 9,11 3,3 8,6 13,8 4,3 10,5 16,6 6,2 10,4 14,6 4,2 7,4 9,6 2,2 4,4 4,6 1,3 1,5 1,8 0,3 0,6 -1,8 -2,2 -3,5 -6,7 -2,1 -5,3 -8,4 -6,2 -14,3 -22,1 -3,-1 -6,-3 -9,-4 -3,-2 -5,-5 -7,-8 -1,-4 -2,-8 -2,-13l0 -3 -20 0 0 3c0,7 1,13 4,18 2,6 6,10 10,13 4,4 8,6 14,8 4,1 8,2 12,3l0 17 17 0 0 -18c5,0 10,-2 14,-3 4,-2 9,-4 13,-7 3,-3 6,-7 8,-12 1,-4 3,-9 3,-15 -2,-5 -3,-11 -4,-15l0 0z"/>
   <path class="fil0" d="M1364 1627c-2,-4 -5,-8 -8,-11 -4,-3 -9,-6 -13,-8 -5,-2 -11,-4 -17,-6 -5,-2 -11,-4 -14,-6 -4,-2 -6,-4 -9,-6 -2,-2 -3,-4 -4,-6 0,-2 -1,-5 -1,-7 0,-3 1,-6 2,-9 1,-2 2,-4 4,-6 2,-2 5,-4 8,-5 6,-2 16,-2 22,1 3,1 6,3 8,6 2,2 3,5 4,8 1,4 2,7 2,12l0 2 19 0 0 -2c0,-13 -4,-23 -10,-31 -6,-7 -15,-11 -25,-12l0 -20 -17 0 0 19c-5,0 -9,2 -13,3 -5,2 -9,5 -12,8 -4,3 -6,7 -8,12 -2,4 -3,9 -3,14 0,6 1,11 3,15 2,4 5,8 9,11 3,3 8,6 13,8 4,3 10,5 17,6 5,2 10,4 14,6 3,2 6,4 8,6 3,2 4,4 4,6 2,3 2,5 2,8 0,3 -1,6 -2,8 -1,2 -3,5 -5,7 -3,1 -6,3 -9,4 -5,2 -13,3 -22,1 -3,-1 -6,-3 -9,-4 -3,-2 -5,-5 -6,-8 -2,-4 -3,-8 -3,-13l0 -3 -20 0 0 3c0,7 2,13 4,18 2,6 6,10 10,13 4,4 9,6 14,8 4,1 8,2 13,3l0 17 17 0 0 -18c4,0 9,-2 13,-3 5,-2 9,-4 13,-7 3,-3 6,-7 8,-12 2,-4 3,-9 3,-15 -1,-5 -2,-11 -4,-15l0 0zm-47 -373c-2,-4 -4,-8 -8,-11 -3,-3 -8,-6 -13,-8 -4,-2 -10,-4 -16,-6 -6,-2 -11,-4 -15,-6 -3,-2 -6,-4 -8,-6 -2,-2 -4,-4 -5,-6 0,-2 -1,-5 -1,-7 0,-3 1,-6 2,-9 1,-2 2,-4 5,-6 1,-2 4,-4 7,-5 6,-2 16,-2 22,1 3,1 6,3 8,6 2,2 4,5 5,8 1,4 1,7 1,12l0 2 19 0 0 -2c0,-13 -3,-23 -10,-31 -6,-7 -14,-11 -25,-12l0 -20 -17 0 0 19c-4,0 -9,2 -13,3 -4,2 -8,5 -12,8 -3,3 -6,7 -7,12 -2,4 -3,9 -3,14 0,6 1,11 3,15 1,4 4,8 8,11 4,3 8,6 13,8 5,3 11,5 17,6 5,2 10,4 14,6 4,2 6,4 9,6 2,2 3,4 4,6 1,3 1,5 1,8 0,3 -1,6 -2,8 -1,2 -3,5 -5,7 -2,1 -5,3 -8,4 -6,2 -14,3 -22,1 -4,-1 -7,-3 -10,-4 -3,-2 -4,-5 -6,-8 -2,-4 -2,-8 -2,-13l0 -3 -20 0 0 3c0,7 1,13 3,18 3,6 6,10 10,13 4,4 9,6 14,8 4,1 8,2 13,3l0 17 17 0 0 -18c5,0 9,-2 13,-3 5,-2 10,-4 13,-7 4,-3 7,-7 8,-12 2,-4 3,-9 3,-15 -1,-5 -2,-11 -4,-15l0 0z"/>
  </g>
 </g>
</svg>
