<?xml version="1.0" encoding="UTF-8"?>
<!DOCTYPE svg PUBLIC "-//W3C//DTD SVG 1.1//EN" "http://www.w3.org/Graphics/SVG/1.1/DTD/svg11.dtd">
<!-- Creator: CorelDRAW X8 -->
<svg xmlns="http://www.w3.org/2000/svg" xml:space="preserve" width="758px" height="2349px" version="1.1" style="shape-rendering:geometricPrecision; text-rendering:geometricPrecision; image-rendering:optimizeQuality; fill-rule:evenodd; clip-rule:evenodd"
viewBox="0 0 25730 79681"
 xmlns:xlink="http://www.w3.org/1999/xlink">
 <defs>
  <style type="text/css">
   <![CDATA[
    .str0 {stroke:#003D83;stroke-width:106.021}
    .str1 {stroke:#003D83;stroke-width:26.4851}
    .fil2 {fill:none}
    .fil3 {fill:black}
    .fil0 {fill:#003D83}
    .fil1 {fill:white}
    .fil4 {fill:#003D83;fill-opacity:0.301961}
    .fil5 {fill:#003D83;fill-opacity:0.600000}
   ]]>
  </style>
 </defs>
 <g id="Layer_x0020_1">
  <metadata id="CorelCorpID_0Corel-Layer"/>
  <g id="_2527188241936">
   <g>
    <path class="fil0" d="M1207 75506c-21,0 -42,11 -63,11 -117,32 -202,95 -265,201 -43,64 -64,138 -74,212l0 3287c0,21 10,42 10,63 32,117 96,202 202,265 63,43 137,64 212,75l2989 -1 0 -4134 -2989 0c0,21 -11,21 -22,21l0 0zm2767 3477l0 403 -2682 0c-116,0 -212,-63 -233,-169 -21,-64 0,-138 42,-191 43,-53 106,-85 170,-96l2714 0 0 53 -11 0zm-1526 -3233l1537 0 0 2937 -2682 0c-64,0 -117,10 -170,21l-74 0 0 -2725c0,-116 64,-201 159,-233 21,-11 53,-11 85,-11 371,11 753,11 1145,11z"/>
    <polygon class="fil0" points="1674,76386 3508,76386 3508,76630 1674,76630 "/>
   </g>
   <g>
    <path class="fil0" d="M9531 76713l137 0c22,0 43,-22 43,-43l0 -806c0,-53 -43,-106 -106,-106 -64,0 -106,43 -106,106l0 817c0,10 10,32 32,32z"/>
    <g>
     <path class="fil0" d="M10368 77741c-222,74 -488,117 -774,117 -286,0 -551,-43 -774,-117 -10,0 -21,11 -10,21 201,159 487,308 678,424l0 233c0,53 43,106 106,106 64,0 106,-42 106,-106l0 -233c191,-116 467,-265 679,-424 10,-11 0,-32 -11,-21l0 0z"/>
     <path class="fil0" d="M10866 76819c0,-128 -53,-361 -434,-520 -170,-74 -393,-127 -636,-138l-22 0 0 191c255,21 467,74 626,149 159,84 265,190 265,318l0 31c-32,202 -318,371 -700,446 -116,21 -244,32 -371,32 -127,0 -254,-11 -371,-32 -392,-64 -678,-234 -700,-446l0 -31c0,-128 96,-234 266,-318 159,-85 381,-138 625,-149l0 -191c-244,21 -477,64 -657,138 -382,159 -435,392 -435,520l0 307c0,180 106,318 286,424 244,149 615,223 986,223 371,0 742,-74 986,-223 180,-106 286,-244 286,-424l0 -307z"/>
     <path class="fil0" d="M9414 76543c-286,32 -435,138 -435,233 0,138 234,286 626,286 381,0 625,-148 625,-286 0,-53 -42,-106 -127,-148 -11,0 -11,-11 -21,-11l-11 0c-10,0 -10,-10 -21,-10 0,0 -10,0 -10,-11 -11,0 -11,0 -22,-11l-21 0c-11,0 -21,0 -32,-10l-10 0c-11,0 -22,0 -32,-11l-11 0c-10,0 -21,0 -32,-10l-74 0 0 127c0,63 -53,116 -116,116l-138 0c-64,0 -117,-53 -117,-116l0 -117 -21 -21 0 0z"/>
     <polygon class="fil1" points="8110,76342 11078,76342 11078,76766 8110,76766 "/>
     <path class="fil0" d="M11662 76479l-615 -1039 -2895 0 -678 1145 0 3075c0,10 11,21 21,21l4198 0c11,0 22,-11 22,-21l0 -3075 -53 -106zm-3404 -784l32 -53 2629 0 32 53 286 488 96 169 42 85 21 32 -3593 0 21 -32 434 -742 0 0zm3244 1060l0 2703 -3805 0 0 -2809 3805 0 0 106z"/>
     <path class="fil0" d="M8555 78939l0 318 -116 0 0 -318 -117 0 0 -106 350 0 0 106 -117 0zm191 -106l202 0c74,0 148,42 148,138 0,63 -42,106 -95,127 31,32 63,64 106,64 10,0 31,0 42,-11l11 95c-22,11 -43,11 -75,11 -95,0 -169,-117 -222,-159l-11 0 0 148 -116 0 0 -413 10 0zm117 106l0 85 85 0c31,0 42,-22 42,-43 0,-21 -21,-42 -42,-42l-85 0zm434 148l-148 -254 127 0 85 148 85 -148 127 0 0 10 -148 255 0 159 -117 0 0 -170 -11 0zm817 -74l-106 138 -22 0 -106 -138 0 233 -116 0 0 -413 95 0 138 169 138 -169 95 0 0 413 -116 0 0 -233zm222 233l0 -413 329 0 0 106 -223 0 0 53 181 0 0 95 -181 0 0 64 223 0 0 106 -329 0 0 -11zm467 -116c42,0 63,21 63,63 0,43 -21,64 -63,64 -43,0 -64,-21 -64,-64 0,-42 21,-63 64,-63zm-53 -297l116 0 -21 254 -74 0 -21 -254z"/>
    </g>
   </g>
   <path class="fil2" d="M1611 7633c75,0 128,-64 128,-138 0,-74 -64,-127 -138,-127 -74,0 -138,64 -127,138 10,63 63,127 137,127zm-530 0c75,0 138,-64 138,-138 0,-74 -53,-138 -127,-138 -74,0 -138,53 -138,128 0,84 53,148 127,148l0 0zm1060 0c75,0 138,-64 138,-127 0,-74 -63,-138 -127,-138 -74,0 -138,53 -138,127 -10,74 53,138 127,138z"/>
   <path class="fil0" d="M827 9912l0 -2078 3265 0 0 1135 138 0 0 -1590c0,-170 -95,-265 -265,-265l-2979 0c-148,-11 -297,84 -297,275l0 2651 2385 0 0 -128 -2247 0zm1314 -2544c75,0 138,64 128,138 0,74 -64,138 -138,127 -74,0 -138,-64 -127,-138 10,-74 63,-127 137,-127zm-530 0c75,0 138,53 138,127 0,74 -53,138 -127,138 -74,0 -138,-53 -138,-127 0,-85 53,-138 127,-138zm-519 0c64,0 127,53 127,127 0,74 -63,138 -138,138 -74,0 -137,-64 -127,-138 0,-74 53,-127 138,-127l0 0z"/>
   <path class="fil0" d="M1113 9647l1166 0 0 -1590 -1166 0 0 1590 0 0zm2757 -1590l-1379 0 0 636 1379 0 0 -636zm-1379 1590l530 0 0 -742 -530 0 0 742zm806 -116l-21 -32c0,-11 -11,-11 -11,-21l0 -11 -32 -32 0 212 85 0c11,-21 11,-42 21,-53 -10,-21 -31,-42 -42,-63l0 0zm127 -424l53 -64 53 53 21 21 22 32c21,21 42,53 63,74 43,-21 75,-32 106,-53l0 -275 -530 0 0 424 32 -43 180 -169 0 0z"/>
   <path class="fil0" d="M4813 9806l-95 0c-22,0 -32,-10 -32,-32 -21,-63 -43,-116 -64,-169 -21,-43 -21,-43 11,-74 42,-43 95,-85 138,-138l-181 -180 -31 31 -117 117c-11,11 -11,11 -21,11l-21 0c-53,-22 -117,-53 -170,-75 -11,0 -21,-10 -21,-10 -21,-11 -21,-11 -21,-32l0 -212 -244 0 0 212c0,21 -11,32 -21,32 -22,10 -53,21 -75,32 -42,10 -74,31 -116,42 -11,0 -11,11 -21,11 -11,0 -11,0 -22,-11l-127 -127c-11,-11 -21,-11 -21,-21l-170 169c11,11 11,21 21,21l128 128c21,21 21,31 10,53 -10,21 -10,31 -21,53 -21,42 -32,85 -53,127 -10,21 -21,32 -42,32l-202 0 0 244 202 0c21,0 31,10 42,31 21,53 32,106 64,159 31,64 31,43 -11,85l-42 43c-32,31 -64,63 -85,95l169 170 22 -22 127 -127c10,-10 21,-10 32,-10 10,0 10,0 21,10 53,21 106,53 159,74 64,22 53,11 53,75l0 180 244 0 0 -212c0,-21 10,-32 32,-32 63,-21 116,-42 180,-74 21,-11 32,-21 42,-21 11,0 11,10 32,31 42,43 85,96 138,138l180 -180c-11,-11 -21,-21 -21,-32l-127 -127c-11,-11 -11,-32 -11,-32 42,-63 64,-127 85,-201 0,-21 10,-21 32,-21l212 0 0 -244c-96,10 -138,10 -170,10l0 0zm-509 181c0,10 0,10 -10,21 0,10 -11,21 -11,32 0,10 -11,10 -11,21 0,10 -10,21 -10,21 0,11 -11,11 -11,21l-21 21c-11,11 -11,11 -21,11l-22 21c-10,0 -10,11 -21,11 -10,0 -21,10 -21,10 -11,0 -11,0 -21,11 -11,0 -21,11 -32,11l-53 0c-21,0 -42,0 -53,-11 -85,-21 -159,-74 -191,-159 -10,-32 -21,-74 -21,-117l0 -53c0,-10 0,-10 11,-21 0,-10 10,-21 10,-32 0,-10 11,-10 11,-21 0,-10 11,-21 11,-32 0,-10 10,-10 10,-21l21 -21c11,-11 11,-11 22,-11l21 -21c10,0 10,-11 21,-11 11,0 21,-10 21,-10 11,0 11,0 21,-11 11,0 22,-10 32,-10l85 0c53,10 95,32 138,63 63,53 95,128 95,212 11,43 11,64 0,75l0 0z"/>
   <path class="fil1" d="M4039 9658zm0 0c11,0 11,0 0,0 11,0 11,0 0,0l-21 0 -3732 0 3753 0zm-201 106l21 -21c-11,0 -11,10 -21,21zm-32 42c0,-10 11,-21 11,-32 0,11 0,22 -11,32zm117 -116c10,0 21,-11 21,-11 -11,0 -21,11 -21,11zm-43 31l21 -21c-10,11 -21,11 -21,21zm85 -53c11,0 21,-10 32,-10 -11,10 -21,10 -32,10zm318 393c0,10 -11,21 -11,21 0,0 0,-11 11,-21zm21 -53c0,10 -10,21 -10,32 0,-11 10,-22 10,-32zm-254 191l21 0 -3827 0 3806 0zm201 -96l-21 21c11,-10 21,-10 21,-21zm-74 64c-11,0 -21,10 -21,10 0,0 10,0 21,-10zm42 -32l-21 21 21 -21zm-95 53c-11,0 -21,11 -32,11 21,0 21,-11 32,-11zm-350 -276zm223 -244l21 0c-11,-10 -21,-10 -21,0zm-212 202c0,-11 0,-11 10,-21 -10,10 -10,21 -10,21zm477 212c0,11 -11,11 -11,21 11,-10 11,-10 11,-21zm-64 74c-10,0 -10,11 -21,11 0,0 11,-11 21,-11zm-53 21c-10,0 -10,0 -21,11 11,0 21,0 21,-11zm85 -53c-11,11 -11,11 -21,11 10,0 21,0 21,-11zm-127 75l-21 0 21 0zm191 -159c0,10 -11,10 -11,21 0,-11 11,-11 11,-21zm-350 -361c10,0 10,0 21,-11 -11,11 -11,11 -21,11zm-43 21c11,0 11,-10 22,-10 -11,10 -22,10 -22,10zm403 287c0,10 0,10 -10,21 10,-11 10,-11 10,-21zm-477 -213c0,-10 11,-10 11,-21 0,11 -11,21 -11,21zm32 -42c11,-11 11,-11 21,-11 -10,0 -10,11 -21,11z"/>
   <path class="fil2" d="M3000 14884l-1039 0 -10 85c-22,159 -32,276 -32,392 0,149 10,276 32,393l10 85 1050 -1 10 -84c11,-117 32,-244 32,-393 0,-116 -10,-233 -32,-392l-21 -85 0 0zm986 1697z"/>
   <path class="fil0" d="M2947 16888l-180 64 117 -212c106,-202 190,-414 254,-647l21 -74 212 0 43 -43 42 43 307 0 0 -191 -561 0 10 -106c11,-96 21,-233 21,-361 0,-127 -10,-265 -21,-360l-10 -106 816 0 21 74c32,138 53,276 53,403 0,127 -21,265 -53,403l-21 74 191 0c42,-148 63,-307 63,-466 0,-986 -805,-1792 -1791,-1792 -986,-21 -1792,784 -1792,1770 0,986 806,1792 1792,1792 159,0 318,-21 477,-64l0 -201 -11 0zm64 -1134l-11 84 -1039 0 -10 -84c-11,-117 -32,-244 -32,-393 0,-116 10,-233 32,-392l10 -85 1050 0 10 85c22,159 32,276 32,392 -10,138 -21,276 -42,393l0 0zm-11 -1909c361,128 668,382 870,711l84 138 -795 0 -21 -75c-64,-233 -148,-445 -254,-646l-117 -212 233 84 0 0zm-519 -148l74 117c170,233 286,498 371,774l32 116 -976 0 32 -116c85,-276 212,-531 371,-774l96 -117 0 0zm-1389 859c191,-340 498,-583 869,-711l233 -74 -116 212c-106,202 -191,414 -255,647l-21 74 -795 0 85 -148 0 0zm-159 1208c-32,-138 -53,-275 -53,-403 0,-127 21,-265 53,-402l21 -75 816 0 -10 106c-11,96 -21,234 -21,361 0,127 10,265 21,360l10 106 -826 0 -11 -53 0 0zm1028 1113c-360,-127 -678,-381 -869,-710l-85 -148 795 0 21 74c64,233 149,445 255,647l116 212 -233 -75 0 0zm520 149l-74 -117c-170,-233 -287,-498 -371,-774l-32 -116 975 0 -32 116c-85,276 -212,530 -371,774l-95 117z"/>
   <path class="fil0" d="M4802 16740l-95 0c-21,0 -32,-11 -42,-32 -22,-64 -43,-127 -75,-180 -21,-43 -21,-43 11,-75 53,-53 95,-95 148,-137l-190 -191 -32 31 -127 128c-11,10 -11,10 -22,10l-21 0c-74,-31 -138,-63 -212,-84 -21,-11 -32,-11 -32,-32l0 -223 -265 0 0 233c0,22 -10,32 -21,32 -74,21 -138,53 -201,85 -11,0 -21,11 -21,11 -11,0 -11,0 -22,-11l-138 -138c-10,-10 -21,-10 -21,-21l-180 180c11,11 11,21 21,21l127 128c22,21 22,31 11,53 -32,63 -53,127 -85,190 -10,32 -21,43 -42,43l-223 0 0 265 223 0c32,0 32,10 42,32 21,53 43,116 64,169 32,64 32,43 -11,96l-42 42 -96 95c64,64 128,128 181,191 10,-10 21,-10 21,-21 42,-42 95,-85 138,-138 10,-10 21,-10 32,-10 10,0 21,0 31,10 53,32 117,53 170,74 74,22 53,11 64,75l0 201 265 0 0 -222c0,-22 10,-32 31,-43 64,-21 128,-42 191,-74 21,-11 32,-21 43,-21 10,0 10,10 31,32 53,53 96,95 138,148l191 -191 -32 -32 -138 -138c-10,-10 -10,-31 -10,-31 42,-64 74,-138 85,-212 0,-22 10,-22 31,-22l223 0 0 -265c-32,-31 -74,-31 -117,-31zm-530 190c0,11 0,11 -10,22 0,10 -11,21 -11,31 0,11 -10,11 -10,22 0,10 -11,21 -22,31 0,11 -10,11 -10,22 -11,10 -11,21 -22,21 -10,10 -10,10 -21,10l-21 22c-11,0 -11,10 -21,10 -11,0 -21,11 -32,11 -11,0 -11,0 -21,11 -11,0 -21,10 -32,10l-63 0c-159,0 -287,-138 -287,-297 0,-21 0,-42 11,-53 0,-10 0,-10 11,-21 0,-11 10,-21 10,-32 0,-10 11,-10 11,-21 0,-11 10,-21 21,-32 0,-10 11,-10 11,-21 10,-11 10,-21 21,-21 10,-11 10,-11 21,-11l21 -21c11,0 11,-11 21,-11 11,0 22,-10 32,-10 11,0 21,0 21,-11 11,0 22,-10 32,-10l53 0c159,0 286,137 286,296l0 53 0 0z"/>
   <path class="fil1" d="M3848 16612c11,0 22,-10 32,-10 -10,0 -21,10 -32,10zm138 541l32 0 -3785 0 3753 0zm85 -11c-11,0 -21,11 -32,11 11,0 21,-11 32,-11zm-371 -275c0,-21 0,-43 11,-53 -11,10 -11,32 -11,53zm424 254c-11,0 -21,11 -32,11 11,0 21,-11 32,-11zm138 -169c0,10 -11,21 -11,31 0,-10 11,-21 11,-31zm-21 53c0,10 -11,21 -22,31 11,-10 11,-21 22,-31zm-340 -414c11,0 22,-10 32,-10 -10,10 -21,10 -32,10zm265 498l-21 22 21 -22zm43 -42c-11,11 -11,21 -21,21 10,0 10,-10 21,-21zm-446 -360c11,-11 11,-22 22,-22 -11,0 -11,11 -22,22zm509 190c0,22 0,43 -10,64 10,-32 10,-42 10,-64zm-286 -296l-21 0 -3679 0 3700 0zm-180 63l21 -21c-10,11 -10,21 -21,21zm180 -63zm-275 212c0,-11 10,-22 10,-32 0,0 -10,10 -10,32zm21 -64c0,-11 10,-21 21,-32 -11,11 -11,21 -21,32zm148 -127c11,0 21,0 21,-11 -10,0 -21,11 -21,11zm53 -21l21 0 -3710 0 3689 0zm-106 42c11,0 11,-11 21,-11 0,11 -10,11 -21,11zm-42 42c10,-10 10,-10 21,-10 -11,0 -11,0 -21,10z"/>
   <path class="fil1" d="M4219 17036c0,11 -10,11 -10,22 0,-11 10,-22 10,-22zm53 -106c0,11 0,11 -10,22 0,-11 0,-11 10,-22zm-561 -127c0,-10 0,-10 10,-21 -10,11 -10,21 -10,21zm10 -53c0,-10 11,-10 11,-21 0,11 0,21 -11,21zm32 -42c0,-11 11,-11 11,-21 0,0 -11,10 -11,21zm286 445l-21 0 -3732 0 3753 0zm212 -170c0,11 -10,11 -10,22 0,-11 10,-11 10,-22zm-63 96c-11,10 -11,10 -22,10 11,0 11,-10 22,-10zm-96 53c-10,0 -10,0 -21,10 11,0 21,0 21,-10zm53 -21c-10,0 -10,10 -21,10 11,0 11,-10 21,-10z"/>
   <path class="fil0" d="M2682 24595l-1420 0c-75,0 -138,-10 -202,-21 -212,-42 -350,-201 -360,-413 -11,-138 -11,-287 -11,-424l0 -96c0,-95 0,-180 11,-265 10,-74 32,-127 74,-159 42,-32 95,-42 170,-42 95,10 180,42 254,63 42,11 95,32 138,53 42,11 74,32 116,43 96,32 191,21 276,-21 85,-43 138,-128 159,-223 32,-138 0,-255 -74,-339 -96,-106 -212,-138 -361,-96l-190 64c-53,21 -117,42 -170,63 -42,11 -95,22 -159,32 -117,11 -202,-53 -212,-169 -32,-43 -32,-85 -32,-117l0 -583c0,-223 95,-382 276,-477 159,-85 318,-64 424,-32 74,21 159,42 233,64 64,21 127,31 191,53 32,10 53,10 85,10 -11,-21 -11,-32 -22,-42 -10,-11 -10,-32 -21,-53 -10,-32 -32,-64 -42,-96 -43,-74 -74,-159 -106,-243 -43,-106 -43,-223 -11,-350 64,-212 244,-371 477,-403 159,-21 297,0 414,53 191,85 297,254 318,466 10,138 -21,266 -85,393 -21,32 -42,74 -53,106 -32,53 -53,95 -74,148 0,0 0,11 -11,11l11 0c85,-11 169,-32 265,-64l74 -21c106,-32 233,-64 371,-53 244,10 456,222 467,466 10,138 -32,265 -64,393 -11,21 -11,53 -21,74 -21,85 -43,180 -53,254 32,-10 63,-32 95,-53l53 -32c106,-53 212,-106 339,-137 170,-32 340,0 467,95 127,95 212,244 233,413 21,170 0,308 -74,435 -96,170 -244,265 -445,276 -138,10 -287,-22 -435,-106 -32,-11 -53,-32 -85,-43 -32,-21 -74,-42 -106,-53 -11,-10 -32,-10 -42,-21 0,85 32,159 53,244l21 74c32,127 74,255 64,403 -11,254 -202,456 -446,477 -127,11 -254,11 -381,11l-96 0c-85,10 -169,10 -265,10zm-403 -201l774 0c117,0 244,0 361,-11 137,-10 254,-127 254,-286 0,-117 -32,-223 -64,-339l-21 -74c-32,-107 -63,-223 -63,-340 0,-85 42,-127 63,-148 32,-21 74,-43 159,-21 43,10 85,31 117,42 42,21 74,42 116,64 32,10 54,31 85,42 117,64 223,85 329,74 127,-10 223,-63 286,-180 53,-85 64,-191 53,-307 -10,-117 -63,-212 -148,-276 -85,-64 -191,-85 -308,-64 -95,22 -180,64 -275,117l-53 32c-53,21 -96,53 -159,74 -96,32 -159,11 -181,-11 -31,-21 -74,-74 -63,-169 10,-106 32,-212 63,-329 11,-32 11,-53 22,-85 31,-116 63,-222 53,-328 -11,-149 -128,-265 -276,-276 -95,-11 -201,21 -318,53l-74 21c-96,21 -191,53 -297,64 -42,10 -159,21 -223,-64 -63,-85 -10,-201 11,-233 21,-53 53,-106 85,-159 21,-32 42,-74 53,-106 53,-95 63,-191 63,-286 -10,-149 -74,-234 -201,-297 -85,-43 -180,-53 -307,-32 -149,21 -266,117 -308,254 -21,85 -21,159 0,234l95 222c11,32 32,64 43,96 11,10 11,32 21,42 21,32 32,64 42,106 32,85 0,138 -21,159 -21,21 -63,64 -148,64 -43,0 -106,0 -170,-21 -63,-11 -127,-32 -191,-53 -74,-22 -148,-43 -222,-53 -117,-32 -202,-22 -286,21 -117,63 -170,159 -170,307l0 583c0,21 0,53 11,85l0 11c42,0 84,-11 116,-21 53,-22 106,-43 159,-53 64,-22 138,-53 202,-75 222,-74 424,-10 572,149 127,138 170,318 127,519 -31,149 -127,276 -254,350 -127,74 -286,95 -435,42 -42,-10 -85,-31 -127,-53 -42,-21 -85,-31 -127,-42 -64,-21 -138,-42 -223,-53l-10 0 0 11c-11,74 -11,159 -11,244l0 95c0,138 0,276 11,413 10,117 84,202 201,234 42,10 95,10 159,10l753 0 275 11zm-1388 -1007z"/>
   <g>
    <path class="fil0" d="M3202 28189c137,32 275,74 413,106 21,11 53,32 64,64 10,10 -11,53 -21,63 -22,11 -53,11 -75,11 -74,-11 -159,-32 -233,-53 32,106 85,201 106,307 85,403 -106,796 -477,986 -32,11 -53,32 -53,64 0,170 -106,286 -276,339 -10,0 -21,11 -21,11l-95 0c-85,-21 -170,-64 -233,-138 -107,-148 -85,-350 53,-467 137,-116 349,-106 477,22 21,21 31,31 42,53 435,-181 572,-753 318,-1103 -21,74 -42,149 -53,233 -11,53 -32,85 -95,75 -53,-11 -64,-53 -43,-106l96 -382c10,-32 31,-53 53,-85l53 0zm-605 1357c-116,0 -201,85 -212,202 0,106 85,201 202,201 116,0 212,-85 212,-201 0,-107 -85,-202 -202,-202zm1453 170c-53,63 -85,63 -138,0 -32,-32 -64,-75 -117,-128 -42,53 -74,96 -106,138 -32,43 -74,53 -116,11 -43,-42 -22,-74 10,-106 43,-32 75,-74 128,-127 -53,-43 -96,-85 -138,-117 -32,-32 -43,-74 -11,-106 32,-42 74,-32 106,11 42,42 74,85 127,127 43,-42 75,-85 106,-117 64,-63 85,-53 149,0l0 53c-53,43 -106,96 -170,149 64,63 117,106 170,159l0 53 0 0zm-2068 -499c53,43 85,85 128,128 31,31 42,74 10,106 -31,32 -74,21 -106,-11 -42,-42 -74,-85 -127,-138 -42,53 -85,96 -127,127 -32,32 -74,53 -106,11 -43,-42 -21,-74 10,-106 43,-42 85,-74 128,-127 -53,-43 -96,-85 -138,-127 -32,-32 -43,-75 -11,-106 32,-32 74,-32 106,10 43,43 74,85 127,127 43,-53 85,-84 128,-127 31,-32 74,-42 106,-10 42,42 21,74 -11,106 -32,53 -64,95 -117,137z"/>
    <path class="fil0" d="M2661 28645c53,42 85,85 127,117 32,31 43,74 11,106 -32,31 -74,21 -106,-11 -43,-42 -74,-85 -127,-138 -43,53 -85,96 -117,138 -32,32 -74,42 -106,11 -42,-32 -32,-75 11,-106 42,-43 84,-75 137,-128 -53,-42 -95,-84 -137,-127 -32,-32 -43,-74 -11,-106 32,-32 74,-32 106,11 42,42 85,85 127,138 43,-53 85,-96 127,-138 32,-32 75,-43 106,0 32,32 22,74 -10,106 -43,32 -85,74 -138,127z"/>
    <path class="fil0" d="M2205 31380l-117 0c-159,-116 -159,-201 -31,-339l339 -339 -1516 0 0 -2714c-74,-11 -138,-11 -201,-22l0 -816c31,0 53,-10 84,-10l4061 0c31,0 63,10 95,10l0 817c-64,10 -117,10 -180,21l0 2714 -1495 0c-11,10 -11,21 -21,31 106,106 212,202 318,308 138,138 127,223 -11,350l-116 0c-212,-202 -414,-403 -647,-626 -170,202 -371,403 -562,615l0 0zm2195 -3392l-3160 0 0 2353 3160 0 0 -2353zm-3361 -202l3541 0 0 -297 -3541 0 0 297z"/>
   </g>
   <g>
    <path class="fil0" d="M477 36045l286 0 0 286 -286 0 0 -286zm1452 -562l287 0 0 286 -287 0 0 -286zm-869 276l286 0 0 286 -286 0 0 -286zm583 286l286 0 0 286 -286 0 0 -286zm-583 286l286 0 0 286 -286 0 0 -286zm869 0l287 0 0 286 -287 0 0 -286zm-583 562l287 0 0 286 -287 0 0 -286zm1167 -2258c0,-11 0,-11 0,0zm-1167 562l287 0 0 286 -287 0 0 -286z"/>
    <path class="fil0" d="M5078 37412c-350,-169 -700,-339 -1039,-509 -169,-84 -297,-201 -339,-392 -11,-32 -21,-85 0,-106 85,-138 117,-297 170,-445 10,-21 21,-42 42,-53 127,-117 170,-329 95,-467 -21,-42 -21,-74 -10,-116 21,-117 53,-233 42,-339 -53,-308 -254,-499 -562,-594 -127,-32 -244,-43 -371,-32 -85,11 -169,21 -254,53 -11,0 -21,11 -32,11 -117,42 -212,116 -297,201l0 11 286 0 0 286 -296 0 0 -286 -11 0c-74,85 -117,180 -148,286 -11,53 -22,117 -11,170 0,42 11,74 21,116 11,53 21,106 32,149 0,21 0,42 -11,63l-32 64c-31,95 -21,191 11,286 21,53 53,106 106,159 11,11 21,32 32,43 0,0 0,10 11,10 10,21 21,43 31,74 32,96 75,191 106,287 11,21 11,31 22,53 10,31 21,74 21,116 -11,43 -21,85 -32,117l-138 191c-42,31 -85,63 -138,95l-10 0c-43,21 -96,42 -138,74 -96,53 -191,96 -297,149 -42,21 -95,42 -138,74 -53,21 -95,53 -148,74 -96,53 -191,95 -297,148 -11,0 -21,11 -32,11 -32,11 -42,32 -53,53 -10,11 -10,32 -10,53l0 233 3911 0 0 -233c-31,-85 -42,-116 -95,-138l0 0zm-2852 43l-297 0 0 -287 297 0 0 287zm880 -276l-297 0 0 -286 297 0 0 286zm0 -848l-297 0 0 -286 297 0 0 286 0 0zm0 -848l-297 0 0 -286 297 0 0 286z"/>
   </g>
   <g>
    <path class="fil0" d="M4474 41568c-138,-159 -297,-318 -456,-488l-117 117 -2777 0c-202,21 -371,159 -424,339 -11,21 -11,43 -11,64l0 2226c0,11 0,32 11,43 53,222 254,371 487,371l1283 0c308,201 626,402 933,604l159 106 0 -710 361 0c201,-22 371,-159 424,-350 10,-21 10,-43 10,-64l0 -2025 96 -95c127,-95 116,-42 21,-138l0 0zm-276 2237c0,11 0,32 -10,42 -32,117 -149,212 -276,223l-530 0 0 562c-276,-180 -562,-361 -838,-541 -21,-10 -53,-21 -74,-21l-1293 0c-159,0 -286,-95 -318,-244 0,-10 0,-21 -11,-32l0 -2173c0,-11 11,-32 11,-42 32,-117 148,-202 265,-212l2576 0c-392,392 -774,774 -1145,1155 -21,21 -11,117 21,138 117,138 255,255 382,382 53,53 95,74 159,10 350,-360 710,-710 1060,-1070l0 1802 21 21 0 0zm732 -2693c0,127 -159,382 -276,414 -32,10 -85,-11 -106,-43 -138,-127 -265,-254 -392,-392 -21,-21 -43,-74 -32,-106 42,-138 318,-297 445,-276 170,32 361,234 361,403z"/>
    <path class="fil0" d="M2120 43498c106,-266 212,-541 318,-806 170,180 340,339 509,519 -244,106 -519,212 -784,318 -21,0 -32,-10 -43,-31l0 0z"/>
   </g>
   <path class="fil0" d="M3976 51290l-2619 0 0 -3138 53 -22 360 0c32,0 64,32 64,53 32,117 127,181 244,181l880 0c116,0 212,-64 244,-181 10,-21 21,-53 74,-53l339 0 11 43 0 307c0,21 0,43 10,53 22,85 96,138 181,127 84,-10 148,-84 148,-169l0 -467c0,-138 -106,-243 -254,-243l-859 -1 0 -42c-11,-244 -202,-371 -382,-360 -138,10 -339,106 -360,360l0 42 -859 0c-85,0 -148,43 -180,75 -43,42 -74,106 -74,180l0 3350c0,138 106,244 243,244l2492 0c85,0 159,-43 212,-117 32,-53 32,-116 32,-191l0 -31 0 0zm-1485 -3775c128,0 234,106 234,234 0,127 -106,233 -234,233 -63,0 -116,-21 -169,-64 -43,-42 -74,-106 -74,-169 10,-128 116,-234 243,-234z"/>
   <path class="fil0" d="M3806 48957c-11,0 -11,0 0,0 -286,0 -541,106 -742,297 -191,191 -297,445 -297,710 -11,552 445,997 1007,1007 286,0 541,-95 742,-296 202,-191 308,-456 308,-732 0,-530 -467,-975 -1018,-986zm498 636c-159,318 -318,626 -477,944 -53,106 -201,127 -276,32 -95,-128 -190,-244 -296,-371 -75,-96 -32,-223 84,-255 64,-21 128,0 170,53l127 159c0,0 11,11 11,21 53,-95 95,-190 138,-275 74,-149 148,-286 222,-435 32,-63 96,-95 159,-95 75,10 128,53 149,127 10,32 10,64 -11,95l0 0zm-1813 -986c-31,22 -63,22 -95,32 32,-21 64,-53 74,-95 -32,21 -64,32 -106,42 -32,-32 -74,-53 -127,-53 -96,0 -170,85 -170,180l0 43c-148,-11 -275,-85 -360,-191 -21,21 -21,53 -21,95 0,64 31,117 74,149 -32,0 -53,-11 -74,-21 0,84 63,159 137,180 -10,0 -31,10 -42,10l-32 0c21,75 85,128 159,128 -63,53 -138,74 -212,74l-42 0c74,53 169,85 265,85 318,0 488,-276 488,-520l0 -21c42,-42 63,-74 84,-117l0 0zm-180 827l-466 0c-85,0 -149,64 -149,149l0 456c0,84 64,148 149,148l466 0c85,0 149,-64 149,-148l0 -456c0,-85 -64,-149 -149,-149l0 0zm43 85l21 0 0 138 -127 0 0 -127 106 0 0 -11zm-382 212c21,-32 64,-53 106,-53 42,0 85,21 106,53 21,21 21,53 21,74 0,75 -64,128 -138,128 -74,0 -138,-53 -138,-128 11,-31 22,-53 43,-74l0 0zm413 308c0,42 -31,74 -74,74l-466 0c-43,0 -75,-32 -75,-74l0 -308 117 0c-11,21 -21,53 -21,74 0,117 95,202 212,202 117,0 212,-96 212,-202 0,-21 -11,-53 -21,-74l116 0 0 308zm-116 540l-128 0 0 -85c0,-31 22,-42 32,-42l96 0 0 -138 -128 0c-148,0 -169,106 -169,170l0 95 -85 0 0 149 85 0 0 403 169 0 0 -403 117 0 11 -149 0 0z"/>
   <g>
    <path class="fil0" d="M1368 57587l360 -1071 212 0 361 1071 -202 0 -95 -286 -361 0 -95 286 -180 0zm455 -870l-137 446 286 0 -149 -446zm1135 159l10 -413 181 0 0 1124 -181 0 0 -127 -10 0c-43,84 -127,137 -244,137 -201,0 -318,-148 -318,-392l0 -64c0,-233 117,-392 318,-392 117,0 201,53 244,127l0 0zm-371 265l0 64c0,159 74,244 180,244 117,0 191,-85 191,-244l0 -64c0,-148 -74,-243 -191,-243 -106,0 -180,85 -180,243zm1071 -392c201,0 307,106 307,255l-170 0c-10,-53 -42,-117 -148,-117 -85,0 -138,42 -138,106 0,85 117,106 212,117 149,32 276,74 276,233 0,170 -138,265 -350,265 -202,0 -329,-95 -329,-244l180 0c11,64 64,106 160,106 106,0 159,-53 159,-106 0,-85 -96,-95 -202,-116 -148,-32 -276,-85 -276,-234 -10,-191 149,-265 319,-265l0 0z"/>
    <path class="fil0" d="M4622 55286c-127,-148 -275,-297 -424,-456l-74 75c-53,-11 -106,-22 -159,-22l-2597 0c-318,0 -573,255 -573,562l0 2089c0,307 255,562 573,562l2597 0c318,0 572,-255 572,-562l0 -2025 96 -95c74,-85 74,-43 -11,-128l0 0zm-254 2248c0,222 -180,403 -403,403l-2597 0c-223,0 -403,-181 -403,-403l0 -2089c0,-222 180,-403 403,-403l2618 0 -466 467c-22,21 -11,106 21,127 106,127 233,233 350,361 53,53 95,63 148,10 265,-265 265,-265 329,-339l0 1866 0 0zm668 -2672c0,117 -149,361 -255,382 -32,10 -74,-11 -95,-32 -127,-117 -244,-244 -361,-360 -21,-22 -42,-75 -31,-96 42,-127 296,-275 413,-254 159,21 329,201 329,360z"/>
    <path class="fil0" d="M3085 56421c95,-244 191,-499 286,-742 159,159 308,318 467,477 -233,95 -477,190 -721,296 0,-10 -21,-21 -32,-31l0 0z"/>
   </g>
   <g>
    <path class="fil0" d="M2968 67849c43,11 75,21 117,32 42,10 64,42 53,85 -53,180 -117,360 -170,530 -10,42 -42,53 -106,31 -31,-10 -53,-31 -53,-74 22,-180 53,-360 75,-540 0,-32 21,-64 42,-75 21,11 32,11 42,11l0 0zm-402 3244c190,138 222,201 169,360 117,85 233,159 350,244 95,64 95,159 -11,212l-318 159c-74,43 -127,21 -180,-42 -148,-180 -318,-339 -541,-445 -31,-11 -42,-11 -74,10 -127,96 -265,117 -413,64 -329,-96 -541,-318 -626,-657 -42,-159 0,-308 128,-435 116,-127 233,-255 349,-392 149,-181 202,-393 212,-626 0,-148 0,-307 22,-456 21,-191 106,-339 233,-466 85,-85 191,-96 307,-85 202,21 382,95 552,201 519,308 922,732 1197,1273 64,127 117,265 128,413 10,138 -21,255 -128,361 -148,127 -318,190 -498,201 -159,11 -328,11 -487,21 -149,0 -265,21 -371,85l0 0zm-594 -2120c0,74 42,169 85,265 138,275 339,519 551,742 201,201 424,392 689,530 95,53 201,95 318,106 106,11 180,-42 191,-148l0 -85c-11,-106 -53,-202 -106,-287 -276,-487 -657,-869 -1124,-1166 -116,-74 -254,-138 -392,-159 -138,-32 -212,43 -212,202zm1346 1781c-668,-340 -1166,-838 -1495,-1506l0 53c0,106 0,212 -10,318 -11,202 -64,382 -159,552 -11,21 -21,53 -21,84 53,318 349,615 657,679 42,11 85,0 127,-21 64,-32 127,-64 191,-85 148,-53 307,-64 466,-64 96,-10 170,-10 244,-10l0 0zm287 -1718c-22,-21 -54,-42 -64,-63 -11,-22 0,-53 10,-75l350 -413c32,-42 64,-42 106,-11 32,32 64,53 85,85 32,32 32,64 0,85 -138,117 -286,244 -424,360 -21,22 -42,22 -63,32zm508 700c-42,0 -63,-21 -74,-74 -10,-32 0,-64 43,-74 180,-53 360,-117 540,-170 43,-11 64,0 74,53l32 127c11,32 -10,64 -42,64 -202,21 -392,53 -573,74l0 0z"/>
    <path class="fil0" d="M2428 69503c159,-117 413,-96 572,53 159,148 180,403 64,583 -233,-191 -445,-403 -636,-636l0 0z"/>
   </g>
   <path class="fil2" d="M1792 62262l-138 445 275 0 -127 -445 -10 0zm911 191c-106,0 -180,85 -180,244l0 63c0,159 74,244 180,244 117,0 181,-85 181,-244l0 -63c10,-149 -64,-244 -181,-244z"/>
   <path class="fil2" d="M3583 64478l53 -53 22 -22 10 -10c-21,-43 -32,-85 -53,-127l-233 0 0 -393 233 0c21,-42 32,-84 53,-127l-64 -63 -21 -32 -21 -21 0 -11 -53 -53 53 -53 159 -159 53 -53 53 53 21 21 22 21c21,21 42,43 63,74 43,-21 85,-31 117,-53l0 -233 180 0 0 -1134c0,-223 -180,-403 -392,-403l-2492 0c-212,0 -392,180 -392,403l0 2078c0,222 180,403 392,403l2195 0 21 -32 21 -21 0 0zm-1526 -1336l-85 -286 -361 0 -84 286 -181 0 350 -1060 212 0 350 1060 -201 0zm1007 0l-170 0 0 -127 -10 0c-43,85 -128,138 -234,138 -201,0 -307,-149 -307,-393l0 -74c0,-233 117,-392 307,-392 106,0 191,53 234,127l10 0 0 -403 180 0 0 1124 -10 0zm169 -233l170 0c11,63 64,106 159,106 106,0 149,-53 149,-106 0,-85 -96,-96 -202,-117 -148,-32 -265,-85 -265,-233 0,-180 148,-255 318,-255 191,0 297,106 297,255l-159 0c0,-53 -42,-117 -149,-117 -84,0 -137,43 -137,106 0,85 116,106 201,117 148,32 265,74 265,233 0,170 -127,265 -329,265 -190,-10 -318,-106 -318,-254l0 0zm1018 911z"/>
   <path class="fil0" d="M1696 62071l-350 1060 181 0 84 -286 361 0 85 286 191 0 -350 -1060 -202 0zm-42 636l138 -445 10 0 138 445 -286 0zm1240 -275c-42,-75 -127,-128 -233,-128 -191,0 -307,159 -307,393l0 74c0,233 106,392 307,392 106,0 191,-53 233,-138l11 0 0 127 169 0 0 -1134 -180 0 0 414zm0 328c0,159 -74,244 -180,244 -106,0 -180,-85 -180,-244l0 -63c0,-159 74,-244 180,-244 117,0 191,95 191,244l-11 63zm997 127c0,-159 -117,-201 -265,-233 -96,-21 -202,-32 -202,-116 0,-64 53,-106 138,-106 106,0 138,63 148,116l160 0c0,-148 -107,-254 -297,-254 -170,0 -318,74 -318,254 0,149 116,202 265,233 106,22 201,32 201,117 0,64 -42,106 -148,106 -96,0 -149,-42 -159,-106l-181 0c0,148 117,244 318,244 213,10 340,-85 340,-255l0 0z"/>
   <path class="fil0" d="M3509 64562l32 -31 -2195 0c-212,0 -392,-181 -392,-403l0 -2078c0,-223 180,-403 392,-403l2513 0c212,0 392,180 392,403l0 1134 159 0 0 -1134c0,-307 -244,-562 -551,-562l-2513 0c-307,0 -551,255 -551,562l0 2078c0,307 244,562 551,562l2290 0 -74 -74 -53 -54z"/>
   <path class="fil1" d="M4251 63820zm223 318c0,11 -11,22 -11,32 11,-10 11,-21 11,-32zm-43 96l-21 21 21 -21zm32 -43c0,11 -10,22 -10,22 0,0 0,-11 10,-22zm-74 85zm-286 -392l21 -21c-11,10 -21,10 -21,21zm-85 117c0,-11 11,-22 11,-32 0,10 0,21 -11,32zm-11 74c0,-21 0,-32 11,-53 -11,10 -11,32 -11,53zm64 -159l21 -21c-10,10 -21,10 -21,21zm-32 42c0,-10 11,-21 11,-21 0,0 -11,11 -11,21zm96 -106c10,0 10,-10 21,-10 0,0 -11,10 -21,10zm233 435c-11,0 -11,10 -21,10 0,0 10,0 21,-10zm-117 32l32 0 -4050 0 4018 0zm0 -499zm127 456c11,0 11,0 0,0 11,0 11,0 0,0 11,0 11,0 0,0zm32 -392c-10,-11 -10,-11 -21,-11 11,0 11,11 21,11zm-85 424c-10,0 -10,11 -21,11 0,0 11,-11 21,-11zm-169 -466c10,0 10,0 21,-11 0,11 -11,11 -21,11zm42 -11zm-85 32c11,0 11,-11 22,-11 0,11 -11,11 -22,11zm-31 32c10,-11 10,0 0,0zm-64 127c0,-11 0,-11 0,0zm11 -53c0,-11 10,-11 10,-21 0,10 -10,21 -10,21zm21 -32c0,-11 10,-11 0,0 10,-11 10,-11 0,0zm424 233c0,11 -11,11 -11,21 0,-10 0,-10 11,-21zm-32 43c0,10 -11,10 0,0 0,10 0,10 0,0zm42 -85c0,10 0,10 0,0zm-137 169c-11,0 -11,0 -22,11 0,0 11,0 22,-11zm31 -21c-10,0 -10,11 -21,11 11,0 21,0 21,-11z"/>
   <g>
    <path class="fil0" d="M9562 72089l-265 0c-74,-10 -159,-21 -233,-31 -774,-170 -1293,-636 -1526,-1400 -32,-116 -43,-244 -64,-371l0 -265c11,-53 11,-95 21,-148 117,-668 477,-1145 1071,-1453 42,-21 74,-31 117,-53 10,22 10,32 21,43 233,572 477,1134 710,1707 11,31 32,42 53,53 95,42 191,95 276,137 381,191 774,382 1155,573 85,42 170,85 265,127l0 11c0,10 -10,21 -10,32 -287,508 -711,837 -1273,975 -106,42 -212,42 -318,64l0 -1z"/>
    <g>
     <path class="fil0" d="M9690 68061c32,11 63,11 95,21 85,11 170,21 244,43 32,10 64,21 85,21l-329 699 -201 424 -361 -858 -116 -286 127 -32c53,-11 95,-11 159,-21 21,0 42,-11 64,-11l233 0 0 0zm21 -212l-265 0c-74,11 -159,21 -233,32 -128,21 -255,63 -371,106 243,593 498,1187 742,1791 275,-593 551,-1166 837,-1759 -116,-43 -222,-85 -328,-106l-382 -64zm1982 1876c-106,-625 -434,-1092 -986,-1410 -31,-21 -74,-42 -116,-63 -276,583 -551,1166 -838,1749 583,286 1166,572 1750,869 31,-85 74,-169 106,-254 53,-159 84,-318 106,-477l0 -255c-11,-53 -11,-106 -22,-159l0 0zm-265 -201c22,64 32,138 53,201l-350 721 -116 -63 413 -859 0 0zm-615 774l-127 -64 562 -1134c32,53 64,106 85,159l-520 1039zm287 -1400l-605 1230 -137 -63 625 -1283 117 116 0 0zm-552 -53l138 -286c43,32 96,64 138,96l-657 1314 -127 -63 508 -1061zm848 1739l-84 -42 180 -371c-11,127 -42,254 -85,381 0,0 0,21 -11,32l0 0z"/>
    </g>
   </g>
   <g id="_2561927229632">
    <path class="fil0" d="M11715 61796c0,-191 -117,-308 -319,-308l-3572 0c-170,0 -350,117 -350,329l0 3064 4230 0 0 -53c11,-997 11,-2025 11,-3032l0 0zm-2481 0c85,0 159,74 159,159 0,84 -74,148 -159,148 -85,0 -159,-74 -159,-159 0,-85 63,-159 159,-148zm-636 0c85,0 159,63 159,148 0,85 -74,159 -159,159 -85,0 -159,-64 -159,-148 -11,-96 63,-159 159,-159zm-636 0c84,0 159,74 159,159 0,84 -75,159 -159,148 -85,0 -159,-74 -159,-159 0,-85 74,-159 159,-148zm3594 2947l-3912 0 0 -2417 3912 0 0 2417z"/>
    <path class="fil0" d="M9393 62654l-1378 0 0 1813 1378 0 0 -1813zm1791 0l-1590 0 0 848 1590 0 0 -848 0 0zm-954 1071l-636 0 0 742 636 0 0 -742zm318 742l636 0 0 -742 -636 0 0 742z"/>
   </g>
   <path class="fil2" d="M10135 55615l0 254 254 0c-74,-106 -159,-191 -254,-254l0 0zm0 1569c95,-64 180,-148 254,-255l-254 0 0 255zm0 -488l371 0c32,-95 53,-191 53,-297 0,-106 -21,-201 -53,-296l-371 0 0 593zm-2216 -1251l0 32c21,-42 43,-74 64,-116 148,-223 339,-414 562,-562 32,-22 74,-43 116,-64l-31 0c-382,-11 -711,318 -711,710zm891 1495c63,95 148,180 254,255l0 -255 -254 0zm487 0l0 371c96,32 191,53 297,53 106,0 202,-21 297,-53l0 -371 -594 0zm0 -837l594 0 0 593 -594 0 0 -593zm594 -244l0 -371c-95,-32 -191,-53 -297,-53 -106,0 -201,21 -297,53l0 371 594 0zm-837 244l-371 0c-32,95 -53,190 -53,296 0,106 21,202 53,297l371 0 0 -593zm-1124 1229l0 22c0,392 318,720 710,720l21 0c-42,-21 -74,-42 -116,-63 -53,-32 -106,-74 -159,-117 -181,-169 -340,-350 -456,-562zm1124 -1717c-96,64 -181,148 -255,254l255 0 0 -254 0 0z"/>
   <path class="fil0" d="M7930 55477c21,-42 42,-74 63,-116 -21,31 -42,74 -63,116zm-43 74c11,-32 32,-53 43,-85 -21,32 -32,64 -43,85zm3308 -180l64 95 -64 -95zm64 95c10,32 32,53 42,85 -11,-32 -32,-53 -42,-85z"/>
   <path class="fil0" d="M9032 54576c-116,-53 -254,-85 -392,-85 -530,0 -954,424 -954,954 0,138 32,276 85,393 0,10 0,21 -11,21l1039 0c64,-96 149,-180 255,-255l0 -1039c0,11 -11,11 -22,11l0 0zm-477 223c-222,148 -413,339 -562,562 -21,31 -42,74 -63,116 -11,32 -32,53 -43,85 11,-32 32,-53 43,-85l0 -32c0,-392 318,-721 721,-721l32 0c-53,32 -96,53 -128,75zm1039 646c106,0 202,21 297,53l0 -975c-95,-11 -201,-21 -297,-21 -95,0 -201,10 -297,21l0 975c96,-32 191,-53 297,-53zm1824 393c53,-117 85,-255 85,-393 0,-530 -424,-954 -955,-954 -137,0 -275,32 -392,85 -10,0 -21,0 -21,-11l0 1039c95,64 180,149 254,255l1039 0c0,-11 0,-21 -10,-21l0 0zm-520 -817c-85,-74 -169,-148 -275,-212 -32,-21 -75,-42 -117,-63l21 0c382,0 700,296 711,678 -11,-21 -32,-32 -43,-53 -85,-127 -180,-244 -297,-350l0 0zm-2905 340zm3308 1887c-11,31 -32,53 -42,84 21,-31 32,-63 42,-84zm-2905 636c-191,-149 -350,-340 -466,-552 116,212 275,393 466,552zm-466 -552c-11,-31 -32,-53 -43,-84 11,31 32,53 43,84zm3551 -1229l-975 0c32,95 53,190 53,296 0,106 -21,202 -53,297l975 0c11,-95 22,-201 22,-297 0,-106 -11,-201 -22,-296l0 0zm-1887 1251c-106,0 -201,-22 -297,-53l0 975c96,10 202,21 297,21 96,0 202,-11 297,-21l0 -975c-95,31 -191,53 -297,53z"/>
   <path class="fil0" d="M11396 56951l-1028 0c-53,85 -138,169 -233,233l0 1039 32 0c106,42 233,74 371,74 530,0 954,-424 954,-954 -11,-138 -42,-276 -95,-392l-1 0zm-158 392c0,392 -319,721 -721,721l-11 0c42,-21 74,-43 117,-64 222,-148 413,-339 561,-562 22,-31 32,-63 53,-95l1 0zm-2428 -403l-1039 0c0,11 0,21 10,21 -53,117 -84,255 -84,393 0,530 424,954 954,954 138,0 275,-32 392,-85 11,0 21,0 21,10l0 -1038c-106,-75 -191,-159 -254,-255l0 0zm-170 1134c-392,0 -721,-318 -710,-720l0 -22c-11,-31 -32,-53 -43,-84 11,31 32,53 43,84 116,212 275,393 466,552 53,42 106,84 159,116 32,21 75,43 117,64 -11,0 -21,10 -32,10zm53 -1971l-975 0c-11,95 -21,201 -21,296 0,106 10,202 21,297l975 0c-32,-95 -53,-191 -53,-297 0,-106 21,-201 53,-296l0 0z"/>
   <path class="fil0" d="M8396 57884c53,42 106,84 159,116 -53,-42 -106,-74 -159,-116z"/>
   <g id="_2561927226208">
    <path class="fil0" d="M11471 48300l-11 -74c0,-53 -32,-85 -85,-96 -191,-74 -381,-137 -583,-212l-1155 -413c-11,0 -11,-11 -22,-11l-53 0 -116 43c-85,31 -180,63 -265,95 -456,159 -912,329 -1368,488 -53,21 -85,53 -95,116 -43,403 -53,764 -21,1092 31,393 106,721 222,1029 191,487 477,837 870,1092 233,148 477,243 731,275 11,0 11,0 21,11l96 0c21,0 32,-11 53,-11 42,-10 85,-10 116,-21 552,-138 976,-466 1272,-975 170,-287 287,-626 350,-1018 64,-392 75,-816 32,-1293 11,-43 11,-85 11,-117zm-361 1845c-127,392 -318,689 -572,932 -265,244 -573,393 -912,446l-42 0c-53,0 -106,-11 -159,-21 -467,-128 -838,-403 -1103,-827 -170,-265 -276,-573 -350,-933 -74,-393 -85,-817 -42,-1325 10,-75 32,-106 106,-138 318,-117 636,-223 954,-340 191,-63 382,-137 573,-201 21,-11 53,-11 84,0 350,127 700,254 1050,371l509 180c32,11 53,21 63,75 11,137 11,286 22,381l0 85c-11,551 -53,944 -181,1315l0 0z"/>
    <path class="fil0" d="M9001 49530l0 -21c0,-117 0,-244 10,-361 11,-159 74,-286 191,-392 170,-149 371,-202 583,-117 212,74 350,233 382,456 10,64 10,138 10,201l0 234c22,10 43,10 64,21 32,21 42,42 42,74l0 806c0,106 -84,180 -190,180l-997 0c-95,0 -170,-53 -191,-138 0,-21 -10,-42 -10,-53l0 -774c10,-74 31,-95 106,-116l0 0zm996 10l0 -413c-42,-265 -318,-414 -562,-308 -159,75 -244,191 -244,361l0 350c265,10 541,10 806,10zm-276 764l0 -32c-10,-74 -31,-159 -42,-233 0,-11 0,-22 11,-22 42,-53 42,-116 -11,-159 -42,-42 -117,-42 -159,0 -42,43 -53,106 -11,159 0,11 11,11 11,22 -11,53 -21,116 -32,169 -10,32 -10,64 -21,96l254 0z"/>
   </g>
   <path class="fil0" d="M10919 41144l-1272 1262 -466 -467 -1484 1484 169 170 1325 -1325 477 477 1432 -1431 212 212 201 -806 0 -11 -827 202 233 233 0 0zm53 1346l382 0 0 2460 -382 0 0 -2460zm-975 530l382 0 0 1930 -382 0 0 -1930z"/>
   <polygon class="fil1" points="9785,42893 9870,42808 9785,42808 "/>
   <path class="fil0" d="M8979 43561l382 0 0 1389 -382 0 0 -1389zm-975 530l382 0 0 859 -382 0 0 -859z"/>
   <path class="fil2" d="M10093 36034c0,-10 0,-10 0,0 -22,21 -32,53 -53,85 -181,-74 -350,-53 -499,85 -42,42 -74,74 -95,116l297 0c169,0 318,-127 350,-286l0 0zm-181 -159c22,0 32,0 43,-21 21,-32 53,-64 85,-85 -43,-64 -96,-117 -170,-148 -32,-11 -64,-22 -106,-32 53,-191 21,-361 -127,-498 -149,-138 -318,-159 -499,-85 -137,-308 -445,-403 -678,-329 -117,43 -223,106 -297,212 -106,149 -127,308 -85,488 -10,0 -21,0 -31,10 -234,32 -403,255 -382,499 10,233 212,434 445,434l1103 0c116,-286 402,-477 699,-445z"/>
   <path class="fil2" d="M10283 36098c-53,222 -243,392 -466,424l-424 0c0,53 10,106 21,169 -32,11 -74,22 -106,32 -159,64 -244,233 -212,414 32,169 180,297 339,297l1622 0c234,0 435,-191 446,-435 21,-244 -149,-467 -382,-498 -11,0 -21,0 -32,-11 42,-180 21,-339 -85,-488 -74,-106 -169,-180 -297,-212 -127,-42 -286,-32 -424,53 22,85 22,170 0,255l0 0z"/>
   <path class="fil0" d="M11344 36352c-22,-10 -32,-21 -32,-53 -11,-381 -308,-700 -668,-742 -159,-11 -308,11 -424,85 -32,-53 -85,-106 -138,-148 -53,-43 -74,-75 -74,-138 -32,-361 -371,-636 -721,-583 -21,0 -32,0 -43,-22 -180,-222 -402,-318 -678,-286 -371,32 -657,361 -668,742 0,21 -11,43 -32,53 -275,138 -424,456 -360,764 63,307 328,519 636,519l1060 0c-11,32 -32,53 -64,74 -190,127 -275,371 -212,604 53,223 244,393 467,425l1685 0c308,0 562,-212 637,-520 53,-318 -96,-636 -371,-774l0 0zm-3223 -32c-234,0 -435,-190 -446,-434 -21,-244 149,-467 382,-499 11,0 21,0 32,-10 -43,-180 -21,-339 85,-488 74,-106 169,-180 297,-212 233,-74 540,21 678,329 180,-74 350,-53 498,85 149,137 180,307 127,498 32,10 75,21 106,32 75,31 128,85 170,148l-85 85c-10,21 -21,21 -42,21 -297,-42 -594,159 -689,445l-1113 0zm2947 1103l-1622 0c-170,0 -318,-127 -339,-297 -32,-180 53,-350 212,-413 31,-11 63,-22 106,-32 -22,-64 -22,-117 -22,-170 0,-74 22,-138 53,-201 22,-43 53,-85 96,-117 148,-138 318,-159 498,-85 11,-31 32,-63 53,-95 53,-85 117,-138 191,-180 138,-74 297,-96 424,-53 117,42 223,106 297,212 106,148 127,307 85,487 10,0 21,0 31,11 234,32 403,254 382,498 -10,244 -212,435 -445,435l0 0z"/>
   <path class="fil0" d="M8789 37243c0,10 -11,10 0,0 -106,106 -202,212 -297,307l-11 11 0 -233 -615 0 0 -160 615 0 0 -233 11 11 297 297c-11,0 0,0 0,0l0 0z"/>
   <path class="fil0" d="M7866 36702l159 0 0 551 -159 0 0 -551zm2205 -1834c0,0 0,-11 0,0 106,-106 202,-212 297,-307l11 -11 0 233 615 0 0 159 -615 0 0 233 -11 -10c-95,-85 -191,-191 -297,-297l0 0z"/>
   <polygon class="fil0" points="10835,34857 10994,34857 10994,35409 10835,35409 "/>
   <g id="_2561927222144">
    <path class="fil0" d="M7474 30659l0 -371c32,-74 64,-148 85,-222 95,-690 191,-1389 286,-2089 53,-371 308,-615 679,-615 720,-10 1452,0 2173,0 318,0 594,244 636,551 85,605 170,1209 244,1824 21,127 21,265 74,382 85,212 85,424 32,625 -74,265 -318,424 -626,424l-3000 0c-180,0 -339,-85 -445,-233 -64,-85 -96,-180 -138,-276l0 0zm3944 -784c0,-43 0,-64 -11,-96 -85,-604 -159,-1198 -244,-1802 -32,-265 -233,-445 -509,-445l-2120 0c-275,0 -477,180 -509,445 -53,424 -116,848 -180,1283 -32,201 -53,403 -85,625 159,-106 329,-95 488,-95l2693 0c159,-11 318,-11 477,85l0 0zm-1824 85l-1473 0c-234,0 -414,127 -456,328 -21,74 -11,159 -11,233 0,297 180,477 488,477l2936 0c223,0 403,-137 446,-339 10,-74 10,-148 10,-222 0,-318 -169,-488 -498,-488 -477,11 -965,11 -1442,11l0 0z"/>
    <path class="fil0" d="M10103 28136c-10,95 -10,170 -21,244 0,64 -32,106 -95,95 -64,-10 -85,-53 -75,-106 11,-127 22,-265 32,-392 11,-64 43,-106 117,-95 138,10 275,21 424,31 53,0 85,43 85,96 0,53 -43,85 -96,74 -53,0 -106,-11 -148,-11 53,138 116,255 138,393 63,350 -64,646 -361,848 -307,212 -625,222 -954,42 -307,-180 -456,-456 -435,-805 11,-202 85,-372 223,-520 42,-42 85,-85 148,-32 43,32 43,85 -21,149 -201,222 -244,540 -95,795 138,254 424,392 731,350 276,-32 520,-255 583,-541 43,-223 -10,-424 -180,-615l0 0zm859 2078c148,0 265,117 265,254 0,149 -127,265 -265,265 -149,0 -265,-116 -255,-265 -10,-137 106,-254 255,-254zm95 276l0 -32c-32,-21 -63,-53 -106,-64 -53,0 -95,43 -74,85 11,32 53,74 85,74 32,0 64,-42 95,-63l0 0z"/>
   </g>
   <path class="fil0" d="M9658 24383l-127 0c-11,-10 -22,-10 -43,-21 -318,-85 -604,-233 -827,-488 -95,-106 -169,-233 -265,-349 -159,42 -318,127 -424,275 -85,117 -127,255 -148,392 -11,64 -32,106 -106,96 -64,-11 -85,-53 -74,-106 31,-244 106,-467 296,-615 117,-95 255,-159 382,-244 -21,-106 -53,-223 -74,-350 -11,-53 -21,-74 -74,-74l-562 0c-53,0 -96,-32 -138,-53l0 -85c42,-21 95,-42 138,-53 159,-10 318,0 477,0l148 0 0 -530c-42,-10 -85,-32 -116,-53 -276,-138 -456,-350 -477,-678 0,-64 0,-128 84,-128 75,0 96,53 96,117 0,244 191,467 445,541 43,-74 74,-170 138,-212 127,-85 180,-191 201,-350 32,-202 181,-318 361,-403 32,-11 64,-42 74,-74 64,-180 180,-297 350,-371 32,-11 64,-32 106,-43l233 0c21,11 42,22 74,32 181,64 297,180 371,361 22,42 53,74 85,95 170,95 318,212 350,413 21,159 64,266 191,350 63,43 85,128 127,202 265,-85 456,-308 456,-552 0,-21 0,-42 11,-53 31,-21 63,-63 95,-63 21,0 64,42 74,74 11,32 11,64 0,95 -53,340 -254,541 -551,658 -21,10 -64,32 -64,53 0,159 11,318 21,487l615 0c53,0 96,32 138,53l0 85c-42,21 -95,43 -138,53 -191,11 -371,0 -562,0 -31,0 -63,0 -74,53 -21,127 -53,255 -74,382 21,11 53,21 74,32 371,127 562,413 615,795 0,32 -10,85 -42,106 -21,21 -74,21 -96,0 -21,-21 -42,-64 -42,-96 -53,-349 -286,-604 -594,-646 -180,360 -477,615 -848,763 -106,64 -191,95 -286,127l0 0zm-1050 -2502c-106,53 -159,149 -169,287 -11,222 -32,434 -11,657 32,593 308,1028 838,1272 74,32 148,53 233,85l0 -1855c-180,-32 -350,-53 -520,-96 -169,-53 -307,-169 -371,-350l0 0zm1082 435l0 1866c53,-21 106,-32 148,-43 392,-159 689,-413 838,-827 137,-392 127,-795 63,-1197 -10,-96 -63,-170 -148,-223 -96,254 -308,350 -551,392 -117,0 -234,11 -350,32l0 0zm-96 -170c191,-31 382,-53 562,-95 170,-32 255,-159 276,-329 32,-191 -21,-339 -180,-445 -128,-95 -276,-148 -435,-170 -318,-42 -626,-21 -891,170 -148,106 -190,254 -169,435 21,169 106,286 265,328 191,53 381,75 572,106l0 0zm340 -1219c-96,-138 -234,-191 -393,-169 -116,10 -244,95 -265,169l658 0z"/>
   <line class="fil2" x1="10760" y1="16888" x2="7686" y2= "16135" />
   <path class="fil1" d="M8121 16570l1367 0 -1367 0zm2957 0c75,0 149,-11 213,-53 -75,42 -138,53 -213,53z"/>
   <path class="fil0" d="M10760 16888zm923 -986c0,21 0,53 10,74l-10 -74zm-711 1187l0 -42 0 42zm-212 212l-21 0 -10453 0 10474 0zm-42 -10c-11,0 -21,0 -21,-11 10,11 21,11 21,11zm-127 -85c0,-11 -11,-11 -11,-21 0,10 0,21 11,21zm350 -233c0,10 10,10 10,21 0,0 -10,-11 -10,-21zm-138 -85c10,0 10,0 21,11 0,0 -11,-11 -21,-11zm116 53c0,0 11,11 11,21 -11,-10 -11,-10 -11,-21zm-74 -42c11,0 11,10 21,10 -10,0 -10,0 -21,-10zm43 21l10 10c-10,0 -10,-10 -10,-10zm-318 254c0,-10 0,-10 -11,-21 11,11 11,11 11,21zm74 85c-11,0 -11,-11 -21,-21 10,11 10,21 21,21zm148 -371l-21 0 -10485 0 10506 0zm-180 350c-11,-11 -11,-11 -11,-21 0,10 11,21 11,21zm350 -223c0,11 10,21 10,32 -10,-21 -10,-21 -10,-32zm-276 265c-10,0 -10,-10 -21,-10 0,10 11,10 21,10zm286 -148c-10,32 -21,53 -31,74 10,-21 31,-42 31,-74zm626 -1060l0 -11 0 11z"/>
   <path class="fil0" d="M11715 16231l0 -85c0,-32 -11,-53 -11,-85l0 -32c0,-21 -11,-32 -11,-53 0,-21 -10,-42 -10,-74 -11,-64 -21,-138 -32,-201l-21 -138 -43 -255 -32 -201 -21 -117 -53 -339 -21 -117c-21,-106 -32,-222 -53,-328 -21,-127 -85,-244 -170,-339 -106,-117 -243,-181 -402,-191l-817 0 0 212 764 0c106,10 190,53 265,127 63,64 106,148 127,233 32,149 53,297 74,446 21,148 53,307 74,455 22,149 53,308 75,456 21,138 42,265 74,403l-74 32c-32,11 -96,64 -117,159 -11,53 -42,95 -85,127 -42,32 -85,43 -138,43l-2989 0c-96,-11 -170,-85 -191,-170l0 -32 -202 21 0 -31c22,-149 53,-287 75,-435 21,-149 53,-308 74,-456 21,-148 53,-307 74,-456 32,-159 53,-318 85,-477 10,-74 21,-138 63,-201 85,-149 213,-234 382,-234l732 0 0 -201 -732 0c-244,0 -445,117 -562,339 -53,96 -74,191 -85,265 -21,117 -42,223 -53,340l-21 137 -42 234 -43 222 -21 96 -63 360 -75 424 0 11 -10 21 0 1156 10 31c0,22 11,32 11,53 53,191 191,329 371,403 74,32 148,43 244,43l2958 0c191,0 371,-75 487,-223 96,-106 149,-244 149,-403l0 -721 32 -254zm-202 233l0 731c0,96 -32,191 -95,266 -85,95 -202,148 -329,148l-2958 0c-53,0 -106,-11 -159,-32 -127,-53 -212,-148 -254,-276 -11,-21 -11,-42 -11,-63l0 -1050c0,11 0,32 11,43 32,180 191,318 371,339l3000 0c74,0 149,-11 212,-53 21,-11 43,-21 64,-42 85,-64 138,-149 159,-255 0,-10 0,-10 10,-10l0 10c-21,85 -21,170 -21,244l0 0zm85 -392l0 -11 0 11zm-2110 498l1580 0 -1580 0zm-477 -1421l-244 0 -8258 0 8502 0zm1410 0l-233 0 -9690 0 9923 0z"/>
   <path class="fil0" d="M10411 15160l-488 0c-11,0 -11,0 -11,-21l0 -1357 -95 10 0 1347c0,10 0,53 32,85 -32,-32 -32,-75 -32,-85l0 -1347 95 -10 0 -212 -636 0 0 1569c0,10 0,21 -21,21l-519 0c0,0 0,11 10,11 276,265 551,540 827,805l11 11c0,0 10,0 10,-11 276,-265 552,-540 817,-816 10,11 21,11 21,0l-21 0zm-923 -1272l0 -21 0 21z"/>
   <path class="fil1" d="M9011 15149l255 0 -9255 0 9000 0zm1177 0l-254 0 -9415 0 9669 0z"/>
   <path class="fil0" d="M10760 16888l-42 0 -10411 0 10453 0zm138 42c11,0 11,11 21,11 -10,0 -21,0 -21,-11zm-286 22c32,-32 64,-53 106,-53 -42,0 -74,21 -106,53zm-32 233c0,-11 -10,-11 -10,-21 0,10 10,21 10,21zm286 -276c11,0 11,11 22,11 -11,0 -22,-11 -22,-11zm64 53l11 11 -11 -11zm-191 339l-21 0c11,0 21,-10 21,0zm53 -413l21 0 -10569 0 10548 0zm32 11c11,0 11,0 21,10 0,-10 -10,-10 -21,-10zm-201 349c0,0 0,-10 0,0 0,-10 0,0 0,0zm328 -254l11 11c0,0 -11,0 -11,-11zm-350 223l-10 -11c0,11 0,11 10,11zm371 -181c0,11 0,11 0,0 0,11 0,11 0,0zm-275 255c-11,-11 0,0 0,0zm-127 -276c-11,21 -22,53 -22,85 0,21 0,42 11,64 -11,-21 -11,-43 -11,-64 0,-32 11,-64 22,-85zm95 255c0,0 -11,0 -11,-11 0,11 0,11 11,11zm95 -287c-63,0 -106,53 -106,106 0,64 53,106 106,106 32,0 53,-10 75,-31 21,-22 31,-43 31,-75 11,-53 -42,-106 -106,-106l0 -106 0 106z"/>
   <path class="fil0" d="M10972 17036c0,-10 -10,-21 -10,-31 0,0 0,-11 -11,-11 0,-11 -10,-11 -10,-21l-11 -11c0,-10 -11,-10 -11,-21 0,0 -10,-11 -21,-11l-10 -10c-11,0 -11,-11 -22,-11 -10,0 -10,-10 -21,-10 -10,0 -10,0 -21,-11 -11,0 -11,0 -21,-11l-43 0 0 106c64,0 106,43 106,106 0,32 -10,53 -31,75 -22,21 -43,31 -75,31 -63,0 -106,-42 -106,-106 0,-53 53,-106 106,-106l0 -106 -42 0c-42,11 -74,32 -106,53 -21,22 -32,43 -42,64 -11,21 -22,53 -22,85 0,21 0,42 11,64 0,10 0,10 11,21 0,10 10,10 10,21 0,10 11,11 11,21l10 11c0,10 11,10 11,21l11 11 21 21 11 10c10,0 10,11 21,11l10 0c11,0 21,11 21,11l43 -1c74,0 138,-31 180,-95 11,-21 21,-42 32,-74l0 -43c10,-10 10,-21 10,-53 0,11 0,11 0,0l0 0z"/>
   <g id="_2561927220096">
    <path class="fil0" d="M11715 7167l0 3477c0,10 -11,10 -11,21 -42,180 -159,297 -339,350 -11,0 -22,10 -43,10l-3477 0c-11,0 -21,-10 -32,-10 -169,-43 -275,-138 -339,-297 -11,-21 -11,-42 -21,-74l0 -3477c0,-11 10,-11 10,-22 43,-169 138,-275 297,-339 21,-11 53,-11 74,-21l3478 0c10,0 21,11 32,11 169,42 275,137 339,307 21,11 21,42 32,64l0 0zm-4061 1738l0 1633c0,42 0,85 11,116 32,128 138,191 275,191l3308 0c138,0 233,-74 276,-191 10,-31 10,-74 10,-116l0 -3287c0,-116 -42,-212 -159,-265 -42,-21 -106,-21 -148,-21l-3297 0c-170,0 -286,117 -286,286 10,541 10,1103 10,1654l0 0z"/>
    <path class="fil0" d="M8449 7580l0 -170c0,-63 32,-106 85,-106 53,0 85,43 85,106l0 170c148,32 276,106 360,244 64,95 85,201 85,318 -10,212 -159,424 -445,488l0 1781c0,53 -42,95 -85,95 -53,0 -85,-32 -85,-85l0 -1770c-275,-74 -445,-255 -434,-552 0,-286 169,-445 434,-519zm85 880c202,0 361,-159 361,-350 0,-223 -191,-360 -361,-350 -191,11 -350,159 -339,350 -11,191 148,350 339,350zm2036 710c-318,-116 -446,-286 -446,-551 0,-191 138,-435 446,-509l0 -689c0,-21 0,-42 10,-53 11,-42 43,-53 85,-53 42,0 64,21 85,64 10,21 10,42 10,53l0 678c308,106 446,276 446,541 0,244 -149,424 -446,519l0 1241c-10,42 -42,74 -84,74 -43,0 -85,-32 -85,-74l0 -1198c-21,-11 -21,-32 -21,-43zm84 -180c191,0 350,-159 350,-350 0,-222 -180,-360 -360,-350 -180,11 -339,159 -339,350 -11,191 148,350 349,350l0 0zm-975 180c286,96 435,265 445,520 0,254 -137,424 -445,540l0 159c0,64 -32,106 -85,106 -53,0 -85,-42 -95,-106l0 -159c-286,-74 -456,-254 -435,-561 11,-266 180,-425 435,-499l0 -1749c0,-64 32,-95 85,-95 53,0 95,42 95,106l0 1738 0 0zm-85 880c202,0 361,-159 361,-350 0,-222 -181,-360 -361,-350 -180,11 -339,170 -339,361 -11,180 148,339 339,339l0 0z"/>
   </g>
   <path class="fil0" d="M7760 1007c0,-191 149,-286 286,-286l2449 0 181 -180 -2799 0c-149,-11 -297,95 -297,286l0 2671 180 0 0 -2491z"/>
   <polygon class="fil1" points="11503,3742 11503,1219 "/>
   <path class="fil0" d="M11333 1378l-180 180 -53 53 275 0 0 2099 -3297 0 0 -2099c573,11 1156,11 1728,11 22,-95 43,-201 85,-307l424 -424 -2088 0c-138,0 -287,95 -287,286l0 2671 3563 0 0 -2629 -170 159zm-1930 -222c75,0 138,63 138,137 0,75 -63,138 -138,138 -74,0 -137,-63 -137,-138 0,-74 63,-137 137,-137zm-530 0c75,0 138,53 138,137 0,75 -63,138 -138,138 -74,0 -137,-53 -137,-138 0,-74 63,-137 137,-137zm-530 0c74,0 138,63 138,137 0,75 -64,138 -138,138 -74,0 -138,-63 -138,-138 0,-74 53,-137 138,-137z"/>
   <polygon class="fil0" points="8322,3498 9488,3498 9488,1908 8322,1908 "/>
   <polygon class="fil1" points="9711,1898 9711,2004 9743,1898 "/>
   <path class="fil0" d="M10124 2226l-424 117 0 297 1389 0 0 -721 -276 0 -180 180c-212,53 -297,53 -509,127zm-424 1272l636 0 0 -636 -636 0 0 636zm742 0l636 0 0 -636 -636 0 0 636zm923 -2480c-11,-11 -21,-32 -43,-43 -21,-31 -42,-53 -74,-84 -32,-43 -74,-75 -106,-117l-64 -64c-53,-53 -116,-116 -169,-180l-11 -11 -10 11c-75,74 -138,127 -181,180l-180 181 -371 371c-21,21 -10,116 21,148 64,74 138,148 212,212 64,53 117,117 181,180 53,43 95,53 159,0l180 -180 244 -244 180 -180 42 -42c85,-96 85,-43 -10,-138l0 0zm85 -880c-128,-21 -414,148 -456,286 -11,32 10,85 42,106 127,138 265,265 403,403 32,21 74,53 106,42 117,-31 286,-286 286,-424 -10,-169 -201,-381 -381,-413zm-944 1760c-85,-96 -180,-181 -265,-265 -74,-75 -148,-138 -212,-212 -32,74 -53,148 -74,212 -32,95 -53,180 -85,265 -21,84 -53,169 -96,265l43 42c275,-116 477,-159 731,-265l-42 -42 0 0z"/>
   <g id="_2525871655104">
    <path class="fil0" d="M4930 1770c-106,96 -223,191 -329,287 -32,32 -53,21 -74,-11 -32,-42 -74,-74 -117,-117 -21,-21 -32,-21 -53,0 -42,43 -85,85 -127,117 -42,42 -53,42 -85,0 -42,-42 -85,-74 -116,-117 -22,-21 -43,-21 -64,0l-127 128c-32,21 -53,32 -74,0 -32,-43 -75,-75 -106,-117 -22,-21 -43,-32 -64,0l-127 127c-22,22 -43,22 -64,0 -42,-42 -95,-85 -138,-127 -21,-21 -32,-21 -53,0 -42,32 -85,64 -127,106 -32,43 -74,53 -127,43 -32,0 -53,10 -64,42 -265,530 -986,594 -1336,117 -371,-488 -84,-1209 509,-1304 339,-53 679,127 827,445 21,32 32,42 74,42l1591 0c31,0 63,11 95,32 106,95 212,180 318,265 -42,0 -42,21 -42,42zm-2820 -31c0,-159 -117,-276 -265,-265 -138,0 -255,127 -255,265 0,148 117,275 265,265 149,10 255,-117 255,-265z"/>
    <path class="fil0" d="M689 1601c21,-96 32,-191 53,-276 170,-572 551,-933 1113,-1060 456,-106 870,11 1230,297 212,169 360,392 456,647 0,10 10,21 10,53l-137 0c-75,10 -117,-22 -159,-96 -202,-392 -520,-625 -955,-678 -657,-85 -1261,381 -1367,1049 -64,403 42,774 318,1071 212,233 477,371 795,403 520,53 1018,-244 1240,-732 11,-31 22,-42 53,-42l212 0c-10,42 -21,74 -31,95 -202,456 -541,753 -1018,880 -424,106 -816,32 -1177,-222 -297,-212 -498,-499 -594,-849 -21,-84 -31,-169 -53,-254 11,-106 11,-201 11,-286l0 0zm3732 2247c0,75 -53,149 -149,191 -95,43 -180,21 -254,-42 -223,-223 -445,-446 -657,-679 -96,-95 -85,-244 0,-339 95,-95 244,-95 328,0 223,223 435,445 658,668 63,53 84,106 74,201l0 0zm-986 -1039c-11,22 -21,43 -32,53 -42,53 -95,96 -138,149 -32,32 -74,32 -95,0 -32,-32 -32,-64 0,-96 53,-53 95,-106 148,-148 21,-11 53,-21 74,-11 11,0 32,32 43,53l0 0z"/>
   </g>
   <path class="fil0" d="M4940 63948l-85 0c-21,0 -31,-11 -31,-32 -22,-53 -32,-106 -64,-149 -21,-31 -21,-31 11,-63 42,-43 84,-85 127,-117l-159 -159 -32 32 -106 106c-11,11 -11,11 -21,11l-21 0c-64,-32 -117,-53 -181,-75 -21,-10 -31,-10 -31,-31l0 -191 -223 0 0 191c0,21 -11,31 -21,31 -64,22 -117,43 -170,75 -10,0 -21,10 -21,10 -11,0 -11,0 -21,-10l-117 -117c-10,-11 -21,-11 -21,-21l-148 148c10,11 10,21 21,21l106 106c21,22 21,32 10,43 -31,53 -42,106 -74,159 -10,32 -21,32 -32,32l-191 0 0 222 191 0c32,0 32,11 32,32 21,42 32,95 53,138 32,53 32,32 -11,85l-31 32 -85 84c53,53 106,106 148,159 11,-10 21,-10 21,-21 32,-32 85,-74 117,-116 11,-11 21,-11 32,-11 10,0 21,0 32,11 42,31 95,42 148,63 64,21 42,11 53,64l0 169 223 0 0 -190c0,-22 10,-32 32,-32 53,-21 106,-32 159,-64 21,-11 31,-21 31,-21l32 32c43,42 85,85 117,127l159 -159 -32 -32 -117 -117c-10,-10 -10,-31 -10,-31 32,-53 64,-117 74,-181 0,-21 11,-21 32,-21l201 0 0 -222 -106 0zm-456 169c0,11 0,11 -10,21 0,11 -11,22 -11,32 0,11 -10,11 -10,21 0,11 -11,22 -22,32 0,11 -10,11 -10,21 -11,11 -11,22 -21,22 0,-22 0,-22 -11,-22l-21 22c-11,0 -11,10 -21,10 -11,0 -22,11 -32,11 -11,0 -11,0 -21,10 -11,0 -22,11 -32,11l-64 0c-138,0 -244,-117 -244,-254 0,-22 0,-32 11,-43 0,-10 0,-10 11,-21 0,-11 10,-21 10,-32 0,-10 11,-10 11,-21 0,-11 10,-21 21,-32 0,-10 11,-10 11,-21 10,-11 10,-21 21,-21 10,-11 10,-11 21,-11l21 -21c11,0 11,-11 21,-11 11,0 22,-10 32,-10 11,0 21,0 21,-11 11,0 22,-10 32,-10l53 0c138,0 244,116 244,254 -11,42 -11,53 -11,74l0 0zm12680 -59876l-2905 0 0 -308c0,-233 191,-424 424,-424l2057 0c233,0 424,191 424,424l0 308zm-2301 -1220l117 0 0 488 -117 0 0 -488zm1580 0l116 0 0 488 -116 0 0 -488z"/>
   <path class="fil2 str0" d="M17461 1187l402 467c64,116 212,159 318,95 106,-63 149,-212 85,-328l-434 -1167"/>
   <g>
    <path class="fil0" d="M17492 106c85,0 149,32 212,85 149,148 75,381 -31,541l-287 424 -1102 1664c-159,233 -403,265 -530,265 -96,0 -191,-21 -276,-42 -117,-43 -244,-128 -371,-255 -74,-74 -180,-212 -254,-381 -128,-297 -43,-626 222,-806l2089 -1389c31,-21 63,-42 106,-53 85,-42 159,-53 222,-53l0 0zm0 -106c-85,0 -180,21 -265,64 -42,21 -74,42 -116,63l-2089 1400c-307,212 -403,593 -265,933 74,180 202,339 276,413 74,74 222,212 413,276 96,31 202,53 308,53 243,0 477,-96 625,-318l1103 -1665 286 -424c148,-212 191,-488 11,-678 -85,-85 -181,-117 -287,-117l0 0zm647 1781c-201,0 -360,159 -360,360l731 0c-11,-201 -170,-360 -371,-360l0 0z"/>
   </g>
   <path class="fil0" d="M17768 2141l117 0 0 244 -117 0 0 -244zm615 0l116 0 0 244 -116 0 0 -244z"/>
   <path class="fil3" d="M14863 8375zm3032 0l0 42 0 -42z"/>
   <g>
    <path class="fil0" d="M17683 8524l0 1600c0,53 -42,96 -95,96l-2428 0c-53,0 -95,-43 -95,-96l0 -1600 2618 0 0 0zm212 -212l-3021 0 0 1812c0,170 138,308 307,308l2428 0c170,0 307,-138 307,-308l0 -1770c-21,-11 -21,-21 -21,-42z"/>
   </g>
   <ellipse class="fil0" cx="16379" cy="10421" rx="456" ry="604"/>
   <path class="fil0" d="M16453 7082l-148 0 0 530 148 0 0 -530zm-1590 1293l-456 0c-85,0 -148,64 -148,149l0 572c0,11 11,32 32,32l95 0c11,0 32,-11 32,-32l0 -551c0,-11 11,-32 32,-32l424 0 0 -138 -11 0zm3488 0l-456 0 0 149 424 0c11,0 32,10 32,31l0 552c0,10 11,31 32,31l95 0c11,0 32,-10 32,-31l0 -573c-11,-85 -74,-159 -159,-159l0 0z"/>
   <circle class="fil0" cx="15626" cy="7410" r="148"/>
   <circle class="fil0" cx="17132" cy="7410" r="148"/>
   <g>
    <path class="fil0" d="M17185 6997c212,0 382,170 382,382l0 63c0,212 -170,382 -382,382l-1718 0c-212,0 -381,-170 -381,-382l0 -63c0,-212 169,-382 381,-382l1718 0 0 0zm0 -212l-1718 0c-328,0 -593,265 -593,594l0 63c0,329 265,594 593,594l1718 0c329,0 594,-265 594,-594l0 -63c0,-329 -265,-594 -594,-594l0 0zm329 8576c-32,-10 -64,-10 -107,-10l-1887 0c-84,0 -169,0 -254,10 -127,11 -212,128 -201,255 21,127 116,201 254,201l1707 0c148,0 297,0 456,-10 116,-11 201,-106 201,-212 11,-117 -64,-212 -169,-234l0 0zm-53 255c-11,10 -32,0 -43,0l-2110 0c-10,-11 -31,-32 -31,-43 0,-10 21,-31 31,-42 11,-11 32,0 53,0l2110 0c11,11 32,32 32,42 -11,22 -32,43 -42,43l0 0z"/>
   </g>
   <polygon class="fil2" points="16390,16803 16029,16803 891,16803 0,16803 "/>
   <path class="fil0" d="M14863 16294c21,11 21,53 32,75 11,169 11,349 32,519 74,509 519,901 1049,912 276,10 541,10 817,0 498,-11 954,-393 1028,-859 32,-180 32,-371 42,-562 0,-32 11,-74 32,-95 32,-32 53,-64 74,-96l-3180 0c11,43 42,75 74,106zm1050 1368c-11,-191 138,-445 307,-530 106,-53 212,-53 318,0 212,116 276,307 318,530l-943 0zm1654 -1209c10,-127 10,-127 159,-106 -22,308 21,615 -181,891 -127,191 -307,318 -530,382 -42,-128 -95,-255 -138,-393 43,11 96,21 149,21 180,32 339,-53 424,-212 95,-180 106,-381 116,-583l1 0zm-1273 -116c11,53 -10,138 85,138 85,0 74,-85 74,-138l954 0c-10,233 0,456 -116,668 -42,84 -127,137 -223,116 -169,-32 -328,-32 -487,-116 -138,-85 -297,-64 -446,0 -74,31 -148,53 -233,74 -64,21 -138,32 -212,42 -127,21 -212,-32 -276,-148 -63,-149 -84,-308 -95,-467 0,-53 0,-106 -11,-169l986 0zm-1251 10c149,-21 149,-21 159,106 11,181 22,371 96,541 95,223 233,297 487,255 32,-11 75,-11 107,-22 -43,128 -96,255 -138,393 -75,-32 -159,-64 -234,-106 -286,-181 -434,-446 -445,-774 0,-106 -10,-223 -21,-329 -11,-21 -11,-42 -11,-64l0 0z"/>
   <path class="fil0" d="M16029 16803l711 0c53,0 95,-10 95,-74 0,-53 -42,-74 -95,-74l-711 0c-53,0 -95,10 -95,63 0,75 42,85 95,85l0 0z"/>
   <path class="fil2" d="M15065 14990c-75,0 -75,0 -75,75l0 1102 2789 0 0 -1177 -2714 0zm1293 -1229c-721,10 -1230,530 -1336,1039l2714 0c-116,-541 -668,-1061 -1378,-1039l0 0z"/>
   <path class="fil0" d="M17938 14778c-212,-901 -1177,-1420 -2078,-1123 -605,201 -1050,763 -1060,1367 -11,392 0,785 0,1177 0,95 74,159 169,159l2820 0c127,0 191,-64 191,-180l0 -901c-11,-170 -11,-340 -42,-499l0 0zm-1580 -1017c721,-11 1261,498 1378,1039l-2714 0c96,-509 615,-1029 1336,-1039l0 0zm1410 2406l-2788 0 0 -1102c0,-75 0,-75 74,-75l2714 0 0 1177z"/>
   <path class="fil0" d="M17450 15669l-2120 0c-53,0 -96,-43 -96,-96 0,-53 43,-95 96,-95l2120 0c53,0 95,42 95,95 0,53 -42,96 -95,96z"/>
   <g>
    <path class="fil0" d="M15149 20408c-21,0 -42,10 -63,10 -117,32 -202,96 -265,202 -43,63 -64,138 -74,212l0 3286c0,21 10,43 10,64 32,116 96,201 202,265 63,42 137,64 212,74l2989 0 0 -4135 -2989 0c0,22 -11,22 -22,22zm2767 3477l0 403 -2682 0c-116,0 -212,-64 -233,-170 -21,-63 0,-138 42,-191 43,-53 106,-84 170,-95l2714 0 0 53 -11 0zm-1526 -3233l1537 0 0 2936 -2693 0c-63,0 -116,11 -169,21l-75 0 0 -2724c0,-117 64,-202 159,-234 22,-10 53,-10 85,-10 382,10 764,10 1156,10l0 1z"/>
    <polygon class="fil0" points="15616,21288 17450,21288 17450,21531 15616,21531 "/>
   </g>
   <g>
    <path class="fil0" d="M17439 41345l0 647c-413,53 -742,414 -742,838 0,424 329,784 742,837l0 647 -2968 0 0 -2969 2968 0 0 0zm212 -212l-3392 0 0 3393 3392 0 0 -1071c-31,11 -74,11 -106,11 -350,0 -636,-287 -636,-636 0,-350 286,-636 636,-636 32,0 75,0 106,10l0 -1071z"/>
   </g>
   <path class="fil0" d="M14683 43572l1272 0 0 212 -1272 0 0 -212zm0 318l848 0 0 212 -848 0 0 -212z"/>
   <path class="fil2" d="M17439 42830c0,212 -159,392 -371,413 106,127 234,212 371,212l212 0 0 477c382,-222 636,-647 636,-1102 0,-456 -254,-880 -636,-1103l0 477 -212 0c-159,0 -286,85 -381,212 212,21 381,191 381,414l0 0z"/>
   <path class="fil0" d="M17439 41409l0 583c-318,0 -551,223 -668,488 64,-53 149,-74 244,-74l43 0c95,-117 222,-212 381,-212l212 0 0 -477c382,222 636,646 636,1102 0,456 -254,880 -636,1103l0 -477 -212 0c-127,0 -265,-85 -371,-213 -21,0 -32,11 -53,11 -85,0 -169,-32 -233,-74 127,276 392,488 657,488l0 583c615,-181 1060,-753 1060,-1421 0,-668 -445,-1230 -1060,-1410z"/>
   <path class="fil0" d="M17068 43243c212,-32 371,-201 371,-413 0,-223 -169,-393 -381,-424 -96,127 -149,286 -149,424 0,148 64,296 159,413z"/>
   <path class="fil0" d="M17068 43243c-95,-116 -159,-265 -159,-413 0,-128 53,-297 149,-424l-43 0c-85,0 -169,31 -244,74 -53,116 -74,233 -74,350 0,127 32,243 85,349 64,43 148,75 233,75 22,0 32,0 53,-11l0 0z"/>
   <polygon class="fil2 str0" points="14471,54491 18287,54491 18287,58308 14471,58308 "/>
   <path class="fil2 str1" d="M15234 54491l0 3817m764 -3817l0 3817m816 -3817l0 3817m731 -3817l0 3817m742 -2513l-3816 0m3816 509l-3816 0m3816 1622l-3816 0m3816 -519l-3816 0m2767 519l-1781 0c-350,0 -636,-286 -636,-636l0 -1781c0,-350 286,-636 636,-636l1781 0c350,0 636,286 636,636l0 1781c0,350 -286,636 -636,636z"/>
   <circle class="fil2 str1" cx="16347" cy="56399" r="1527"/>
   <circle class="fil2 str1" cx="16347" cy="56399" r="763"/>
   <path class="fil0" d="M16475 57725l0 -530 222 0 0 -806 -615 0 0 806 255 0 0 540 -1188 0 0 -530 223 0 0 -816 -233 0 0 -541 244 0 0 -53c0,-116 21,-212 63,-297 85,-169 212,-275 424,-339 106,-32 223,-42 350,-42 43,0 96,0 138,10l74 0 53 11 0 562 -275 0c-22,0 -43,10 -64,21 -32,11 -53,42 -53,74l0 53 1325 0 0 1347 223 0 0 540 -1166 0 0 -10z"/>
   <g>
    <path class="fil1" d="M16210 55159l180 0c10,0 21,0 42,11l0 466 -222 0c-32,0 -53,11 -85,21 -53,22 -74,64 -85,117l0 106 1325 0 0 1346 223 0 0 435 -1050 0 0 -424 223 0 0 -912 -721 0 0 912 254 0 0 435 -1081 0 0 -424 223 0 0 -923 -234 0 0 -434 244 0 0 -106c0,-96 21,-191 64,-276 85,-170 222,-255 392,-308 85,-31 191,-42 308,-42l0 0zm0 -106c-138,0 -255,21 -361,53 -223,64 -371,180 -456,361 -42,95 -74,201 -74,328l-244 0 0 647 233 0 0 710 -222 0 0 636 1293 0 0 -647 -254 0 0 -699 509 0 0 700 -223 -1 0 637 1262 0 0 -647 -223 0 0 -1346 -1315 0c0,-22 11,-22 22,-32 10,0 31,-11 42,-11l329 0 0 -668 -85 -10 -85 0c-53,-11 -106,-11 -148,-11l0 0z"/>
   </g>
   <path class="fil0" d="M17047 55753c-191,0 -339,-159 -339,-340 0,-190 148,-339 339,-339 95,0 180,32 244,106 63,64 95,149 95,244 0,180 -159,329 -339,329l0 0z"/>
   <g>
    <path class="fil1" d="M17047 55127c159,0 286,127 286,287 0,159 -127,286 -286,286 -159,0 -286,-127 -286,-286 0,-160 127,-287 286,-287l0 0zm0 -106c-212,0 -392,180 -392,393 0,212 169,392 392,392 212,0 392,-180 392,-392 0,-107 -42,-202 -116,-276 -74,-74 -170,-117 -276,-117l0 0z"/>
   </g>
   <g>
    <path class="fil0" d="M15022 69312c-53,-32 -127,-11 -159,42 -32,53 -10,128 43,159 53,32 127,11 159,-42 31,-64 10,-127 -43,-159z"/>
    <path class="fil0" d="M18499 69959c-21,-53 -42,-106 -53,-149l-233 -636c-10,-21 -21,-53 -32,-74l-42 42c-64,53 -117,96 -180,149l-117 106c-106,95 -222,191 -339,286 -11,11 -21,21 -21,32 -11,63 -32,127 -53,180 -11,21 -11,42 -22,64 -137,509 -265,1017 -402,1526 -32,-297 -64,-572 -75,-636 0,-10 0,-32 -10,-53 -32,0 -53,0 -85,11l0 -53c11,-212 95,-403 233,-573 85,-106 180,-201 276,-307 10,-21 21,-21 0,-43 -53,-74 -96,-148 -138,-233 -254,-434 -477,-890 -700,-1346l-95 -191c-11,11 -11,21 -21,32 -85,169 -170,350 -255,519 -212,414 -424,838 -668,1230 -10,11 0,21 11,32 64,74 138,148 201,222 106,128 202,266 265,425 32,95 53,190 53,296 -31,0 -53,0 -84,-10 0,10 0,10 -11,21 -11,64 -53,329 -85,604 -85,-339 -180,-678 -265,-1018 -106,-424 -222,-837 -328,-1261 -11,-42 -32,-74 -75,-106l-74 0c-244,64 -487,127 -731,201 -64,22 -74,32 -53,96 95,371 191,742 297,1102l349 1304c11,53 22,96 43,149l3064 0c10,-53 21,-96 42,-149 148,-583 307,-1155 456,-1738l0 -11c-43,-21 -43,-32 -43,-42l0 0zm-795 -297c22,-11 32,-32 53,-43 22,-21 43,-31 53,-53 43,-42 96,-74 138,-116 21,-11 32,-21 53,-11 32,11 53,11 85,21 32,11 53,11 74,22 11,0 32,10 32,31 32,96 74,191 106,287l42 106 -710 -191 74 -53 0 0zm-1208 148c42,43 42,106 0,149 -43,42 -106,42 -149,0 -42,-43 -42,-106 0,-149 43,-42 106,-42 149,0zm-615 339c-74,-106 -159,-190 -244,-296l-21 -22c276,-445 509,-911 742,-1367l0 1177c0,21 0,21 -21,31 -117,53 -170,191 -117,308 64,116 202,159 318,85 74,-53 106,-128 96,-212 -11,-85 -64,-149 -138,-181l-11 0c0,0 -10,0 0,0l0 -1198c117,223 233,456 350,689 117,234 254,456 382,679 -32,42 -75,85 -117,127 -117,127 -223,265 -297,435 -53,116 -74,233 -85,360l0 21 -604 0c0,-42 -10,-74 -10,-116 -22,-191 -107,-361 -223,-520zm-626 1580c0,-11 -10,-21 -10,-21 -32,10 -53,10 -85,21l-117 0c-10,-64 -31,-117 -42,-170 64,-10 138,-31 201,-53 -10,-42 -21,-74 -31,-116 -64,21 -138,42 -202,53 -21,-74 -32,-138 -53,-202 64,-21 138,-31 212,-53 -10,-42 -21,-74 -32,-116 -63,21 -137,42 -201,63 -21,-74 -32,-137 -53,-201 64,-11 138,-32 201,-53 -10,-42 -21,-74 -31,-117 -64,22 -138,43 -202,64 -21,-74 -32,-138 -53,-201 64,-11 138,-32 212,-53 -10,-43 -21,-75 -32,-117 -63,21 -137,42 -201,64 -21,-75 -32,-138 -53,-202 64,-21 138,-32 212,-53 -11,-42 -21,-74 -32,-116 -74,21 -138,42 -201,63 -21,-74 -32,-127 -53,-201 63,-11 138,-32 212,-43 -11,-42 -21,-84 -32,-116 -64,21 -127,42 -201,53 -53,-202 -106,-392 -149,-573 223,-63 456,-127 689,-191 223,849 445,1697 679,2555l0 32 -552 0zm647 0c0,-11 -11,-21 -11,-32 43,-307 85,-646 96,-700 0,-21 10,-53 10,-74l817 0 0 32c10,53 53,445 85,785l-997 0 0 -11zm1166 0l509 -1929 339 95 -487 1834 -361 0zm827 0l-350 0 477 -1802 329 95 -456 1707z"/>
   </g>
   <path class="fil0" d="M25274 3923l-11 -32 -11 -64c-53,-223 -201,-403 -424,-551 -169,-106 -339,-170 -519,-233 -32,-11 -53,-22 -85,-32l-10 0c-53,-21 -117,-43 -159,-64 -75,-32 -138,-74 -191,-116 -11,-11 -11,-22 -11,-22 0,-84 0,-169 -11,-243l0 -11c96,-95 170,-265 213,-414 53,-31 95,-84 127,-148 74,-148 95,-297 53,-435 0,-10 -11,-42 -32,-74 0,-10 0,-21 11,-32 21,-84 31,-159 42,-233 11,-32 11,-63 21,-95 21,-138 11,-297 -32,-467 -74,-254 -254,-424 -509,-477 -116,-116 -265,-148 -360,-159 -42,-10 -74,-10 -106,-10l-148 0 -32 10c-191,0 -361,43 -530,117 -191,85 -329,233 -414,413 -95,223 -95,446 -84,615 10,96 31,180 42,276 0,21 11,32 11,53 -53,85 -75,180 -53,286 10,74 42,159 74,233 32,64 74,96 116,128l11 -1c42,170 106,308 212,425l0 74c0,63 0,127 -11,180 0,11 -21,21 -53,53l-159 95c-63,22 -116,53 -191,75 -21,10 -42,21 -63,21 -170,63 -361,138 -541,254 -222,149 -360,350 -403,594 0,11 -10,21 -10,32 0,10 0,21 -11,32l-11 21 1 244 4240 0 0 -287 11 -31zm-2735 -902c63,-42 127,-95 137,-180 11,-85 11,-169 11,-265 0,-53 0,-106 -42,-148 -106,-106 -159,-244 -181,-393 0,-10 -21,-31 -42,-42 -32,-21 -64,-42 -85,-74 -32,-53 -53,-117 -63,-180 -11,-64 0,-138 63,-181 11,-10 11,-21 11,-42 -21,-127 -53,-244 -64,-371 -10,-180 -10,-360 64,-530 63,-148 169,-255 318,-318 138,-64 297,-96 456,-96l21 0c10,0 21,-10 32,-10l10 0c11,0 32,10 43,10 42,0 84,0 127,11 106,21 212,42 275,138 11,11 22,21 43,21 201,32 350,159 403,350 32,127 53,254 32,382 -22,106 -32,222 -64,328 -11,64 -42,127 21,180 0,0 11,11 11,22 32,106 10,201 -43,286 -21,53 -63,85 -127,95 -10,117 -95,329 -169,403 -53,53 -64,106 -53,170 10,74 10,148 10,222 0,64 21,106 64,149 42,42 85,74 138,106 -223,116 -467,180 -721,180 -255,0 -488,-64 -700,-170 0,-21 32,-31 64,-53zm2735 7496c0,0 0,-11 -11,-11 -32,-191 -159,-445 -519,-562 -64,-21 -128,-42 -181,-53 -95,-32 -190,-53 -275,-85 -21,-10 -32,-10 -53,-21 -32,-11 -64,-32 -96,-42 64,0 128,-11 181,-22 116,-95 222,-190 318,-307l-128 -85c-10,-10 -42,-32 -74,-42 -63,-21 -106,-64 -106,-170 0,-159 21,-318 43,-477l0 -42c31,-255 63,-520 10,-795 -106,-499 -498,-880 -1007,-965 -11,0 -21,0 -21,-11 -11,0 -21,0 -21,-10l-22 0c-53,-11 -106,-22 -159,-22 -53,0 -95,11 -159,22l-21 0 -32 10c-21,0 -42,11 -63,11 -573,138 -954,604 -986,1198 -11,201 21,392 42,583 11,64 21,127 21,191 11,127 22,244 11,350 0,42 -21,84 -95,116 -22,11 -43,21 -53,21l-181 96c96,116 202,222 319,318 53,21 116,32 190,32l11 0c-32,21 -74,31 -106,42 -74,32 -148,53 -212,85 -43,11 -85,21 -138,42 -42,11 -85,21 -138,32 -381,117 -509,371 -540,573l0 10 -11 32 0 488 4241 0 0 -477 21 -53zm-2640 -1177c-127,127 -307,201 -456,201 -95,0 -180,-21 -244,-74 11,0 22,-11 22,-11 137,-42 222,-137 222,-286 11,-127 0,-265 -10,-392 -32,-244 -75,-488 -75,-742 22,-509 340,-901 838,-1018 32,-11 63,-11 95,-21 64,-11 96,-21 127,-21 32,0 64,0 128,21 21,10 42,10 63,21 424,74 753,403 848,816 53,244 22,488 -10,732 -21,180 -43,350 -53,530 0,170 63,297 244,360 10,0 10,11 21,22 -85,53 -170,74 -265,74l-11 0c-169,0 -318,-53 -434,-202 -11,22 -11,32 -22,43 -42,148 22,254 117,350 64,63 148,116 233,159 -265,138 -562,212 -869,212 -308,0 -604,-74 -869,-212 84,-43 159,-96 222,-159 74,-64 127,-138 149,-234 21,-63 10,-116 -11,-169l0 0z"/>
   <g>
    <path class="fil0" d="M16379 61064l2004 0c85,0 116,32 116,127l0 3986c0,96 -31,138 -127,138l-3975 0c-96,0 -127,-32 -127,-138l0 -3996c0,-75 31,-106 106,-106l890 0c360,-11 742,-11 1113,-11l0 0zm1919 212l-3838 0 0 3817 3838 0 0 -3817z"/>
    <path class="fil0" d="M16379 62760l-1601 0c-74,0 -95,-21 -95,-106l0 -1060c0,-85 21,-106 95,-106l3202 0c74,0 95,21 95,106l0 1060c0,74 -21,106 -95,106l-1601 0zm-1558 -180l1304 -445 0 -11 -1304 -445 0 901 0 0zm3117 -912l-1304 446 0 10c434,149 858,297 1304,446l0 -902 0 0zm-424 933l-22 -21c-360,-127 -721,-244 -1081,-371 -21,-11 -42,0 -64,0 -307,106 -625,212 -933,318 -53,21 -106,42 -159,53l0 11c753,10 1506,10 2258,10l1 0zm-2269 -954l21 21c360,128 721,244 1081,371 22,11 43,0 64,0 350,-116 710,-243 1060,-360 11,0 21,-11 43,-21 -753,-11 -1506,-11 -2269,-11l0 0zm1972 1537l-658 0c-21,0 -42,0 -53,-21 -10,-32 -31,-74 -31,-106 0,-53 31,-85 74,-85l1357 0c32,11 53,53 53,106 0,53 -21,85 -53,106l-689 0zm10 318l-678 0c-32,-10 -53,-53 -53,-106 0,-53 21,-95 63,-106l1357 0c32,11 64,43 64,106 0,53 -32,96 -64,106l-689 0zm0 318l-678 0c-32,-10 -53,-53 -53,-106 0,-53 21,-95 63,-106l827 0c32,11 64,43 64,106 0,53 -32,96 -64,106l-159 0zm-848 -742c0,-74 -21,-106 -95,-106l-1516 0c-64,0 -96,32 -96,106l0 626c0,85 22,106 96,106l1505 0c64,0 96,-32 96,-106 10,-202 10,-414 10,-626zm-530 371c-42,-21 -85,-42 -127,-53l509 -222 0 445c-127,-64 -255,-117 -382,-170l0 0zm32 -307c-117,53 -244,106 -361,159 -116,-53 -243,-106 -360,-159l721 0zm-1050 32c159,74 329,148 488,212 -42,21 -85,42 -127,53 -117,53 -244,106 -361,159l0 -424 0 0zm297 477c138,-53 265,-117 403,-170 138,53 265,117 403,170l-806 0zm2089 593l-658 0c-21,0 -42,0 -53,-21 -10,-32 -31,-74 -31,-106 0,-53 31,-85 74,-85l1357 0c32,11 53,53 53,106 0,53 -21,85 -53,106l-689 0zm10 318l-678 0c-32,-10 -53,-53 -53,-106 0,-53 21,-95 63,-106l1357 0c32,11 64,43 64,106 0,53 -32,96 -64,106l-689 0zm0 319l-678 0c-32,-11 -53,-53 -53,-107 0,-53 21,-95 63,-106l827 1c32,10 64,42 64,106 0,53 -32,95 -64,106l-159 0zm-848 -743c0,-74 -21,-106 -95,-106l-1516 0c-64,0 -96,32 -96,106l0 626c0,85 22,106 96,106l1505 0c64,0 96,-32 96,-106 10,-202 10,-414 10,-626l0 0zm-530 371c-42,-21 -85,-42 -127,-53l509 -222 0 445c-127,-63 -255,-116 -382,-169l0 -1zm32 -307c-117,53 -244,106 -361,159 -116,-53 -243,-106 -360,-159l721 0zm-1050 32c159,74 329,148 488,212 -42,21 -85,42 -127,53 -117,53 -244,106 -361,159l0 -424 0 0zm297 477c138,-53 265,-117 403,-170 138,53 265,117 403,170l-806 0z"/>
   </g>
   <g>
    <path class="fil0" d="M17418 27352c0,-64 -32,-128 -85,-159 -53,-43 -127,-53 -191,-43l-1547 297c-106,21 -181,106 -181,201l0 255 -731 689 0 2332 1474 456 116 -21 1792 -339 0 -2354 -658 -1124 0 -190 11 0zm-1845 296c0,-31 22,-63 64,-63l1548 -297c21,0 53,0 64,21 10,11 21,32 21,53l0 191 -1697 318 0 -223 0 0zm-74 371l541 933 -1156 -360 615 -573 0 0zm573 3149l-1198 -371 0 -509 1198 371 0 509zm0 -689l-1198 -371 0 -1357 1198 371 0 1357zm1844 424l-1696 318 0 -583 1696 -318 0 583 0 0zm-1653 -413l0 -1368 1622 -307 0 1367 -1622 308zm1643 -1813l-85 21 -1622 307 -604 -1028 1707 -329 604 1029z"/>
    <path class="fil0" d="M16740 29854l0 413 -117 11 0 -149 -21 43 -21 42 -75 11 -31 -75 -11 75 0 84 -106 11 0 -403 106 -21 85 170 32 -75 53 -116 106 -21zm233 -32l-11 403 -106 21 0 -414 117 -10zm222 -43l-10 308 180 -21 -11 95 -275 53 0 -413 116 -22zm626 -95l-53 74 -95 117 148 212 -127 21 -96 -138 0 11 -21 21 0 127 -116 21 0 -413 116 -11 0 117 43 -64 63 -74 138 -21z"/>
   </g>
   <g>
    <circle class="fil0" cx="15998" cy="35377" r="191"/>
    <path class="fil0" d="M16379 37550c-530,0 -1007,-265 -1283,-678l-222 0c307,519 869,869 1516,869 646,0 1208,-350 1516,-869l-223 0c-297,402 -774,678 -1304,678l0 0zm0 -3117c530,0 1007,265 1283,679l223 0c-308,-520 -870,-870 -1516,-870 -647,0 -1209,350 -1516,870l222 0c297,-403 774,-679 1304,-679z"/>
    <path class="fil0" d="M18054 35504l520 0 127 -191 -1251 0c-233,-350 -626,-583 -1081,-583 -456,0 -849,233 -1082,583l-1240 0 127 191 1018 0c-32,64 -43,127 -64,191l-827 0 191 297 -191 297 827 0c11,53 32,116 53,169l11 21 -1018 0 -127 191 1251 0c244,371 636,583 1071,583l10 0c435,0 838,-222 1071,-583l1251 0 -127 -191 -1018 0 0 -10c21,-64 42,-117 64,-180l826 0 -190 -297 190 -297 -826 0 -64 -191 498 0zm-1495 -32l-381 382 -191 -191 -636 626c-32,-96 -43,-191 -43,-287 0,-583 477,-1049 1071,-1060l11 0c583,0 1060,467 1060,1050 0,106 -11,212 -53,318l-838 -838 0 0z"/>
   </g>
   <path class="fil0" d="M14789 51735l0 -3806c0,-42 0,-42 42,-53 96,-11 181,-32 276,-42 106,-22 223,-32 329,-53 116,-22 222,-43 339,-64 106,-21 212,-32 318,-53 117,-21 223,-43 339,-64 106,-21 212,-32 318,-53 85,-10 170,-32 255,-42 32,-11 42,0 42,32l0 307c0,21 11,32 32,32l742 0c42,0 42,0 42,42l0 3753c0,43 0,43 -42,43l-2862 0c-43,0 -96,10 -138,21l-32 0zm2014 -3955c-32,11 -63,11 -95,22 -85,10 -159,31 -244,42 -106,21 -223,42 -329,64 -84,10 -159,32 -243,42 -106,21 -212,42 -329,64 -85,10 -159,32 -244,42 -85,11 -180,32 -265,42 -21,0 -32,11 -32,32l0 3329 32 0c74,-10 148,-32 223,-42 84,-11 159,-32 243,-43 75,-10 159,-31 234,-42 84,-11 159,-32 243,-42l319 -64c53,-11 106,-21 159,-21 95,-21 180,-32 275,-53 43,-11 43,-11 43,-53l0 -3287c10,-10 10,-21 10,-31l0 -1zm-530 3690l1304 0c43,0 43,0 43,-43l0 -3275c0,-43 0,-43 -32,-43l-509 0c-32,0 -32,11 -32,32l0 276c0,21 11,31 32,31l244 0c21,0 32,11 32,32l0 106c0,21 -11,32 -32,32l-234 0c-21,0 -31,11 -31,32l0 180c0,32 10,32 31,32l234 0c21,0 32,10 32,32l0 106c0,31 -11,31 -32,31l-234 0c-21,0 -31,11 -31,32l0 191c0,21 10,32 31,32l244 0c21,0 32,10 32,32l0 106c0,21 -11,32 -32,32l-244 0c-21,0 -31,10 -31,31l0 191c0,21 10,32 31,32l234 0c21,0 42,11 32,32l0 106c0,21 -11,32 -32,32l-244 0c-21,0 -21,10 -21,21l0 191c0,21 10,31 31,31l234 0c32,0 32,11 32,32l0 96c0,21 -11,31 -32,31l-234 0c-21,0 -31,11 -31,32l0 180c0,22 10,32 31,32l234 0c32,0 32,0 32,43l0 95c0,32 0,42 -43,42l-233 0c-21,0 -32,11 -32,32l0 191c0,21 11,32 32,32l244 0c21,0 32,11 32,32l0 106c0,21 -11,32 -32,32l-244 0c-32,0 -32,10 -32,31l0 138c0,21 -11,32 -32,32 -95,21 -201,32 -297,53 -53,11 -106,21 -148,21 -106,32 -191,53 -297,64l0 0z"/>
   <path class="fil0" d="M17036 50844c-21,-106 -84,-222 -275,-254 -32,0 -64,-11 -96,-11 -53,-10 -95,-10 -148,-21 -11,0 -21,0 -32,-11 -21,0 -32,-10 -53,-10 32,-11 64,-11 96,-32 63,-53 116,-127 169,-191l-63 -32c-11,0 -22,-10 -43,-10 -32,0 -53,-21 -53,-74 0,-85 11,-170 21,-255l0 -21c22,-138 32,-276 0,-414 -53,-254 -265,-413 -530,-413l-106 0c-31,0 -53,11 -85,21l-10 11c-11,0 -21,11 -32,11 -297,127 -498,402 -519,720 0,106 10,202 21,297 0,32 10,64 10,96 11,63 11,127 11,180 0,21 -11,42 -53,63 -11,11 -21,11 -32,22l-95 63c53,53 106,96 169,138l106 0c-21,11 -31,21 -53,32 -42,21 -74,42 -116,64 -21,10 -43,21 -74,31 -22,11 -43,22 -75,32 -201,96 -265,244 -286,350l-10 21 0 255 106 -22 1007 -180 1007 -180 106 -21 0 -255 10 0zm-1388 -371c-64,74 -159,127 -244,149 -53,10 -96,0 -127,-22l10 -10c74,-43 117,-96 117,-170 0,-63 0,-138 -11,-201 -10,-127 -42,-255 -32,-382 11,-265 181,-509 435,-615 21,-10 32,-10 53,-21 32,-11 53,-21 64,-21l95 0c223,0 403,138 445,350 32,127 11,254 -10,381l-32 287c0,84 32,148 127,169 0,0 11,0 11,11 -43,32 -85,53 -138,63 -85,11 -170,0 -223,-63 0,10 -10,10 -10,21 -21,85 10,127 63,170 32,31 75,53 117,63 -138,96 -297,159 -456,191 -159,32 -318,11 -456,-32 43,-32 85,-63 117,-106 42,-42 63,-85 74,-138 32,-21 21,-42 11,-74l0 0zm-128 -2099l-137 180 -22 0 -137 -137 0 275 -138 21 0 -487 116 -21 170 159 170 -223 116 -21 0 487 -138 22 0 -255 0 0zm393 -286l159 -32 180 456 -138 21 -32 -74 -191 32 -31 85 -138 21 191 -509 0 0zm21 297l127 -21 -64 -159 -63 180 0 0zm827 -244l0 223c-43,42 -138,95 -212,106 -149,21 -265,-43 -265,-202 0,-159 116,-275 265,-297 74,-10 148,0 191,32l-64 117c-32,-21 -74,-32 -127,-21 -74,10 -117,63 -117,148 0,74 53,117 127,106 22,0 53,-11 75,-32l0 -53 -106 21 0 -95 233 -53z"/>
   <polygon class="fil2" points="20832,13570 25496,13570 25496,17810 20832,17810 "/>
   <path class="fil0" d="M25698 16729l0 -11c-32,-159 -127,-349 -414,-445 -53,-10 -95,-32 -148,-42 -74,-21 -149,-43 -223,-74 -10,0 -32,-11 -42,-22 -21,-10 -53,-21 -74,-31 53,0 95,-11 148,-22 95,-74 180,-148 255,-244l-96 -74c-10,-10 -32,-21 -64,-32 -53,-21 -84,-42 -84,-127 0,-127 21,-244 31,-381l0 -43c22,-201 53,-413 11,-625 -85,-393 -392,-700 -795,-764l-42 0c-43,-10 -85,-10 -128,-10 -42,0 -74,10 -127,10l-21 0 -21 11c-11,0 -32,11 -43,11 -455,106 -763,477 -774,954 -10,159 11,307 32,456 11,53 11,95 21,148 11,106 11,201 11,286 0,32 -11,64 -74,85 -21,11 -32,11 -43,21l-137 75c74,95 159,180 254,254 42,11 95,21 149,21l10 0c-32,11 -53,21 -85,32 -53,21 -116,42 -169,64l-22 0c-21,-11 -42,-11 -63,-22 -21,-10 -43,-21 -64,-21l-10 0c-43,-21 -85,-32 -128,-53 -53,-21 -106,-53 -148,-95l-11 -11c0,-74 0,-138 -10,-191l0 -10c74,-75 138,-212 169,-329 43,-32 75,-64 96,-117 63,-116 74,-233 42,-339 0,-10 -10,-32 -32,-53 0,-10 0,-10 11,-21l32 -191c0,-21 10,-53 10,-74 22,-117 11,-233 -31,-371 -53,-202 -202,-339 -403,-382 -96,-95 -212,-116 -287,-127 -31,-11 -63,-11 -84,-11l-106 0 -21 11c-149,0 -287,32 -414,95 -148,75 -265,181 -329,329 -74,180 -74,350 -63,488 10,74 21,148 32,212 0,10 10,32 10,42 -42,64 -53,138 -42,223 10,63 32,127 63,191 22,53 64,74 85,95l11 0c32,127 85,244 169,329l0 63c0,53 0,96 -10,149 0,0 -11,21 -43,42 -42,32 -84,53 -127,74 -42,22 -95,43 -148,53 -21,11 -32,11 -53,22 -138,53 -286,106 -424,201 -180,117 -287,191 -318,392 0,11 0,774 -11,785 0,10 0,10 -11,21l0 223 5365 0 0 -1103 0 0zm-2089 -922c-106,106 -243,159 -360,159 -74,0 -138,-21 -191,-64 11,0 11,-11 21,-11 106,-42 170,-116 180,-222 11,-106 0,-202 -10,-308 -21,-190 -64,-392 -53,-583 10,-403 275,-721 657,-805 21,-11 53,-11 74,-22 53,-10 75,-10 106,-10 32,0 53,0 96,10 21,0 32,11 53,11 339,64 604,318 668,647 42,191 10,392 -11,583 -21,138 -42,275 -42,424 0,138 53,233 190,286 11,0 11,11 22,11 -64,42 -138,53 -212,53 -138,0 -255,-43 -340,-159 -10,10 -10,21 -10,32 -32,116 21,201 95,275 53,53 117,96 180,127 -212,106 -445,170 -689,170 -244,0 -477,-64 -689,-170 64,-31 127,-74 180,-127 53,-53 106,-106 117,-191 0,-31 -11,-74 -32,-116l0 0zm-2088 371c53,-32 95,-74 106,-138 10,-64 10,-138 10,-212 0,-43 0,-85 -31,-117 -85,-85 -128,-191 -149,-307 0,-11 -21,-21 -32,-32 -21,-21 -53,-32 -63,-64 -21,-42 -43,-95 -43,-148 -10,-53 0,-106 43,-148 10,-11 10,-22 10,-32 -21,-96 -42,-191 -53,-297 -10,-138 -10,-286 53,-414 53,-116 138,-201 255,-254 116,-53 233,-74 360,-74l11 0c11,0 11,0 21,-11l11 0c10,0 21,11 32,11 31,0 63,0 95,10 85,22 170,32 223,107 10,10 21,10 31,10 159,21 276,127 318,276 32,95 43,201 22,297 -11,84 -32,169 -43,254 -10,53 -32,106 21,148 0,0 0,11 11,11 21,85 11,159 -32,233 -21,43 -53,74 -95,74 -11,96 -74,255 -138,319 -42,42 -53,84 -42,127 0,63 10,116 10,180 0,53 21,85 53,117 32,31 64,63 106,84 -169,96 -360,138 -572,138 -202,0 -382,-53 -551,-138 0,11 21,0 42,-10l0 0z"/>
   <g>
    <path class="fil4" d="M24987 42003l-2183 0c-43,0 -85,-32 -85,-85l0 -127c0,-43 32,-85 85,-85l2183 0c43,0 85,32 85,85l0 127c0,53 -32,85 -85,85l0 0z"/>
    <path class="fil5" d="M24987 43254l-2183 0c-43,0 -85,-32 -85,-85l0 -127c0,-43 32,-85 85,-85l2183 0c43,0 85,32 85,85l0 127c0,42 -32,85 -85,85l0 0z"/>
    <path class="fil0" d="M24987 44494l-2183 0c-43,0 -85,-32 -85,-85l0 -127c0,-42 32,-85 85,-85l2183 0c43,0 85,32 85,85l0 127c0,43 -32,85 -85,85z"/>
    <path class="fil4" d="M22337 41176c-53,-53 -148,-53 -212,0l-519 519 -106 -106c-53,-53 -149,-53 -212,0 -53,53 -53,149 0,202l212 201c53,53 148,53 212,0l625 -615c53,-53 53,-148 0,-201l0 0z"/>
    <path class="fil5" d="M22337 42416c-53,-53 -148,-53 -212,0l-519 520 -106 -106c-53,-53 -149,-53 -212,0 -53,53 -53,148 0,201l212 201c53,53 148,53 212,0l625 -614c53,-53 53,-138 0,-202l0 0z"/>
    <path class="fil0" d="M22337 43657c-53,-53 -148,-53 -212,0l-519 519 -106 -106c-53,-53 -149,-53 -212,0 -53,53 -53,148 0,201l212 202c53,53 148,53 212,0l625 -615c53,-53 53,-138 0,-201l0 0z"/>
   </g>
   <path class="fil4" d="M22263 36384c-32,-74 -85,-148 -148,-201 -64,-53 -149,-106 -234,-149 -85,-42 -191,-74 -297,-116 -106,-32 -201,-75 -265,-106 -63,-32 -116,-64 -159,-106 -31,-32 -63,-75 -74,-107 -10,-42 -21,-84 -21,-137 0,-53 11,-106 32,-149 21,-42 42,-85 85,-116 31,-32 84,-64 137,-85 106,-43 287,-43 403,10 53,22 106,53 138,106 43,43 64,96 85,159 21,64 32,128 32,202l0 53 339 0 0 -53c0,-233 -64,-414 -180,-551 -106,-128 -265,-202 -456,-223l0 -360 -308 0 0 339c-84,10 -159,32 -233,63 -85,32 -159,85 -222,138 -64,64 -106,127 -138,212 -32,74 -53,170 -53,265 0,106 21,202 53,276 32,74 85,148 159,201 63,53 148,106 233,149 85,42 191,74 307,106 96,32 181,63 255,106 63,32 116,63 159,106 42,32 64,74 74,116 21,43 21,85 21,138 0,53 -10,106 -32,149 -21,42 -53,85 -95,116 -42,32 -95,64 -148,85 -106,32 -255,43 -403,11 -64,-11 -117,-43 -170,-74 -53,-32 -85,-85 -116,-149 -32,-63 -43,-138 -43,-233l0 -53 -360 0 0 53c0,138 21,244 63,339 43,95 106,170 181,233 74,64 159,106 254,138 74,21 148,43 233,53l0 308 308 0 0 -318c84,-11 169,-32 243,-54 85,-31 170,-84 234,-137 63,-53 116,-128 148,-212 32,-75 53,-170 53,-265 -21,-106 -42,-202 -74,-276l0 0z"/>
   <path class="fil5" d="M23959 36384c-32,-74 -85,-148 -148,-201 -64,-53 -149,-106 -233,-149 -85,-42 -191,-74 -297,-116 -106,-32 -202,-75 -265,-106 -64,-32 -117,-64 -159,-106 -32,-32 -64,-75 -75,-107 -10,-42 -21,-84 -21,-137 0,-53 11,-106 32,-149 21,-42 42,-85 85,-116 32,-32 85,-64 138,-85 106,-43 286,-43 403,10 53,22 106,53 137,106 43,43 64,96 85,159 21,64 32,128 32,202l0 53 339 0 0 -53c0,-233 -63,-414 -180,-551 -106,-128 -265,-202 -456,-223l0 -360 -307 0 0 339c-85,10 -159,32 -234,63 -84,32 -159,85 -222,138 -64,64 -106,127 -138,212 -32,74 -53,170 -53,265 0,106 21,202 53,276 32,74 85,148 159,201 64,53 148,106 233,149 85,42 191,74 308,106 95,32 180,63 254,106 64,32 117,63 159,106 43,32 64,74 74,116 22,43 22,85 22,138 0,53 -11,106 -32,149 -21,42 -53,85 -96,116 -42,32 -95,64 -148,85 -106,32 -255,43 -403,11 -64,-11 -117,-43 -170,-74 -53,-32 -84,-85 -116,-149 -32,-63 -43,-138 -43,-233l0 -53 -360 0 0 53c0,138 21,244 64,339 42,95 106,170 180,233 74,64 159,106 254,138 74,21 149,43 233,53l0 308 308 0 0 -318c85,-11 169,-32 244,-54 85,-31 169,-84 233,-137 64,-53 117,-128 148,-212 32,-75 53,-170 53,-265 -21,-106 -42,-202 -74,-276l0 0z"/>
   <path class="fil0" d="M25655 36384c-31,-74 -84,-148 -148,-201 -64,-53 -148,-106 -233,-149 -85,-42 -191,-74 -297,-116 -106,-32 -202,-75 -265,-106 -64,-32 -117,-64 -159,-106 -32,-32 -64,-75 -74,-107 -11,-42 -22,-84 -22,-137 0,-53 11,-106 32,-149 21,-42 43,-85 85,-116 32,-32 85,-64 138,-85 106,-43 286,-43 403,10 53,22 106,53 138,106 42,43 63,96 84,159 22,64 32,128 32,202l0 53 339 0 0 -53c0,-233 -63,-414 -180,-551 -106,-128 -265,-202 -456,-223l0 -360 -307 0 0 339c-85,10 -159,32 -233,63 -85,32 -159,85 -223,138 -64,64 -106,127 -138,212 -32,74 -53,170 -53,265 0,106 21,202 53,276 32,74 85,148 159,201 64,53 149,106 233,149 85,42 191,74 308,106 95,32 180,63 254,106 64,32 117,63 159,106 43,32 64,74 75,116 21,43 21,85 21,138 0,53 -11,106 -32,149 -21,42 -53,85 -95,116 -43,32 -96,64 -149,85 -106,32 -254,43 -403,11 -63,-11 -116,-43 -169,-74 -53,-32 -85,-85 -117,-149 -32,-63 -42,-138 -42,-233l0 -53 -361 0 0 53c0,138 21,244 64,339 42,95 106,170 180,233 74,64 159,106 254,138 75,21 149,43 234,53l0 308 307 0 0 -318c85,-11 170,-32 244,-54 85,-31 170,-84 233,-137 64,-53 117,-128 149,-212 31,-75 53,-170 53,-265 -22,-106 -43,-202 -75,-276l0 0z"/>
   <g>
    <path class="fil0" d="M23164 47706c-1049,0 -1908,859 -1908,1909 0,1049 859,1908 1908,1908 1050,0 1908,-859 1908,-1908 0,-1050 -858,-1909 -1908,-1909zm0 3594c-933,0 -1686,-763 -1686,-1685 0,-923 764,-1686 1686,-1686 922,0 1686,763 1686,1686 0,922 -753,1685 -1686,1685z"/>
    <polygon class="fil0" points="23217,48660 23005,48660 23005,49784 24002,50378 24097,50219 23217,49689 "/>
   </g>
   <g>
    <path class="fil0" d="M24701 54417l-265 0 0 223 265 0c85,0 149,63 149,148l0 573 -3361 -1 0 -572c0,-85 64,-148 148,-148l266 0 0 -223 -266 0c-201,0 -371,170 -371,371l0 3361c0,201 170,371 371,371l3064 0c202,0 371,-170 371,-371l0 -3361c0,-201 -169,-371 -371,-371zm149 1166l0 2566c0,84 -64,148 -149,148l-3064 0c-84,0 -148,-64 -148,-148l0 -2566 3361 0z"/>
    <path class="fil0" d="M22475 54417l1378 0 0 223 -1378 0 0 -223zm-286 594c53,0 85,-43 85,-85l0 -562c0,-42 -43,-85 -85,-85 -53,0 -85,42 -85,85l0 562c0,53 32,85 85,85zm1950 0c53,0 85,-43 85,-85l0 -562c0,-42 -42,-85 -85,-85 -53,0 -84,42 -84,85l0 562c0,53 42,85 84,85zm-1155 1834l148 0c191,0 308,-117 308,-276 0,-148 -117,-254 -297,-254 -202,0 -286,137 -297,254l-159 0c0,-180 148,-392 456,-392 286,0 466,159 466,371 11,212 -159,350 -286,360 138,11 339,117 339,361 0,254 -222,434 -530,434 -318,0 -487,-190 -498,-413l159 0c21,148 127,265 339,265 223,0 361,-127 361,-297 0,-169 -138,-286 -361,-286l-159 0 0 -127 11 0z"/>
   </g>
   <g>
    <path class="fil0" d="M24701 61202l-265 0 0 222 265 0c85,0 149,64 149,149l0 572 -3361 0 0 -572c0,-85 64,-149 148,-149l266 0 0 -222 -266 0c-201,0 -371,169 -371,371l0 3361c0,201 170,371 371,371l3064 0c202,0 371,-170 371,-371l0 -3361c0,-201 -169,-371 -371,-371l0 0zm149 1166l0 2566c0,84 -64,148 -149,148l-3064 0c-84,0 -148,-64 -148,-148l0 -2566 3361 0z"/>
    <path class="fil0" d="M22475 61202l1378 0 0 222 -1378 0 0 -222zm-286 594c53,0 85,-43 85,-85l0 -562c0,-43 -43,-85 -85,-85 -53,0 -85,42 -85,85l0 562c0,53 32,85 85,85zm1950 0c53,0 85,-43 85,-85l0 -562c0,-43 -42,-85 -85,-85 -53,0 -84,42 -84,85l0 562c0,53 42,85 84,85zm-508 1187l0 148 -626 1325 -180 0 647 -1325 -785 0 0 -148 944 0z"/>
   </g>
   <g>
    <path class="fil0" d="M24701 67987l-265 0 0 222 265 0c85,0 149,64 149,149l0 572 -3361 0 0 -572c0,-85 64,-149 148,-149l266 0 0 -222 -266 0c-201,0 -371,169 -371,371l0 3360c0,202 170,371 371,371l3064 0c202,0 371,-169 371,-371l0 -3360c0,-202 -169,-371 -371,-371l0 0zm149 1166l0 2565c0,85 -64,149 -149,149l-3064 0c-84,0 -148,-64 -148,-149l0 -2565 3361 0z"/>
    <path class="fil0" d="M22475 67987l1378 0 0 222 -1378 0 0 -222zm-286 593c53,0 85,-42 85,-84l0 -562c0,-43 -43,-85 -85,-85 -53,0 -85,42 -85,85l0 562c0,53 32,84 85,84zm1950 0c53,0 85,-42 85,-84l0 -562c0,-43 -42,-85 -85,-85 -53,0 -84,42 -84,85l0 562c0,53 42,84 84,84zm-2692 1389l3435 0 0 180 -3435 0 0 -180zm0 923l3435 0 0 180 -3435 0 0 -180z"/>
    <path class="fil0" d="M23830 69045l0 2862 -191 0 0 -2862 191 0zm-1145 0l0 2862 -191 0 0 -2862 191 0z"/>
   </g>
   <path class="fil5" d="M23111 29599c-32,-74 -85,-148 -148,-201 -64,-53 -149,-106 -234,-149 -84,-42 -190,-74 -296,-116 -106,-32 -202,-75 -265,-106 -64,-32 -117,-64 -160,-106 -31,-32 -63,-75 -74,-106 -10,-43 -21,-85 -21,-138 0,-53 11,-106 32,-149 21,-42 42,-84 85,-116 32,-32 85,-64 138,-85 106,-42 286,-42 402,11 53,21 106,53 138,106 43,42 64,95 85,159 21,63 32,127 32,201l0 53 339 0 0 -53c0,-233 -64,-413 -180,-551 -106,-127 -265,-202 -456,-223l0 -360 -307 0 0 339c-85,11 -159,32 -234,64 -85,31 -159,84 -222,137 -64,64 -106,128 -138,212 -32,75 -53,170 -53,265 0,106 21,202 53,276 32,74 85,149 159,202 63,53 148,106 233,148 85,42 191,74 308,106 95,32 180,64 254,106 64,32 117,64 159,106 42,32 64,74 74,117 21,42 21,84 21,137 0,53 -10,106 -31,149 -22,42 -53,85 -96,116 -42,32 -95,64 -148,85 -106,32 -255,43 -403,11 -64,-11 -117,-43 -170,-74 -53,-32 -84,-85 -116,-149 -32,-63 -43,-138 -43,-233l0 -53 -360 0 0 53c0,138 21,244 63,339 43,96 106,170 181,233 74,64 159,106 254,138 74,21 149,43 233,53l0 308 308 0 0 -318c85,-11 169,-32 244,-53 84,-32 169,-85 233,-138 63,-53 116,-127 148,-212 32,-75 53,-170 53,-265 -21,-106 -42,-202 -74,-276l0 0z"/>
   <path class="fil0" d="M24807 29599c-32,-74 -85,-148 -148,-201 -64,-53 -149,-106 -233,-149 -85,-42 -191,-74 -297,-116 -106,-32 -202,-75 -265,-106 -64,-32 -117,-64 -159,-106 -32,-32 -64,-75 -75,-106 -10,-43 -21,-85 -21,-138 0,-53 11,-106 32,-149 21,-42 43,-84 85,-116 32,-32 85,-64 138,-85 106,-42 286,-42 403,11 53,21 106,53 137,106 43,42 64,95 85,159 21,63 32,127 32,201l0 53 339 0 0 -53c0,-233 -63,-413 -180,-551 -106,-127 -265,-202 -456,-223l0 -360 -307 0 0 339c-85,11 -159,32 -233,64 -85,31 -160,84 -223,137 -64,64 -106,128 -138,212 -32,75 -53,170 -53,265 0,106 21,202 53,276 32,74 85,149 159,202 64,53 148,106 233,148 85,42 191,74 308,106 95,32 180,64 254,106 64,32 117,64 159,106 43,32 64,74 74,117 22,42 22,84 22,137 0,53 -11,106 -32,149 -21,42 -53,85 -96,116 -42,32 -95,64 -148,85 -106,32 -254,43 -403,11 -63,-11 -116,-43 -169,-74 -53,-32 -85,-85 -117,-149 -32,-63 -42,-138 -42,-233l0 -53 -361 0 0 53c0,138 21,244 64,339 42,96 106,170 180,233 74,64 159,106 254,138 75,21 149,43 234,53l0 308 307 0 0 -318c85,-11 170,-32 244,-53 85,-32 169,-85 233,-138 64,-53 117,-127 148,-212 32,-75 53,-170 53,-265 -21,-106 -42,-202 -74,-276l0 0zm-848 -6785c-32,-74 -85,-148 -148,-201 -64,-53 -149,-106 -233,-149 -85,-42 -191,-74 -297,-116 -106,-32 -202,-74 -265,-106 -64,-32 -117,-64 -159,-106 -32,-32 -64,-74 -75,-106 -10,-43 -21,-85 -21,-138 0,-53 11,-106 32,-149 21,-42 42,-84 85,-116 32,-32 85,-64 138,-85 106,-42 286,-42 403,11 53,21 106,53 137,106 43,42 64,95 85,159 21,63 32,127 32,201l0 53 339 0 0 -53c0,-233 -63,-413 -180,-551 -106,-127 -265,-202 -456,-223l0 -360 -307 0 0 339c-85,11 -159,32 -234,64 -84,31 -159,84 -222,137 -64,64 -106,128 -138,212 -32,75 -53,170 -53,266 0,106 21,201 53,275 32,74 85,149 159,202 64,53 148,106 233,148 85,42 191,74 308,106 95,32 180,64 254,106 64,32 117,64 159,106 43,32 64,74 74,117 22,42 22,84 22,138 0,53 -11,106 -32,148 -21,42 -53,85 -96,117 -42,31 -95,63 -148,84 -106,32 -255,43 -403,11 -64,-11 -117,-42 -170,-74 -53,-32 -84,-85 -116,-149 -32,-63 -43,-137 -43,-233l0 -53 -360 0 0 53c0,138 21,244 64,339 42,96 106,170 180,234 74,63 159,106 254,137 74,22 149,43 233,53l0 308 308 0 0 -318c85,-11 169,-32 244,-53 85,-32 169,-85 233,-138 64,-53 117,-127 148,-212 32,-74 53,-170 53,-265 -21,-106 -42,-202 -74,-276l0 0z"/>
  </g>
 </g>
</svg>
