<?xml version="1.0" encoding="UTF-8"?>
<!DOCTYPE svg PUBLIC "-//W3C//DTD SVG 1.1//EN" "http://www.w3.org/Graphics/SVG/1.1/DTD/svg11.dtd">
<!-- Creator: CorelDRAW X8 -->
<svg xmlns="http://www.w3.org/2000/svg" xml:space="preserve" width="459px" height="1421px" version="1.1" style="shape-rendering:geometricPrecision; text-rendering:geometricPrecision; image-rendering:optimizeQuality; fill-rule:evenodd; clip-rule:evenodd"
viewBox="0 0 4591 14218"
 xmlns:xlink="http://www.w3.org/1999/xlink">
 <defs>
  <style type="text/css">
   <![CDATA[
    .str0 {stroke:#003D83;stroke-width:31.2655}
    .str1 {stroke:#003D83;stroke-width:7.81046}
    .fil2 {fill:none}
    .fil3 {fill:black}
    .fil0 {fill:#003D83}
    .fil1 {fill:white}
    .fil4 {fill:#003D83;fill-opacity:0.301961}
    .fil5 {fill:#003D83;fill-opacity:0.600000}
   ]]>
  </style>
 </defs>
 <g id="Layer_x0020_1">
  <metadata id="CorelCorpID_0Corel-Layer"/>
  <g id="_2525871509456">
   <g>
    <path class="fil0" d="M215 13473c-3,0 -7,2 -11,2 -21,6 -36,17 -47,36 -8,12 -12,25 -13,38l0 587c0,3 1,7 1,11 6,21 17,36 36,47 12,8 25,12 38,13l534 0 0 -737 -534 0c0,3 -2,3 -4,3l0 0zm494 621l0 72 -478 0c-21,0 -38,-12 -42,-30 -4,-12 0,-25 8,-35 7,-9 18,-15 30,-17l484 0 0 10 -2 0zm-272 -577l274 0 0 524 -479 0c-11,0 -20,2 -30,4l-13 0 0 -486c0,-21 11,-36 28,-42 4,-2 10,-2 15,-2 67,2 135,2 205,2z"/>
    <polygon class="fil0" points="299,13630 626,13630 626,13674 299,13674 "/>
   </g>
   <g>
    <path class="fil0" d="M1701 13689l24 0c4,0 8,-4 8,-8l0 -144c0,-9 -8,-19 -19,-19 -11,0 -19,8 -19,19l0 146c0,2 2,6 6,6z"/>
    <g>
     <path class="fil0" d="M1850 13872c-40,13 -87,21 -138,21 -51,0 -98,-8 -138,-21 -2,0 -4,2 -2,4 36,28 87,55 121,76l0 41c0,10 8,19 19,19 11,0 19,-7 19,-19l0 -41c34,-21 83,-48 121,-76 2,-2 0,-6 -2,-4l0 0z"/>
     <path class="fil0" d="M1939 13708c0,-23 -9,-65 -78,-93 -30,-13 -70,-23 -113,-25l-4 0 0 34c46,4 83,14 112,27 28,15 47,34 47,57l0 5c-6,36 -57,67 -125,80 -21,4 -43,5 -66,5 -23,0 -45,-1 -66,-5 -70,-12 -121,-42 -125,-80l0 -5c0,-23 17,-42 47,-57 29,-15 68,-25 112,-27l0 -34c-44,4 -85,12 -117,25 -69,28 -78,70 -78,93l0 54c0,33 19,57 51,76 44,27 110,40 176,40 66,0 132,-13 176,-40 32,-19 51,-43 51,-76l0 -54z"/>
     <path class="fil0" d="M1680 13658c-51,6 -78,25 -78,42 0,25 42,51 112,51 68,0 112,-26 112,-51 0,-9 -8,-19 -23,-26 -2,0 -2,-2 -4,-2l-2 0c-2,0 -2,-2 -4,-2 0,0 -2,0 -2,-2 -1,0 -1,0 -3,-2l-4 0c-2,0 -4,0 -6,-2l-2 0c-2,0 -3,0 -5,-2l-2 0c-2,0 -4,0 -6,-2l-13 0 0 23c0,11 -10,21 -21,21l-25 0c-11,0 -20,-10 -20,-21l0 -21 -4 -4 0 0z"/>
     <polygon class="fil1" points="1447,13622 1977,13622 1977,13698 1447,13698 "/>
     <path class="fil0" d="M2081 13647l-110 -185 -516 0 -121 204 0 549c0,1 2,3 3,3l750 0c1,0 3,-2 3,-3l0 -549 -9 -19zm-607 -140l5 -9 469 0 6 9 51 87 17 30 8 16 4 5 -642 0 4 -5 78 -133 0 0zm579 189l0 483 -680 0 0 -502 680 0 0 19z"/>
     <path class="fil0" d="M1527 14086l0 57 -21 0 0 -57 -21 0 0 -19 62 0 0 19 -20 0zm34 -19l36 0c13,0 26,8 26,25 0,11 -7,19 -17,22 6,6 11,12 19,12 2,0 6,0 8,-2l1 17c-3,2 -7,2 -13,2 -17,0 -30,-21 -40,-29l-1 0 0 27 -21 0 0 -74 2 0zm20 19l0 15 16 0c5,0 7,-4 7,-7 0,-4 -4,-8 -7,-8l-16 0zm78 26l-26 -45 22 0 15 27 16 -27 22 0 0 2 -26 45 0 29 -21 0 0 -31 -2 0zm146 -13l-19 25 -4 0 -19 -25 0 42 -21 0 0 -74 17 0 25 30 24 -30 18 0 0 74 -21 0 0 -42zm39 42l0 -74 59 0 0 19 -40 0 0 9 33 0 0 17 -33 0 0 12 40 0 0 19 -59 0 0 -2zm84 -21c7,0 11,4 11,11 0,8 -4,12 -11,12 -8,0 -12,-4 -12,-12 0,-7 4,-11 12,-11zm-10 -53l21 0 -4 45 -13 0 -4 -45z"/>
    </g>
   </g>
   <path class="fil2" d="M288 1362c13,0 22,-11 22,-25 0,-13 -11,-22 -24,-22 -14,0 -25,11 -23,24 2,12 11,23 25,23zm-95 0c13,0 25,-11 25,-25 0,-13 -10,-24 -23,-24 -13,0 -25,9 -25,23 0,15 10,26 23,26l0 0zm189 0c13,0 25,-11 25,-23 0,-13 -12,-24 -23,-24 -13,0 -25,9 -25,22 -1,14 10,25 23,25z"/>
   <path class="fil0" d="M148 1769l0 -371 582 0 0 202 25 0 0 -283c0,-31 -17,-48 -47,-48l-532 0c-27,-2 -53,15 -53,50l0 472 426 0 0 -22 -401 0zm234 -454c13,0 25,11 23,24 0,14 -12,25 -25,23 -13,0 -24,-11 -22,-25 1,-13 11,-22 24,-22zm-94 0c13,0 24,9 24,22 0,14 -9,25 -23,25 -13,0 -24,-9 -24,-23 0,-15 9,-24 23,-24zm-93 0c11,0 23,9 23,22 0,14 -12,25 -25,25 -13,0 -25,-11 -23,-25 0,-13 10,-22 25,-22l0 0z"/>
   <path class="fil0" d="M199 1721l208 0 0 -283 -208 0 0 283 0 0zm491 -283l-245 0 0 113 245 0 0 -113zm-245 283l94 0 0 -132 -94 0 0 132zm143 -20l-3 -6c0,-2 -2,-2 -2,-4l0 -2 -6 -5 0 37 15 0c2,-3 2,-7 4,-9 -2,-4 -6,-8 -8,-11l0 0zm23 -76l9 -11 10 9 4 4 4 6c3,3 7,9 11,13 7,-4 13,-6 19,-10l0 -49 -95 0 0 76 6 -8 32 -30 0 0z"/>
   <path class="fil0" d="M859 1750l-17 0c-4,0 -6,-2 -6,-6 -4,-11 -7,-21 -11,-30 -4,-8 -4,-8 2,-13 7,-8 17,-15 24,-25l-32 -32 -6 6 -20 20c-2,2 -2,2 -4,2l-4 0c-9,-3 -21,-9 -30,-13 -2,0 -4,-2 -4,-2 -4,-2 -4,-2 -4,-6l0 -37 -43 0 0 37c0,4 -2,6 -4,6 -4,2 -10,4 -13,6 -8,2 -14,6 -21,7 -2,0 -2,2 -4,2 -2,0 -2,0 -4,-2l-22 -22c-2,-2 -4,-2 -4,-4l-30 30c1,2 1,4 3,4l23 23c4,3 4,5 2,9 -2,4 -2,6 -4,10 -4,7 -5,15 -9,22 -2,4 -4,6 -8,6l-36 0 0 43 36 0c4,0 6,2 8,6 3,10 5,19 11,29 6,11 6,7 -2,15l-7 7c-6,6 -12,12 -16,17l31 31 4 -4 22 -23c2,-2 4,-2 6,-2 2,0 2,0 4,2 9,4 19,9 28,13 11,4 10,2 10,14l0 32 43 0 0 -38c0,-4 2,-6 6,-6 11,-4 21,-7 32,-13 4,-2 6,-4 7,-4 2,0 2,2 6,6 8,7 15,17 25,24l32 -32c-2,-2 -4,-4 -4,-5l-23 -23c-2,-2 -2,-6 -2,-6 8,-11 12,-23 16,-36 0,-4 2,-4 5,-4l38 0 0 -43c-17,2 -24,2 -30,2l0 0zm-91 32c0,2 0,2 -2,4 0,2 -2,4 -2,5 0,2 -2,2 -2,4 0,2 -2,4 -2,4 0,2 -1,2 -1,4l-4 4c-2,1 -2,1 -4,1l-4 4c-2,0 -2,2 -4,2 -1,0 -3,2 -3,2 -2,0 -2,0 -4,2 -2,0 -4,2 -6,2l-9 0c-4,0 -8,0 -10,-2 -15,-4 -28,-13 -34,-28 -2,-6 -4,-14 -4,-21l0 -10c0,-2 0,-2 2,-3 0,-2 2,-4 2,-6 0,-2 2,-2 2,-4 0,-2 2,-4 2,-6 0,-2 2,-2 2,-3l4 -4c2,-2 2,-2 3,-2l4 -4c2,0 2,-2 4,-2 2,0 4,-2 4,-2 2,0 2,0 4,-2 2,0 3,-1 5,-1l15 0c10,1 17,5 25,11 11,9 17,23 17,38 2,7 2,11 0,13l0 0z"/>
   <path class="fil1" d="M721 1723zm0 0c2,0 2,0 0,0 2,0 2,0 0,0l-4 0 -666 0 670 0zm-36 19l4 -4c-2,0 -2,2 -4,4zm-6 8c0,-2 2,-4 2,-6 0,2 0,4 -2,6zm21 -21c2,0 4,-2 4,-2 -2,0 -4,2 -4,2zm-8 6l4 -4c-2,2 -4,2 -4,4zm16 -10c1,0 3,-2 5,-2 -2,2 -4,2 -5,2zm56 70c0,2 -2,4 -2,4 0,0 0,-2 2,-4zm4 -9c0,2 -2,4 -2,5 0,-1 2,-3 2,-5zm-45 34l3 0 -682 0 679 0zm36 -17l-4 4c2,-2 4,-2 4,-4zm-14 11c-2,0 -3,2 -3,2 0,0 1,0 3,-2zm8 -6l-4 4 4 -4zm-17 10c-2,0 -4,2 -6,2 4,0 4,-2 6,-2zm-63 -49zm40 -44l4 0c-2,-2 -4,-2 -4,0zm-38 36c0,-2 0,-2 2,-4 -2,2 -2,4 -2,4zm85 38c0,2 -1,2 -1,4 1,-2 1,-2 1,-4zm-11 13c-2,0 -2,2 -4,2 0,0 2,-2 4,-2zm-9 4c-2,0 -2,0 -4,2 2,0 4,0 4,-2zm15 -9c-2,1 -2,1 -4,1 2,0 4,0 4,-1zm-23 13l-4 0 4 0zm34 -29c0,2 -2,2 -2,4 0,-2 2,-2 2,-4zm-62 -64c2,0 2,0 4,-2 -2,2 -2,2 -4,2zm-8 4c2,0 2,-2 4,-2 -2,2 -4,2 -4,2zm72 51c0,2 0,2 -2,4 2,-2 2,-2 2,-4zm-85 -38c0,-2 2,-2 2,-4 0,2 -2,4 -2,4zm6 -7c1,-2 1,-2 3,-2 -2,0 -2,2 -3,2z"/>
   <path class="fil2" d="M535 2656l-185 0 -2 15c-4,28 -6,49 -6,70 0,27 2,49 6,70l2 15 187 0 2 -15c2,-21 6,-43 6,-70 0,-21 -2,-42 -6,-70l-4 -15 0 0zm176 303z"/>
   <path class="fil0" d="M526 3014l-32 11 21 -38c18,-36 34,-74 45,-115l4 -14 38 0 7 -7 8 7 55 0 0 -34 -101 0 2 -19c2,-17 4,-41 4,-64 0,-23 -2,-47 -4,-64l-2 -19 146 0 4 13c5,25 9,49 9,72 0,23 -4,47 -9,72l-4 13 34 0c8,-26 11,-55 11,-83 0,-176 -143,-320 -319,-320 -176,-4 -320,140 -320,316 0,176 144,320 320,320 28,0 56,-4 85,-12l0 -35 -2 0zm11 -203l-2 15 -185 0 -2 -15c-2,-21 -6,-43 -6,-70 0,-21 2,-42 6,-70l2 -15 187 0 2 15c4,28 6,49 6,70 -2,25 -4,49 -8,70l0 0zm-2 -340c65,22 120,68 155,126l16 25 -142 0 -4 -13c-11,-42 -27,-80 -45,-116l-21 -38 41 16 0 0zm-92 -27l13 21c30,42 51,89 66,138l6 21 -174 0 5 -21c16,-49 38,-95 67,-138l17 -21 0 0zm-248 153c34,-60 89,-104 155,-126l42 -14 -21 38c-19,36 -34,74 -46,116l-3 13 -142 0 15 -27 0 0zm-29 216c-5,-25 -9,-49 -9,-72 0,-23 4,-47 9,-72l4 -13 146 0 -2 19c-2,17 -4,42 -4,64 0,23 2,48 4,65l2 18 -148 0 -2 -9 0 0zm184 199c-64,-23 -121,-68 -155,-127l-15 -27 142 0 3 14c12,41 27,79 46,115l21 38 -42 -13 0 0zm93 26l-14 -21c-30,-41 -51,-89 -66,-138l-5 -21 174 0 -6 21c-15,49 -38,95 -66,138l-17 21z"/>
   <path class="fil0" d="M857 2987l-17 0c-4,0 -6,-2 -8,-6 -3,-11 -7,-22 -13,-32 -4,-7 -4,-7 2,-13 9,-9 17,-17 27,-25l-35 -34 -5 6 -23 23c-2,2 -2,2 -4,2l-3 0c-14,-6 -25,-12 -38,-16 -4,-1 -6,-1 -6,-5l0 -40 -47 0 0 42c0,3 -2,5 -4,5 -13,4 -25,10 -36,15 -2,0 -4,2 -4,2 -2,0 -2,0 -4,-2l-24 -24c-2,-2 -4,-2 -4,-4l-32 32c2,2 2,4 4,4l22 23c4,4 4,5 2,9 -5,12 -9,23 -15,34 -2,6 -4,8 -7,8l-40 0 0 47 40 0c5,0 5,2 7,6 4,9 8,21 11,30 6,11 6,8 -1,17l-8 8 -17 17c11,11 23,22 32,34 2,-2 4,-2 4,-4 7,-8 17,-15 25,-25 1,-2 3,-2 5,-2 2,0 4,0 6,2 9,6 21,10 30,14 13,3 10,1 11,13l0 36 48 0 0 -40c0,-4 2,-6 5,-8 12,-3 23,-7 35,-13 3,-2 5,-4 7,-4 2,0 2,2 6,6 9,10 17,17 24,27l34 -34 -5 -6 -25 -25c-2,-2 -2,-5 -2,-5 8,-12 13,-25 15,-38 0,-4 2,-4 6,-4l40 0 0 -47c-6,-6 -13,-6 -21,-6zm-95 34c0,2 0,2 -2,4 0,2 -1,4 -1,6 0,1 -2,1 -2,3 0,2 -2,4 -4,6 0,2 -2,2 -2,4 -2,2 -2,4 -4,4 -2,1 -2,1 -4,1l-3 4c-2,0 -2,2 -4,2 -2,0 -4,2 -6,2 -2,0 -2,0 -4,2 -1,0 -3,2 -5,2l-12 0c-28,0 -51,-25 -51,-53 0,-4 0,-8 2,-10 0,-2 0,-2 2,-3 0,-2 2,-4 2,-6 0,-2 2,-2 2,-4 0,-2 2,-4 4,-6 0,-1 2,-1 2,-3 1,-2 1,-4 3,-4 2,-2 2,-2 4,-2l4 -4c2,0 2,-2 4,-2 2,0 3,-2 5,-2 2,0 4,0 4,-1 2,0 4,-2 6,-2l9 0c29,0 51,24 51,53l0 9 0 0z"/>
   <path class="fil1" d="M687 2964c2,0 3,-2 5,-2 -2,0 -3,2 -5,2zm24 97l6 0 -675 0 669 0zm15 -2c-1,0 -3,2 -5,2 2,0 4,-2 5,-2zm-66 -49c0,-4 0,-8 2,-10 -2,2 -2,6 -2,10zm76 45c-2,0 -4,2 -6,2 2,0 4,-2 6,-2zm24 -30c0,2 -1,4 -1,6 0,-2 1,-4 1,-6zm-3 9c0,2 -2,4 -4,6 2,-2 2,-4 4,-6zm-61 -73c2,0 4,-2 6,-2 -2,2 -4,2 -6,2zm47 88l-3 4 3 -4zm8 -7c-2,2 -2,4 -4,4 2,0 2,-2 4,-4zm-79 -64c1,-2 1,-4 3,-4 -2,0 -2,2 -3,4zm90 34c0,3 0,7 -2,11 2,-6 2,-8 2,-11zm-51 -53l-3 0 -657 0 660 0zm-32 11l4 -4c-2,2 -2,4 -4,4zm32 -11zm-49 37c0,-1 2,-3 2,-5 0,0 -2,2 -2,5zm4 -11c0,-2 2,-4 4,-6 -2,2 -2,4 -4,6zm26 -23c2,0 4,0 4,-1 -2,0 -4,1 -4,1zm10 -3l4 0 -662 0 658 0zm-19 7c2,0 2,-2 4,-2 0,2 -2,2 -4,2zm-8 8c2,-2 2,-2 4,-2 -2,0 -2,0 -4,2z"/>
   <path class="fil1" d="M753 3040c0,2 -2,2 -2,4 0,-2 2,-4 2,-4zm9 -19c0,2 0,2 -2,4 0,-2 0,-2 2,-4zm-100 -23c0,-2 0,-2 2,-3 -2,2 -2,3 -2,3zm2 -9c0,-2 2,-2 2,-4 0,2 0,4 -2,4zm6 -8c0,-2 2,-2 2,-3 0,0 -2,1 -2,3zm51 80l-4 0 -666 0 670 0zm38 -30c0,1 -2,1 -2,3 0,-2 2,-2 2,-3zm-12 17c-2,1 -2,1 -4,1 2,0 2,-1 4,-1zm-17 9c-2,0 -2,0 -4,2 2,0 4,0 4,-2zm10 -4c-2,0 -2,2 -4,2 2,0 2,-2 4,-2z"/>
   <path class="fil0" d="M479 4389l-254 0c-13,0 -24,-2 -36,-4 -38,-8 -62,-36 -64,-74 -2,-24 -2,-51 -2,-75l0 -17c0,-17 0,-33 2,-48 2,-13 6,-22 13,-28 8,-6 17,-8 30,-8 17,2 33,8 46,12 7,2 17,5 24,9 8,2 14,6 21,8 17,5 34,3 49,-4 15,-8 25,-23 29,-40 5,-24 0,-45 -14,-60 -17,-19 -37,-25 -64,-17l-34 11c-9,4 -21,8 -30,11 -8,2 -17,4 -29,6 -20,2 -35,-9 -37,-30 -6,-8 -6,-15 -6,-21l0 -104c0,-40 17,-68 49,-85 29,-15 57,-12 76,-6 13,4 28,8 41,11 12,4 23,6 34,10 6,2 10,2 16,2 -2,-4 -2,-6 -4,-8 -2,-2 -2,-5 -4,-9 -2,-6 -6,-12 -8,-17 -7,-14 -13,-29 -18,-44 -8,-19 -8,-39 -2,-62 11,-38 43,-66 85,-72 28,-4 53,0 74,9 34,16 53,46 56,84 2,24 -3,47 -15,70 -4,5 -7,13 -9,19 -6,9 -10,17 -13,26 0,0 0,2 -2,2l2 0c15,-2 30,-6 47,-11l13 -4c19,-6 42,-12 66,-10 44,2 82,40 83,84 2,24 -5,47 -11,70 -2,3 -2,9 -4,13 -3,15 -7,32 -9,45 6,-2 11,-6 17,-9l9 -6c19,-9 38,-19 61,-25 30,-5 60,0 83,17 23,17 38,44 42,74 4,30 0,55 -13,78 -17,30 -44,47 -80,49 -25,2 -51,-4 -77,-19 -6,-2 -10,-6 -16,-8 -5,-3 -13,-7 -19,-9 -1,-2 -5,-2 -7,-4 0,15 6,29 9,44l4 13c6,23 13,45 11,72 -1,45 -35,81 -79,85 -23,2 -45,2 -68,2l-17 0c-15,2 -30,2 -47,2zm-72 -36l138 0c21,0 43,0 64,-2 25,-2 46,-23 46,-51 0,-21 -6,-40 -12,-61l-4 -13c-5,-19 -11,-40 -11,-60 0,-16 8,-23 11,-27 6,-4 14,-7 29,-4 7,2 15,6 21,8 7,4 13,7 20,11 6,2 10,6 16,8 20,11 39,15 58,13 23,-2 40,-11 51,-32 10,-15 12,-34 10,-55 -2,-21 -12,-38 -27,-49 -15,-12 -34,-15 -55,-12 -17,4 -32,12 -49,21l-9 6c-10,4 -17,9 -29,13 -17,6 -28,2 -32,-2 -5,-3 -13,-13 -11,-30 2,-19 6,-38 11,-59 2,-5 2,-9 4,-15 6,-21 11,-39 9,-58 -1,-27 -22,-48 -49,-50 -17,-1 -36,4 -57,10l-13 4c-17,3 -34,9 -53,11 -7,2 -28,4 -39,-11 -12,-15 -2,-36 1,-42 4,-9 10,-19 16,-28 3,-6 7,-14 9,-19 10,-17 11,-34 11,-51 -1,-27 -13,-42 -36,-53 -15,-8 -32,-10 -54,-6 -27,4 -48,21 -55,45 -4,16 -4,29 0,42l17 40c2,5 5,11 7,17 2,2 2,5 4,7 4,6 6,12 8,19 5,15 0,25 -4,29 -4,3 -11,11 -27,11 -7,0 -19,0 -30,-4 -11,-2 -23,-5 -34,-9 -13,-4 -26,-8 -40,-10 -20,-5 -36,-3 -51,4 -21,11 -30,28 -30,55l0 104c0,4 0,9 2,15l0 2c7,0 15,-2 21,-4 9,-4 19,-7 28,-9 11,-4 25,-10 36,-13 40,-14 76,-2 102,26 23,25 30,57 23,93 -6,26 -23,49 -46,62 -22,13 -51,17 -77,8 -8,-2 -15,-6 -23,-10 -7,-4 -15,-5 -22,-7 -12,-4 -25,-8 -40,-10l-2 0 0 2c-2,13 -2,29 -2,44l0 17c0,24 0,49 2,73 2,21 15,36 36,42 7,2 17,2 28,2l135 0 49 2zm-248 -180z"/>
   <g>
    <path class="fil0" d="M571 5030c25,6 49,13 74,19 4,2 10,6 11,11 2,2 -1,10 -3,12 -4,2 -10,2 -14,2 -13,-2 -28,-6 -41,-10 5,19 15,36 19,55 15,72 -19,142 -85,176 -6,2 -10,6 -10,11 0,31 -19,51 -49,61 -2,0 -4,2 -4,2l-17 0c-15,-4 -30,-12 -41,-25 -19,-26 -16,-62 9,-83 25,-21 62,-19 85,4 4,3 6,5 8,9 77,-32 102,-134 56,-197 -3,14 -7,27 -9,42 -2,9 -6,15 -17,13 -10,-2 -11,-9 -8,-19l17 -68c2,-5 6,-9 10,-15l9 0zm-108 242c-20,0 -35,15 -37,36 0,19 15,36 36,36 20,0 37,-15 37,-36 0,-19 -15,-36 -36,-36zm260 31c-10,11 -15,11 -25,0 -6,-6 -11,-14 -21,-23 -7,9 -13,17 -19,24 -5,8 -13,10 -20,2 -8,-7 -4,-13 1,-19 8,-5 14,-13 23,-22 -9,-8 -17,-15 -24,-21 -6,-6 -8,-13 -2,-19 5,-8 13,-6 19,2 7,7 13,15 22,23 8,-8 13,-16 19,-21 12,-12 15,-10 27,0l0 9c-10,8 -19,17 -31,27 12,11 21,19 31,28l0 10 0 0zm-369 -89c9,7 15,15 22,22 6,6 8,14 2,19 -5,6 -13,4 -19,-2 -7,-7 -13,-15 -22,-24 -8,9 -15,17 -23,22 -6,6 -13,10 -19,2 -7,-7 -4,-13 2,-19 8,-7 15,-13 23,-22 -10,-8 -17,-15 -25,-23 -6,-6 -7,-13 -2,-19 6,-6 13,-6 19,2 8,8 13,15 23,23 7,-10 15,-15 23,-23 5,-6 13,-8 18,-2 8,8 4,13 -1,19 -6,9 -12,17 -21,25z"/>
    <path class="fil0" d="M475 5111c9,8 15,16 23,21 5,6 7,13 1,19 -5,6 -13,4 -18,-2 -8,-7 -14,-15 -23,-24 -8,9 -15,17 -21,24 -6,6 -13,8 -19,2 -7,-6 -6,-13 2,-19 8,-7 15,-13 25,-22 -10,-8 -17,-16 -25,-23 -6,-6 -8,-13 -2,-19 6,-6 13,-6 19,2 8,7 15,15 23,24 7,-9 15,-17 22,-24 6,-6 14,-8 19,0 6,6 4,13 -2,19 -7,5 -15,13 -24,22z"/>
    <path class="fil0" d="M393 5600l-20 0c-29,-21 -29,-36 -6,-61l61 -61 -271 0 0 -484c-13,-2 -25,-2 -36,-4l0 -145c6,0 10,-2 15,-2l725 0c5,0 11,2 17,2l0 145c-12,2 -21,2 -32,4l0 484 -267 0c-2,2 -2,4 -4,6 19,19 38,36 57,55 24,25 23,40 -2,62l-21 0c-38,-36 -74,-71 -115,-111 -31,36 -66,72 -101,110l0 0zm392 -606l-564 0 0 420 564 0 0 -420zm-600 -36l632 0 0 -53 -632 0 0 53z"/>
   </g>
   <g>
    <path class="fil0" d="M85 6432l51 0 0 51 -51 0 0 -51zm259 -100l51 0 0 51 -51 0 0 -51zm-155 49l51 0 0 51 -51 0 0 -51zm104 51l51 0 0 51 -51 0 0 -51zm-104 51l51 0 0 51 -51 0 0 -51zm155 0l51 0 0 51 -51 0 0 -51zm-104 100l51 0 0 51 -51 0 0 -51zm208 -403c0,-2 0,-2 0,0zm-208 101l51 0 0 51 -51 0 0 -51z"/>
    <path class="fil0" d="M906 6676c-62,-30 -125,-61 -185,-91 -31,-15 -53,-36 -61,-70 -2,-6 -4,-15 0,-19 15,-24 21,-53 30,-79 2,-4 4,-8 8,-10 23,-21 30,-58 17,-83 -4,-8 -4,-13 -2,-21 4,-21 10,-41 8,-60 -10,-55 -46,-89 -101,-106 -22,-6 -43,-8 -66,-6 -15,2 -30,4 -45,10 -2,0 -4,1 -6,1 -21,8 -38,21 -53,36l0 2 51 0 0 51 -53 0 0 -51 -2 0c-13,15 -20,32 -26,51 -2,10 -4,21 -2,31 0,7 2,13 4,20 2,10 4,19 6,27 0,4 0,7 -2,11l-6 12c-6,17 -4,34 2,51 4,9 9,19 19,28 2,2 4,6 5,8 0,0 0,2 2,2 2,3 4,7 6,13 6,17 13,34 19,51 2,4 2,6 4,9 2,6 4,14 4,21 -2,8 -4,15 -6,21l-25 34c-7,6 -15,11 -24,17l-2 0c-8,4 -17,8 -25,13 -17,10 -34,17 -53,27 -7,4 -17,7 -24,13 -10,4 -17,9 -27,13 -17,10 -34,17 -53,27 -2,0 -4,2 -6,2 -5,1 -7,5 -9,9 -2,2 -2,6 -2,9l0 42 698 0 0 -42c-6,-15 -7,-20 -17,-24l0 0zm-509 7l-53 0 0 -51 53 0 0 51zm157 -49l-53 0 0 -51 53 0 0 51zm0 -151l-53 0 0 -51 53 0 0 51 0 0zm0 -151l-53 0 0 -51 53 0 0 51z"/>
   </g>
   <g>
    <path class="fil0" d="M798 7417c-24,-28 -53,-56 -81,-87l-21 21 -495 0c-36,4 -67,29 -76,61 -2,4 -2,7 -2,11l0 397c0,2 0,6 2,8 9,40 45,66 87,66l229 0c55,36 111,72 166,108l29 19 0 -127 64 0c36,-4 66,-28 76,-62 2,-4 2,-8 2,-12l0 -361 17 -17c22,-17 20,-8 3,-25l0 0zm-49 400c0,2 0,5 -2,7 -5,21 -26,38 -49,40l-95 0 0 100c-49,-32 -100,-64 -149,-96 -4,-2 -9,-4 -13,-4l-231 0c-28,0 -51,-17 -57,-44 0,-1 0,-3 -2,-5l0 -388c0,-2 2,-6 2,-8 6,-20 27,-36 48,-37l459 0c-70,70 -138,138 -204,206 -4,4 -2,21 4,24 21,25 45,46 68,68 9,10 17,14 28,2 63,-64 127,-126 189,-191l0 322 4 4 0 0zm131 -481c0,23 -29,68 -50,74 -5,2 -15,-2 -18,-8 -25,-22 -48,-45 -70,-70 -4,-3 -8,-13 -6,-19 7,-24 57,-53 79,-49 31,6 65,42 65,72z"/>
    <path class="fil0" d="M378 7762c19,-48 38,-97 57,-144 30,32 61,61 91,93 -44,19 -93,38 -140,56 -4,0 -6,-1 -8,-5l0 0z"/>
   </g>
   <path class="fil0" d="M709 9152l-467 0 0 -560 10 -4 64 0c6,0 11,6 11,10 6,21 23,32 44,32l157 0c21,0 38,-11 43,-32 2,-4 4,-10 14,-10l60 0 2 8 0 55c0,4 0,7 2,9 4,15 17,25 32,23 15,-2 27,-15 27,-30l0 -83c0,-25 -19,-44 -46,-44l-153 0 0 -8c-2,-43 -36,-66 -68,-64 -25,2 -61,19 -65,64l0 8 -153 0c-15,0 -26,8 -32,13 -7,8 -13,19 -13,32l0 598c0,25 19,44 43,44l445 0c15,0 28,-8 38,-21 5,-10 5,-21 5,-34l0 -6 0 0zm-264 -673c22,0 41,19 41,41 0,23 -19,42 -41,42 -12,0 -21,-4 -31,-11 -7,-8 -13,-19 -13,-31 2,-22 21,-41 44,-41z"/>
   <path class="fil0" d="M679 8736c-2,0 -2,0 0,0 -51,0 -96,19 -132,53 -34,34 -53,79 -53,127 -2,98 79,178 179,179 52,0 97,-17 133,-53 36,-34 55,-81 55,-130 0,-95 -83,-174 -182,-176zm89 114c-28,56 -57,111 -85,168 -10,19 -36,23 -49,6 -17,-23 -34,-44 -53,-67 -13,-17 -6,-39 15,-45 11,-4 23,0 30,9l23 29c0,0 2,2 2,4 9,-17 17,-34 24,-50 14,-26 27,-51 40,-77 6,-12 17,-17 28,-17 14,2 23,9 27,22 2,6 2,12 -2,18l0 0zm-323 -176c-6,3 -12,3 -17,5 5,-4 11,-9 13,-17 -6,4 -12,6 -19,8 -6,-6 -13,-10 -23,-10 -17,0 -30,15 -30,32l0 8c-27,-2 -49,-15 -64,-34 -4,4 -4,9 -4,17 0,11 5,21 13,27 -6,0 -9,-2 -13,-4 0,15 11,28 24,32 -2,0 -5,2 -7,2l-6 0c4,13 15,22 29,22 -12,10 -25,14 -38,14l-8 0c13,9 30,15 47,15 57,0 87,-49 87,-93l0 -4c8,-7 12,-13 16,-20l0 0zm-33 147l-83 0c-15,0 -26,11 -26,27l0 81c0,15 11,26 26,26l83 0c16,0 27,-11 27,-26l0 -81c0,-16 -11,-27 -27,-27l0 0zm8 15l4 0 0 25 -23 0 0 -23 19 0 0 -2zm-68 38c4,-6 11,-9 19,-9 7,0 15,3 19,9 3,4 3,10 3,13 0,14 -11,23 -24,23 -13,0 -25,-9 -25,-23 2,-5 4,-9 8,-13l0 0zm74 55c0,8 -6,13 -14,13l-83 0c-7,0 -13,-5 -13,-13l0 -55 21 0c-2,4 -4,10 -4,13 0,21 17,36 38,36 21,0 38,-17 38,-36 0,-3 -2,-9 -4,-13l21 0 0 55zm-21 96l-23 0 0 -15c0,-5 4,-7 6,-7l17 0 0 -25 -23 0c-26,0 -30,19 -30,30l0 17 -15 0 0 27 15 0 0 72 30 0 0 -72 21 0 2 -27 0 0z"/>
   <g>
    <path class="fil0" d="M244 10276l64 -191 38 0 65 191 -36 0 -17 -51 -65 0 -17 51 -32 0zm81 -155l-24 79 51 0 -27 -79zm203 28l2 -74 32 0 0 201 -32 0 0 -23 -2 0c-8,15 -23,25 -44,25 -36,0 -56,-27 -56,-70l0 -12c0,-41 20,-70 56,-70 21,0 36,10 44,23l0 0zm-66 47l0 12c0,28 13,43 32,43 21,0 34,-15 34,-43l0 -12c0,-26 -13,-43 -34,-43 -19,0 -32,15 -32,43zm191 -70c36,0 55,19 55,46l-31 0c-2,-10 -7,-21 -26,-21 -15,0 -25,8 -25,19 0,15 21,19 38,21 26,5 49,13 49,41 0,31 -24,48 -62,48 -36,0 -59,-17 -59,-44l32 0c2,11 12,19 29,19 19,0 28,-9 28,-19 0,-15 -17,-17 -36,-21 -26,-5 -49,-15 -49,-41 -2,-34 26,-48 57,-48l0 0z"/>
    <path class="fil0" d="M825 9865c-23,-26 -49,-53 -76,-81l-13 13c-10,-2 -19,-4 -28,-4l-464 0c-57,0 -102,46 -102,101l0 372c0,55 45,101 102,101l464 0c56,0 102,-46 102,-101l0 -361 17 -17c13,-15 13,-8 -2,-23l0 0zm-46 401c0,40 -32,72 -71,72l-464 0c-40,0 -72,-32 -72,-72l0 -372c0,-40 32,-72 72,-72l467 0 -83 83c-4,4 -2,19 4,23 19,22 41,41 62,64 10,10 17,11 27,2 47,-47 47,-47 58,-61l0 333 0 0zm120 -476c0,20 -27,64 -46,68 -6,2 -13,-2 -17,-6 -23,-21 -43,-43 -64,-64 -4,-4 -8,-13 -6,-17 8,-23 53,-49 74,-46 28,4 59,36 59,65z"/>
    <path class="fil0" d="M551 10068c17,-44 34,-89 51,-133 28,29 54,57 83,85 -42,18 -85,35 -129,53 0,-1 -4,-3 -5,-5l0 0z"/>
   </g>
   <g>
    <path class="fil0" d="M530 12107c7,2 13,4 21,6 7,2 11,7 9,15 -9,32 -21,64 -30,94 -2,8 -8,10 -19,6 -6,-2 -10,-6 -10,-13 4,-32 10,-64 14,-97 0,-5 3,-11 7,-13 4,2 6,2 8,2l0 0zm-72 579c34,25 40,36 30,64 21,15 42,29 63,44 17,11 17,28 -2,38l-57 28c-13,8 -23,4 -32,-8 -27,-32 -57,-60 -97,-79 -5,-2 -7,-2 -13,2 -23,17 -47,21 -74,11 -58,-17 -96,-57 -111,-117 -8,-28 0,-55 22,-78 21,-22 42,-45 63,-70 26,-32 36,-70 38,-111 0,-27 0,-55 3,-82 4,-34 19,-60 42,-83 15,-15 34,-17 55,-15 36,4 68,17 98,36 93,55 165,130 214,227 11,23 21,47 23,74 2,24 -4,45 -23,64 -27,23 -57,34 -89,36 -28,2 -59,2 -87,4 -26,0 -47,4 -66,15l0 0zm-106 -378c0,13 7,30 15,47 25,49 61,93 98,132 36,36 76,70 123,95 17,9 36,17 57,19 19,2 32,-8 34,-27l0 -15c-2,-19 -9,-36 -19,-51 -49,-87 -117,-155 -200,-208 -21,-13 -46,-25 -70,-28 -25,-6 -38,7 -38,36zm240 317c-119,-60 -208,-149 -267,-268l0 9c0,19 0,38 -2,57 -1,36 -11,68 -28,98 -2,4 -4,10 -4,15 10,57 63,110 118,122 7,1 15,0 22,-4 12,-6 23,-12 34,-15 27,-10 55,-12 84,-12 17,-2 30,-2 43,-2l0 0zm51 -306c-4,-4 -9,-8 -11,-11 -2,-4 0,-10 2,-14l62 -73c6,-8 12,-8 19,-2 6,5 11,9 15,15 6,5 6,11 0,15 -24,21 -51,43 -75,64 -4,4 -8,4 -12,6zm91 125c-8,0 -11,-4 -13,-13 -2,-6 0,-12 7,-14 32,-9 65,-21 97,-30 7,-2 11,0 13,9l6 23c2,6 -2,12 -8,12 -36,3 -70,9 -102,13l0 0z"/>
    <path class="fil0" d="M433 12402c29,-21 74,-17 102,10 29,26 33,72 12,104 -42,-34 -80,-72 -114,-114l0 0z"/>
   </g>
   <path class="fil2" d="M320 11110l-25 80 49 0 -22 -80 -2 0zm162 34c-19,0 -32,15 -32,44l0 11c0,28 13,44 32,44 21,0 33,-16 33,-44l0 -11c1,-27 -12,-44 -33,-44z"/>
   <path class="fil2" d="M639 11505l10 -9 4 -4 2 -2c-4,-7 -6,-15 -10,-22l-42 0 0 -70 42 0c4,-8 6,-15 10,-23l-12 -11 -4 -6 -3 -4 0 -2 -10 -9 10 -10 28 -28 9 -9 10 9 4 4 3 4c4,3 8,7 12,13 7,-4 15,-6 21,-10l0 -41 32 0 0 -203c0,-39 -32,-72 -70,-72l-445 0c-38,0 -70,33 -70,72l0 371c0,40 32,72 70,72l392 0 4 -6 3 -4 0 0zm-272 -238l-15 -51 -64 0 -16 51 -32 0 63 -189 38 0 62 189 -36 0zm180 0l-31 0 0 -23 -1 0c-8,16 -23,25 -42,25 -36,0 -55,-26 -55,-70l0 -13c0,-42 21,-70 55,-70 19,0 34,9 42,22l1 0 0 -71 33 0 0 200 -2 0zm30 -41l30 0c2,11 12,18 29,18 19,0 26,-9 26,-18 0,-16 -17,-18 -36,-21 -26,-6 -47,-15 -47,-42 0,-32 26,-45 57,-45 34,0 53,19 53,45l-29 0c0,-9 -7,-21 -26,-21 -15,0 -25,8 -25,19 0,15 21,19 36,21 27,6 47,13 47,42 0,30 -22,47 -58,47 -34,-2 -57,-19 -57,-45l0 0zm182 162z"/>
   <path class="fil0" d="M303 11076l-63 189 32 0 16 -51 64 0 15 51 34 0 -62 -189 -36 0zm-8 114l25 -80 2 0 24 80 -51 0zm221 -50c-7,-13 -22,-22 -41,-22 -34,0 -55,28 -55,70l0 13c0,42 19,70 55,70 19,0 34,-10 41,-25l2 0 0 23 31 0 0 -202 -33 0 0 73zm0 59c0,28 -13,44 -32,44 -19,0 -32,-16 -32,-44l0 -11c0,-29 13,-44 32,-44 21,0 34,17 34,44l-2 11zm178 23c0,-29 -21,-36 -47,-42 -17,-4 -36,-6 -36,-21 0,-11 9,-19 25,-19 19,0 24,12 26,21l28 0c0,-26 -18,-45 -52,-45 -31,0 -57,13 -57,45 0,27 21,36 47,42 19,4 36,5 36,21 0,11 -8,19 -26,19 -18,0 -27,-8 -29,-19l-32 0c0,26 21,43 57,43 38,2 60,-15 60,-45l0 0z"/>
   <path class="fil0" d="M626 11521l6 -6 -392 0c-38,0 -70,-32 -70,-72l0 -371c0,-39 32,-72 70,-72l449 0c37,0 70,33 70,72l0 203 28 0 0 -203c0,-55 -44,-100 -98,-100l-449 0c-55,0 -98,45 -98,100l0 371c0,55 43,100 98,100l409 0 -13 -13 -10 -9z"/>
   <path class="fil1" d="M759 11388zm39 57c0,2 -2,4 -2,6 2,-2 2,-4 2,-6zm-7 17l-4 4 4 -4zm5 -8c0,2 -1,4 -1,4 0,0 0,-2 1,-4zm-13 16zm-51 -70l4 -4c-2,2 -4,2 -4,4zm-15 20c0,-2 2,-3 2,-5 0,2 0,3 -2,5zm-2 14c0,-4 0,-6 2,-10 -2,2 -2,6 -2,10zm11 -29l4 -4c-2,2 -4,2 -4,4zm-5 8c0,-2 2,-4 2,-4 0,0 -2,2 -2,4zm17 -19c2,0 2,-2 4,-2 0,0 -2,2 -4,2zm41 77c-1,0 -1,2 -3,2 0,0 2,0 3,-2zm-20 6l5 0 -722 0 717 0zm0 -89zm22 82c2,0 2,0 0,0 2,0 2,0 0,0 2,0 2,0 0,0zm6 -70c-2,-2 -2,-2 -4,-2 2,0 2,2 4,2zm-15 75c-2,0 -2,2 -4,2 0,0 2,-2 4,-2zm-30 -83c1,0 1,0 3,-2 0,2 -2,2 -3,2zm7 -2zm-15 6c2,0 2,-2 4,-2 0,2 -2,2 -4,2zm-6 5c2,-1 2,0 0,0zm-11 23c0,-2 0,-2 0,0zm2 -9c0,-2 2,-2 2,-4 0,2 -2,4 -2,4zm4 -6c0,-2 2,-2 0,0 2,-2 2,-2 0,0zm75 42c0,2 -2,2 -2,3 0,-1 0,-1 2,-3zm-5 7c0,2 -2,2 0,0 0,2 0,2 0,0zm7 -15c0,2 0,2 0,0zm-24 30c-2,0 -2,0 -4,2 0,0 2,0 4,-2zm5 -3c-2,0 -2,1 -3,1 1,0 3,0 3,-1z"/>
   <g>
    <path class="fil0" d="M1706 12864l-47 0c-13,-2 -28,-4 -42,-6 -138,-30 -230,-113 -272,-250 -6,-20 -8,-43 -11,-66l0 -47c2,-10 2,-17 3,-27 21,-119 86,-204 192,-259 7,-4 13,-5 20,-9 2,4 2,5 4,7 42,102 85,203 127,305 2,6 6,7 9,9 17,8 34,17 49,25 69,34 139,68 207,102 15,8 30,15 47,23l0 2c0,2 -2,3 -2,5 -51,91 -127,150 -227,174 -19,8 -38,8 -57,12l0 0z"/>
    <g>
     <path class="fil0" d="M1729 12145c6,2 11,2 17,4 15,2 30,3 44,7 5,2 11,4 15,4l-59 125 -36 76 -64 -154 -21 -51 23 -5c9,-2 17,-2 28,-4 4,0 8,-2 11,-2l42 0 0 0zm4 -38l-47 0c-14,2 -29,4 -42,6 -23,4 -45,11 -66,19 43,106 89,212 132,319 49,-106 98,-208 150,-314 -21,-7 -40,-15 -59,-19l-68 -11zm354 335c-19,-112 -78,-195 -176,-252 -6,-3 -14,-7 -21,-11 -49,104 -99,208 -150,312 104,51 208,102 313,155 5,-15 13,-30 18,-45 10,-29 16,-57 19,-85l0 -46c-2,-9 -2,-19 -3,-28l0 0zm-48 -36c4,11 6,25 10,36l-63 129 -20 -12 73 -153 0 0zm-109 138l-23 -11 100 -203c6,10 11,19 15,29l-92 185zm51 -250l-108 220 -25 -12 112 -228 21 20 0 0zm-99 -9l25 -51c7,5 17,11 24,17l-117 234 -23 -11 91 -189zm152 310l-16 -7 33 -67c-2,23 -8,46 -16,68 0,0 0,4 -1,6l0 0z"/>
    </g>
   </g>
   <g id="_2525871471376">
    <path class="fil0" d="M2090 11027c0,-34 -20,-55 -56,-55l-638 0c-30,0 -62,21 -62,59l0 546 754 0 0 -9c2,-178 2,-361 2,-541l0 0zm-442 0c15,0 28,13 28,28 0,15 -13,27 -28,27 -15,0 -29,-13 -29,-29 0,-15 12,-28 29,-26zm-114 0c15,0 29,11 29,26 0,16 -14,29 -29,29 -15,0 -28,-12 -28,-27 -2,-17 11,-28 28,-28zm-113 0c15,0 28,13 28,28 0,15 -13,29 -28,27 -15,0 -29,-13 -29,-29 0,-15 14,-28 29,-26zm641 526l-698 0 0 -432 698 0 0 432z"/>
    <path class="fil0" d="M1676 11180l-246 0 0 324 246 0 0 -324zm320 0l-284 0 0 151 284 0 0 -151 0 0zm-170 191l-114 0 0 133 114 0 0 -133zm56 133l114 0 0 -133 -114 0 0 133z"/>
   </g>
   <path class="fil2" d="M1808 9924l0 45 46 0c-13,-19 -28,-34 -46,-45l0 0zm0 280c18,-11 33,-27 46,-45l-46 0 0 45zm0 -87l67 0c5,-17 9,-34 9,-53 0,-19 -4,-36 -9,-53l-67 0 0 106zm-395 -223l0 5c4,-7 8,-13 11,-20 27,-40 61,-74 101,-101 5,-3 13,-7 21,-11l-6 0c-68,-2 -127,57 -127,127zm159 266c11,17 27,33 45,46l0 -46 -45 0zm87 0l0 67c17,5 34,9 53,9 19,0 36,-4 53,-9l0 -67 -106 0zm0 -149l106 0 0 106 -106 0 0 -106zm106 -43l0 -67c-17,-5 -34,-9 -53,-9 -19,0 -36,4 -53,9l0 67 106 0zm-149 43l-67 0c-5,17 -9,34 -9,53 0,19 4,36 9,53l67 0 0 -106zm-201 219l0 4c0,70 57,129 127,129l4 0c-8,-4 -14,-8 -21,-11 -10,-6 -19,-14 -29,-21 -32,-31 -60,-63 -81,-101zm201 -306c-17,11 -33,26 -46,45l46 0 0 -45 0 0z"/>
   <path class="fil0" d="M1415 9899c4,-7 8,-13 11,-20 -3,5 -7,13 -11,20zm-8 14c2,-6 6,-10 8,-15 -4,5 -6,11 -8,15zm591 -33l11 18 -11 -18zm11 18c2,5 6,9 8,15 -2,-6 -6,-10 -8,-15z"/>
   <path class="fil0" d="M1612 9739c-21,-10 -46,-16 -70,-16 -95,0 -171,76 -171,171 0,24 6,49 16,70 0,2 0,4 -2,4l185 0c11,-18 27,-33 46,-46l0 -185c0,2 -2,2 -4,2l0 0zm-85 39c-40,27 -74,61 -101,101 -3,5 -7,13 -11,20 -2,6 -6,10 -8,16 2,-6 6,-10 8,-16l0 -5c0,-70 57,-129 129,-129l5 0c-9,6 -17,10 -22,13zm185 116c19,0 36,4 53,9l0 -174c-17,-2 -36,-4 -53,-4 -17,0 -36,2 -53,4l0 174c17,-5 34,-9 53,-9zm325 70c10,-21 16,-46 16,-70 0,-95 -76,-171 -171,-171 -24,0 -49,6 -70,16 -2,0 -4,0 -4,-2l0 185c18,11 33,27 46,46l185 0c0,-2 0,-4 -2,-4l0 0zm-92 -146c-15,-13 -31,-26 -49,-38 -6,-4 -14,-7 -21,-11l3 0c69,0 125,53 127,121 -2,-4 -5,-6 -7,-10 -15,-22 -32,-43 -53,-62l0 0zm-519 61zm591 336c-2,6 -6,10 -8,15 4,-5 6,-11 8,-15zm-519 114c-34,-27 -62,-61 -83,-99 21,38 49,70 83,99zm-83 -99c-2,-5 -6,-9 -8,-15 2,6 6,10 8,15zm634 -219l-174 0c5,17 9,34 9,53 0,19 -4,36 -9,53l174 0c2,-17 4,-36 4,-53 0,-19 -2,-36 -4,-53l0 0zm-337 223c-19,0 -36,-4 -53,-9l0 174c17,2 36,4 53,4 17,0 36,-2 53,-4l0 -174c-17,5 -34,9 -53,9z"/>
   <path class="fil0" d="M2034 10162l-184 0c-9,15 -24,31 -42,42l0 185 6 0c19,8 42,14 66,14 95,0 171,-76 171,-171 -2,-24 -8,-49 -17,-70l0 0zm-29 70c0,70 -57,129 -128,129l-2 0c7,-4 13,-8 21,-11 39,-27 73,-61 100,-101 4,-5 5,-11 9,-17l0 0zm-433 -72l-185 0c0,2 0,4 2,4 -10,21 -16,46 -16,70 0,95 76,171 171,171 24,0 49,-6 70,-16 2,0 3,0 3,2l0 -185c-18,-13 -34,-29 -45,-46l0 0zm-30 203c-70,0 -129,-57 -127,-129l0 -4c-2,-5 -6,-9 -8,-15 2,6 6,10 8,15 21,38 49,70 83,99 10,7 19,15 29,21 5,3 13,7 20,11 -1,0 -3,2 -5,2zm9 -352l-174 0c-2,17 -4,36 -4,53 0,19 2,36 4,53l174 0c-5,-17 -9,-34 -9,-53 0,-19 4,-36 9,-53l0 0z"/>
   <path class="fil0" d="M1498 10329c10,7 19,15 29,21 -10,-8 -19,-14 -29,-21z"/>
   <g id="_2525871471792">
    <path class="fil0" d="M2047 8619l-2 -14c0,-9 -6,-15 -15,-17 -34,-13 -68,-24 -104,-37l-206 -74c-2,0 -2,-2 -4,-2l-10 0 -20 8c-16,5 -33,11 -48,17 -81,28 -162,58 -244,87 -9,3 -15,9 -17,20 -7,72 -9,137 -4,195 6,70 19,129 40,184 34,87 85,149 155,195 42,26 85,43 131,49 2,0 2,0 4,2l17 0c3,0 5,-2 9,-2 8,-2 15,-2 21,-4 98,-25 174,-83 227,-174 30,-51 51,-112 62,-182 12,-70 14,-145 6,-230 2,-8 2,-16 2,-21zm-64 329c-23,70 -57,123 -103,166 -47,44 -102,70 -162,80l-8 0c-9,0 -19,-2 -28,-4 -83,-23 -150,-72 -197,-148 -30,-47 -49,-102 -62,-166 -14,-70 -16,-146 -8,-236 2,-14 6,-19 19,-25 57,-21 113,-40 170,-61 34,-11 68,-24 102,-36 4,-1 10,-1 15,0 63,23 125,46 188,67l91 32c5,2 9,4 11,13 2,25 2,51 4,68l0 15c-2,99 -10,169 -32,235l0 0z"/>
    <path class="fil0" d="M1606 8838l0 -4c0,-20 0,-43 2,-64 2,-28 13,-51 34,-70 30,-26 66,-36 104,-21 38,13 63,42 68,82 2,11 2,24 2,36l0 41c4,2 8,2 11,4 6,4 8,8 8,13l0 144c0,19 -15,32 -34,32l-178 0c-17,0 -30,-9 -34,-24 0,-4 -2,-8 -2,-10l0 -138c2,-13 6,-17 19,-21l0 0zm178 2l0 -74c-8,-47 -57,-74 -100,-55 -29,14 -44,34 -44,65l0 62c47,2 97,2 144,2zm-49 136l0 -5c-2,-14 -6,-29 -8,-42 0,-2 0,-4 2,-4 8,-9 8,-21 -2,-28 -7,-8 -21,-8 -28,0 -8,7 -10,19 -2,28 0,2 2,2 2,4 -2,9 -4,21 -6,30 -2,6 -2,12 -4,17l46 0z"/>
   </g>
   <path class="fil0" d="M1948 7342l-227 225 -83 -83 -265 265 31 30 236 -237 85 85 256 -255 37 38 36 -144 0 -2 -147 36 41 42 0 0zm10 240l68 0 0 439 -68 0 0 -439zm-174 95l68 0 0 344 -68 0 0 -344z"/>
   <polygon class="fil1" points="1746,7654 1761,7639 1746,7639 "/>
   <path class="fil0" d="M1602 7773l68 0 0 248 -68 0 0 -248zm-174 95l68 0 0 153 -68 0 0 -153z"/>
   <path class="fil2" d="M1801 6430c0,-2 0,-2 0,0 -4,4 -6,9 -10,15 -32,-13 -62,-9 -88,15 -8,8 -14,13 -17,21l52 0c31,0 57,-23 63,-51l0 0zm-32 -28c4,0 5,0 7,-4 4,-6 10,-12 15,-15 -7,-12 -17,-21 -30,-27 -5,-2 -11,-4 -19,-5 10,-35 4,-65 -22,-89 -27,-25 -57,-29 -89,-16 -25,-54 -80,-71 -121,-58 -21,7 -40,19 -53,38 -19,26 -23,55 -15,87 -2,0 -4,0 -6,2 -42,5 -72,45 -68,88 2,42 38,78 79,78l197 0c21,-51 72,-85 125,-79z"/>
   <path class="fil2" d="M1835 6441c-9,40 -44,70 -83,76l-76 0c0,9 2,19 4,30 -6,2 -13,4 -19,6 -28,11 -44,42 -38,74 6,30 32,53 61,53l289 0c42,0 78,-34 80,-78 3,-43 -27,-83 -69,-89 -1,0 -3,0 -5,-2 7,-32 4,-60 -15,-87 -14,-19 -31,-32 -53,-38 -23,-7 -51,-5 -76,10 4,15 4,30 0,45l0 0z"/>
   <path class="fil0" d="M2024 6487c-4,-2 -6,-4 -6,-10 -1,-68 -54,-125 -119,-132 -28,-2 -55,2 -75,15 -6,-9 -16,-19 -25,-26 -9,-8 -13,-14 -13,-25 -6,-64 -66,-114 -129,-104 -4,0 -6,0 -7,-4 -33,-40 -72,-57 -121,-51 -67,6 -118,64 -120,132 0,4 -2,8 -5,10 -50,24 -76,81 -65,136 12,55 59,93 114,93l189 0c-2,5 -6,9 -11,13 -34,23 -50,66 -38,108 9,40 43,70 83,76l301 0c55,0 100,-38 113,-93 10,-57 -17,-114 -66,-138l0 0zm-575 -6c-42,0 -77,-34 -79,-78 -4,-43 26,-83 68,-88 2,0 3,0 5,-2 -7,-32 -3,-61 16,-87 13,-19 30,-32 52,-38 42,-13 97,4 122,58 32,-13 62,-9 88,16 27,24 33,54 23,89 6,1 13,3 19,5 13,6 23,15 30,27l-15 15c-2,4 -4,4 -7,4 -53,-8 -106,28 -123,79l-199 0zm526 197l-289 0c-31,0 -57,-23 -61,-53 -6,-32 9,-63 38,-74 6,-2 11,-4 19,-6 -4,-11 -4,-20 -4,-30 0,-13 4,-24 9,-36 4,-7 10,-15 17,-21 27,-24 57,-28 89,-15 2,-5 6,-11 10,-17 9,-15 21,-24 34,-32 24,-13 53,-17 76,-9 20,7 39,18 53,37 18,27 22,55 15,87 2,0 3,0 5,2 42,6 72,46 68,89 -1,44 -37,78 -79,78l0 0z"/>
   <path class="fil0" d="M1568 6646c0,2 -2,2 0,0 -19,19 -36,37 -53,55l-2 1 0 -41 -109 0 0 -29 109 0 0 -41 2 2 53 53c-2,0 0,0 0,0l0 0z"/>
   <path class="fil0" d="M1404 6549l28 0 0 99 -28 0 0 -99zm393 -327c0,0 0,-2 0,0 19,-19 36,-38 53,-55l2 -2 0 42 110 0 0 28 -110 0 0 42 -2 -2c-17,-15 -34,-34 -53,-53l0 0z"/>
   <polygon class="fil0" points="1933,6220 1962,6220 1962,6318 1933,6318 "/>
   <g id="_2525871468240">
    <path class="fil0" d="M1334 5471l0 -66c5,-14 11,-27 15,-40 17,-123 34,-248 51,-373 9,-66 55,-109 121,-109 129,-2 259,0 388,0 57,0 106,43 113,98 15,108 31,216 44,325 4,23 4,48 13,68 15,38 15,76 6,112 -14,47 -57,76 -112,76l-535 0c-32,0 -61,-15 -80,-42 -11,-15 -17,-32 -24,-49l0 0zm703 -140c0,-8 0,-11 -1,-17 -16,-108 -29,-214 -44,-322 -6,-47 -42,-79 -91,-79l-378 0c-49,0 -85,32 -91,79 -9,76 -21,152 -32,229 -6,36 -10,72 -15,112 28,-19 58,-17 87,-17l480 0c29,-2 57,-2 85,15l0 0zm-325 15l-263 0c-42,0 -74,23 -81,59 -4,13 -2,28 -2,41 0,53 32,85 87,85l524 0c40,0 72,-24 79,-60 2,-13 2,-27 2,-40 0,-57 -30,-87 -89,-87 -85,2 -172,2 -257,2l0 0z"/>
    <path class="fil0" d="M1803 5021c-2,17 -2,30 -4,43 0,12 -6,19 -17,17 -11,-2 -15,-9 -13,-19 2,-22 4,-47 5,-70 2,-11 8,-19 21,-17 25,2 49,4 76,6 9,0 15,7 15,17 0,9 -8,15 -17,13 -9,0 -19,-2 -26,-2 9,25 20,46 24,70 12,63 -11,116 -64,152 -55,37 -112,39 -170,7 -55,-32 -82,-81 -78,-144 2,-36 15,-66 40,-92 7,-8 15,-15 26,-6 8,6 8,15 -4,27 -36,39 -43,96 -17,141 25,46 76,70 131,63 49,-6 93,-46 104,-97 8,-39 -2,-75 -32,-109l0 0zm153 370c27,0 47,21 47,46 0,26 -22,47 -47,47 -26,0 -47,-21 -45,-47 -2,-25 19,-46 45,-46zm17 50l0 -6c-6,-4 -11,-10 -19,-11 -9,0 -17,7 -13,15 2,5 9,13 15,13 6,0 11,-8 17,-11l0 0z"/>
   </g>
   <path class="fil0" d="M1723 4351l-22 0c-2,-2 -4,-2 -8,-4 -57,-15 -108,-41 -147,-87 -17,-19 -31,-41 -48,-62 -28,7 -57,22 -75,49 -16,21 -23,45 -27,70 -2,11 -6,19 -19,17 -11,-2 -15,-10 -13,-19 6,-43 19,-83 53,-110 21,-17 45,-28 68,-43 -4,-19 -9,-40 -13,-63 -2,-9 -4,-13 -13,-13l-101 0c-9,0 -17,-6 -24,-9l0 -15c7,-4 17,-8 24,-10 29,-2 57,0 85,0l27 0 0 -95c-8,-1 -15,-5 -21,-9 -49,-25 -81,-62 -85,-121 0,-11 0,-23 15,-23 13,0 17,10 17,21 0,44 34,83 80,97 7,-14 13,-31 24,-38 23,-15 32,-34 36,-63 6,-36 32,-56 64,-72 6,-1 12,-7 14,-13 11,-32 32,-53 62,-66 6,-2 11,-6 19,-8l42 0c3,2 7,4 13,6 32,11 53,32 66,64 4,8 10,14 15,17 30,17 57,38 63,74 3,29 11,47 34,63 11,7 15,22 22,36 48,-16 82,-55 82,-99 0,-4 0,-7 2,-9 5,-4 11,-12 17,-12 3,0 11,8 13,14 2,5 2,11 0,17 -10,60 -46,96 -98,117 -4,2 -12,6 -12,9 0,29 2,57 4,87l110 0c9,0 17,6 24,10l0 15c-7,4 -17,8 -24,9 -34,2 -67,0 -101,0 -5,0 -11,0 -13,10 -4,23 -9,45 -13,68 4,2 9,4 13,6 66,22 100,73 110,142 0,5 -2,15 -8,18 -3,4 -13,4 -17,0 -3,-3 -7,-11 -7,-17 -10,-62 -51,-107 -106,-115 -32,64 -85,110 -152,136 -18,12 -34,17 -51,23l0 0zm-187 -446c-19,9 -28,26 -30,51 -2,39 -6,77 -2,117 6,106 55,183 149,227 14,6 27,9 42,15l0 -331c-32,-6 -62,-9 -93,-17 -30,-10 -55,-30 -66,-62l0 0zm193 77l0 333c10,-4 19,-6 27,-8 70,-28 122,-73 149,-147 25,-70 23,-142 11,-214 -2,-17 -11,-30 -26,-40 -17,46 -55,63 -99,70 -20,0 -41,2 -62,6l0 0zm-17 -30c34,-6 68,-10 100,-17 31,-6 46,-29 49,-59 6,-34 -3,-60 -32,-79 -22,-17 -49,-27 -77,-31 -57,-7 -112,-3 -159,31 -27,19 -34,45 -30,77 3,31 18,51 47,59 34,9 68,13 102,19l0 0zm61 -218c-17,-24 -42,-34 -70,-30 -21,2 -44,17 -48,30l118 0z"/>
   <line class="fil2" x1="1920" y1="3014" x2="1372" y2= "2879" />
   <path class="fil1" d="M1449 2957l244 0 -244 0zm528 0c13,0 26,-2 38,-10 -14,8 -25,10 -38,10z"/>
   <path class="fil0" d="M1920 3014zm165 -176c0,3 0,9 2,13l-2 -13zm-127 211l0 -7 0 7zm-38 38l-4 0 -1865 0 1869 0zm-7 -2c-2,0 -4,0 -4,-1 2,1 4,1 4,1zm-23 -15c0,-2 -2,-2 -2,-4 0,2 0,4 2,4zm62 -41c0,2 2,2 2,3 0,0 -2,-1 -2,-3zm-24 -15c2,0 2,0 3,1 0,0 -1,-1 -3,-1zm20 9c0,0 2,2 2,4 -2,-2 -2,-2 -2,-4zm-13 -8c2,0 2,2 4,2 -2,0 -2,0 -4,-2zm8 4l2 2c-2,0 -2,-2 -2,-2zm-57 46c0,-2 0,-2 -2,-4 2,2 2,2 2,4zm13 15c-2,0 -2,-2 -3,-4 1,2 1,4 3,4zm27 -66l-4 0 -1871 0 1875 0zm-32 62c-2,-2 -2,-2 -2,-4 0,2 2,4 2,4zm62 -40c0,2 2,4 2,6 -2,-4 -2,-4 -2,-6zm-49 48c-2,0 -2,-2 -4,-2 0,2 2,2 4,2zm51 -27c-2,6 -4,9 -6,13 2,-4 6,-7 6,-13zm112 -189l0 -2 0 2z"/>
   <path class="fil0" d="M2090 2896l0 -15c0,-6 -2,-9 -2,-15l0 -6c0,-3 -1,-5 -1,-9 0,-4 -2,-8 -2,-13 -2,-12 -4,-25 -6,-36l-4 -25 -7 -45 -6 -36 -4 -21 -9 -61 -4 -20c-4,-19 -6,-40 -10,-59 -3,-23 -15,-44 -30,-61 -19,-20 -43,-32 -72,-34l-145 0 0 38 136 0c19,2 34,10 47,23 12,11 19,26 23,41 6,27 9,53 13,80 4,26 10,55 13,81 4,27 10,55 14,82 3,24 7,47 13,72l-13 5c-6,2 -17,12 -21,29 -2,9 -8,17 -15,22 -8,6 -15,8 -25,8l-533 0c-17,-2 -31,-15 -34,-30l0 -6 -36 4 0 -6c3,-26 9,-51 13,-78 4,-26 9,-54 13,-81 4,-26 10,-55 13,-81 6,-29 10,-57 15,-85 2,-14 4,-25 12,-36 15,-27 38,-42 68,-42l130 0 0 -36 -130 0c-44,0 -80,21 -100,61 -10,17 -14,34 -15,47 -4,21 -8,40 -10,60l-4 25 -7 42 -8 39 -4 17 -11 65 -13 75 0 2 -2 4 0 206 2 6c0,4 2,6 2,9 9,34 34,59 66,72 13,6 26,8 43,8l528 0c34,0 66,-13 87,-40 17,-19 27,-43 27,-72l0 -128 5 -46zm-36 42l0 130c0,17 -5,34 -17,48 -15,17 -36,26 -58,26l-528 0c-10,0 -19,-2 -28,-6 -23,-9 -38,-26 -46,-49 -2,-3 -2,-7 -2,-11l0 -187c0,2 0,5 2,7 6,32 34,57 66,61l536 0c13,0 26,-2 38,-10 3,-2 7,-3 11,-7 15,-12 25,-27 28,-46 0,-2 0,-2 2,-2l0 2c-4,15 -4,31 -4,44l0 0zm16 -70l0 -2 0 2zm-377 89l282 0 -282 0zm-85 -254l-44 0 -1473 0 1517 0zm252 0l-42 0 -1729 0 1771 0z"/>
   <path class="fil0" d="M1858 2705l-87 0c-2,0 -2,0 -2,-4l0 -242 -17 2 0 240c0,2 0,10 5,16 -5,-6 -5,-14 -5,-16l0 -240 17 -2 0 -38 -114 0 0 280c0,2 0,4 -4,4l-92 0c0,0 0,2 2,2 49,47 98,97 147,144l2 2c0,0 2,0 2,-2 49,-47 98,-97 146,-146 2,2 3,2 3,0l-3 0zm-165 -227l0 -4 0 4z"/>
   <path class="fil1" d="M1608 2703l45 0 -1651 0 1606 0zm210 0l-45 0 -1680 0 1725 0z"/>
   <path class="fil0" d="M1920 3014l-7 0 -1858 0 1865 0zm25 7c2,0 2,2 3,2 -1,0 -3,0 -3,-2zm-51 4c5,-6 11,-10 19,-10 -8,0 -14,4 -19,10zm-6 41c0,-1 -2,-1 -2,-3 0,2 2,3 2,3zm51 -49c2,0 2,2 4,2 -2,0 -4,-2 -4,-2zm11 10l2 2 -2 -2zm-34 60l-3 0c1,0 3,-2 3,0zm10 -73l4 0 -1886 0 1882 0zm5 1c2,0 2,0 4,2 0,-2 -2,-2 -4,-2zm-35 63c0,0 0,-2 0,0 0,-2 0,0 0,0zm58 -46l2 2c0,0 -2,0 -2,-2zm-62 40l-2 -2c0,2 0,2 2,2zm66 -32c0,2 0,2 0,0 0,2 0,2 0,0zm-49 45c-2,-1 0,0 0,0zm-23 -49c-2,4 -4,10 -4,15 0,4 0,8 2,12 -2,-4 -2,-8 -2,-12 0,-5 2,-11 4,-15zm17 46c0,0 -2,0 -2,-2 0,2 0,2 2,2zm17 -51c-11,0 -19,9 -19,18 0,12 10,19 19,19 6,0 10,-2 13,-5 4,-4 6,-8 6,-14 2,-9 -8,-18 -19,-18l0 -19 0 19z"/>
   <path class="fil0" d="M1958 3040c0,-2 -2,-4 -2,-6 0,0 0,-2 -2,-2 0,-1 -2,-1 -2,-3l-2 -2c0,-2 -2,-2 -2,-4 0,0 -1,-2 -3,-2l-2 -2c-2,0 -2,-2 -4,-2 -2,0 -2,-2 -4,-2 -2,0 -2,0 -4,-1 -1,0 -1,0 -3,-2l-8 0 0 19c11,0 19,7 19,18 0,6 -2,10 -6,14 -3,3 -7,5 -13,5 -11,0 -19,-7 -19,-19 0,-9 10,-18 19,-18l0 -19 -7 0c-8,2 -14,5 -19,9 -4,4 -6,8 -8,11 -2,4 -4,10 -4,16 0,3 0,7 2,11 0,2 0,2 2,4 0,2 2,2 2,3 0,2 2,2 2,4l2 2c0,2 2,2 2,4l2 2 3 4 2 2c2,0 2,1 4,1l2 0c2,0 4,2 4,2l7 0c13,0 25,-5 32,-17 2,-4 4,-7 6,-13l0 -8c2,-1 2,-3 2,-9 0,2 0,2 0,0l0 0z"/>
   <g id="_2525871466576">
    <path class="fil0" d="M2090 1279l0 620c0,2 -2,2 -2,4 -7,32 -28,53 -60,62 -2,0 -4,2 -8,2l-620 0c-2,0 -4,-2 -6,-2 -30,-7 -49,-24 -60,-52 -2,-4 -2,-8 -4,-14l0 -620c0,-2 2,-2 2,-4 7,-30 24,-49 53,-61 4,-1 9,-1 13,-3l620 0c2,0 4,2 6,2 30,7 49,24 61,54 3,2 3,8 5,12l0 0zm-724 310l0 291c0,8 0,16 2,21 5,23 24,34 49,34l590 0c25,0 42,-13 49,-34 2,-5 2,-13 2,-21l0 -586c0,-21 -7,-38 -28,-47 -8,-4 -19,-4 -27,-4l-588 0c-30,0 -51,21 -51,51 2,96 2,197 2,295l0 0z"/>
    <path class="fil0" d="M1508 1353l0 -31c0,-11 5,-19 15,-19 9,0 15,8 15,19l0 31c26,5 49,18 64,43 12,17 15,36 15,57 -1,38 -28,76 -79,87l0 318c0,9 -8,17 -15,17 -10,0 -15,-6 -15,-15l0 -316c-49,-14 -80,-46 -78,-99 0,-51 30,-79 78,-92zm15 157c36,0 64,-29 64,-63 0,-40 -34,-64 -64,-62 -34,2 -63,28 -61,62 -2,34 27,63 61,63zm363 126c-57,-20 -79,-51 -79,-98 0,-34 24,-78 79,-91l0 -123c0,-4 0,-7 2,-9 2,-8 8,-10 15,-10 8,0 11,4 15,12 2,3 2,7 2,9l0 121c55,19 80,49 80,97 0,43 -27,75 -80,92l0 222c-2,7 -7,13 -15,13 -8,0 -15,-6 -15,-13l0 -214c-4,-2 -4,-6 -4,-8zm15 -32c34,0 63,-28 63,-62 0,-40 -33,-65 -65,-63 -32,2 -60,29 -60,63 -2,34 26,62 62,62l0 0zm-174 32c51,17 78,48 80,93 0,45 -25,76 -80,97l0 28c0,11 -6,19 -15,19 -9,0 -15,-8 -17,-19l0 -28c-51,-14 -81,-46 -78,-101 2,-47 33,-75 78,-89l0 -312c0,-11 6,-17 15,-17 10,0 17,8 17,19l0 310 0 0zm-15 157c36,0 64,-28 64,-62 0,-40 -32,-64 -64,-62 -32,1 -61,30 -61,64 -1,32 27,60 61,60l0 0z"/>
   </g>
   <path class="fil0" d="M1385 180c0,-34 26,-51 51,-51l437 0 32 -33 -499 0c-27,-1 -53,17 -53,52l0 476 32 0 0 -444z"/>
   <polygon class="fil1" points="2053,668 2053,218 "/>
   <path class="fil0" d="M2022 246l-32 32 -9 10 49 0 0 374 -589 0 0 -374c103,1 207,1 309,1 4,-17 7,-36 15,-54l76 -76 -373 0c-25,0 -51,17 -51,51l0 477 636 0 0 -469 -31 28zm-344 -40c13,0 25,12 25,25 0,13 -12,24 -25,24 -13,0 -25,-11 -25,-24 0,-13 12,-25 25,-25zm-95 0c14,0 25,10 25,25 0,13 -11,24 -25,24 -13,0 -24,-9 -24,-24 0,-13 11,-25 24,-25zm-94 0c13,0 24,12 24,25 0,13 -11,24 -24,24 -13,0 -25,-11 -25,-24 0,-13 10,-25 25,-25z"/>
   <polygon class="fil0" points="1485,624 1693,624 1693,341 1485,341 "/>
   <polygon class="fil1" points="1733,339 1733,358 1739,339 "/>
   <path class="fil0" d="M1807 397l-76 21 0 53 248 0 0 -129 -49 0 -33 33c-37,9 -53,9 -90,22zm-76 227l113 0 0 -113 -113 0 0 113zm132 0l114 0 0 -113 -114 0 0 113zm165 -442c-2,-2 -4,-6 -8,-8 -3,-6 -7,-9 -13,-15 -6,-8 -13,-13 -19,-21l-11 -11c-10,-10 -21,-21 -30,-32l-2 -2 -2 2c-13,13 -25,22 -32,32l-33 32 -66 66c-4,4 -2,21 4,27 11,13 25,26 38,37 11,10 21,21 32,33 10,7 17,9 28,0l33 -33 43 -43 32 -32 8 -8c15,-17 15,-7 -2,-24l0 0zm15 -157c-23,-4 -74,26 -81,51 -2,5 2,15 7,19 23,24 48,47 72,71 6,4 13,10 19,8 21,-6 51,-51 51,-76 -2,-30 -36,-68 -68,-73zm-168 314c-15,-17 -32,-33 -48,-48 -13,-13 -26,-24 -37,-38 -6,14 -10,27 -14,38 -5,17 -9,32 -15,48 -4,15 -9,30 -17,47l8 7c49,-20 85,-28 130,-47l-7 -7 0 0z"/>
   <g id="_2525871463760">
    <path class="fil0" d="M880 316c-19,17 -40,34 -59,51 -6,6 -9,4 -13,-2 -6,-7 -13,-13 -21,-21 -4,-3 -6,-3 -9,0 -8,8 -16,15 -23,21 -8,8 -10,8 -15,0 -8,-7 -15,-13 -21,-21 -4,-3 -8,-3 -11,0l-23 23c-6,4 -10,6 -13,0 -6,-8 -14,-13 -19,-21 -4,-4 -8,-5 -12,0l-22 23c-4,4 -8,4 -12,0 -7,-8 -17,-15 -24,-23 -4,-4 -6,-4 -10,0 -7,6 -15,12 -23,19 -5,8 -13,10 -22,8 -6,0 -10,2 -12,7 -47,95 -175,106 -238,21 -66,-87 -15,-216 91,-233 60,-9 121,23 147,80 4,5 6,7 14,7l283 0c6,0 12,2 17,6 19,17 38,32 57,47 -7,0 -7,4 -7,8zm-504 -6c0,-28 -20,-49 -47,-47 -24,0 -45,23 -45,47 0,27 21,49 47,48 27,1 45,-21 45,-48z"/>
    <path class="fil0" d="M123 286c4,-17 6,-34 9,-50 31,-102 99,-166 199,-189 81,-19 155,2 220,53 37,31 64,70 81,116 0,2 2,3 2,9l-25 0c-13,2 -21,-4 -28,-17 -36,-70 -93,-112 -170,-121 -118,-15 -226,68 -245,187 -11,72 8,138 57,191 38,42 85,67 142,72 93,10 182,-43 221,-130 2,-6 4,-8 10,-8l38 0c-2,8 -4,13 -6,17 -36,82 -96,134 -182,157 -75,19 -145,6 -210,-40 -52,-37 -88,-88 -105,-151 -4,-15 -6,-30 -10,-45 2,-19 2,-36 2,-51l0 0zm666 401c0,13 -10,26 -27,34 -17,7 -32,4 -45,-8 -40,-40 -79,-79 -117,-121 -17,-17 -15,-43 0,-60 17,-17 43,-17 58,0 40,39 78,79 118,119 11,9 15,19 13,36l0 0zm-176 -186c-2,4 -4,8 -6,10 -7,9 -17,17 -24,26 -6,6 -14,6 -17,0 -6,-5 -6,-11 0,-17 9,-9 17,-19 26,-26 4,-2 10,-4 13,-2 2,0 6,6 8,9l0 0z"/>
   </g>
   <path class="fil0" d="M882 11411l-16 0c-3,0 -5,-2 -5,-6 -4,-9 -6,-19 -12,-26 -3,-6 -3,-6 2,-12 8,-7 15,-15 23,-20l-28 -29 -6 6 -19 19c-2,2 -2,2 -4,2l-4 0c-11,-6 -20,-10 -32,-14 -3,-1 -5,-1 -5,-5l0 -34 -40 0 0 34c0,4 -2,5 -4,5 -11,4 -21,8 -30,14 -2,0 -4,2 -4,2 -2,0 -2,0 -4,-2l-21 -21c-1,-2 -3,-2 -3,-4l-27 27c2,1 2,3 4,3l19 19c4,4 4,6 2,8 -6,9 -8,19 -13,28 -2,6 -4,6 -6,6l-34 0 0 40 34 0c6,0 6,2 6,5 3,8 5,17 9,25 6,9 6,6 -2,15l-6 6 -15 15c10,9 19,19 27,28 2,-2 4,-2 4,-4 5,-5 15,-13 20,-20 2,-2 4,-2 6,-2 2,0 4,0 6,2 7,5 17,7 26,11 12,4 8,2 10,11l0 31 39 0 0 -34c0,-4 2,-6 6,-6 10,-4 19,-6 28,-11 4,-2 6,-4 6,-4l6 5c7,8 15,16 21,23l28 -28 -6 -6 -20 -21c-2,-2 -2,-5 -2,-5 5,-10 11,-21 13,-33 0,-3 2,-3 6,-3l35 0 0 -40 -18 0zm-82 30c0,2 0,2 -2,4 0,2 -2,4 -2,6 0,2 -1,2 -1,3 0,2 -2,4 -4,6 0,2 -2,2 -2,4 -2,2 -2,4 -4,4 0,-4 0,-4 -2,-4l-4 4c-2,0 -2,2 -3,2 -2,0 -4,1 -6,1 -2,0 -2,0 -4,2 -2,0 -4,2 -6,2l-11 0c-24,0 -43,-21 -43,-45 0,-4 0,-6 2,-8 0,-2 0,-2 1,-4 0,-1 2,-3 2,-5 0,-2 2,-2 2,-4 0,-2 2,-4 4,-6 0,-2 2,-2 2,-3 2,-2 2,-4 4,-4 2,-2 2,-2 3,-2l4 -4c2,0 2,-2 4,-2 2,0 4,-2 6,-2 2,0 3,0 3,-2 2,0 4,-1 6,-1l10 0c24,0 43,20 43,45 -2,7 -2,9 -2,13l0 0zm2263 -10684l-519 0 0 -55c0,-42 34,-76 76,-76l367 0c42,0 76,34 76,76l0 55zm-411 -218l21 0 0 87 -21 0 0 -87zm282 0l21 0 0 87 -21 0 0 -87z"/>
   <path class="fil2 str0" d="M3116 212l72 83c11,21 37,28 56,17 19,-11 27,-38 15,-59l-77 -208"/>
   <g>
    <path class="fil0" d="M3121 19c15,0 27,6 38,15 27,27 13,68 -5,97l-52 75 -196 297c-29,42 -72,48 -95,48 -17,0 -34,-4 -49,-8 -21,-8 -44,-23 -66,-45 -14,-14 -32,-38 -46,-69 -22,-53 -7,-111 40,-143l373 -248c5,-4 11,-8 19,-10 15,-7 28,-9 39,-9l0 0zm0 -19c-15,0 -32,4 -47,11 -8,4 -13,8 -21,12l-372 249c-55,38 -72,106 -48,167 14,32 36,60 49,74 14,13 40,38 74,49 17,6 36,9 55,9 44,0 85,-17 112,-56l196 -297 52 -76c26,-38 34,-87 1,-121 -15,-15 -32,-21 -51,-21l0 0zm116 318c-36,0 -65,28 -65,64l131 0c-2,-36 -30,-64 -66,-64l0 0z"/>
   </g>
   <path class="fil0" d="M3171 382l20 0 0 44 -20 0 0 -44zm109 0l21 0 0 44 -21 0 0 -44z"/>
   <path class="fil3" d="M2652 1494zm541 0l0 8 0 -8z"/>
   <g>
    <path class="fil0" d="M3155 1521l0 286c0,9 -7,17 -17,17l-433 0c-9,0 -17,-8 -17,-17l0 -286 467 0 0 0zm38 -38l-539 0 0 324c0,30 25,54 55,54l433 0c30,0 55,-24 55,-54l0 -316c-4,-2 -4,-4 -4,-8z"/>
   </g>
   <ellipse class="fil0" cx="2923" cy="1860" rx="81" ry="108"/>
   <path class="fil0" d="M2936 1264l-27 0 0 94 27 0 0 -94zm-284 230l-81 0c-15,0 -27,12 -27,27l0 102c0,2 2,6 6,6l17 0c2,0 6,-2 6,-6l0 -98c0,-2 2,-6 5,-6l76 0 0 -25 -2 0zm623 0l-82 0 0 27 76 0c2,0 6,2 6,6l0 98c0,2 1,6 5,6l17 0c2,0 6,-2 6,-6l0 -102c-2,-15 -13,-29 -28,-29l0 0z"/>
   <circle class="fil0" cx="2788" cy="1322" r="26"/>
   <circle class="fil0" cx="3057" cy="1322" r="26"/>
   <g>
    <path class="fil0" d="M3066 1249c38,0 69,30 69,68l0 11c0,38 -31,68 -69,68l-306 0c-38,0 -68,-30 -68,-68l0 -11c0,-38 30,-68 68,-68l306 0 0 0zm0 -38l-306 0c-59,0 -106,47 -106,106l0 11c0,59 47,106 106,106l306 0c59,0 106,-47 106,-106l0 -11c0,-59 -47,-106 -106,-106l0 0zm59 1530c-6,-2 -11,-2 -19,-2l-337 0c-15,0 -30,0 -45,2 -23,2 -38,23 -36,46 4,22 21,35 46,35l304 0c27,0 53,0 81,-1 21,-2 36,-19 36,-38 2,-21 -11,-38 -30,-42l0 0zm-9 46c-2,1 -6,0 -8,0l-376 0c-2,-2 -6,-6 -6,-8 0,-2 4,-6 6,-8 2,-2 5,0 9,0l377 0c1,2 5,6 5,8 -2,4 -5,8 -7,8l0 0z"/>
   </g>
   <polygon class="fil2" points="2925,2998 2860,2998 159,2998 0,2998 "/>
   <path class="fil0" d="M2652 2908c4,1 4,9 6,13 2,30 2,62 6,93 13,90 92,160 187,162 49,2 96,2 146,0 88,-2 170,-70 183,-153 6,-32 6,-66 8,-100 0,-6 1,-14 5,-17 6,-6 10,-12 13,-17l-567 0c2,7 8,13 13,19zm187 244c-1,-34 25,-80 55,-95 19,-9 38,-9 57,0 38,21 49,55 57,95l-169 0zm296 -216c1,-23 1,-23 28,-19 -4,55 4,110 -32,159 -23,34 -55,57 -95,68 -7,-23 -17,-45 -24,-70 7,2 17,4 26,4 32,6 61,-10 76,-38 17,-32 19,-68 21,-104l0 0zm-227 -21c1,10 -2,25 15,25 15,0 13,-15 13,-25l170 0c-2,42 0,81 -21,119 -7,15 -22,25 -39,21 -31,-6 -59,-6 -87,-21 -25,-15 -53,-11 -80,0 -13,6 -26,10 -41,14 -12,3 -25,5 -38,7 -23,4 -38,-6 -49,-26 -12,-27 -16,-55 -17,-84 0,-9 0,-18 -2,-30l176 0zm-224 2c27,-4 27,-4 29,19 2,32 4,66 17,96 17,40 41,53 87,46 5,-2 13,-2 19,-4 -8,23 -17,45 -25,70 -13,-6 -28,-11 -42,-19 -51,-32 -77,-79 -79,-138 0,-19 -2,-40 -4,-59 -2,-3 -2,-7 -2,-11l0 0z"/>
   <path class="fil0" d="M2860 2998l127 0c10,0 17,-2 17,-13 0,-9 -7,-13 -17,-13l-127 0c-9,0 -17,2 -17,11 0,14 8,15 17,15l0 0z"/>
   <path class="fil2" d="M2688 2675c-13,0 -13,0 -13,13l0 197 497 0 0 -210 -484 0zm231 -220c-129,2 -220,95 -238,186l484 0c-21,-97 -119,-189 -246,-186l0 0z"/>
   <path class="fil0" d="M3201 2637c-38,-161 -210,-253 -371,-200 -108,35 -187,136 -189,244 -2,70 0,140 0,210 0,17 13,28 30,28l503 0c23,0 34,-11 34,-32l0 -161c-2,-30 -2,-61 -7,-89l0 0zm-282 -182c129,-1 225,89 246,186l-484 0c17,-91 109,-184 238,-186l0 0zm252 430l-498 0 0 -197c0,-13 0,-13 13,-13l485 0 0 210z"/>
   <path class="fil0" d="M3114 2796l-379 0c-9,0 -17,-8 -17,-17 0,-10 8,-17 17,-17l379 0c9,0 17,7 17,17 0,9 -8,17 -17,17z"/>
   <g>
    <path class="fil0" d="M2703 3642c-3,0 -7,1 -11,1 -21,6 -36,17 -47,36 -8,12 -12,25 -14,38l0 587c0,3 2,7 2,11 6,21 17,36 36,47 12,8 25,12 38,14l534 0 0 -738 -534 0c0,4 -2,4 -4,4zm494 620l0 72 -479 0c-20,0 -37,-11 -41,-30 -4,-12 0,-25 7,-34 8,-10 19,-16 31,-17l484 0 0 9 -2 0zm-272 -577l274 0 0 524 -481 0c-11,0 -20,2 -30,4l-13 0 0 -486c0,-21 11,-36 28,-42 4,-2 10,-2 15,-2 69,2 137,2 207,2l0 0z"/>
    <polygon class="fil0" points="2787,3799 3114,3799 3114,3842 2787,3842 "/>
   </g>
   <g>
    <path class="fil0" d="M3112 7378l0 115c-74,10 -133,74 -133,150 0,75 59,140 133,149l0 115 -530 0 0 -529 530 0 0 0zm38 -38l-606 0 0 605 606 0 0 -191c-6,2 -14,2 -19,2 -63,0 -114,-51 -114,-113 0,-63 51,-114 114,-114 5,0 13,0 19,2l0 -191z"/>
   </g>
   <path class="fil0" d="M2620 7775l227 0 0 38 -227 0 0 -38zm0 57l151 0 0 38 -151 0 0 -38z"/>
   <path class="fil2" d="M3112 7643c0,37 -28,70 -66,73 19,23 41,38 66,38l38 0 0 85c68,-39 113,-115 113,-196 0,-82 -45,-157 -113,-197l0 85 -38 0c-28,0 -51,15 -68,38 38,4 68,34 68,74l0 0z"/>
   <path class="fil0" d="M3112 7389l0 104c-57,0 -98,40 -119,87 11,-9 26,-13 43,-13l8 0c17,-21 40,-38 68,-38l38 0 0 -85c68,40 113,115 113,197 0,81 -45,157 -113,196l0 -85 -38 0c-23,0 -47,-15 -66,-38 -4,0 -6,2 -10,2 -15,0 -30,-5 -41,-13 22,49 70,87 117,87l0 104c110,-32 189,-134 189,-253 0,-119 -79,-220 -189,-252z"/>
   <path class="fil0" d="M3046 7716c38,-5 66,-36 66,-73 0,-40 -30,-70 -68,-76 -17,23 -27,51 -27,76 0,26 12,53 29,73z"/>
   <path class="fil0" d="M3046 7716c-17,-20 -29,-47 -29,-73 0,-23 10,-53 27,-76l-8 0c-15,0 -30,6 -43,13 -10,21 -14,42 -14,63 0,22 6,43 16,62 11,8 26,13 41,13 4,0 6,0 10,-2l0 0z"/>
   <polygon class="fil2 str0" points="2582,9723 3263,9723 3263,10405 2582,10405 "/>
   <path class="fil2 str1" d="M2718 9723l0 682m137 -682l0 682m145 -682l0 682m131 -682l0 682m132 -449l-681 0m681 91l-681 0m681 289l-681 0m681 -92l-681 0m494 92l-318 0c-62,0 -113,-51 -113,-113l0 -318c0,-62 51,-113 113,-113l318 0c62,0 113,51 113,113l0 318c0,62 -51,113 -113,113z"/>
   <circle class="fil2 str1" cx="2917" cy="10064" r="272"/>
   <circle class="fil2 str1" cx="2917" cy="10064" r="136"/>
   <path class="fil0" d="M2940 10300l0 -94 39 0 0 -144 -109 0 0 144 45 0 0 96 -212 0 0 -94 40 0 0 -146 -42 0 0 -96 44 0 0 -10c0,-21 4,-38 11,-53 15,-30 38,-49 76,-60 19,-6 40,-8 62,-8 8,0 17,0 25,2l13 0 10 2 0 100 -50 0c-3,0 -7,2 -11,4 -6,2 -9,7 -9,13l0 10 236 0 0 240 40 0 0 96 -208 0 0 -2z"/>
   <g>
    <path class="fil1" d="M2892 9843l33 0c2,0 3,0 7,2l0 83 -40 0c-5,0 -9,2 -15,4 -9,3 -13,11 -15,20l0 19 237 0 0 241 39 0 0 77 -187 0 0 -76 40 0 0 -162 -129 0 0 162 46 0 0 78 -193 0 0 -76 39 0 0 -164 -41 0 0 -78 43 0 0 -19c0,-17 4,-34 12,-49 15,-30 39,-45 70,-55 15,-5 34,-7 54,-7l0 0zm0 -19c-24,0 -45,4 -64,9 -40,12 -66,32 -81,65 -8,17 -13,35 -13,58l-44 0 0 116 42 0 0 126 -40 0 0 114 231 0 0 -116 -46 0 0 -124 91 0 0 124 -40 0 0 114 226 0 0 -115 -40 0 0 -241 -235 0c0,-4 2,-4 4,-5 2,0 6,-2 8,-2l58 0 0 -119 -15 -2 -15 0c-10,-2 -19,-2 -27,-2l0 0z"/>
   </g>
   <path class="fil0" d="M3042 9949c-34,0 -61,-29 -61,-61 0,-34 27,-60 61,-60 17,0 32,5 43,18 12,12 17,27 17,44 0,32 -28,59 -60,59l0 0z"/>
   <g>
    <path class="fil1" d="M3042 9837c28,0 51,23 51,51 0,28 -23,51 -51,51 -28,0 -51,-23 -51,-51 0,-28 23,-51 51,-51l0 0zm0 -19c-38,0 -70,32 -70,70 0,38 30,70 70,70 38,0 70,-32 70,-70 0,-19 -8,-36 -21,-49 -13,-13 -30,-21 -49,-21l0 0z"/>
   </g>
   <g>
    <path class="fil0" d="M2681 12368c-10,-6 -23,-2 -29,8 -5,9 -2,22 8,28 9,6 22,2 28,-8 6,-11 2,-22 -7,-28z"/>
    <path class="fil0" d="M3301 12484c-4,-10 -8,-19 -9,-27l-42 -113c-2,-4 -4,-10 -6,-14l-7 8c-12,9 -21,17 -32,26l-21 19c-19,17 -40,34 -61,51 -2,2 -4,4 -4,6 -1,11 -5,23 -9,32 -2,4 -2,8 -4,12 -24,90 -47,181 -72,272 -5,-53 -11,-102 -13,-114 0,-1 0,-5 -2,-9 -5,0 -9,0 -15,2l0 -10c2,-37 17,-71 42,-102 15,-19 32,-36 49,-55 2,-3 4,-3 0,-7 -10,-13 -17,-27 -25,-42 -45,-77 -85,-159 -125,-240l-17 -34c-2,2 -2,4 -3,6 -16,30 -31,62 -46,92 -38,74 -75,150 -119,220 -2,2 0,3 2,5 11,14 25,27 36,40 19,23 36,47 47,76 6,17 10,34 10,53 -6,0 -10,0 -16,-2 0,2 0,2 -1,4 -2,11 -10,58 -16,107 -15,-60 -32,-121 -47,-181 -19,-76 -40,-150 -58,-225 -2,-8 -6,-13 -14,-19l-13 0c-43,11 -87,23 -130,36 -12,4 -14,5 -10,17 17,66 34,132 53,197l62 232c2,10 4,17 8,27l547 0c2,-10 4,-17 7,-27 27,-104 55,-206 82,-310l0 -2c-8,-4 -8,-6 -8,-7l0 0zm-142 -53c4,-2 6,-6 10,-8 3,-4 7,-6 9,-9 8,-8 17,-14 25,-21 3,-2 5,-4 9,-2 6,2 10,2 15,4 6,1 10,1 14,3 1,0 5,2 5,6 6,17 13,34 19,51l8 19 -127 -34 13 -9 0 0zm-215 26c7,8 7,19 0,27 -8,7 -19,7 -27,0 -8,-8 -8,-19 0,-27 8,-8 19,-8 27,0zm-110 61c-13,-19 -29,-34 -44,-53l-3 -4c49,-80 90,-163 132,-244l0 210c0,4 0,4 -4,5 -21,10 -30,34 -21,55 12,21 36,29 57,15 13,-9 19,-22 17,-37 -2,-16 -11,-27 -24,-33l-2 0c0,0 -2,0 0,0l0 -213c20,39 41,81 62,123 21,41 45,81 68,121 -6,7 -13,15 -21,22 -20,23 -39,48 -53,78 -9,21 -13,42 -15,64l0 4 -108 0c0,-7 -1,-13 -1,-21 -4,-34 -19,-64 -40,-92zm-112 281c0,-1 -2,-3 -2,-3 -5,2 -9,2 -15,3l-21 0c-2,-11 -5,-20 -7,-30 11,-2 24,-6 36,-9 -2,-8 -4,-14 -6,-21 -11,4 -25,7 -36,9 -4,-13 -6,-24 -9,-36 11,-3 24,-5 38,-9 -2,-8 -4,-13 -6,-21 -12,4 -25,8 -36,12 -4,-14 -6,-25 -10,-36 12,-2 25,-6 36,-10 -2,-7 -3,-13 -5,-21 -12,4 -25,8 -36,12 -4,-14 -6,-25 -10,-36 12,-2 25,-6 38,-10 -2,-7 -4,-13 -6,-21 -11,4 -24,8 -35,12 -4,-13 -6,-25 -10,-36 11,-4 25,-6 38,-10 -2,-7 -4,-13 -6,-20 -13,3 -24,7 -36,11 -4,-13 -5,-23 -9,-36 11,-2 24,-6 38,-8 -2,-7 -4,-15 -6,-20 -11,3 -23,7 -36,9 -9,-36 -19,-70 -26,-102 39,-11 81,-23 123,-34 39,151 79,303 121,456l0 5 -99 0zm116 0c0,-1 -2,-3 -2,-5 7,-55 15,-116 17,-125 0,-4 2,-10 2,-13l145 0 0 5c2,10 10,80 15,140l-177 0 0 -2zm208 0l90 -344 61 17 -87 327 -64 0zm147 0l-62 0 85 -321 59 17 -82 304z"/>
   </g>
   <path class="fil0" d="M4510 700l-2 -6 -2 -11c-9,-40 -36,-72 -76,-98 -30,-19 -60,-31 -92,-42 -6,-2 -10,-4 -15,-6l-2 0c-10,-4 -21,-7 -29,-11 -13,-6 -24,-13 -34,-21 -2,-2 -2,-4 -2,-4 0,-15 0,-30 -2,-43l0 -2c18,-17 31,-47 38,-74 10,-6 17,-15 23,-26 13,-27 17,-53 9,-78 0,-2 -1,-7 -5,-13 0,-2 0,-4 2,-6 3,-15 5,-28 7,-41 2,-6 2,-12 4,-17 4,-25 2,-53 -6,-84 -13,-45 -45,-75 -90,-85 -21,-21 -48,-26 -65,-28 -7,-2 -13,-2 -19,-2l-26 0 -6 2c-34,0 -64,7 -94,21 -34,15 -59,41 -74,73 -17,40 -17,80 -15,110 2,17 5,32 7,49 0,4 2,6 2,10 -9,15 -13,32 -9,51 2,13 7,28 13,41 6,12 13,17 21,23l2 0c7,30 19,55 37,76l0 13c0,11 0,23 -1,32 0,2 -4,4 -10,10l-28 17c-12,3 -21,9 -34,13 -4,2 -8,4 -12,4 -30,11 -64,24 -96,45 -40,27 -64,63 -72,106 0,2 -2,4 -2,6 0,2 0,4 -2,5l-2 4 0 44 757 0 0 -51 2 -6zm-488 -161c11,-7 23,-17 24,-32 2,-15 2,-30 2,-47 0,-10 0,-19 -7,-27 -19,-19 -29,-43 -32,-70 0,-2 -4,-5 -8,-7 -6,-4 -11,-8 -15,-14 -6,-9 -10,-20 -11,-32 -2,-11 0,-24 11,-32 2,-2 2,-4 2,-7 -4,-23 -10,-44 -12,-67 -1,-32 -1,-64 12,-94 11,-27 30,-46 57,-57 24,-11 53,-17 81,-17l4 0c2,0 3,-2 5,-2l2 0c2,0 6,2 8,2 7,0 15,0 22,2 19,4 38,7 50,24 2,2 3,4 7,4 36,6 63,29 72,63 6,22 10,45 6,68 -4,19 -6,39 -12,58 -1,12 -7,23 4,33 0,0 2,1 2,3 6,19 2,36 -7,51 -4,10 -12,16 -23,17 -2,21 -17,59 -30,72 -10,10 -12,19 -10,31 2,13 2,26 2,39 0,12 4,19 11,27 8,7 16,13 25,19 -40,21 -83,32 -129,32 -45,0 -87,-11 -125,-30 0,-4 6,-6 12,-10zm488 1338c0,0 0,-2 -2,-2 -6,-34 -28,-80 -93,-101 -11,-3 -22,-7 -32,-9 -17,-6 -34,-9 -49,-15 -4,-2 -6,-2 -10,-4 -5,-2 -11,-6 -17,-8 12,0 23,-1 33,-3 20,-17 39,-34 56,-55l-22 -15c-2,-2 -8,-6 -14,-8 -11,-4 -18,-11 -18,-30 0,-28 3,-57 7,-85l0 -8c6,-45 11,-93 2,-142 -19,-89 -89,-157 -180,-172 -2,0 -4,0 -4,-2 -1,0 -3,0 -3,-2l-4 0c-10,-2 -19,-3 -28,-3 -10,0 -17,1 -29,3l-4 0 -5 2c-4,0 -8,2 -12,2 -102,25 -170,108 -176,214 -1,36 4,70 8,104 2,11 4,23 4,34 2,23 4,44 2,62 0,8 -4,16 -17,21 -4,2 -8,4 -10,4l-32 17c17,21 36,40 57,57 9,4 21,5 34,5l2 0c-6,4 -14,6 -19,8 -13,6 -27,10 -38,15 -8,2 -15,4 -25,8 -7,2 -15,4 -24,5 -68,21 -91,67 -97,103l0 1 -2 6 0 87 757 0 0 -85 4 -9zm-471 -210c-23,22 -55,36 -81,36 -18,0 -33,-4 -44,-14 2,0 4,-2 4,-2 24,-7 40,-24 40,-51 1,-22 0,-47 -2,-70 -6,-43 -14,-87 -14,-132 4,-91 61,-161 150,-182 5,-2 11,-2 17,-3 11,-2 17,-4 23,-4 5,0 11,0 22,4 4,1 8,1 12,3 75,14 134,72 151,146 9,43 4,87 -2,130 -4,33 -8,63 -9,95 0,30 11,53 43,64 2,0 2,2 4,4 -15,10 -30,13 -47,13l-2 0c-31,0 -57,-9 -78,-35 -2,3 -2,5 -4,7 -7,27 4,45 21,62 12,12 27,21 42,29 -48,24 -100,38 -155,38 -55,0 -108,-14 -155,-38 15,-8 28,-17 39,-29 13,-11 23,-24 27,-41 4,-11 2,-21 -2,-30l0 0z"/>
   <g>
    <path class="fil0" d="M2923 10896l357 0c15,0 21,6 21,23l0 711c0,17 -6,25 -23,25l-709 0c-17,0 -23,-6 -23,-25l0 -713c0,-13 6,-19 19,-19l159 0c64,-2 133,-2 199,-2l0 0zm342 38l-685 0 0 681 685 0 0 -681z"/>
    <path class="fil0" d="M2923 11199l-286 0c-13,0 -17,-4 -17,-19l0 -189c0,-15 4,-19 17,-19l571 0c14,0 17,4 17,19l0 189c0,13 -3,19 -17,19l-285 0zm-278 -32l232 -80 0 -1 -232 -80 0 161 0 0zm556 -163l-233 80 0 2c78,26 153,53 233,79l0 -161 0 0zm-76 167l-4 -4c-64,-23 -128,-44 -193,-66 -3,-2 -7,0 -11,0 -55,19 -112,38 -166,56 -10,4 -19,8 -29,10l0 2c135,2 269,2 403,2l0 0zm-405 -171l4 4c64,23 129,44 193,66 4,2 8,0 11,0 63,-20 127,-43 190,-64 1,0 3,-2 7,-4 -134,-2 -268,-2 -405,-2l0 0zm352 275l-117 0c-4,0 -8,0 -10,-4 -1,-6 -5,-13 -5,-19 0,-9 5,-15 13,-15l242 0c6,2 10,9 10,19 0,9 -4,15 -10,19l-123 0zm2 56l-121 0c-6,-1 -9,-9 -9,-18 0,-10 3,-17 11,-19l242 0c6,2 11,7 11,19 0,9 -5,17 -11,18l-123 0zm0 57l-121 0c-6,-2 -9,-9 -9,-19 0,-9 3,-17 11,-19l147 0c6,2 12,8 12,19 0,10 -6,17 -12,19l-28 0zm-151 -132c0,-13 -4,-19 -17,-19l-271 0c-11,0 -17,6 -17,19l0 111c0,16 4,19 17,19l269 0c11,0 17,-5 17,-19 2,-36 2,-73 2,-111zm-95 66c-7,-4 -15,-8 -23,-9l91 -40 0 79c-22,-11 -45,-21 -68,-30l0 0zm6 -55c-21,10 -44,19 -65,29 -20,-10 -43,-19 -64,-29l129 0zm-187 6c28,13 58,26 87,38 -8,3 -16,7 -23,9 -21,10 -44,19 -64,28l0 -75 0 0zm53 85c24,-10 47,-21 71,-30 25,9 48,20 72,30l-143 0zm372 106l-117 0c-4,0 -8,0 -10,-4 -1,-6 -5,-13 -5,-19 0,-9 5,-15 13,-15l242 0c6,2 10,9 10,19 0,9 -4,15 -10,19l-123 0zm2 57l-121 0c-6,-2 -9,-10 -9,-19 0,-10 3,-17 11,-19l242 0c6,2 11,7 11,19 0,9 -5,17 -11,19l-123 0zm0 56l-121 0c-6,-2 -9,-9 -9,-19 0,-9 3,-17 11,-18l147 0c6,1 12,7 12,18 0,10 -6,17 -12,19l-28 0zm-151 -132c0,-13 -4,-19 -17,-19l-271 0c-11,0 -17,6 -17,19l0 112c0,15 4,18 17,18l269 0c11,0 17,-5 17,-18 2,-36 2,-74 2,-112l0 0zm-95 66c-7,-4 -15,-7 -23,-9l91 -40 0 79c-22,-11 -45,-20 -68,-30l0 0zm6 -55c-21,10 -44,19 -65,29 -20,-10 -43,-19 -64,-29l129 0zm-187 6c28,13 58,26 87,38 -8,4 -16,7 -23,9 -21,10 -44,19 -64,29l0 -76 0 0zm53 85c24,-9 47,-21 71,-30 25,9 48,21 72,30l-143 0z"/>
   </g>
   <g>
    <path class="fil0" d="M3108 4881c0,-12 -6,-23 -15,-29 -9,-7 -23,-9 -34,-7l-276 53c-19,3 -32,19 -32,36l0 45 -131 123 0 416 263 82 21 -4 320 -61 0 -420 -118 -200 0 -34 2 0zm-329 53c0,-6 4,-12 11,-12l276 -53c4,0 10,0 12,4 2,2 4,6 4,10l0 34 -303 56 0 -39 0 0zm-13 66l96 166 -206 -64 110 -102 0 0zm102 562l-214 -67 0 -90 214 66 0 91zm0 -123l-214 -66 0 -243 214 67 0 242zm329 75l-303 57 0 -104 303 -57 0 104 0 0zm-295 -73l0 -244 289 -55 0 244 -289 55zm293 -324l-15 4 -289 55 -108 -184 304 -58 108 183z"/>
    <path class="fil0" d="M2987 5327l0 74 -21 2 0 -27 -4 8 -3 7 -14 2 -5 -13 -2 13 0 15 -19 2 0 -72 19 -3 15 30 6 -13 9 -21 19 -4zm42 -6l-2 72 -19 4 0 -74 21 -2zm39 -7l-2 55 33 -4 -2 17 -49 9 0 -73 20 -4zm112 -17l-9 13 -17 21 26 38 -23 4 -17 -25 0 2 -4 4 0 22 -20 4 0 -74 20 -2 0 21 8 -11 11 -13 25 -4z"/>
   </g>
   <g>
    <circle class="fil0" cx="2855" cy="6313" r="34"/>
    <path class="fil0" d="M2923 6700c-95,0 -180,-47 -229,-121l-40 0c55,93 155,156 271,156 115,0 215,-63 270,-156l-40 0c-53,72 -138,121 -232,121l0 0zm0 -556c94,0 179,48 229,121l39 0c-55,-92 -155,-155 -270,-155 -116,0 -216,63 -271,155l40 0c53,-71 138,-121 233,-121z"/>
    <path class="fil0" d="M3222 6335l92 0 23 -34 -223 0c-42,-62 -112,-104 -193,-104 -82,0 -152,42 -193,104l-221 0 22 34 182 0c-6,12 -8,23 -12,34l-147 0 34 53 -34 53 148 0c1,10 5,21 9,31l2 3 -182 0 -22 34 223 0c43,67 113,105 191,105l2 0c77,0 149,-40 191,-105l223 0 -23 -34 -181 0 0 -1c3,-12 7,-21 11,-33l148 0 -34 -53 34 -53 -148 0 -11 -34 89 0zm-267 -5l-68 68 -34 -34 -114 111c-5,-17 -7,-34 -7,-51 0,-104 85,-187 191,-189l2 0c104,0 189,83 189,187 0,19 -2,38 -10,57l-149 -149 0 0z"/>
   </g>
   <path class="fil0" d="M2639 9232l0 -679c0,-8 0,-8 8,-10 17,-2 32,-6 49,-8 19,-3 39,-5 58,-9 21,-4 40,-8 61,-11 19,-4 38,-6 57,-10 20,-4 39,-7 60,-11 19,-4 38,-6 57,-10 15,-1 30,-5 45,-7 6,-2 8,0 8,6l0 54c0,4 2,6 6,6l132 0c8,0 8,0 8,8l0 669c0,8 0,8 -8,8l-511 0c-7,0 -17,2 -24,4l-6 0zm359 -706c-5,2 -11,2 -17,4 -15,2 -28,5 -43,7 -19,4 -40,8 -59,12 -15,2 -28,5 -43,7 -19,4 -38,8 -59,12 -15,2 -28,5 -43,7 -16,2 -33,6 -48,8 -4,0 -5,2 -5,5l0 594 5 0c14,-1 27,-5 40,-7 15,-2 28,-6 43,-8 14,-2 29,-5 42,-7 15,-2 28,-6 44,-8l56 -11c10,-2 19,-4 29,-4 17,-4 32,-6 49,-9 8,-2 8,-2 8,-10l0 -586c1,-2 1,-4 1,-6l0 0zm-94 658l232 0c8,0 8,0 8,-7l0 -585c0,-7 0,-7 -6,-7l-90 0c-6,0 -6,2 -6,5l0 50c0,3 2,5 6,5l43 0c4,0 6,2 6,6l0 19c0,4 -2,5 -6,5l-42 0c-3,0 -5,2 -5,6l0 32c0,6 2,6 5,6l42 0c4,0 6,2 6,6l0 19c0,5 -2,5 -6,5l-42 0c-3,0 -5,2 -5,6l0 34c0,4 2,6 5,6l44 0c4,0 6,2 6,5l0 19c0,4 -2,6 -6,6l-44 0c-3,0 -5,2 -5,6l0 34c0,3 2,5 5,5l42 0c4,0 8,2 6,6l0 19c0,4 -2,6 -6,6l-43 0c-4,0 -4,1 -4,3l0 34c0,4 2,6 5,6l42 0c6,0 6,2 6,6l0 17c0,4 -2,5 -6,5l-42 0c-3,0 -5,2 -5,6l0 32c0,4 2,6 5,6l42 0c6,0 6,0 6,8l0 17c0,5 0,7 -8,7l-41 0c-4,0 -6,2 -6,6l0 34c0,4 2,6 6,6l43 0c4,0 6,1 6,5l0 19c0,4 -2,6 -6,6l-43 0c-6,0 -6,2 -6,5l0 25c0,4 -2,6 -6,6 -17,4 -36,5 -53,9 -9,2 -19,4 -26,4 -19,6 -34,9 -53,11l0 0z"/>
   <path class="fil0" d="M3040 9073c-4,-19 -15,-40 -49,-46 -6,0 -12,-2 -17,-2 -10,-1 -17,-1 -27,-3 -2,0 -3,0 -5,-2 -4,0 -6,-2 -10,-2 6,-2 12,-2 17,-6 12,-9 21,-23 30,-34l-11 -6c-2,0 -4,-1 -7,-1 -6,0 -10,-4 -10,-14 0,-15 2,-30 4,-45l0 -4c4,-24 6,-49 0,-74 -10,-45 -47,-73 -95,-73l-19 0c-5,0 -9,1 -15,3l-2 2c-2,0 -3,2 -5,2 -53,23 -89,72 -93,129 0,19 2,36 4,53 0,5 2,11 2,17 2,11 2,23 2,32 0,4 -2,8 -10,11 -2,2 -4,2 -6,4l-17 11c10,10 19,17 31,25l19 0c-4,2 -6,4 -10,6 -7,3 -13,7 -21,11 -3,2 -7,4 -13,6 -4,2 -7,4 -13,5 -36,17 -47,44 -51,63l-2 4 0 45 19 -4 179 -32 180 -32 19 -4 0 -45 2 0zm-248 -66c-11,13 -28,22 -43,26 -10,2 -17,0 -23,-4l2 -2c13,-7 21,-17 21,-30 0,-11 0,-25 -2,-36 -2,-23 -8,-45 -6,-68 2,-47 32,-91 78,-110 3,-2 5,-2 9,-3 6,-2 10,-4 11,-4l18 0c39,0 71,24 79,62 6,23 2,46 -2,68l-6 51c0,15 6,27 23,31 0,0 2,0 2,1 -8,6 -15,10 -25,12 -15,2 -30,0 -39,-12 0,2 -2,2 -2,4 -4,15 2,23 11,31 6,5 13,9 21,11 -25,17 -53,28 -81,34 -29,6 -57,2 -82,-6 8,-5 15,-11 21,-19 8,-7 11,-15 13,-24 6,-4 4,-8 2,-13l0 0zm-23 -375l-24 32 -4 0 -24 -24 0 49 -25 3 0 -87 21 -3 30 28 30 -40 21 -3 0 87 -25 3 0 -45 0 0zm70 -51l29 -6 32 82 -25 3 -5 -13 -34 6 -6 15 -25 4 34 -91 0 0zm4 53l23 -4 -11 -28 -12 32 0 0zm148 -44l0 40c-8,8 -25,17 -38,19 -26,4 -47,-8 -47,-36 0,-28 21,-49 47,-53 13,-2 26,0 34,6l-11 21c-6,-4 -14,-6 -23,-4 -13,2 -21,11 -21,26 0,13 10,21 23,19 4,0 9,-2 13,-6l0 -9 -19 4 0 -17 42 -10z"/>
   <polygon class="fil2" points="3717,2421 4550,2421 4550,3178 3717,3178 "/>
   <path class="fil0" d="M4586 2985l0 -2c-6,-28 -23,-62 -74,-79 -10,-2 -17,-6 -27,-8 -13,-4 -26,-7 -39,-13 -2,0 -6,-2 -8,-4 -4,-2 -9,-4 -13,-5 9,0 17,-2 26,-4 17,-13 32,-27 46,-44l-17 -13c-2,-2 -6,-4 -12,-6 -9,-3 -15,-7 -15,-22 0,-23 4,-44 6,-68l0 -8c4,-36 9,-74 2,-112 -15,-70 -70,-125 -142,-136l-8 0c-7,-2 -15,-2 -22,-2 -8,0 -14,2 -23,2l-4 0 -4 2c-2,0 -5,2 -7,2 -82,19 -136,85 -138,170 -2,29 2,55 5,82 2,9 2,17 4,26 2,19 2,36 2,51 0,6 -2,11 -13,15 -4,2 -6,2 -8,4l-24 13c13,17 28,32 45,46 8,2 17,3 26,3l2 0c-5,2 -9,4 -15,6 -9,4 -21,8 -30,11l-4 0c-4,-1 -7,-1 -11,-3 -4,-2 -8,-4 -12,-4l-1 0c-8,-4 -16,-6 -23,-10 -10,-3 -19,-9 -27,-17l-2 -1c0,-14 0,-25 -1,-35l0 -1c13,-14 24,-38 30,-59 7,-6 13,-11 17,-21 11,-21 13,-42 7,-60 0,-2 -1,-6 -5,-10 0,-2 0,-2 2,-4l5 -34c0,-4 2,-9 2,-13 4,-21 2,-42 -5,-66 -10,-36 -36,-61 -72,-68 -17,-17 -38,-21 -51,-23 -6,-2 -12,-2 -16,-2l-18 0 -4 2c-27,0 -51,6 -74,17 -26,13 -47,32 -59,59 -13,32 -13,62 -11,87 2,13 4,26 6,38 0,1 2,5 2,7 -8,11 -10,25 -8,40 2,11 6,23 11,34 4,9 12,13 15,17l2 0c6,23 16,43 31,59l0 11c0,9 0,17 -2,26 0,0 -2,4 -8,8 -7,6 -15,9 -23,13 -7,4 -17,8 -26,10 -4,2 -6,2 -9,3 -25,10 -52,19 -76,36 -32,21 -51,34 -57,70 0,2 0,138 -2,140 0,2 0,2 -2,4l0 40 958 0 0 -197 0 0zm-373 -164c-19,18 -44,28 -64,28 -14,0 -25,-4 -34,-11 1,0 1,-2 3,-2 19,-8 31,-21 32,-40 2,-19 0,-36 -1,-55 -4,-34 -12,-70 -10,-104 2,-72 49,-129 117,-144 4,-2 10,-2 14,-3 9,-2 13,-2 19,-2 5,0 9,0 17,2 3,0 5,1 9,1 61,12 108,57 119,116 8,34 2,70 -2,104 -3,24 -7,49 -7,76 0,24 9,41 34,51 2,0 2,1 4,1 -12,8 -25,10 -38,10 -25,0 -46,-8 -61,-28 -2,1 -2,3 -2,5 -5,21 4,36 17,49 10,10 21,17 33,23 -38,19 -80,30 -123,30 -44,0 -86,-11 -123,-30 11,-6 22,-13 32,-23 9,-9 19,-18 21,-34 0,-5 -2,-13 -6,-20l0 0zm-373 66c10,-6 17,-13 19,-25 2,-11 2,-24 2,-38 0,-7 0,-15 -6,-20 -15,-16 -22,-35 -26,-55 0,-2 -4,-4 -6,-6 -4,-4 -9,-6 -11,-11 -4,-8 -8,-17 -8,-27 -2,-9 0,-19 8,-26 2,-2 2,-4 2,-6 -4,-17 -8,-34 -10,-53 -2,-25 -2,-51 10,-74 9,-21 24,-36 45,-45 21,-10 42,-13 64,-13l2 0c2,0 2,0 4,-2l2 0c2,0 4,2 6,2 5,0 11,0 17,2 15,3 30,5 39,18 2,2 4,2 6,2 28,4 49,23 57,50 6,17 7,35 4,52 -2,16 -6,31 -8,46 -2,9 -6,19 4,26 0,0 0,2 2,2 4,15 2,29 -6,42 -4,7 -9,13 -17,13 -2,17 -13,46 -25,57 -7,7 -9,15 -7,23 0,11 2,20 2,32 0,9 4,15 9,21 6,5 12,11 19,15 -30,17 -64,24 -102,24 -36,0 -68,-9 -98,-24 0,2 3,0 7,-2l0 0z"/>
   <g>
    <path class="fil4" d="M4459 7495l-390 0c-7,0 -15,-6 -15,-15l0 -23c0,-7 6,-15 15,-15l390 0c7,0 15,6 15,15l0 23c0,9 -6,15 -15,15l0 0z"/>
    <path class="fil5" d="M4459 7718l-390 0c-7,0 -15,-5 -15,-15l0 -23c0,-7 6,-15 15,-15l390 0c7,0 15,6 15,15l0 23c0,8 -6,15 -15,15l0 0z"/>
    <path class="fil0" d="M4459 7940l-390 0c-7,0 -15,-6 -15,-16l0 -22c0,-8 6,-15 15,-15l390 0c7,0 15,5 15,15l0 22c0,8 -6,16 -15,16z"/>
    <path class="fil4" d="M3986 7347c-10,-9 -27,-9 -38,0l-93 93 -19 -19c-9,-9 -26,-9 -37,0 -10,10 -10,27 0,36l37 36c10,10 27,10 38,0l112 -110c9,-9 9,-26 0,-36l0 0z"/>
    <path class="fil5" d="M3986 7569c-10,-10 -27,-10 -38,0l-93 92 -19 -18c-9,-10 -26,-10 -37,0 -10,9 -10,26 0,36l37 35c10,10 27,10 38,0l112 -109c9,-10 9,-25 0,-36l0 0z"/>
    <path class="fil0" d="M3986 7790c-10,-9 -27,-9 -38,0l-93 93 -19 -19c-9,-10 -26,-10 -37,0 -10,9 -10,26 0,36l37 36c10,9 27,9 38,0l112 -110c9,-9 9,-25 0,-36l0 0z"/>
   </g>
   <path class="fil4" d="M3973 6492c-6,-13 -16,-26 -27,-36 -11,-9 -26,-18 -41,-26 -16,-8 -35,-13 -53,-21 -19,-6 -36,-13 -48,-19 -11,-5 -21,-11 -28,-19 -6,-5 -11,-13 -13,-19 -2,-7 -4,-15 -4,-24 0,-10 2,-19 6,-27 3,-7 7,-15 15,-20 5,-6 15,-12 24,-16 19,-7 51,-7 72,2 10,4 19,10 25,19 7,8 11,17 15,29 4,11 6,22 6,36l0 9 60 0 0 -9c0,-42 -11,-74 -32,-99 -19,-23 -47,-36 -81,-40l0 -64 -55 0 0 61c-15,2 -29,5 -42,11 -15,6 -28,15 -40,25 -11,11 -19,22 -24,37 -6,14 -10,31 -10,48 0,19 4,36 10,49 5,13 15,26 28,36 12,9 27,19 42,26 15,8 34,14 55,19 17,6 32,12 45,19 11,6 21,12 28,19 8,6 12,13 14,21 3,7 3,15 3,25 0,9 -1,18 -5,26 -4,8 -10,15 -17,21 -8,5 -17,11 -27,15 -19,6 -45,7 -72,2 -11,-2 -20,-8 -30,-13 -9,-6 -15,-16 -21,-27 -5,-11 -7,-24 -7,-42l0 -9 -65 0 0 9c0,25 4,44 12,61 7,17 19,30 32,42 13,11 28,19 45,24 14,4 27,8 42,10l0 55 55 0 0 -57c15,-2 30,-6 43,-10 15,-5 31,-15 42,-24 11,-10 21,-23 26,-38 6,-13 10,-30 10,-47 -4,-19 -8,-36 -13,-50l0 0z"/>
   <path class="fil5" d="M4275 6492c-5,-13 -15,-26 -26,-36 -12,-9 -27,-18 -42,-26 -15,-8 -34,-13 -53,-21 -19,-6 -36,-13 -47,-19 -11,-5 -21,-11 -28,-19 -6,-5 -12,-13 -14,-19 -2,-7 -3,-15 -3,-24 0,-10 1,-19 5,-27 4,-7 8,-15 15,-20 6,-6 15,-12 25,-16 19,-7 51,-7 72,2 9,4 19,10 24,19 8,8 12,17 16,29 3,11 5,22 5,36l0 9 61 0 0 -9c0,-42 -12,-74 -32,-99 -19,-23 -48,-36 -82,-40l0 -64 -55 0 0 61c-15,2 -28,5 -41,11 -15,6 -29,15 -40,25 -11,11 -19,22 -25,37 -5,14 -9,31 -9,48 0,19 4,36 9,49 6,13 16,26 29,36 11,9 26,19 41,26 16,8 35,14 55,19 17,6 32,12 46,19 11,6 21,12 28,19 8,6 11,13 13,21 4,7 4,15 4,25 0,9 -2,18 -6,26 -3,8 -9,15 -17,21 -7,5 -17,11 -26,15 -19,6 -45,7 -72,2 -11,-2 -21,-8 -30,-13 -10,-6 -15,-16 -21,-27 -6,-11 -8,-24 -8,-42l0 -9 -64 0 0 9c0,25 4,44 11,61 8,17 19,30 33,42 13,11 28,19 45,24 13,4 26,8 42,10l0 55 54 0 0 -57c16,-2 31,-6 44,-10 15,-5 30,-15 42,-24 11,-10 20,-23 26,-38 6,-13 10,-30 10,-47 -4,-19 -8,-36 -14,-50l0 0z"/>
   <path class="fil0" d="M4578 6492c-6,-13 -15,-26 -26,-36 -12,-9 -27,-18 -42,-26 -15,-8 -34,-13 -53,-21 -19,-6 -36,-13 -47,-19 -12,-5 -21,-11 -29,-19 -5,-5 -11,-13 -13,-19 -2,-7 -4,-15 -4,-24 0,-10 2,-19 6,-27 4,-7 7,-15 15,-20 6,-6 15,-12 25,-16 19,-7 51,-7 72,2 9,4 18,10 24,19 8,8 11,17 15,29 4,11 6,22 6,36l0 9 60 0 0 -9c0,-42 -11,-74 -32,-99 -19,-23 -47,-36 -81,-40l0 -64 -55 0 0 61c-15,2 -28,5 -42,11 -15,6 -28,15 -39,25 -12,11 -19,22 -25,37 -6,14 -9,31 -9,48 0,19 3,36 9,49 6,13 15,26 29,36 11,9 26,19 41,26 15,8 34,14 55,19 17,6 32,12 45,19 12,6 21,12 29,19 7,6 11,13 13,21 4,7 4,15 4,25 0,9 -2,18 -6,26 -4,8 -9,15 -17,21 -7,5 -17,11 -26,15 -19,6 -46,7 -72,2 -12,-2 -21,-8 -31,-13 -9,-6 -15,-16 -20,-27 -6,-11 -8,-24 -8,-42l0 -9 -64 0 0 9c0,25 4,44 11,61 8,17 19,30 32,42 14,11 29,19 46,24 13,4 26,8 41,10l0 55 55 0 0 -57c15,-2 30,-6 44,-10 15,-5 30,-15 41,-24 12,-10 21,-23 27,-38 5,-13 9,-30 9,-47 -4,-19 -7,-36 -13,-50l0 0z"/>
   <g>
    <path class="fil0" d="M4133 8513c-187,0 -340,153 -340,340 0,188 153,341 340,341 188,0 341,-153 341,-341 0,-187 -153,-340 -341,-340zm0 641c-166,0 -300,-136 -300,-301 0,-164 136,-301 300,-301 165,0 301,137 301,301 0,165 -134,301 -301,301z"/>
    <polygon class="fil0" points="4143,8683 4105,8683 4105,8884 4283,8990 4300,8961 4143,8867 "/>
   </g>
   <g>
    <path class="fil0" d="M4408 9710l-48 0 0 40 48 0c15,0 26,11 26,26l0 103 -599 0 0 -103c0,-15 11,-26 26,-26l47 0 0 -40 -47 0c-36,0 -66,31 -66,66l0 600c0,36 30,66 66,66l547 0c36,0 66,-30 66,-66l0 -600c0,-35 -30,-66 -66,-66zm26 208l0 458c0,15 -11,27 -26,27l-547 0c-15,0 -26,-12 -26,-27l0 -458 599 0z"/>
    <path class="fil0" d="M4010 9710l246 0 0 40 -246 0 0 -40zm-51 106c10,0 16,-7 16,-15l0 -100c0,-8 -8,-15 -16,-15 -9,0 -15,7 -15,15l0 100c0,9 6,15 15,15zm348 0c10,0 16,-7 16,-15l0 -100c0,-8 -8,-15 -16,-15 -9,0 -15,7 -15,15l0 100c0,9 8,15 15,15zm-206 327l27 0c34,0 55,-20 55,-49 0,-26 -21,-45 -53,-45 -36,0 -51,24 -53,45l-29 0c0,-32 27,-70 82,-70 51,0 83,29 83,66 2,38 -28,63 -51,65 24,2 60,21 60,64 0,46 -39,78 -94,78 -57,0 -87,-34 -89,-74l28 0c4,26 23,47 61,47 39,0 64,-23 64,-53 0,-30 -25,-51 -64,-51l-29 0 0 -23 2 0z"/>
   </g>
   <g>
    <path class="fil0" d="M4408 10921l-48 0 0 40 48 0c15,0 26,11 26,26l0 102 -599 0 0 -102c0,-15 11,-26 26,-26l47 0 0 -40 -47 0c-36,0 -66,30 -66,66l0 600c0,36 30,66 66,66l547 0c36,0 66,-30 66,-66l0 -600c0,-36 -30,-66 -66,-66l0 0zm26 208l0 458c0,15 -11,26 -26,26l-547 0c-15,0 -26,-11 -26,-26l0 -458 599 0z"/>
    <path class="fil0" d="M4010 10921l246 0 0 40 -246 0 0 -40zm-51 106c10,0 16,-8 16,-15l0 -101c0,-7 -8,-15 -16,-15 -9,0 -15,8 -15,15l0 101c0,9 6,15 15,15zm348 0c10,0 16,-8 16,-15l0 -101c0,-7 -8,-15 -16,-15 -9,0 -15,8 -15,15l0 101c0,9 8,15 15,15zm-90 212l0 26 -112 237 -32 0 115 -237 -140 0 0 -26 169 0z"/>
   </g>
   <g>
    <path class="fil0" d="M4408 12132l-48 0 0 39 48 0c15,0 26,12 26,27l0 102 -599 0 0 -102c0,-15 11,-27 26,-27l47 0 0 -39 -47 0c-36,0 -66,30 -66,66l0 600c0,35 30,66 66,66l547 0c36,0 66,-31 66,-66l0 -600c0,-36 -30,-66 -66,-66l0 0zm26 208l0 458c0,15 -11,26 -26,26l-547 0c-15,0 -26,-11 -26,-26l0 -458 599 0z"/>
    <path class="fil0" d="M4010 12132l246 0 0 39 -246 0 0 -39zm-51 106c10,0 16,-8 16,-16l0 -100c0,-7 -8,-15 -16,-15 -9,0 -15,8 -15,15l0 100c0,10 6,16 15,16zm348 0c10,0 16,-8 16,-16l0 -100c0,-7 -8,-15 -16,-15 -9,0 -15,8 -15,15l0 100c0,10 8,16 15,16zm-480 247l613 0 0 33 -613 0 0 -33zm0 165l613 0 0 32 -613 0 0 -32z"/>
    <path class="fil0" d="M4252 12321l0 510 -34 0 0 -510 34 0zm-204 0l0 510 -34 0 0 -510 34 0z"/>
   </g>
   <path class="fil5" d="M4124 5282c-6,-14 -15,-27 -27,-36 -11,-10 -26,-19 -41,-27 -15,-7 -34,-13 -53,-21 -19,-5 -36,-13 -47,-18 -12,-6 -21,-12 -29,-19 -5,-6 -11,-14 -13,-19 -2,-8 -4,-15 -4,-25 0,-9 2,-19 6,-26 4,-8 7,-15 15,-21 6,-6 15,-12 25,-15 19,-8 51,-8 71,2 10,3 19,9 25,19 8,7 11,17 15,28 4,11 6,23 6,36l0 9 60 0 0 -9c0,-42 -11,-74 -32,-99 -19,-22 -47,-35 -81,-39l0 -65 -55 0 0 61c-15,2 -28,6 -42,11 -15,6 -28,15 -39,25 -12,11 -19,23 -25,38 -6,13 -9,30 -9,47 0,19 3,36 9,49 6,13 15,27 29,36 11,10 26,19 41,27 15,7 34,13 55,19 17,5 32,11 45,18 12,6 21,12 29,19 7,6 11,14 13,21 4,8 4,15 4,25 0,9 -2,19 -6,26 -4,8 -9,15 -17,21 -7,6 -17,11 -26,15 -19,6 -46,8 -72,2 -12,-2 -21,-7 -31,-13 -9,-6 -15,-15 -20,-27 -6,-11 -8,-24 -8,-41l0 -10 -64 0 0 10c0,24 4,43 11,60 8,17 19,31 32,42 14,11 29,19 46,25 13,3 26,7 41,9l0 55 55 0 0 -57c15,-2 30,-6 44,-9 15,-6 30,-16 41,-25 12,-9 21,-23 27,-38 5,-13 9,-30 9,-47 -4,-19 -7,-36 -13,-49l0 0z"/>
   <path class="fil0" d="M4427 5282c-6,-14 -15,-27 -27,-36 -11,-10 -26,-19 -41,-27 -16,-7 -35,-13 -53,-21 -19,-5 -36,-13 -48,-18 -11,-6 -21,-12 -28,-19 -6,-6 -11,-14 -13,-19 -2,-8 -4,-15 -4,-25 0,-9 2,-19 6,-26 3,-8 7,-15 15,-21 5,-6 15,-12 24,-15 19,-8 51,-8 72,2 10,3 19,9 25,19 7,7 11,17 15,28 4,11 6,23 6,36l0 9 60 0 0 -9c0,-42 -11,-74 -32,-99 -19,-22 -47,-35 -81,-39l0 -65 -55 0 0 61c-15,2 -29,6 -42,11 -15,6 -28,15 -40,25 -11,11 -19,23 -24,38 -6,13 -10,30 -10,47 0,19 4,36 10,49 5,13 15,27 28,36 12,10 27,19 42,27 15,7 34,13 55,19 17,5 32,11 45,18 11,6 21,12 28,19 8,6 12,14 14,21 3,8 3,15 3,25 0,9 -1,19 -5,26 -4,8 -10,15 -17,21 -8,6 -17,11 -27,15 -19,6 -45,8 -72,2 -11,-2 -20,-7 -30,-13 -9,-6 -15,-15 -21,-27 -5,-11 -7,-24 -7,-41l0 -10 -65 0 0 10c0,24 4,43 12,60 7,17 19,31 32,42 13,11 28,19 45,25 14,3 27,7 42,9l0 55 55 0 0 -57c15,-2 30,-6 43,-9 15,-6 31,-16 42,-25 11,-9 21,-23 26,-38 6,-13 10,-30 10,-47 -4,-19 -8,-36 -13,-49l0 0zm-152 -1211c-5,-13 -15,-26 -26,-36 -12,-9 -27,-19 -42,-26 -15,-8 -34,-14 -53,-21 -19,-6 -36,-13 -47,-19 -11,-6 -21,-12 -28,-19 -6,-6 -12,-13 -14,-19 -2,-8 -3,-15 -3,-25 0,-9 1,-19 5,-26 4,-8 8,-15 15,-21 6,-6 15,-11 25,-15 19,-8 51,-8 72,2 9,4 19,9 24,19 8,7 12,17 16,28 3,12 5,23 5,36l0 10 61 0 0 -10c0,-42 -12,-74 -32,-98 -19,-23 -48,-36 -82,-40l0 -64 -55 0 0 60c-15,2 -28,6 -41,12 -15,5 -29,15 -40,24 -11,12 -19,23 -25,38 -5,13 -9,30 -9,47 0,19 4,36 9,50 6,13 16,26 29,35 11,10 26,19 41,27 16,7 35,13 55,19 17,6 32,11 46,19 11,5 21,11 28,19 8,5 11,13 13,20 4,8 4,16 4,25 0,10 -2,19 -6,27 -3,7 -9,15 -17,20 -7,6 -17,12 -26,16 -19,5 -45,7 -72,1 -11,-1 -21,-7 -30,-13 -10,-6 -15,-15 -21,-26 -6,-12 -8,-25 -8,-42l0 -9 -64 0 0 9c0,25 4,44 11,61 8,17 19,30 33,41 13,12 28,19 45,25 13,4 26,7 42,9l0 55 54 0 0 -57c16,-2 31,-5 44,-9 15,-6 30,-15 42,-25 11,-9 20,-22 26,-38 6,-13 10,-30 10,-47 -4,-19 -8,-36 -14,-49l0 0z"/>
  </g>
 </g>
</svg>
