<svg xmlns="http://www.w3.org/2000/svg" xmlns:xlink="http://www.w3.org/1999/xlink" width="240" height="688">
    <ellipse fill="none" cx="402.6" cy="610.8" rx="5.2" ry="5.2"/>
    <path fill="#003d83" d="M428.3 589.7h-27.1l19.3-7.9-.8-1.9-24.3 10c-1.2.5-2 1.6-2 3v23.9c0 1.8 1.4 3.2 3.2 3.2h31.6c1.8 0 3.2-1.4 3.2-3.2v-23.9c.1-1.7-1.3-3.2-3.1-3.2zm-31.6 21.1c0-3.3 2.7-6 5.9-6s5.9 2.7 5.9 6-2.7 6-5.9 6-5.9-2.7-5.9-6zm32.4-9.1h-5.5v-4h-2.4v4h-25.3v-9.5h33.2v9.5zM669 620.3h-19.2c-.6 0-.8-.2-.8-.8v-24.2c0-.3.1-.6.2-.8 1.6-2.6 3.2-5.1 4.8-7.7.2-.4.5-.5 1-.5h27.9c.5 0 .7.1 1 .5 1.6 2.6 3.2 5.2 4.9 7.8.1.2.2.5.2.7v24.4c0 .5-.2.6-.7.6H669zm-17.6-24.1v21.3c0 .5.2.5.6.5h33.9c.5 0 .7-.1.7-.7v-21h-12.9c-.4 0-.5.2-.5.5v3.5c0 .5-.2.7-.7.7h-6c-.5 0-.7-.2-.7-.7V597c0-.5-.1-.7-.7-.7h-5.8c-2.5-.1-5.1-.1-7.9-.1zm.8-1.7h13c.8 0 .8 0 .9-.8.1-1.4.2-2.9.4-4.3.1-.5-.1-.6-.6-.6h-9.6c-.4 0-.6.1-.8.5l-3 4.8c-.1 0-.2.1-.3.4zm33.6 0c-.1-.3-.2-.4-.2-.5l-3-4.8c-.2-.4-.5-.5-.9-.5h-9.3v.6c.2 1.5.4 3 .6 4.6.1.5.3.6.8.6h12z"/>
    <path fill="#003d83" d="M654 610.3h12v2h-12zm0 3h8v2h-8zm0-6h6v2h-6zM349.4 332.9c-1.4-1.4-3.8-1.4-5.2 0-1.2 1.2-1.4 3.1-.5 4.5.2.3.3.5.5.7.5.5 1.2.9 1.9 1v22.4h2.5v-22.8c.3-.2.6-.4.8-.6 1.5-1.4 1.5-3.8 0-5.2z"/>
    <path fill="#003d83" d="M350.7 326.1l5.5 5.5-1.5 10.5-.5.5-5.9 5.9-4.9 4.9-7.6 7.6-14.6-14.6 19-19 10.5-1.3m.7-2.1l-12.2 1.7-20.9 20.9 17.4 17.4 9-9 4.9-4.9 5.9-5.9 1-1 1.7-12.2-6.8-7zm79.9 222.3c-2.8-3.8-4.8-7.9-7.6-11.7 0-.1-.1-.1-.1-.2v-.1c-.9-1.2-2.5-1.8-4.1-2-1-.3-2-.6-3.1-.9-.2-.1-.5-.2-.7-.3-.6-.3-1-1.1-.2-1.7.4-.4.8-.9 1.1-1.3.2-.3.3-.7.5-1 0-.1.1-.1.1-.2.7-.1 1-.7 1.2-1.3.1-.3 0-.7.1-1 0-.3.1-.6.2-.8.4-1.4.3-2.7-.2-4-.6-1.4-1.6-2.5-3-3.2-.5-.3-1.1-.4-1.7-.5 0 0-.1 0-.1-.1h-1.9c-.1 0-.1.1-.2.1-.3 0-.5.1-.6.5 0 .3-.2.4-.4.3-.7-.3-1.2.1-1.7.5-1.1.8-1.8 1.9-2.2 3.2-.3 1.2-.3 2.4.1 3.6.1.2 0 .4 0 .6 0 .8.1 1.5.8 2.1.1.1.2.1.3.1.3 0 .4.2.5.4.4.9.9 1.6 1.6 2.2.2.2.3 1 0 1.2-.2.2-.5.4-.8.5-1.1.4-2.2.7-3.3 1.1-1.7.1-3.4.7-4.3 2-.1.1-.2.3-.3.4-2.8 3.9-4.9 8-7.8 11.9-1.1 1.5-1.2 3-.3 4.3 1 1.4 2.4 1.8 4.2 1.3 1.8-.5 3.6-1 5.6-1.5v5.4h19.2v-5.4c2 .5 4 1 5.9 1.6 1 .3 2 .1 2.9-.4 1-.6 1.4-1.6 1.7-2.6v-.6c-.6-.9-.9-1.8-1.4-2.5zm-13.1-2.5c-.6.4-1.1 1.1-1.4 1.8-.6 1.7.2 3.1 2.7 4.4-1.8.6-3.4 1-5.1 1.7-1.3.5-2.6.5-3.9 0-1.6-.6-3.3-1.1-4.8-1.6.7-.7 1.6-1.2 2.1-1.9.6-.8.6-1.9.2-2.8-.7-1.8-2.1-2.2-5.2-1.7v-5.9c1.2 0 2.4.4 3.6.8 1.6.6 3 1.5 4.3 2.4.4.3.7.6 1.1.9.1.1.2.1.4.2.6.2 1-.2 1.4-.6 2-1.6 4.2-2.9 6.7-3.5.5-.1 1.1-.2 1.6-.2v5.9c-1.2-.5-2.6-.8-3.7.1z"/>
    <g fill="#003d83">
        <path d="M400.9 644.5c-.2 0-.4.1-.6.1-1.1.3-1.9.9-2.5 1.9-.4.6-.6 1.3-.7 2v31c0 .2.1.4.1.6.3 1.1.9 1.9 1.9 2.5.6.4 1.3.6 2 .7h28.2v-39h-28.2c0 .2-.1.2-.2.2zm26.1 32.8v3.8h-25.3c-1.1 0-2-.6-2.2-1.6-.2-.6 0-1.3.4-1.8s1-.8 1.6-.9h25.6v.5zm-14.4-30.5h14.5v27.7h-25.3c-.6 0-1.1.1-1.6.2h-.7V649c0-1.1.6-1.9 1.5-2.2.2-.1.5-.1.8-.1 3.5.1 7.1.1 10.8.1z"/>
        <path d="M405.3 652.8h17.3v2.3h-17.3z"/>
    </g>
    <path fill="#003d83" d="M712.5 602.4h39.3v1.9h-39.3z"/>
    <path fill="#003d83" d="M745.4 604.3h-10.7l-4.9-4.9 5.3-5.3 10.3 10.2zm-9.9-1.9h5.1l-5.5-5.4-2.5 2.5 2.9 2.9z"/>
    <path fill="#003d83" d="M737.5 604.3H721l8.3-8.2 8.2 8.2zm-11.8-1.9h7.1l-3.5-3.5-3.6 3.5z"/>
    <ellipse fill="#003d83" cx="722.3" cy="592.6" rx="2" ry="1.9"/>
    <path fill="#003d83" d="M718.4 607.2h11.8v1.9h-11.8zm0 2.9h7.9v1.9h-7.9zm20.7-.9h7.9v1.9h-7.9z"/>
    <path fill="none" d="M752.2 614.2c.1 0 .1-.1.2-.1.1-.1.2-.3.1-.4 0-.1-.1-.2-.2-.2-.2-.2-.4-.4-.5-.7v1.7c.1-.1.3-.2.4-.3zm-1.8-4.6v-.4h-.4l.4.4zm0 1.5c-.5-.6-.9-1.1-1.4-1.7 0-.1-.1-.1-.2-.1h-.1c-.1 0-.1.1-.1.1v5.4h1.8v-3.7zm-21.6-24.5c.8 0 1.5-.6 1.5-1.4 0-.8-.7-1.5-1.5-1.5-.9-.1-1.5.6-1.5 1.4s.7 1.5 1.5 1.5zm21.8 30c.1.2.2.4.4.4h.2c.3-.1.6-.5.4-1v-.1h-1.2c0 .3.1.5.2.7zm-11.5-8.4h11.3v-1.9h-11.3v1.9zm-16.2-21.6c.8 0 1.5-.7 1.5-1.5s-.7-1.4-1.5-1.4c-.9 0-1.6.6-1.5 1.5 0 .9.7 1.4 1.5 1.4z"/>
    <path fill="none" d="M747.6 614.3v-4.7c0-.2 0-.3.1-.5h-9.6v-3.9h12.3v-16.6h-36.3v26h33.5v-.3zM717 586.6c.8.1 1.5-.6 1.5-1.4 0-.8-.7-1.5-1.5-1.5-.8-.1-1.5.6-1.5 1.4s.7 1.5 1.5 1.5z"/>
    <path fill="#003d83" d="M750.4 606.2h-11.3v2h11.8v-2zm2.1 7.5c0-.1-.1-.2-.2-.2-.2-.2-.4-.4-.5-.7-.3-.3-.6-.7-.9-1-.2-.2-.4-.4-.5-.6-.5-.6-.9-1.1-1.4-1.7 0-.1-.1-.1-.2-.1h-.1c-.1 0-.1.1-.1.1v6.1c0 .3.1.4.3.4h.2c.3-.1.5-.3.8-.4.1 0 .1-.1.2-.1v.1c.1.4.3.8.4 1.2.1.2.2.4.4.4h.2c.3-.1.6-.5.4-1v-.1c-.1-.4-.2-.7-.4-1.1v-.1h.1c.3-.2.7-.3 1-.5.1 0 .1-.1.2-.1.1-.3.1-.5.1-.6zm-2.1-4.5v.4l.9 1.1.4.5.1.1v-2.1h-1.4z"/>
    <path fill="#003d83" d="M747.6 614.7h-33.5v-26h36.3v16.6h1.5v-21.4c0-1.8-1.1-2.8-2.9-2.8h-33.2c-1.6 0-3.2 1.1-3.2 3v32.4h35.2c-.1-.2-.1-.9-.1-1.1-.1-.2-.1-.5-.1-.7zm-18.8-30.9c.8 0 1.5.7 1.5 1.5s-.7 1.4-1.5 1.4-1.5-.7-1.5-1.5.6-1.5 1.5-1.4zm-5.9 0c.8 0 1.5.6 1.5 1.4s-.7 1.5-1.5 1.5-1.5-.6-1.5-1.4c-.1-.9.6-1.5 1.5-1.5zm-5.9 0c.8 0 1.5.7 1.5 1.5s-.7 1.5-1.5 1.4c-.8 0-1.5-.7-1.5-1.5s.7-1.5 1.5-1.4zM384.5 383.7c-2.1.7-4.6 1.1-7.3 1.1s-5.2-.4-7.3-1.1c-.1 0-.2.1-.1.2 1.9 1.5 4.6 2.9 6.4 4v2.2c0 .5.4 1 1 1s1-.4 1-1v-2.2c1.8-1.1 4.4-2.5 6.4-4 .1-.1 0-.3-.1-.2z"/>
    <path fill="#003d83" d="M389.2 375c0-1.2-.5-3.4-4.1-4.9-1.6-.7-3.7-1.2-6-1.3h-.2v1.8c2.4.2 4.4.7 5.9 1.4 1.5.8 2.5 1.8 2.5 3v.3c-.3 1.9-3 3.5-6.6 4.2-1.1.2-2.3.3-3.5.3-1.2 0-2.4-.1-3.5-.3-3.7-.6-6.4-2.2-6.6-4.2v-.3c0-1.2.9-2.2 2.5-3 1.5-.8 3.6-1.3 5.9-1.4v-1.8c-2.3.2-4.5.6-6.2 1.3-3.6 1.5-4.1 3.7-4.1 4.9v2.9c0 1.7 1 3 2.7 4 2.3 1.4 5.8 2.1 9.3 2.1 3.5 0 7-.7 9.3-2.1 1.7-1 2.7-2.3 2.7-4V375z"/>
    <path fill="#003d83" d="M375.5 372.4c-2.7.3-4.1 1.3-4.1 2.2 0 1.3 2.2 2.7 5.9 2.7 3.6 0 5.9-1.4 5.9-2.7 0-.5-.4-1-1.2-1.4-.1 0-.1-.1-.2-.1h-.1c-.1 0-.1-.1-.2-.1 0 0-.1 0-.1-.1-.1 0-.1 0-.2-.1h-.2c-.1 0-.2 0-.3-.1h-.1c-.1 0-.2 0-.3-.1h-.1c-.1 0-.2 0-.3-.1h-.7v1.2c0 .6-.5 1.1-1.1 1.1h-1.3c-.6 0-1.1-.5-1.1-1.1v-1.1l-.2-.2z"/>
    <path fill="#003d83" d="M376.6 374h1.3c.2 0 .4-.2.4-.4V366c0-.5-.4-1-1-1s-1 .4-1 1v7.7c0 .1.1.3.3.3zm-82.2 13.4l-.4.4.4.4.4-.4c.1-.1.1-.3 0-.5-.1 0-.3 0-.4.1z"/>
    <path fill="#003d83" d="M300.8 376l-11.2 11.2V400l1.8-1.8 2.2-2.2 9-9 2.5-2.5 8.4-8.4h-12.7zm3.3.6l1.3 1.5-.4.4-1.5-1.3.6-.6zm-5.3 5.4l1.6.1-.1-1.6.5-.5 2.2 2.2-.6.6-1.2-1.2.1 1.3-.1.1-1.3-.1 1.2 1.2-.5.5-.1.1-.1-.1-2.1-2.1.5-.5zm-3.2 3.1l1.2.3-.3-1.2.7-.7.4 1.5.1.6.8.8-.6.6-.8-.8-1.4-.3-.7-.2.6-.6zm-2.2 6.6l-1.3-1.3-.4-.4-.6.6-.5-.5 1.8-1.8.5.5.1.1-.2.2-.4.4.1.1 1.5 1.5-.6.6zm3.4-3.4c-.1.1-.3.2-.5.3-.5.1-1.1 0-1.5.1l.7.7.1.1-.5.5-.1.1-1.8-1.8-.4-.4 1.1-1.1c.3-.3.7-.5 1.1-.3.1 0 .3.1.4.3.3.3.3.8.1 1.2.3 0 .7 0 .9-.2.1-.1.1-.2.2-.2l.5.4c0 .1-.1.2-.1.2s-.1 0-.2.1zm6.7-6.7l-2.2-2.2 1.8-1.8.5.5-1.2 1.2.3.3.9-.9.5.5-.9.9.3.3 1.2-1.2.5.5-1.7 1.9zm1.8-2.5c-.2-.2-.2-.5 0-.7.2-.2.5-.2.7 0 .2.2.2.5 0 .7-.2.3-.4.3-.7 0z"/>
    <path fill="#FFF" d="M363.2 370.5h28v4h-28z"/>
    <path fill="#003d83" d="M396.7 371.8l-5.8-9.8h-27.3l-6.4 10.8v29c0 .1.1.2.2.2H397c.1 0 .2-.1.2-.2v-29l-.5-1zm-32.1-7.4l.3-.5h24.8l.3.5 2.7 4.6.9 1.6.4.8.2.3h-33.9l.2-.3 4.1-7zm30.6 10v25.5h-35.9v-26.5h35.9v1z"/>
    <path d="M367.4 395v3h-1.1v-3h-1.1v-1h3.3v1h-1.1zm1.8-1h1.9c.7 0 1.4.4 1.4 1.3 0 .6-.4 1-.9 1.2.3.3.6.6 1 .6.1 0 .3 0 .4-.1l.1.9c-.2.1-.4.1-.7.1-.9 0-1.6-1.1-2.1-1.5h-.1v1.4h-1.1V394zm1.1 1v.8h.8c.3 0 .4-.2.4-.4s-.2-.4-.4-.4h-.8zm4.1 1.4L373 394h1.2l.8 1.4.8-1.4h1.2v.1l-1.4 2.4v1.5h-1.1v-1.6zm7.7-.7l-1 1.3h-.2l-1-1.3v2.2h-1.1V394h.9l1.3 1.6 1.3-1.6h.9v3.9h-1.1v-2.2zm2.1 2.2V394h3.1v1h-2.1v.5h1.7v.9h-1.7v.6h2.1v1h-3.1zm4.4-1.1c.4 0 .6.2.6.6 0 .4-.2.6-.6.6-.4 0-.6-.2-.6-.6 0-.4.2-.6.6-.6zm-.5-2.8h1.1l-.2 2.4h-.7l-.2-2.4z" fill="#003d83"/>
    <path fill="none" d="M451.8 374.7c.2 0 .4-.1.6-.2h-2.5c.2.1.4.2.6.2h1.3z"/>
    <path fill="none" d="M457 374.7c0 1.3-2.2 2.7-5.9 2.7s-5.9-1.4-5.9-2.7v-.2H441c0 .2-.1.4-.1.5v.3c.3 1.9 3 3.5 6.6 4.2 1.1.2 2.3.3 3.5.3s2.4-.1 3.5-.3c3.7-.6 6.4-2.2 6.6-4.2v-.3c0-.2 0-.4-.1-.5h-4.3c.3.1.3.1.3.2z"/>
    <path fill="#003d83" d="M458.4 383.7c-2.1.7-4.6 1.1-7.3 1.1s-5.2-.4-7.3-1.1c-.1 0-.2.1-.1.2 1.9 1.5 4.6 2.9 6.4 4v2.2c0 .5.4 1 1 1s1-.4 1-1v-2.2c1.8-1.1 4.4-2.5 6.4-4 .1-.1 0-.3-.1-.2zm.6-13.6c-1.6-.7-3.7-1.2-6-1.3h-.2v1.7h7c-.2-.1-.5-.3-.8-.4zm-9.6-1.2v-.1c-2.3.2-4.5.6-6.2 1.3-.3.1-.5.3-.8.4h7v-1.6z"/>
    <path fill="#003d83" d="M461.3 375v.3c-.3 1.9-3 3.5-6.6 4.2-1.1.2-2.3.3-3.5.3s-2.4-.1-3.5-.3c-3.7-.6-6.4-2.2-6.6-4.2v-.3c0-.2 0-.4.1-.5h-1.9v3.4c0 1.7 1 3 2.7 4 2.3 1.4 5.8 2.1 9.3 2.1 3.5 0 7-.7 9.3-2.1 1.7-1 2.7-2.3 2.7-4v-3.4h-1.9c-.1.2-.1.4-.1.5z"/>
    <path fill="#003d83" d="M451.1 377.4c3.6 0 5.9-1.4 5.9-2.7v-.2h-4.6c-.2.1-.4.2-.6.2h-1.3c-.2 0-.4-.1-.6-.2h-4.6v.2c0 1.3 2.2 2.7 5.8 2.7zm1-8.7V366c0-.5-.4-1-1-1s-1 .4-1 1v4.6h2v-1.9z"/>
    <path fill="#003d83" d="M470.5 371.8l-5.8-9.8h-27.3l-6.4 10.8v29c0 .1.1.2.2.2h39.5c.1 0 .2-.1.2-.2v-29l-.4-1zm-32.1-7.4l.3-.5h24.8l.3.5 2.7 4.6.9 1.6.4.8.2.3h-33.9l.2-.3 4.1-7zm30.6 10v25.5h-35.8v-26.5h35.9v1z"/>
    <path d="M441.3 395v3h-1.1v-3h-1.1v-1h3.3v1h-1.1zm1.8-1h1.9c.7 0 1.4.4 1.4 1.3 0 .6-.4 1-.9 1.2.3.3.6.6 1 .6.1 0 .3 0 .4-.1l.1.9c-.2.1-.4.1-.7.1-.9 0-1.6-1.1-2.1-1.5h-.1v1.4H443V394zm1.1 1v.8h.8c.3 0 .4-.2.4-.4s-.2-.4-.4-.4h-.8zm4.1 1.4l-1.4-2.4h1.2l.8 1.4.8-1.4h1.2v.1l-1.4 2.4v1.5h-1.1v-1.6zm7.7-.7l-1 1.3h-.2l-1-1.3v2.2h-1.1V394h.9l1.3 1.6 1.3-1.6h.9v3.9H456v-2.2zm2.1 2.2V394h3.1v1h-2.1v.5h1.7v.9h-1.7v.6h2.1v1h-3.1zm4.4-1.1c.4 0 .6.2.6.6 0 .4-.2.6-.6.6-.4 0-.6-.2-.6-.6 0-.4.2-.6.6-.6zm-.5-2.8h1.1l-.2 2.4h-.7l-.2-2.4zm-61.6-112.3c-2.1.7-4.6 1.1-7.3 1.1s-5.2-.4-7.3-1.1c-.1 0-.2.1-.1.2 1.9 1.5 4.6 2.9 6.4 4v2.2c0 .5.4 1 1 1s1-.4 1-1v-2.2c1.8-1.1 4.4-2.5 6.4-4 .1-.1 0-.3-.1-.2zm.6-13.6c-1.6-.7-3.7-1.2-6-1.3h-.2v1.7h7c-.3-.1-.5-.3-.8-.4zm-9.6-1.2v-.1c-2.3.2-4.5.6-6.2 1.3-.3.1-.5.3-.8.4h7v-1.6z" fill="#003d83"/>
    <path fill="#003d83" d="M403.3 273v.3c-.3 1.9-3 3.5-6.6 4.2-1.1.2-2.3.3-3.5.3s-2.4-.1-3.5-.3c-3.7-.6-6.4-2.2-6.6-4.2v-.3c0-.2 0-.4.1-.5h-1.9v3.4c0 1.7 1 3 2.7 4 2.3 1.4 5.8 2.1 9.3 2.1 3.5 0 7-.7 9.3-2.1 1.7-1 2.7-2.3 2.7-4v-3.4h-1.9c-.2.2-.1.4-.1.5z"/>
    <path fill="#003d83" d="M393.1 275.4c3.6 0 5.9-1.4 5.9-2.7v-.2h-4.6c-.2.1-.4.2-.6.2h-1.3c-.2 0-.4-.1-.6-.2h-4.6v.2c-.1 1.3 2.1 2.7 5.8 2.7zm1-8.7V264c0-.5-.4-1-1-1s-1 .4-1 1v4.6h2v-1.9z"/>
    <path fill="#003d83" d="M412.5 269.8l-5.8-9.8h-27.3l-6.4 10.8v29c0 .1.1.2.2.2h39.5c.1 0 .2-.1.2-.2v-29l-.4-1zm-32.1-7.4l.3-.5h24.8l.3.5 2.7 4.6.9 1.6.4.8.2.3h-33.9l.2-.3 4.1-7zm30.6 10v25.5h-35.9v-26.5H411v1z"/>
    <path d="M383.3 293v3h-1.1v-3h-1.1v-1h3.3v1h-1.1zm1.8-1h1.9c.7 0 1.4.4 1.4 1.3 0 .6-.4 1-.9 1.2.3.3.6.6 1 .6.1 0 .3 0 .4-.1l.1.9c-.2.1-.4.1-.7.1-.9 0-1.6-1.1-2.1-1.5h-.1v1.4H385V292zm1 1v.8h.8c.3 0 .4-.2.4-.4s-.2-.4-.4-.4h-.8zm4.1 1.4l-1.4-2.4h1.2l.8 1.4.8-1.4h1.2v.1l-1.4 2.4v1.5h-1.1v-1.6zm7.8-.7l-1 1.3h-.2l-1-1.3v2.2h-1.1V292h.9l1.3 1.6 1.3-1.6h.9v3.9H398v-2.2zm2.1 2.2V292h3.1v1h-2.1v.5h1.7v.9h-1.7v.6h2.1v1h-3.1zm4.4-1.1c.4 0 .6.2.6.6 0 .4-.2.6-.6.6-.4 0-.6-.2-.6-.6-.1-.4.2-.6.6-.6zm-.6-2.8h1.1l-.2 2.4h-.7l-.2-2.4z" fill="#003d83"/>
    <path fill="none" d="M12.7 76c.7 0 1.2-.6 1.2-1.3 0-.7-.6-1.2-1.3-1.2s-1.3.6-1.2 1.3c.1.6.6 1.2 1.3 1.2zm-5 0c.7 0 1.3-.6 1.3-1.3 0-.7-.5-1.3-1.2-1.3s-1.3.5-1.3 1.2c0 .8.5 1.4 1.2 1.4zm10 0c.7 0 1.3-.6 1.3-1.2 0-.7-.6-1.3-1.2-1.3-.7 0-1.3.5-1.3 1.2-.1.7.5 1.3 1.2 1.3z"/>
    <path fill="#003d83" d="M5.3 97.5V77.9h30.8v10.7h1.3v-15c0-1.6-.9-2.5-2.5-2.5H6.8C5.4 71 4 71.9 4 73.7v25h22.5v-1.2H5.3zm12.4-24c.7 0 1.3.6 1.2 1.3 0 .7-.6 1.3-1.3 1.2-.7 0-1.3-.6-1.2-1.3.1-.7.6-1.2 1.3-1.2zm-5 0c.7 0 1.3.5 1.3 1.2s-.5 1.3-1.2 1.3-1.3-.5-1.3-1.2c0-.8.5-1.3 1.2-1.3zm-4.9 0c.6 0 1.2.5 1.2 1.2S8.4 76 7.7 76s-1.3-.6-1.2-1.3c0-.7.5-1.2 1.3-1.2z"/>
    <path fill="#003d83" d="M8 95h11V80H8v15zm26-15H21v6h13v-6zM21 95h5v-7h-5v7zm7.6-1.1l-.2-.3c0-.1-.1-.1-.1-.2v-.1L28 93v2h.8c.1-.2.1-.4.2-.5-.1-.2-.3-.4-.4-.6zm1.2-4l.5-.6.5.5.2.2.2.3c.2.2.4.5.6.7.4-.2.7-.3 1-.5v-2.6h-5v4l.3-.4 1.7-1.6z"/>
    <path fill="#003d83" d="M42.9 96.5H42c-.2 0-.3-.1-.3-.3-.2-.6-.4-1.1-.6-1.6-.2-.4-.2-.4.1-.7.4-.4.9-.8 1.3-1.3l-1.7-1.7-.3.3-1.1 1.1c-.1.1-.1.1-.2.1H39c-.5-.2-1.1-.5-1.6-.7-.1 0-.2-.1-.2-.1-.2-.1-.2-.1-.2-.3v-2h-2.3v2c0 .2-.1.3-.2.3-.2.1-.5.2-.7.3-.4.1-.7.3-1.1.4-.1 0-.1.1-.2.1s-.1 0-.2-.1l-1.2-1.2c-.1-.1-.2-.1-.2-.2l-1.6 1.6c.1.1.1.2.2.2l1.2 1.2c.2.2.2.3.1.5s-.1.3-.2.5c-.2.4-.3.8-.5 1.2-.1.2-.2.3-.4.3h-1.9v2.3h1.9c.2 0 .3.1.4.3.2.5.3 1 .6 1.5.3.6.3.4-.1.8l-.4.4c-.3.3-.6.6-.8.9l1.6 1.6.2-.2 1.2-1.2c.1-.1.2-.1.3-.1s.1 0 .2.1c.5.2 1 .5 1.5.7.6.2.5.1.5.7v1.7h2.3v-2c0-.2.1-.3.3-.3.6-.2 1.1-.4 1.7-.7.2-.1.3-.2.4-.2.1 0 .1.1.3.3.4.4.8.9 1.3 1.3l1.7-1.7c-.1-.1-.2-.2-.2-.3l-1.2-1.2c-.1-.1-.1-.3-.1-.3.4-.6.6-1.2.8-1.9 0-.2.1-.2.3-.2h2v-2.3c-.9.1-1.3.1-1.6.1zm-4.8 1.7c0 .1 0 .1-.1.2 0 .1-.1.2-.1.3 0 .1-.1.1-.1.2s-.1.2-.1.2c0 .1-.1.1-.1.2l-.2.2c-.1.1-.1.1-.2.1l-.2.2c-.1 0-.1.1-.2.1s-.2.1-.2.1c-.1 0-.1 0-.2.1-.1 0-.2.1-.3.1h-.5c-.2 0-.4 0-.5-.1-.8-.2-1.5-.7-1.8-1.5-.1-.3-.2-.7-.2-1.1V97c0-.1 0-.1.1-.2 0-.1.1-.2.1-.3 0-.1.1-.1.1-.2s.1-.2.1-.3c0-.1.1-.1.1-.2l.2-.2c.1-.1.1-.1.2-.1l.2-.2c.1 0 .1-.1.2-.1s.2-.1.2-.1c.1 0 .1 0 .2-.1.1 0 .2-.1.3-.1h.8c.5.1.9.3 1.3.6.6.5.9 1.2.9 2 .1.4.1.6 0 .7z"/>
    <path fill="#FFF" d="M35.6 95.1zm0 0c.1 0 .1 0 0 0 .1 0 .1 0 0 0h-.2.2zm-1.9 1l.2-.2c-.1 0-.1.1-.2.2zm-.3.4c0-.1.1-.2.1-.3 0 .1 0 .2-.1.3zm1.1-1.1c.1 0 .2-.1.2-.1-.1 0-.2.1-.2.1zm-.4.3l.2-.2c-.1.1-.2.1-.2.2zm.8-.5c.1 0 .2-.1.3-.1-.1.1-.2.1-.3.1zm3 3.7c0 .1-.1.2-.1.2s0-.1.1-.2zm.2-.5c0 .1-.1.2-.1.3 0-.1.1-.2.1-.3zm-2.4 1.8h.2-.2zm1.9-.9l-.2.2c.1-.1.2-.1.2-.2zm-.7.6c-.1 0-.2.1-.2.1s.1 0 .2-.1zm.4-.3l-.2.2.2-.2zm-.9.5c-.1 0-.2.1-.3.1.2 0 .2-.1.3-.1zm-3.3-2.6zm2.1-2.3h.2c-.1-.1-.2-.1-.2 0zm-2 1.9c0-.1 0-.1.1-.2-.1.1-.1.2-.1.2zm4.5 2c0 .1-.1.1-.1.2.1-.1.1-.1.1-.2zm-.6.7c-.1 0-.1.1-.2.1 0 0 .1-.1.2-.1zm-.5.2c-.1 0-.1 0-.2.1.1 0 .2 0 .2-.1zm.8-.5c-.1.1-.1.1-.2.1.1 0 .2 0 .2-.1zm-1.2.7H36h.2zm1.8-1.5c0 .1-.1.1-.1.2 0-.1.1-.1.1-.2zm-3.3-3.4c.1 0 .1 0 .2-.1-.1.1-.1.1-.2.1zm-.4.2c.1 0 .1-.1.2-.1-.1.1-.2.1-.2.1zm3.8 2.7c0 .1 0 .1-.1.2.1-.1.1-.1.1-.2zm-4.5-2c0-.1.1-.1.1-.2 0 .1-.1.2-.1.2zm.3-.4c.1-.1.1-.1.2-.1-.1 0-.1.1-.2.1z"/>
    <path fill="none" d="M25.8 144.4H16l-.1.8c-.2 1.5-.3 2.6-.3 3.7 0 1.4.1 2.6.3 3.7l.1.8h9.9l.1-.8c.1-1.1.3-2.3.3-3.7 0-1.1-.1-2.2-.3-3.7l-.2-.8zm9.3 16z"/>
    <path fill="#003d83" d="M25.3 163.3l-1.7.6 1.1-2c1-1.9 1.8-3.9 2.4-6.1l.2-.7h2l.4-.4.4.4H33v-1.8h-5.3l.1-1c.1-.9.2-2.2.2-3.4s-.1-2.5-.2-3.4l-.1-1h7.7l.2.7c.3 1.3.5 2.6.5 3.8s-.2 2.5-.5 3.8l-.2.7h1.8c.4-1.4.6-2.9.6-4.4 0-9.3-7.6-16.9-16.9-16.9C11.6 132 4 139.6 4 148.9s7.6 16.9 16.9 16.9c1.5 0 3-.2 4.5-.6v-1.9h-.1zm.6-10.7l-.1.8H16l-.1-.8c-.1-1.1-.3-2.3-.3-3.7 0-1.1.1-2.2.3-3.7l.1-.8h9.9l.1.8c.2 1.5.3 2.6.3 3.7-.1 1.3-.2 2.6-.4 3.7zm-.1-18c3.4 1.2 6.3 3.6 8.2 6.7l.8 1.3h-7.5l-.2-.7c-.6-2.2-1.4-4.2-2.4-6.1l-1.1-2 2.2.8zm-4.9-1.4l.7 1.1c1.6 2.2 2.7 4.7 3.5 7.3l.3 1.1h-9.2l.3-1.1c.8-2.6 2-5 3.5-7.3l.9-1.1zm-13.1 8.1c1.8-3.2 4.7-5.5 8.2-6.7l2.2-.7-1.1 2c-1 1.9-1.8 3.9-2.4 6.1l-.2.7H7l.8-1.4zm-1.5 11.4c-.3-1.3-.5-2.6-.5-3.8s.2-2.5.5-3.8l.2-.7h7.7l-.1 1c-.1.9-.2 2.2-.2 3.4s.1 2.5.2 3.4l.1 1H6.4l-.1-.5zm9.7 10.5c-3.4-1.2-6.4-3.6-8.2-6.7l-.8-1.4h7.5l.2.7c.6 2.2 1.4 4.2 2.4 6.1l1.1 2-2.2-.7zm4.9 1.4l-.7-1.1c-1.6-2.2-2.7-4.7-3.5-7.3l-.3-1.1h9.2l-.3 1.1c-.8 2.6-2 5-3.5 7.3l-.9 1.1z"/>
    <path fill="#003d83" d="M42.8 161.9h-.9c-.2 0-.3-.1-.4-.3-.2-.6-.4-1.2-.7-1.7-.2-.4-.2-.4.1-.7.5-.5.9-.9 1.4-1.3l-1.8-1.8-.3.3-1.2 1.2c-.1.1-.1.1-.2.1h-.2c-.7-.3-1.3-.6-2-.8-.2-.1-.3-.1-.3-.3v-2.1h-2.5v2.2c0 .2-.1.3-.2.3-.7.2-1.3.5-1.9.8-.1 0-.2.1-.2.1-.1 0-.1 0-.2-.1l-1.3-1.3c-.1-.1-.2-.1-.2-.2l-1.7 1.7c.1.1.1.2.2.2l1.2 1.2c.2.2.2.3.1.5-.3.6-.5 1.2-.8 1.8-.1.3-.2.4-.4.4h-2.1v2.5h2.1c.3 0 .3.1.4.3.2.5.4 1.1.6 1.6.3.6.3.4-.1.9l-.4.4-.9.9c.6.6 1.2 1.2 1.7 1.8.1-.1.2-.1.2-.2.4-.4.9-.8 1.3-1.3.1-.1.2-.1.3-.1.1 0 .2 0 .3.1.5.3 1.1.5 1.6.7.7.2.5.1.6.7v1.9h2.5v-2.1c0-.2.1-.3.3-.4.6-.2 1.2-.4 1.8-.7.2-.1.3-.2.4-.2.1 0 .1.1.3.3.5.5.9.9 1.3 1.4l1.8-1.8-.3-.3-1.3-1.3c-.1-.1-.1-.3-.1-.3.4-.6.7-1.3.8-2 0-.2.1-.2.3-.2h2.1v-2.5c-.3-.3-.7-.3-1.1-.3zm-5 1.8c0 .1 0 .1-.1.2 0 .1-.1.2-.1.3s-.1.1-.1.2-.1.2-.2.3c0 .1-.1.1-.1.2-.1.1-.1.2-.2.2-.1.1-.1.1-.2.1l-.2.2c-.1 0-.1.1-.2.1s-.2.1-.3.1-.1 0-.2.1c-.1 0-.2.1-.3.1H35c-1.5 0-2.7-1.3-2.7-2.8 0-.2 0-.4.1-.5 0-.1 0-.1.1-.2 0-.1.1-.2.1-.3s.1-.1.1-.2.1-.2.2-.3c0-.1.1-.1.1-.2.1-.1.1-.2.2-.2.1-.1.1-.1.2-.1l.2-.2c.1 0 .1-.1.2-.1s.2-.1.3-.1.2 0 .2-.1c.1 0 .2-.1.3-.1h.5c1.5 0 2.7 1.3 2.7 2.8v.5z"/>
    <path fill="#FFF" d="M33.8 160.7c.1 0 .2-.1.3-.1-.1 0-.2.1-.3.1zm1.3 5.1h.3-.3zm.8-.1c-.1 0-.2.1-.3.1.1 0 .2-.1.3-.1zm-3.5-2.6c0-.2 0-.4.1-.5-.1.1-.1.3-.1.5zm4 2.4c-.1 0-.2.1-.3.1.1 0 .2-.1.3-.1zm1.3-1.6c0 .1-.1.2-.1.3 0-.1.1-.2.1-.3zm-.2.5c0 .1-.1.2-.2.3.1-.1.1-.2.2-.3zm-3.2-3.9c.1 0 .2-.1.3-.1-.1.1-.2.1-.3.1zm2.5 4.7l-.2.2.2-.2zm.4-.4c-.1.1-.1.2-.2.2.1 0 .1-.1.2-.2zm-4.2-3.4c.1-.1.1-.2.2-.2-.1 0-.1.1-.2.2zm4.8 1.8c0 .2 0 .4-.1.6.1-.3.1-.4.1-.6zm-2.7-2.8h-.2.2zm-1.7.6l.2-.2c-.1.1-.1.2-.2.2zm1.7-.6zm-2.6 2c0-.1.1-.2.1-.3 0 0-.1.1-.1.3zm.2-.6c0-.1.1-.2.2-.3-.1.1-.1.2-.2.3zm1.4-1.2c.1 0 .2 0 .2-.1-.1 0-.2.1-.2.1zm.5-.2h.2-.2zm-1 .4c.1 0 .1-.1.2-.1 0 .1-.1.1-.2.1zm-.4.4c.1-.1.1-.1.2-.1-.1 0-.1 0-.2.1z"/>
    <path fill="#FFF" d="M37.3 164.7c0 .1-.1.1-.1.2 0-.1.1-.2.1-.2zm.5-1c0 .1 0 .1-.1.2 0-.1 0-.1.1-.2zm-5.3-1.2c0-.1 0-.1.1-.2-.1.1-.1.2-.1.2zm.1-.5c0-.1.1-.1.1-.2 0 .1 0 .2-.1.2zm.3-.4c0-.1.1-.1.1-.2 0 0-.1.1-.1.2zm2.7 4.2h-.2.2zm2-1.6c0 .1-.1.1-.1.2 0-.1.1-.1.1-.2zm-.6.9c-.1.1-.1.1-.2.1.1 0 .1-.1.2-.1zm-.9.5c-.1 0-.1 0-.2.1.1 0 .2 0 .2-.1zm.5-.2c-.1 0-.1.1-.2.1.1 0 .1-.1.2-.1z"/>
    <path fill="#003d83" d="M22.8 236H9.4c-.7 0-1.3-.1-1.9-.2-2-.4-3.3-1.9-3.4-3.9-.1-1.3-.1-2.7-.1-4v-.9c0-.9 0-1.7.1-2.5.1-.7.3-1.2.7-1.5.4-.3.9-.4 1.6-.4.9.1 1.7.4 2.4.6.4.1.9.3 1.3.5.4.1.7.3 1.1.4.9.3 1.8.2 2.6-.2s1.3-1.2 1.5-2.1c.3-1.3 0-2.4-.7-3.2-.9-1-2-1.3-3.4-.9l-1.8.6c-.5.2-1.1.4-1.6.6-.4.1-.9.2-1.5.3-1.1.1-1.9-.5-2-1.6-.3-.4-.3-.8-.3-1.1V211c0-2.1.9-3.6 2.6-4.5 1.5-.8 3-.6 4-.3.7.2 1.5.4 2.2.6.6.2 1.2.3 1.8.5.3.1.5.1.8.1-.1-.2-.1-.3-.2-.4-.1-.1-.1-.3-.2-.5-.1-.3-.3-.6-.4-.9-.4-.7-.7-1.5-1-2.3-.4-1-.4-2.1-.1-3.3.6-2 2.3-3.5 4.5-3.8 1.5-.2 2.8 0 3.9.5 1.8.8 2.8 2.4 3 4.4.1 1.3-.2 2.5-.8 3.7-.2.3-.4.7-.5 1-.3.5-.5.9-.7 1.4 0 0 0 .1-.1.1h.1c.8-.1 1.6-.3 2.5-.6l.7-.2c1-.3 2.2-.6 3.5-.5 2.3.1 4.3 2.1 4.4 4.4.1 1.3-.3 2.5-.6 3.7-.1.2-.1.5-.2.7-.2.8-.4 1.7-.5 2.4.3-.1.6-.3.9-.5l.5-.3c1-.5 2-1 3.2-1.3 1.6-.3 3.2 0 4.4.9s2 2.3 2.2 3.9c.2 1.6 0 2.9-.7 4.1-.9 1.6-2.3 2.5-4.2 2.6-1.3.1-2.7-.2-4.1-1-.3-.1-.5-.3-.8-.4-.3-.2-.7-.4-1-.5-.1-.1-.3-.1-.4-.2 0 .8.3 1.5.5 2.3l.2.7c.3 1.2.7 2.4.6 3.8-.1 2.4-1.9 4.3-4.2 4.5-1.2.1-2.4.1-3.6.1h-.9c-.8.1-1.6.1-2.5.1zm-3.8-1.9h7.3c1.1 0 2.3 0 3.4-.1 1.3-.1 2.4-1.2 2.4-2.7 0-1.1-.3-2.1-.6-3.2l-.2-.7c-.3-1-.6-2.1-.6-3.2 0-.8.4-1.2.6-1.4.3-.2.7-.4 1.5-.2.4.1.8.3 1.1.4.4.2.7.4 1.1.6.3.1.5.3.8.4 1.1.6 2.1.8 3.1.7 1.2-.1 2.1-.6 2.7-1.7.5-.8.6-1.8.5-2.9-.1-1.1-.6-2-1.4-2.6-.8-.6-1.8-.8-2.9-.6-.9.2-1.7.6-2.6 1.1l-.5.3c-.5.2-.9.5-1.5.7-.9.3-1.5.1-1.7-.1-.3-.2-.7-.7-.6-1.6.1-1 .3-2 .6-3.1.1-.3.1-.5.2-.8.3-1.1.6-2.1.5-3.1-.1-1.4-1.2-2.5-2.6-2.6-.9-.1-1.9.2-3 .5l-.7.2c-.9.2-1.8.5-2.8.6-.4.1-1.5.2-2.1-.6s-.1-1.9.1-2.2c.2-.5.5-1 .8-1.5.2-.3.4-.7.5-1 .5-.9.6-1.8.6-2.7-.1-1.4-.7-2.2-1.9-2.8-.8-.4-1.7-.5-2.9-.3-1.4.2-2.5 1.1-2.9 2.4-.2.8-.2 1.5 0 2.2l.9 2.1c.1.3.3.6.4.9.1.1.1.3.2.4.2.3.3.6.4 1 .3.8 0 1.3-.2 1.5s-.6.6-1.4.6c-.4 0-1 0-1.6-.2-.6-.1-1.2-.3-1.8-.5-.7-.2-1.4-.4-2.1-.5-1.1-.3-1.9-.2-2.7.2-1.1.6-1.6 1.5-1.6 2.9v5.5c0 .2 0 .5.1.8v.1c.4 0 .8-.1 1.1-.2.5-.2 1-.4 1.5-.5.6-.2 1.3-.5 1.9-.7 2.1-.7 4-.1 5.4 1.4 1.2 1.3 1.6 3 1.2 4.9-.3 1.4-1.2 2.6-2.4 3.3s-2.7.9-4.1.4c-.4-.1-.8-.3-1.2-.5s-.8-.3-1.2-.4c-.6-.2-1.3-.4-2.1-.5h-.1v.1c-.1.7-.1 1.5-.1 2.3v.9c0 1.3 0 2.6.1 3.9.1 1.1.8 1.9 1.9 2.2.4.1.9.1 1.5.1h7.1l2.6.1zm-13.1-9.5z"/>
    <g fill="#003d83">
        <path d="M27.7 269.9c1.3.3 2.6.7 3.9 1 .2.1.5.3.6.6.1.1-.1.5-.2.6-.2.1-.5.1-.7.1-.7-.1-1.5-.3-2.2-.5.3 1 .8 1.9 1 2.9.8 3.8-1 7.5-4.5 9.3-.3.1-.5.3-.5.6 0 1.6-1 2.7-2.6 3.2-.1 0-.2.1-.2.1h-.9c-.8-.2-1.6-.6-2.2-1.3-1-1.4-.8-3.3.5-4.4s3.3-1 4.5.2c.2.2.3.3.4.5 4.1-1.7 5.4-7.1 3-10.4-.2.7-.4 1.4-.5 2.2-.1.5-.3.8-.9.7-.5-.1-.6-.5-.4-1l.9-3.6c.1-.3.3-.5.5-.8h.5zM22 282.7c-1.1 0-1.9.8-2 1.9 0 1 .8 1.9 1.9 1.9s2-.8 2-1.9c0-1-.8-1.9-1.9-1.9zm13.7 1.6c-.5.6-.8.6-1.3 0-.3-.3-.6-.7-1.1-1.2-.4.5-.7.9-1 1.3s-.7.5-1.1.1-.2-.7.1-1c.4-.3.7-.7 1.2-1.2-.5-.4-.9-.8-1.3-1.1-.3-.3-.4-.7-.1-1 .3-.4.7-.3 1 .1.4.4.7.8 1.2 1.2.4-.4.7-.8 1-1.1.6-.6.8-.5 1.4 0v.5c-.5.4-1 .9-1.6 1.4.6.6 1.1 1 1.6 1.5v.5zm-19.5-4.7c.5.4.8.8 1.2 1.2.3.3.4.7.1 1s-.7.2-1-.1c-.4-.4-.7-.8-1.2-1.3-.4.5-.8.9-1.2 1.2-.3.3-.7.5-1 .1-.4-.4-.2-.7.1-1 .4-.4.8-.7 1.2-1.2-.5-.4-.9-.8-1.3-1.2-.3-.3-.4-.7-.1-1 .3-.3.7-.3 1 .1.4.4.7.8 1.2 1.2.4-.5.8-.8 1.2-1.2.3-.3.7-.4 1-.1.4.4.2.7-.1 1-.3.5-.6.9-1.1 1.3z"/>
        <path d="M22.6 274.2c.5.4.8.8 1.2 1.1.3.3.4.7.1 1s-.7.2-1-.1c-.4-.4-.7-.8-1.2-1.3-.4.5-.8.9-1.1 1.3-.3.3-.7.4-1 .1-.4-.3-.3-.7.1-1 .4-.4.8-.7 1.3-1.2-.5-.4-.9-.8-1.3-1.2-.3-.3-.4-.7-.1-1s.7-.3 1 .1c.4.4.8.8 1.2 1.3.4-.5.8-.9 1.2-1.3.3-.3.7-.4 1 0 .3.3.2.7-.1 1-.4.3-.8.7-1.3 1.2z"/>
        <path d="M18.3 300h-1.1c-1.5-1.1-1.5-1.9-.3-3.2l3.2-3.2H5.8V268c-.7-.1-1.3-.1-1.9-.2v-7.7c.3 0 .5-.1.8-.1H43c.3 0 .6.1.9.1v7.7c-.6.1-1.1.1-1.7.2v25.6H28.1c-.1.1-.1.2-.2.3 1 1 2 1.9 3 2.9 1.3 1.3 1.2 2.1-.1 3.3h-1.1c-2-1.9-3.9-3.8-6.1-5.9-1.6 1.9-3.5 3.8-5.3 5.8zM39 268H9.2v22.2H39V268zm-31.7-1.9h33.4v-2.8H7.3v2.8z"/>
    </g>
    <g fill="#003d83">
        <path d="M2 344h2.7v2.7H2zm13.7-5.3h2.7v2.7h-2.7zm-8.2 2.6h2.7v2.7H7.5zM13 344h2.7v2.7H13zm-5.5 2.7h2.7v2.7H7.5zm8.2 0h2.7v2.7h-2.7zm-5.5 5.3h2.7v2.7h-2.7zm11-21.3c0-.1 0-.1 0 0zm-11 5.3h2.7v2.7h-2.7z"/>
        <path d="M45.4 356.9c-3.3-1.6-6.6-3.2-9.8-4.8-1.6-.8-2.8-1.9-3.2-3.7-.1-.3-.2-.8 0-1 .8-1.3 1.1-2.8 1.6-4.2.1-.2.2-.4.4-.5 1.2-1.1 1.6-3.1.9-4.4-.2-.4-.2-.7-.1-1.1.2-1.1.5-2.2.4-3.2-.5-2.9-2.4-4.7-5.3-5.6-1.2-.3-2.3-.4-3.5-.3-.8.1-1.6.2-2.4.5-.1 0-.2.1-.3.1-1.1.4-2 1.1-2.8 1.9v.1H24v2.7h-2.8v-2.7h-.1c-.7.8-1.1 1.7-1.4 2.7-.1.5-.2 1.1-.1 1.6 0 .4.1.7.2 1.1.1.5.2 1 .3 1.4 0 .2 0 .4-.1.6l-.3.6c-.3.9-.2 1.8.1 2.7.2.5.5 1 1 1.5.1.1.2.3.3.4 0 0 0 .1.1.1.1.2.2.4.3.7.3.9.7 1.8 1 2.7.1.2.1.3.2.5.1.3.2.7.2 1.1-.1.4-.2.8-.3 1.1l-1.3 1.8c-.4.3-.8.6-1.3.9h-.1c-.4.2-.9.4-1.3.7-.9.5-1.8.9-2.8 1.4-.4.2-.9.4-1.3.7-.5.2-.9.5-1.4.7-.9.5-1.8.9-2.8 1.4-.1 0-.2.1-.3.1-.3.1-.4.3-.5.5-.1.1-.1.3-.1.5v2.2h36.9v-2.2c-.3-.8-.4-1.1-.9-1.3zm-26.9.4h-2.8v-2.7h2.8v2.7zm8.3-2.6H24V352h2.8v2.7zm0-8H24V344h2.8v2.7zm0-8H24V336h2.8v2.7z"/>
    </g>
    <g fill="#003d83">
        <path d="M39.7 396.1c-1.3-1.5-2.8-3-4.3-4.6l-1.1 1.1H8.1c-1.9.2-3.5 1.5-4 3.2-.1.2-.1.4-.1.6v21c0 .1 0 .3.1.4.5 2.1 2.4 3.5 4.6 3.5h12.1c2.9 1.9 5.9 3.8 8.8 5.7l1.5 1v-6.7h3.4c1.9-.2 3.5-1.5 4-3.3.1-.2.1-.4.1-.6v-19.1l.9-.9c1.2-.9 1.1-.4.2-1.3zm-2.6 21.1c0 .1 0 .3-.1.4-.3 1.1-1.4 2-2.6 2.1h-5v5.3c-2.6-1.7-5.3-3.4-7.9-5.1-.2-.1-.5-.2-.7-.2H8.6c-1.5 0-2.7-.9-3-2.3 0-.1 0-.2-.1-.3v-20.5c0-.1.1-.3.1-.4.3-1.1 1.4-1.9 2.5-2h24.3c-3.7 3.7-7.3 7.3-10.8 10.9-.2.2-.1 1.1.2 1.3 1.1 1.3 2.4 2.4 3.6 3.6.5.5.9.7 1.5.1 3.3-3.4 6.7-6.7 10-10.1v17l.2.2zm6.9-25.4c0 1.2-1.5 3.6-2.6 3.9-.3.1-.8-.1-1-.4-1.3-1.2-2.5-2.4-3.7-3.7-.2-.2-.4-.7-.3-1 .4-1.3 3-2.8 4.2-2.6 1.6.3 3.4 2.2 3.4 3.8z"/>
        <path d="M17.5 414.3c1-2.5 2-5.1 3-7.6 1.6 1.7 3.2 3.2 4.8 4.9-2.3 1-4.9 2-7.4 3-.2 0-.3-.1-.4-.3z"/>
    </g>
    <path fill="#003d83" d="M35 487.8H10.3v-29.6l.5-.2h3.4c.3 0 .6.3.6.5.3 1.1 1.2 1.7 2.3 1.7h8.3c1.1 0 2-.6 2.3-1.7.1-.2.2-.5.7-.5h3.2l.1.4v2.9c0 .2 0 .4.1.5.2.8.9 1.3 1.7 1.2.8-.1 1.4-.8 1.4-1.6V457c0-1.3-1-2.3-2.4-2.3h-8.1v-.4c-.1-2.3-1.9-3.5-3.6-3.4-1.3.1-3.2 1-3.4 3.4v.4H9.3c-.8 0-1.4.4-1.7.7-.4.4-.7 1-.7 1.7v31.6c0 1.3 1 2.3 2.3 2.3h23.5c.8 0 1.5-.4 2-1.1.3-.5.3-1.1.3-1.8v-.3zm-14-35.6c1.2 0 2.2 1 2.2 2.2s-1 2.2-2.2 2.2c-.6 0-1.1-.2-1.6-.6-.4-.4-.7-1-.7-1.6.1-1.2 1.1-2.2 2.3-2.2z"/>
    <path fill="#003d83" d="M33.4 465.8c-.1 0-.1 0 0 0-2.7 0-5.1 1-7 2.8-1.8 1.8-2.8 4.2-2.8 6.7-.1 5.2 4.2 9.4 9.5 9.5 2.7 0 5.1-.9 7-2.8 1.9-1.8 2.9-4.3 2.9-6.9 0-5-4.4-9.2-9.6-9.3zm4.7 6c-1.5 3-3 5.9-4.5 8.9-.5 1-1.9 1.2-2.6.3-.9-1.2-1.8-2.3-2.8-3.5-.7-.9-.3-2.1.8-2.4.6-.2 1.2 0 1.6.5l1.2 1.5s.1.1.1.2c.5-.9.9-1.8 1.3-2.6.7-1.4 1.4-2.7 2.1-4.1.3-.6.9-.9 1.5-.9.7.1 1.2.5 1.4 1.2.1.3.1.6-.1.9zM21 462.5c-.3.2-.6.2-.9.3.3-.2.6-.5.7-.9-.3.2-.6.3-1 .4-.3-.3-.7-.5-1.2-.5-.9 0-1.6.8-1.6 1.7v.4c-1.4-.1-2.6-.8-3.4-1.8-.2.2-.2.5-.2.9 0 .6.3 1.1.7 1.4-.3 0-.5-.1-.7-.2 0 .8.6 1.5 1.3 1.7-.1 0-.3.1-.4.1H14c.2.7.8 1.2 1.5 1.2-.6.5-1.3.7-2 .7h-.4c.7.5 1.6.8 2.5.8 3 0 4.6-2.6 4.6-4.9v-.2c.4-.4.6-.7.8-1.1zm-1.7 7.8h-4.4c-.8 0-1.4.6-1.4 1.4v4.3c0 .8.6 1.4 1.4 1.4h4.4c.8 0 1.4-.6 1.4-1.4v-4.3c0-.8-.6-1.4-1.4-1.4zm.4.8h.2v1.3h-1.2v-1.2h1v-.1zm-3.6 2c.2-.3.6-.5 1-.5s.8.2 1 .5c.2.2.2.5.2.7 0 .7-.6 1.2-1.3 1.2-.7 0-1.3-.5-1.3-1.2.1-.3.2-.5.4-.7zM20 476c0 .4-.3.7-.7.7h-4.4c-.4 0-.7-.3-.7-.7v-2.9h1.1c-.1.2-.2.5-.2.7 0 1.1.9 1.9 2 1.9s2-.9 2-1.9c0-.2-.1-.5-.2-.7H20v2.9zm-1.1 5.1h-1.2v-.8c0-.3.2-.4.3-.4h.9v-1.3h-1.2c-1.4 0-1.6 1-1.6 1.6v.9h-.8v1.4h.8v3.8h1.6v-3.8h1.1l.1-1.4z"/>
    <g fill="#003d83">
        <path d="M10.4 547.2l3.4-10.1h2l3.4 10.1h-1.9l-.9-2.7H13l-.9 2.7h-1.7zm4.3-8.2l-1.3 4.2h2.7l-1.4-4.2zm10.7 1.5l.1-3.9h1.7v10.6h-1.7V546h-.1c-.4.8-1.2 1.3-2.3 1.3-1.9 0-3-1.4-3-3.7v-.6c0-2.2 1.1-3.7 3-3.7 1.1 0 1.9.5 2.3 1.2zm-3.5 2.5v.6c0 1.5.7 2.3 1.7 2.3 1.1 0 1.8-.8 1.8-2.3v-.6c0-1.4-.7-2.3-1.8-2.3-1 0-1.7.8-1.7 2.3zm10.1-3.7c1.9 0 2.9 1 2.9 2.4h-1.6c-.1-.5-.4-1.1-1.4-1.1-.8 0-1.3.4-1.3 1 0 .8 1.1 1 2 1.1 1.4.3 2.6.7 2.6 2.2 0 1.6-1.3 2.5-3.3 2.5-1.9 0-3.1-.9-3.1-2.3h1.7c.1.6.6 1 1.5 1 1 0 1.5-.5 1.5-1 0-.8-.9-.9-1.9-1.1-1.4-.3-2.6-.8-2.6-2.2-.1-1.8 1.4-2.5 3-2.5z"/>
        <path d="M41.1 525.5c-1.2-1.4-2.6-2.8-4-4.3l-.7.7c-.5-.1-1-.2-1.5-.2H10.4c-3 0-5.4 2.4-5.4 5.3v19.7c0 2.9 2.4 5.3 5.4 5.3h24.5c3 0 5.4-2.4 5.4-5.3v-19.1l.9-.9c.7-.8.7-.4-.1-1.2zm-2.4 21.2c0 2.1-1.7 3.8-3.8 3.8H10.4c-2.1 0-3.8-1.7-3.8-3.8V527c0-2.1 1.7-3.8 3.8-3.8h24.7l-4.4 4.4c-.2.2-.1 1 .2 1.2 1 1.2 2.2 2.2 3.3 3.4.5.5.9.6 1.4.1 2.5-2.5 2.5-2.5 3.1-3.2v17.6zm6.3-25.2c0 1.1-1.4 3.4-2.4 3.6-.3.1-.7-.1-.9-.3-1.2-1.1-2.3-2.3-3.4-3.4-.2-.2-.4-.7-.3-.9.4-1.2 2.8-2.6 3.9-2.4 1.5.2 3.1 1.9 3.1 3.4z"/>
        <path d="M26.6 536.2c.9-2.3 1.8-4.7 2.7-7 1.5 1.5 2.9 3 4.4 4.5-2.2.9-4.5 1.8-6.8 2.8 0-.1-.2-.2-.3-.3z"/>
    </g>
    <g fill="#003d83">
        <path d="M25.5 644c.4.1.7.2 1.1.3s.6.4.5.8c-.5 1.7-1.1 3.4-1.6 5-.1.4-.4.5-1 .3-.3-.1-.5-.3-.5-.7.2-1.7.5-3.4.7-5.1 0-.3.2-.6.4-.7.2.1.3.1.4.1zm-3.8 30.6c1.8 1.3 2.1 1.9 1.6 3.4 1.1.8 2.2 1.5 3.3 2.3.9.6.9 1.5-.1 2l-3 1.5c-.7.4-1.2.2-1.7-.4-1.4-1.7-3-3.2-5.1-4.2-.3-.1-.4-.1-.7.1-1.2.9-2.5 1.1-3.9.6-3.1-.9-5.1-3-5.9-6.2-.4-1.5 0-2.9 1.2-4.1 1.1-1.2 2.2-2.4 3.3-3.7 1.4-1.7 1.9-3.7 2-5.9 0-1.4 0-2.9.2-4.3.2-1.8 1-3.2 2.2-4.4.8-.8 1.8-.9 2.9-.8 1.9.2 3.6.9 5.2 1.9 4.9 2.9 8.7 6.9 11.3 12 .6 1.2 1.1 2.5 1.2 3.9.1 1.3-.2 2.4-1.2 3.4-1.4 1.2-3 1.8-4.7 1.9-1.5.1-3.1.1-4.6.2-1.4 0-2.5.2-3.5.8zm-5.6-20c0 .7.4 1.6.8 2.5 1.3 2.6 3.2 4.9 5.2 7 1.9 1.9 4 3.7 6.5 5 .9.5 1.9.9 3 1 1 .1 1.7-.4 1.8-1.4v-.8c-.1-1-.5-1.9-1-2.7-2.6-4.6-6.2-8.2-10.6-11-1.1-.7-2.4-1.3-3.7-1.5-1.3-.3-2 .4-2 1.9zm12.7 16.8c-6.3-3.2-11-7.9-14.1-14.2v.5c0 1 0 2-.1 3-.1 1.9-.6 3.6-1.5 5.2-.1.2-.2.5-.2.8.5 3 3.3 5.8 6.2 6.4.4.1.8 0 1.2-.2.6-.3 1.2-.6 1.8-.8 1.4-.5 2.9-.6 4.4-.6.9-.1 1.6-.1 2.3-.1zm2.7-16.2c-.2-.2-.5-.4-.6-.6-.1-.2 0-.5.1-.7l3.3-3.9c.3-.4.6-.4 1-.1.3.3.6.5.8.8.3.3.3.6 0 .8-1.3 1.1-2.7 2.3-4 3.4-.2.2-.4.2-.6.3zm4.8 6.6c-.4 0-.6-.2-.7-.7-.1-.3 0-.6.4-.7 1.7-.5 3.4-1.1 5.1-1.6.4-.1.6 0 .7.5l.3 1.2c.1.3-.1.6-.4.6-1.9.2-3.7.5-5.4.7z"/>
        <path d="M20.4 659.6c1.5-1.1 3.9-.9 5.4.5s1.7 3.8.6 5.5c-2.2-1.8-4.2-3.8-6-6z"/>
    </g>
    <path fill="none" d="M14.4 591.3l-1.3 4.2h2.6l-1.2-4.2zm8.6 1.8c-1 0-1.7.8-1.7 2.3v.6c0 1.5.7 2.3 1.7 2.3 1.1 0 1.7-.8 1.7-2.3v-.6c.1-1.4-.6-2.3-1.7-2.3z"/>
    <path fill="none" d="M31.3 612.2l.5-.5.2-.2.1-.1c-.2-.4-.3-.8-.5-1.2h-2.2v-3.7h2.2c.2-.4.3-.8.5-1.2l-.6-.6-.2-.3-.2-.2v-.1l-.5-.5.5-.5 1.5-1.5.5-.5.5.5.2.2.2.2c.2.2.4.4.6.7.4-.2.8-.3 1.1-.5V600h1.7v-10.7c0-2.1-1.7-3.8-3.7-3.8H10.2c-2 0-3.7 1.7-3.7 3.8v19.6c0 2.1 1.7 3.8 3.7 3.8h20.7l.2-.3.2-.2zm-14.4-12.6l-.8-2.7h-3.4l-.8 2.7h-1.7l3.3-10h2l3.3 10h-1.9zm9.5 0h-1.6v-1.2h-.1c-.4.8-1.2 1.3-2.2 1.3-1.9 0-2.9-1.4-2.9-3.7v-.7c0-2.2 1.1-3.7 2.9-3.7 1 0 1.8.5 2.2 1.2h.1V589h1.7v10.6h-.1zm1.6-2.2h1.6c.1.6.6 1 1.5 1 1 0 1.4-.5 1.4-1 0-.8-.9-.9-1.9-1.1-1.4-.3-2.5-.8-2.5-2.2 0-1.7 1.4-2.4 3-2.4 1.8 0 2.8 1 2.8 2.4h-1.5c0-.5-.4-1.1-1.4-1.1-.8 0-1.3.4-1.3 1 0 .8 1.1 1 1.9 1.1 1.4.3 2.5.7 2.5 2.2 0 1.6-1.2 2.5-3.1 2.5-1.8-.1-3-1-3-2.4zm9.6 8.6z"/>
    <path fill="#003d83" d="M13.5 589.5l-3.3 10h1.7l.8-2.7h3.4l.8 2.7h1.8l-3.3-10h-1.9zm-.4 6l1.3-4.2h.1l1.3 4.2h-2.7zm11.7-2.6c-.4-.7-1.2-1.2-2.2-1.2-1.8 0-2.9 1.5-2.9 3.7v.7c0 2.2 1 3.7 2.9 3.7 1 0 1.8-.5 2.2-1.3h.1v1.2h1.6V589h-1.7v3.9zm0 3.1c0 1.5-.7 2.3-1.7 2.3s-1.7-.8-1.7-2.3v-.6c0-1.5.7-2.3 1.7-2.3 1.1 0 1.8.9 1.8 2.3l-.1.6zm9.4 1.2c0-1.5-1.1-1.9-2.5-2.2-.9-.2-1.9-.3-1.9-1.1 0-.6.5-1 1.3-1 1 0 1.3.6 1.4 1.1H34c0-1.4-1-2.4-2.8-2.4-1.6 0-3 .7-3 2.4 0 1.4 1.1 1.9 2.5 2.2 1 .2 1.9.3 1.9 1.1 0 .6-.4 1-1.4 1-.9 0-1.4-.4-1.5-1H28c0 1.4 1.1 2.3 3 2.3 2 .1 3.2-.8 3.2-2.4z"/>
    <path fill="#003d83" d="M30.6 613l.3-.3H10.2c-2 0-3.7-1.7-3.7-3.8v-19.6c0-2.1 1.7-3.8 3.7-3.8h23.7c2 0 3.7 1.7 3.7 3.8V600h1.5v-10.7c0-2.9-2.3-5.3-5.2-5.3H10.2c-2.9 0-5.2 2.4-5.2 5.3v19.6c0 2.9 2.3 5.3 5.2 5.3h21.6l-.7-.7-.5-.5z"/>
    <path fill="#FFF" d="M37.6 606zm2.1 3c0 .1-.1.2-.1.3.1-.1.1-.2.1-.3zm-.4.9l-.2.2.2-.2zm.3-.4c0 .1-.1.2-.1.2s0-.1.1-.2zm-.7.8zm-2.7-3.7l.2-.2c-.1.1-.2.1-.2.2zm-.8 1.1c0-.1.1-.2.1-.3 0 .1 0 .2-.1.3zm-.1.7c0-.2 0-.3.1-.5-.1.1-.1.3-.1.5zm.6-1.5l.2-.2c-.1.1-.2.1-.2.2zm-.3.4c0-.1.1-.2.1-.2s-.1.1-.1.2zm.9-1c.1 0 .1-.1.2-.1 0 0-.1.1-.2.1zm2.2 4.1c-.1 0-.1.1-.2.1 0 0 .1 0 .2-.1zm-1.1.3h.3-.3zm0-4.7zm1.2 4.3c.1 0 .1 0 0 0 .1 0 .1 0 0 0 .1 0 .1 0 0 0zm.3-3.7c-.1-.1-.1-.1-.2-.1.1 0 .1.1.2.1zm-.8 4c-.1 0-.1.1-.2.1 0 0 .1-.1.2-.1zm-1.6-4.4c.1 0 .1 0 .2-.1 0 .1-.1.1-.2.1zm.4-.1zm-.8.3c.1 0 .1-.1.2-.1 0 .1-.1.1-.2.1zm-.3.3c.1-.1.1 0 0 0zm-.6 1.2c0-.1 0-.1 0 0zm.1-.5c0-.1.1-.1.1-.2 0 .1-.1.2-.1.2zm.2-.3c0-.1.1-.1 0 0 .1-.1.1-.1 0 0zm4 2.2c0 .1-.1.1-.1.2 0-.1 0-.1.1-.2zm-.3.4c0 .1-.1.1 0 0 0 .1 0 .1 0 0zm.4-.8c0 .1 0 .1 0 0zm-1.3 1.6c-.1 0-.1 0-.2.1 0 0 .1 0 .2-.1zm.3-.2c-.1 0-.1.1-.2.1.1 0 .2 0 .2-.1z"/>
    <g fill="#003d83">
        <path d="M87.7 684h-2.5c-.7-.1-1.5-.2-2.2-.3-7.3-1.6-12.2-6-14.4-13.2-.3-1.1-.4-2.3-.6-3.5v-2.5c.1-.5.1-.9.2-1.4 1.1-6.3 4.5-10.8 10.1-13.7.4-.2.7-.3 1.1-.5.1.2.1.3.2.4 2.2 5.4 4.5 10.7 6.7 16.1.1.3.3.4.5.5.9.4 1.8.9 2.6 1.3 3.6 1.8 7.3 3.6 10.9 5.4.8.4 1.6.8 2.5 1.2v.1c0 .1-.1.2-.1.3-2.7 4.8-6.7 7.9-12 9.2-1 .4-2 .4-3 .6z"/>
        <path d="M88.9 646c.3.1.6.1.9.2.8.1 1.6.2 2.3.4.3.1.6.2.8.2l-3.1 6.6-1.9 4-3.4-8.1-1.1-2.7 1.2-.3c.5-.1.9-.1 1.5-.2.2 0 .4-.1.6-.1h2.2m.2-2h-2.5c-.7.1-1.5.2-2.2.3-1.2.2-2.4.6-3.5 1 2.3 5.6 4.7 11.2 7 16.9 2.6-5.6 5.2-11 7.9-16.6-1.1-.4-2.1-.8-3.1-1l-3.6-.6zm18.7 17.7c-1-5.9-4.1-10.3-9.3-13.3-.3-.2-.7-.4-1.1-.6-2.6 5.5-5.2 11-7.9 16.5 5.5 2.7 11 5.4 16.5 8.2.3-.8.7-1.6 1-2.4.5-1.5.8-3 1-4.5v-2.4c-.1-.5-.1-1-.2-1.5zm-2.5-1.9c.2.6.3 1.3.5 1.9l-3.3 6.8-1.1-.6 3.9-8.1zm-5.8 7.3l-1.2-.6 5.3-10.7c.3.5.6 1 .8 1.5l-4.9 9.8zm2.7-13.2l-5.7 11.6-1.3-.6 5.9-12.1 1.1 1.1zm-5.2-.5l1.3-2.7c.4.3.9.6 1.3.9L93.4 664l-1.2-.6 4.8-10zm8 16.4l-.8-.4 1.7-3.5c-.1 1.2-.4 2.4-.8 3.6 0 0 0 .2-.1.3z"/>
    </g>
    <g fill="#003d83">
        <path d="M108 586.9c0-1.8-1.1-2.9-3-2.9H71.3c-1.6 0-3.3 1.1-3.3 3.1V616h39.9v-.5c.1-9.4.1-19.1.1-28.6zm-23.4 0c.8 0 1.5.7 1.5 1.5s-.7 1.4-1.5 1.4-1.5-.7-1.5-1.5.6-1.5 1.5-1.4zm-6 0c.8 0 1.5.6 1.5 1.4 0 .8-.7 1.5-1.5 1.5s-1.5-.6-1.5-1.4c-.1-.9.6-1.5 1.5-1.5zm-6 0c.8 0 1.5.7 1.5 1.5s-.7 1.5-1.5 1.4c-.8 0-1.5-.7-1.5-1.5s.7-1.5 1.5-1.4zm33.9 27.8H69.6v-22.8h36.9v22.8z"/>
        <path d="M86.1 595h-13v17.1h13V595zm16.9 0H88v8h15v-8zm-9 10.1h-6v7h6v-7zm3 7h6v-7h-6v7z"/>
    </g>
    <path fill="none" d="M93.1 528.6v2.4h2.4c-.7-1-1.5-1.8-2.4-2.4zm0 14.8c.9-.6 1.7-1.4 2.4-2.4h-2.4v2.4zm0-4.6h3.5c.3-.9.5-1.8.5-2.8s-.2-1.9-.5-2.8h-3.5v5.6zM72.2 527v.3c.2-.4.4-.7.6-1.1 1.4-2.1 3.2-3.9 5.3-5.3.3-.2.7-.4 1.1-.6h-.3c-3.6-.1-6.7 3-6.7 6.7zm8.4 14.1c.6.9 1.4 1.7 2.4 2.4v-2.4h-2.4zm4.6 0v3.5c.9.3 1.8.5 2.8.5s1.9-.2 2.8-.5v-3.5h-5.6zm0-7.9h5.6v5.6h-5.6zm5.6-2.3v-3.5c-.9-.3-1.8-.5-2.8-.5s-1.9.2-2.8.5v3.5h5.6zm-7.9 2.3h-3.5c-.3.9-.5 1.8-.5 2.8s.2 1.9.5 2.8h3.5v-5.6zm-10.6 11.6v.2c0 3.7 3 6.8 6.7 6.8h.2c-.4-.2-.7-.4-1.1-.6-.5-.3-1-.7-1.5-1.1-1.7-1.6-3.2-3.3-4.3-5.3zm10.6-16.2c-.9.6-1.7 1.4-2.4 2.4h2.4v-2.4z"/>
    <path fill="#003d83" d="M72.3 527.3c.2-.4.4-.7.6-1.1-.2.3-.4.7-.6 1.1zm-.4.7c.1-.3.3-.5.4-.8-.2.3-.3.6-.4.8zm31.2-1.7l.6.9-.6-.9zm.6.9c.1.3.3.5.4.8-.1-.3-.3-.5-.4-.8z"/>
    <path fill="#003d83" d="M82.7 518.8c-1.1-.5-2.4-.8-3.7-.8-5 0-9 4-9 9 0 1.3.3 2.6.8 3.7 0 .1 0 .2-.1.2h9.8c.6-.9 1.4-1.7 2.4-2.4v-9.8c0 .1-.1.1-.2.1zm-4.5 2.1c-2.1 1.4-3.9 3.2-5.3 5.3-.2.3-.4.7-.6 1.1-.1.3-.3.5-.4.8.1-.3.3-.5.4-.8v-.3c0-3.7 3-6.8 6.8-6.8h.3c-.5.3-.9.5-1.2.7zM88 527c1 0 1.9.2 2.8.5v-9.2c-.9-.1-1.9-.2-2.8-.2s-1.9.1-2.8.2v9.2c.9-.3 1.8-.5 2.8-.5zm17.2 3.7c.5-1.1.8-2.4.8-3.7 0-5-4-9-9-9-1.3 0-2.6.3-3.7.8-.1 0-.2 0-.2-.1v9.8c.9.6 1.7 1.4 2.4 2.4h9.8c0-.1 0-.2-.1-.2zm-4.9-7.7c-.8-.7-1.6-1.4-2.6-2-.3-.2-.7-.4-1.1-.6h.2c3.6 0 6.6 2.8 6.7 6.4-.1-.2-.3-.3-.4-.5-.8-1.2-1.7-2.3-2.8-3.3zm-27.4 3.2zm31.2 17.8c-.1.3-.3.5-.4.8.2-.3.3-.6.4-.8zm-27.4 6c-1.8-1.4-3.3-3.2-4.4-5.2 1.1 2 2.6 3.7 4.4 5.2zm-4.4-5.2c-.1-.3-.3-.5-.4-.8.1.3.3.5.4.8zm33.5-11.6h-9.2c.3.9.5 1.8.5 2.8s-.2 1.9-.5 2.8h9.2c.1-.9.2-1.9.2-2.8 0-1-.1-1.9-.2-2.8zM88 545c-1 0-1.9-.2-2.8-.5v9.2c.9.1 1.9.2 2.8.2s1.9-.1 2.8-.2v-9.2c-.9.3-1.8.5-2.8.5z"/>
    <path fill="#003d83" d="M105 541.2h-9.7c-.5.8-1.3 1.6-2.2 2.2v9.8h.3c1 .4 2.2.7 3.5.7 5 0 9-4 9-9-.1-1.3-.4-2.6-.9-3.7zm-1.5 3.7c0 3.7-3 6.8-6.8 6.8h-.1c.4-.2.7-.4 1.1-.6 2.1-1.4 3.9-3.2 5.3-5.3.2-.3.3-.6.5-.9zm-22.9-3.8h-9.8c0 .1 0 .2.1.2-.5 1.1-.8 2.4-.8 3.7 0 5 4 9 9 9 1.3 0 2.6-.3 3.7-.8.1 0 .2 0 .2.1v-9.8c-1-.7-1.8-1.5-2.4-2.4zM79 551.8c-3.7 0-6.8-3-6.7-6.8v-.2c-.1-.3-.3-.5-.4-.8.1.3.3.5.4.8 1.1 2 2.6 3.7 4.4 5.2.5.4 1 .8 1.5 1.1.3.2.7.4 1.1.6-.1 0-.2.1-.3.1zm.5-18.6h-9.2c-.1.9-.2 1.9-.2 2.8 0 1 .1 1.9.2 2.8h9.2c-.3-.9-.5-1.8-.5-2.8s.2-1.9.5-2.8z"/>
    <path fill="#003d83" d="M76.7 550c.5.4 1 .8 1.5 1.1-.5-.4-1-.7-1.5-1.1z"/>
    <g fill="#003d83">
        <path d="M105.7 459.6l-.1-.7c0-.5-.3-.8-.8-.9-1.8-.7-3.6-1.3-5.5-2l-10.9-3.9c-.1 0-.1-.1-.2-.1h-.5l-1.1.4c-.8.3-1.7.6-2.5.9-4.3 1.5-8.6 3.1-12.9 4.6-.5.2-.8.5-.9 1.1-.4 3.8-.5 7.2-.2 10.3.3 3.7 1 6.8 2.1 9.7 1.8 4.6 4.5 7.9 8.2 10.3 2.2 1.4 4.5 2.3 6.9 2.6.1 0 .1 0 .2.1h.9c.2 0 .3-.1.5-.1.4-.1.8-.1 1.1-.2 5.2-1.3 9.2-4.4 12-9.2 1.6-2.7 2.7-5.9 3.3-9.6.6-3.7.7-7.7.3-12.2.1-.4.1-.8.1-1.1zm-3.4 17.4c-1.2 3.7-3 6.5-5.4 8.8-2.5 2.3-5.4 3.7-8.6 4.2h-.4c-.5 0-1-.1-1.5-.2-4.4-1.2-7.9-3.8-10.4-7.8-1.6-2.5-2.6-5.4-3.3-8.8-.7-3.7-.8-7.7-.4-12.5.1-.7.3-1 1-1.3 3-1.1 6-2.1 9-3.2 1.8-.6 3.6-1.3 5.4-1.9.2-.1.5-.1.8 0 3.3 1.2 6.6 2.4 9.9 3.5l4.8 1.7c.3.1.5.2.6.7.1 1.3.1 2.7.2 3.6v.8c-.1 5.2-.5 8.9-1.7 12.4z"/>
        <path d="M82.4 471.2v-.2c0-1.1 0-2.3.1-3.4.1-1.5.7-2.7 1.8-3.7 1.6-1.4 3.5-1.9 5.5-1.1 2 .7 3.3 2.2 3.6 4.3.1.6.1 1.3.1 1.9v2.2c.2.1.4.1.6.2.3.2.4.4.4.7v7.6c0 1-.8 1.7-1.8 1.7h-9.4c-.9 0-1.6-.5-1.8-1.3 0-.2-.1-.4-.1-.5v-7.3c.1-.7.3-.9 1-1.1zm9.4.1v-3.9c-.4-2.5-3-3.9-5.3-2.9-1.5.7-2.3 1.8-2.3 3.4v3.3c2.5.1 5.1.1 7.6.1zm-2.6 7.2v-.3c-.1-.7-.3-1.5-.4-2.2 0-.1 0-.2.1-.2.4-.5.4-1.1-.1-1.5-.4-.4-1.1-.4-1.5 0s-.5 1-.1 1.5c0 .1.1.1.1.2-.1.5-.2 1.1-.3 1.6-.1.3-.1.6-.2.9h2.4z"/>
    </g>
    <path fill="#003d83" d="M100.5 392.1l-12 11.9-4.4-4.4-14 14 1.6 1.6 12.5-12.5 4.5 4.5 13.5-13.5 2 2 1.9-7.6v-.1l-7.8 1.9 2.2 2.2zm.5 12.7h3.6V428H101zm-9.2 5h3.6V428h-3.6z"/>
    <path fill="#FFF" d="M89.8 408.6l.8-.8h-.8z"/>
    <path fill="#003d83" d="M82.2 414.9h3.6V428h-3.6zm-9.2 5h3.6v8.1H73z"/>
    <path fill="none" d="M92.7 343.9c0-.1 0-.1 0 0-.2.2-.3.5-.5.8-1.7-.7-3.3-.5-4.7.8-.4.4-.7.7-.9 1.1h2.8c1.6 0 3-1.2 3.3-2.7zm-1.7-1.5c.2 0 .3 0 .4-.2.2-.3.5-.6.8-.8-.4-.6-.9-1.1-1.6-1.4-.3-.1-.6-.2-1-.3.5-1.8.2-3.4-1.2-4.7-1.4-1.3-3-1.5-4.7-.8-1.3-2.9-4.2-3.8-6.4-3.1-1.1.4-2.1 1-2.8 2-1 1.4-1.2 2.9-.8 4.6-.1 0-.2 0-.3.1-2.2.3-3.8 2.4-3.6 4.7.1 2.2 2 4.1 4.2 4.1h10.4c1.1-2.7 3.8-4.5 6.6-4.2z"/>
    <path fill="none" d="M94.5 344.5c-.5 2.1-2.3 3.7-4.4 4h-4c0 .5.1 1 .2 1.6-.3.1-.7.2-1 .3-1.5.6-2.3 2.2-2 3.9.3 1.6 1.7 2.8 3.2 2.8h15.3c2.2 0 4.1-1.8 4.2-4.1.2-2.3-1.4-4.4-3.6-4.7-.1 0-.2 0-.3-.1.4-1.7.2-3.2-.8-4.6-.7-1-1.6-1.7-2.8-2-1.2-.4-2.7-.3-4 .5.2.8.2 1.6 0 2.4z"/>
    <path fill="#003d83" d="M104.5 346.9c-.2-.1-.3-.2-.3-.5-.1-3.6-2.9-6.6-6.3-7-1.5-.1-2.9.1-4 .8-.3-.5-.8-1-1.3-1.4s-.7-.7-.7-1.3c-.3-3.4-3.5-6-6.8-5.5-.2 0-.3 0-.4-.2-1.7-2.1-3.8-3-6.4-2.7-3.5.3-6.2 3.4-6.3 7 0 .2-.1.4-.3.5-2.6 1.3-4 4.3-3.4 7.2.6 2.9 3.1 4.9 6 4.9h10c-.1.3-.3.5-.6.7-1.8 1.2-2.6 3.5-2 5.7.5 2.1 2.3 3.7 4.4 4H102c2.9 0 5.3-2 6-4.9.5-3-.9-6-3.5-7.3zm-30.4-.3c-2.2 0-4.1-1.8-4.2-4.1-.2-2.3 1.4-4.4 3.6-4.7.1 0 .2 0 .3-.1-.4-1.7-.2-3.2.8-4.6.7-1 1.6-1.7 2.8-2 2.2-.7 5.1.2 6.4 3.1 1.7-.7 3.3-.5 4.7.8 1.4 1.3 1.7 2.9 1.2 4.7.3.1.7.2 1 .3.7.3 1.2.8 1.6 1.4l-.8.8c-.1.2-.2.2-.4.2-2.8-.4-5.6 1.5-6.5 4.2H74.1zm27.8 10.4H86.6c-1.6 0-3-1.2-3.2-2.8-.3-1.7.5-3.3 2-3.9.3-.1.6-.2 1-.3-.2-.6-.2-1.1-.2-1.6 0-.7.2-1.3.5-1.9.2-.4.5-.8.9-1.1 1.4-1.3 3-1.5 4.7-.8.1-.3.3-.6.5-.9.5-.8 1.1-1.3 1.8-1.7 1.3-.7 2.8-.9 4-.5 1.1.4 2.1 1 2.8 2 1 1.4 1.2 2.9.8 4.6.1 0 .2 0 .3.1 2.2.3 3.8 2.4 3.6 4.7-.1 2.3-2 4.1-4.2 4.1z"/>
    <path fill="#003d83" d="M80.4 355.3c0 .1-.1.1 0 0-1 1-1.9 2-2.8 2.9l-.1.1v-2.2h-5.8v-1.5h5.8v-2.2l.1.1 2.8 2.8c-.1 0 0 0 0 0z"/>
    <path fill="#003d83" d="M71.7 350.2h1.5v5.2h-1.5zm20.8-17.3s0-.1 0 0c1-1 1.9-2 2.8-2.9l.1-.1v2.2h5.8v1.5h-5.8v2.2l-.1-.1c-.9-.8-1.8-1.8-2.8-2.8z"/>
    <path fill="#003d83" d="M99.7 332.8h1.5v5.2h-1.5z"/>
    <g fill="#003d83">
        <path d="M68 293.2v-3.5c.3-.7.6-1.4.8-2.1.9-6.5 1.8-13.1 2.7-19.7.5-3.5 2.9-5.8 6.4-5.8 6.8-.1 13.7 0 20.5 0 3 0 5.6 2.3 6 5.2.8 5.7 1.6 11.4 2.3 17.2.2 1.2.2 2.5.7 3.6.8 2 .8 4 .3 5.9-.7 2.5-3 4-5.9 4H73.5c-1.7 0-3.2-.8-4.2-2.2-.6-.8-.9-1.7-1.3-2.6zm37.2-7.4c0-.4 0-.6-.1-.9-.8-5.7-1.5-11.3-2.3-17-.3-2.5-2.2-4.2-4.8-4.2H78c-2.6 0-4.5 1.7-4.8 4.2-.5 4-1.1 8-1.7 12.1-.3 1.9-.5 3.8-.8 5.9 1.5-1 3.1-.9 4.6-.9h25.4c1.5-.1 3-.1 4.5.8zm-17.2.8H74.1c-2.2 0-3.9 1.2-4.3 3.1-.2.7-.1 1.5-.1 2.2 0 2.8 1.7 4.5 4.6 4.5H102c2.1 0 3.8-1.3 4.2-3.2.1-.7.1-1.4.1-2.1 0-3-1.6-4.6-4.7-4.6-4.5.1-9.1.1-13.6.1z"/>
        <path d="M92.8 269.4c-.1.9-.1 1.6-.2 2.3 0 .6-.3 1-.9.9s-.8-.5-.7-1c.1-1.2.2-2.5.3-3.7.1-.6.4-1 1.1-.9 1.3.1 2.6.2 4 .3.5 0 .8.4.8.9s-.4.8-.9.7c-.5 0-1-.1-1.4-.1.5 1.3 1.1 2.4 1.3 3.7.6 3.3-.6 6.1-3.4 8-2.9 2-5.9 2.1-9 .4-2.9-1.7-4.3-4.3-4.1-7.6.1-1.9.8-3.5 2.1-4.9.4-.4.8-.8 1.4-.3.4.3.4.8-.2 1.4-1.9 2.1-2.3 5.1-.9 7.5 1.3 2.4 4 3.7 6.9 3.3 2.6-.3 4.9-2.4 5.5-5.1.4-2.1-.1-4-1.7-5.8zm8.1 19.6c1.4 0 2.5 1.1 2.5 2.4 0 1.4-1.2 2.5-2.5 2.5-1.4 0-2.5-1.1-2.4-2.5-.1-1.3 1-2.4 2.4-2.4zm.9 2.6v-.3c-.3-.2-.6-.5-1-.6-.5 0-.9.4-.7.8.1.3.5.7.8.7.3 0 .6-.4.9-.6z"/>
    </g>
    <path fill="#003d83" d="M88.6 234h-1.2c-.1-.1-.2-.1-.4-.2-3-.8-5.7-2.2-7.8-4.6-.9-1-1.6-2.2-2.5-3.3-1.5.4-3 1.2-4 2.6-.8 1.1-1.2 2.4-1.4 3.7-.1.6-.3 1-1 .9-.6-.1-.8-.5-.7-1 .3-2.3 1-4.4 2.8-5.8 1.1-.9 2.4-1.5 3.6-2.3-.2-1-.5-2.1-.7-3.3-.1-.5-.2-.7-.7-.7h-5.3c-.5 0-.9-.3-1.3-.5v-.8c.4-.2.9-.4 1.3-.5 1.5-.1 3 0 4.5 0h1.4v-5c-.4-.1-.8-.3-1.1-.5-2.6-1.3-4.3-3.3-4.5-6.4 0-.6 0-1.2.8-1.2.7 0 .9.5.9 1.1 0 2.3 1.8 4.4 4.2 5.1.4-.7.7-1.6 1.3-2 1.2-.8 1.7-1.8 1.9-3.3.3-1.9 1.7-3 3.4-3.8.3-.1.6-.4.7-.7.6-1.7 1.7-2.8 3.3-3.5.3-.1.6-.3 1-.4h2.2c.2.1.4.2.7.3 1.7.6 2.8 1.7 3.5 3.4.2.4.5.7.8.9 1.6.9 3 2 3.3 3.9.2 1.5.6 2.5 1.8 3.3.6.4.8 1.2 1.2 1.9 2.5-.8 4.3-2.9 4.3-5.2 0-.2 0-.4.1-.5.3-.2.6-.6.9-.6.2 0 .6.4.7.7s.1.6 0 .9c-.5 3.2-2.4 5.1-5.2 6.2-.2.1-.6.3-.6.5 0 1.5.1 3 .2 4.6h5.8c.5 0 .9.3 1.3.5v.8c-.4.2-.9.4-1.3.5-1.8.1-3.5 0-5.3 0-.3 0-.6 0-.7.5-.2 1.2-.5 2.4-.7 3.6.2.1.5.2.7.3 3.5 1.2 5.3 3.9 5.8 7.5 0 .3-.1.8-.4 1-.2.2-.7.2-.9 0-.2-.2-.4-.6-.4-.9-.5-3.3-2.7-5.7-5.6-6.1-1.7 3.4-4.5 5.8-8 7.2-1 .6-1.8.9-2.7 1.2zm-9.9-23.6c-1 .5-1.5 1.4-1.6 2.7-.1 2.1-.3 4.1-.1 6.2.3 5.6 2.9 9.7 7.9 12 .7.3 1.4.5 2.2.8v-17.5c-1.7-.3-3.3-.5-4.9-.9-1.6-.5-2.9-1.6-3.5-3.3zm10.2 4.1v17.6c.5-.2 1-.3 1.4-.4 3.7-1.5 6.5-3.9 7.9-7.8 1.3-3.7 1.2-7.5.6-11.3-.1-.9-.6-1.6-1.4-2.1-.9 2.4-2.9 3.3-5.2 3.7-1.1 0-2.2.1-3.3.3zm-.9-1.6c1.8-.3 3.6-.5 5.3-.9 1.6-.3 2.4-1.5 2.6-3.1.3-1.8-.2-3.2-1.7-4.2-1.2-.9-2.6-1.4-4.1-1.6-3-.4-5.9-.2-8.4 1.6-1.4 1-1.8 2.4-1.6 4.1.2 1.6 1 2.7 2.5 3.1 1.8.5 3.6.7 5.4 1zm3.2-11.5c-.9-1.3-2.2-1.8-3.7-1.6-1.1.1-2.3.9-2.5 1.6h6.2z"/>
    <path fill="none" d="M99 163.3zm-29-7.1z"/>
    <path fill="#FFF" d="M74.1 160.3H87 74.1zm27.9 0c.7 0 1.4-.1 2-.5-.7.4-1.3.5-2 .5z"/>
    <path fill="#003d83" d="M99 163.3zm8.7-9.3c0 .2 0 .5.1.7l-.1-.7zm-6.7 11.2v-.4.4zm-2 2h-.2.2zm-.4-.1c-.1 0-.2 0-.2-.1.1.1.2.1.2.1zm-1.2-.8c0-.1-.1-.1-.1-.2 0 .1 0 .2.1.2zm3.3-2.2c0 .1.1.1.1.2 0 0-.1-.1-.1-.2zm-1.3-.8c.1 0 .1 0 .2.1 0 0-.1-.1-.2-.1zm1.1.5s.1.1.1.2c-.1-.1-.1-.1-.1-.2zm-.7-.4c.1 0 .1.1.2.1-.1 0-.1 0-.2-.1zm.4.2l.1.1c-.1 0-.1-.1-.1-.1zm-3 2.4c0-.1 0-.1-.1-.2.1.1.1.1.1.2zm.7.8c-.1 0-.1-.1-.2-.2.1.1.1.2.2.2zm1.4-3.5h-.2.2zm-1.7 3.3c-.1-.1-.1-.1-.1-.2 0 .1.1.2.1.2zm3.3-2.1c0 .1.1.2.1.3-.1-.2-.1-.2-.1-.3zm-2.6 2.5c-.1 0-.1-.1-.2-.1 0 .1.1.1.2.1zm2.7-1.4c-.1.3-.2.5-.3.7.1-.2.3-.4.3-.7zm5.9-10v-.1z"/>
    <path fill="#003d83" d="M108 157.1v-.8c0-.3-.1-.5-.1-.8v-.3c0-.2-.1-.3-.1-.5s-.1-.4-.1-.7c-.1-.6-.2-1.3-.3-1.9l-.2-1.3-.4-2.4-.3-1.9-.2-1.1-.5-3.2-.2-1.1c-.2-1-.3-2.1-.5-3.1-.2-1.2-.8-2.3-1.6-3.2-1-1.1-2.3-1.7-3.8-1.8H92v2h7.2c1 .1 1.8.5 2.5 1.2.6.6 1 1.4 1.2 2.2.3 1.4.5 2.8.7 4.2s.5 2.9.7 4.3c.2 1.4.5 2.9.7 4.3.2 1.3.4 2.5.7 3.8l-.7.3c-.3.1-.9.6-1.1 1.5-.1.5-.4.9-.8 1.2s-.8.4-1.3.4H73.6c-.9-.1-1.6-.8-1.8-1.6v-.3l-1.9.2v-.3c.2-1.4.5-2.7.7-4.1.2-1.4.5-2.9.7-4.3.2-1.4.5-2.9.7-4.3.3-1.5.5-3 .8-4.5.1-.7.2-1.3.6-1.9.8-1.4 2-2.2 3.6-2.2h6.9v-1.9H77c-2.3 0-4.2 1.1-5.3 3.2-.5.9-.7 1.8-.8 2.5-.2 1.1-.4 2.1-.5 3.2l-.2 1.3-.4 2.2-.4 2.1-.2.9-.6 3.4-.7 4v.1l-.1.2v10.9l.1.3c0 .2.1.3.1.5.5 1.8 1.8 3.1 3.5 3.8.7.3 1.4.4 2.3.4h27.9c1.8 0 3.5-.7 4.6-2.1.9-1 1.4-2.3 1.4-3.8v-6.8l.3-2.4zm-1.9 2.2v6.9c0 .9-.3 1.8-.9 2.5-.8.9-1.9 1.4-3.1 1.4H74.2c-.5 0-1-.1-1.5-.3-1.2-.5-2-1.4-2.4-2.6-.1-.2-.1-.4-.1-.6v-9.9c0 .1 0 .3.1.4.3 1.7 1.8 3 3.5 3.2h28.3c.7 0 1.4-.1 2-.5.2-.1.4-.2.6-.4.8-.6 1.3-1.4 1.5-2.4 0-.1 0-.1.1-.1v.1c-.2.8-.2 1.6-.2 2.3zm.8-3.7v-.1.1zM87 160.3h14.9H87zm-4.5-13.4h-2.3 2.3zm13.3 0h-2.2 2.2z"/>
    <path fill="#003d83" d="M95.7 147h-4.6c-.1 0-.1 0-.1-.2V134l-.9.1v12.7c0 .1 0 .5.3.8-.3-.3-.3-.7-.3-.8v-12.7l.9-.1v-2h-6v14.8c0 .1 0 .2-.2.2h-4.9s0 .1.1.1c2.6 2.5 5.2 5.1 7.8 7.6l.1.1s.1 0 .1-.1c2.6-2.5 5.2-5.1 7.7-7.7.1.1.2.1.2 0h-.2zM87 135v-.2.2z"/>
    <path fill="#FFF" d="M82.5 146.9h2.4-2.4zm11.1 0h-2.4 2.4z"/>
    <path fill="#003d83" d="M99 163.3h-.4.4zm1.3.4c.1 0 .1.1.2.1-.1 0-.2 0-.2-.1zm-2.7.2c.3-.3.6-.5 1-.5-.4 0-.7.2-1 .5zm-.3 2.2c0-.1-.1-.1-.1-.2 0 .1.1.2.1.2zm2.7-2.6c.1 0 .1.1.2.1-.1 0-.2-.1-.2-.1zm.6.5l.1.1-.1-.1zm-1.8 3.2h-.2c.1 0 .2-.1.2 0zm.5-3.9h.2-.2zm.3.1c.1 0 .1 0 .2.1 0-.1-.1-.1-.2-.1zm-1.9 3.3s0-.1 0 0c0-.1 0 0 0 0zm3.1-2.4l.1.1s-.1 0-.1-.1zm-3.3 2.1l-.1-.1c0 .1 0 .1.1.1zm3.5-1.7c0 .1 0 .1 0 0 0 .1 0 .1 0 0zm-2.6 2.4c-.1-.1 0 0 0 0zm-1.2-2.6c-.1.2-.2.5-.2.8 0 .2 0 .4.1.6-.1-.2-.1-.4-.1-.6 0-.3.1-.6.2-.8zm.9 2.4s-.1 0-.1-.1c0 .1 0 .1.1.1zm.9-2.7c-.6 0-1 .5-1 1 0 .6.5 1 1 1 .3 0 .5-.1.7-.3s.3-.4.3-.7c.1-.5-.4-1-1-1v-1 1z"/>
    <path fill="#003d83" d="M101 164.7c0-.1-.1-.2-.1-.3 0 0 0-.1-.1-.1 0-.1-.1-.1-.1-.2l-.1-.1c0-.1-.1-.1-.1-.2 0 0-.1-.1-.2-.1l-.1-.1c-.1 0-.1-.1-.2-.1s-.1-.1-.2-.1-.1 0-.2-.1c-.1 0-.1 0-.2-.1H99v1c.6 0 1 .4 1 1 0 .3-.1.5-.3.7-.2.2-.4.3-.7.3-.6 0-1-.4-1-1 0-.5.5-1 1-1v-1h-.4c-.4.1-.7.3-1 .5-.2.2-.3.4-.4.6-.1.2-.2.5-.2.8 0 .2 0 .4.1.6 0 .1 0 .1.1.2 0 .1.1.1.1.2s.1.1.1.2l.1.1c0 .1.1.1.1.2l.1.1.2.2.1.1c.1 0 .1.1.2.1h.1c.1 0 .2.1.2.1h.4c.7 0 1.3-.3 1.7-.9.1-.2.2-.4.3-.7v-.4c.1-.1.1-.2.1-.5 0 .1 0 .1 0 0z"/>
    <g fill="#003d83">
        <path d="M108 71.6v32.8c0 .1-.1.1-.1.2-.4 1.7-1.5 2.8-3.2 3.3-.1 0-.2.1-.4.1H71.5c-.1 0-.2-.1-.3-.1-1.6-.4-2.6-1.3-3.2-2.8-.1-.2-.1-.4-.2-.7V71.6c0-.1.1-.1.1-.2.4-1.6 1.3-2.6 2.8-3.2.2-.1.5-.1.7-.2h32.8c.1 0 .2.1.3.1 1.6.4 2.6 1.3 3.2 2.9.2.1.2.4.3.6zM69.7 88v15.4c0 .4 0 .8.1 1.1.3 1.2 1.3 1.8 2.6 1.8h31.2c1.3 0 2.2-.7 2.6-1.8.1-.3.1-.7.1-1.1v-31c0-1.1-.4-2-1.5-2.5-.4-.2-1-.2-1.4-.2H72.3c-1.6 0-2.7 1.1-2.7 2.7.1 5.1.1 10.4.1 15.6z"/>
        <path d="M77.2 75.5v-1.6c0-.6.3-1 .8-1s.8.4.8 1v1.6c1.4.3 2.6 1 3.4 2.3.6.9.8 1.9.8 3-.1 2-1.5 4-4.2 4.6v16.8c0 .5-.4.9-.8.9-.5 0-.8-.3-.8-.8V85.6c-2.6-.7-4.2-2.4-4.1-5.2 0-2.7 1.6-4.2 4.1-4.9zm.8 8.3c1.9 0 3.4-1.5 3.4-3.3 0-2.1-1.8-3.4-3.4-3.3-1.8.1-3.3 1.5-3.2 3.3-.1 1.8 1.4 3.3 3.2 3.3zm19.2 6.7c-3-1.1-4.2-2.7-4.2-5.2 0-1.8 1.3-4.1 4.2-4.8V74c0-.2 0-.4.1-.5.1-.4.4-.5.8-.5s.6.2.8.6c.1.2.1.4.1.5v6.4c2.9 1 4.2 2.6 4.2 5.1 0 2.3-1.4 4-4.2 4.9v11.7c-.1.4-.4.7-.8.7s-.8-.3-.8-.7V90.9c-.2-.1-.2-.3-.2-.4zm.8-1.7c1.8 0 3.3-1.5 3.3-3.3 0-2.1-1.7-3.4-3.4-3.3-1.7.1-3.2 1.5-3.2 3.3-.1 1.8 1.4 3.3 3.3 3.3zm-9.2 1.7c2.7.9 4.1 2.5 4.2 4.9 0 2.4-1.3 4-4.2 5.1v1.5c0 .6-.3 1-.8 1s-.8-.4-.9-1v-1.5c-2.7-.7-4.3-2.4-4.1-5.3.1-2.5 1.7-4 4.1-4.7V74c0-.6.3-.9.8-.9s.9.4.9 1v16.4zm-.8 8.3c1.9 0 3.4-1.5 3.4-3.3 0-2.1-1.7-3.4-3.4-3.3-1.7.1-3.2 1.6-3.2 3.4-.1 1.7 1.4 3.2 3.2 3.2z"/>
    </g>
    <path fill="#003d83" d="M70.7 13.5c0-1.8 1.4-2.7 2.7-2.7h23.1l1.7-1.7H71.8C70.4 9 69 10 69 11.8V37h1.7V13.5z"/>
    <path fill="#FFF" d="M106 39.3V15.5v23.8z"/>
    <path fill="#003d83" d="M104.4 17l-1.7 1.7-.5.5h2.6V39H73.7V19.2c5.4.1 10.9.1 16.3.1.2-.9.4-1.9.8-2.9l4-4H75.1c-1.3 0-2.7.9-2.7 2.7v25.2H106V15.5l-1.6 1.5zm-18.2-2.1c.7 0 1.3.6 1.3 1.3s-.6 1.3-1.3 1.3-1.3-.6-1.3-1.3.6-1.3 1.3-1.3zm-5 0c.7 0 1.3.5 1.3 1.3 0 .7-.6 1.3-1.3 1.3s-1.3-.5-1.3-1.3c0-.7.6-1.3 1.3-1.3zm-5 0c.7 0 1.3.6 1.3 1.3s-.6 1.3-1.3 1.3-1.3-.6-1.3-1.3.5-1.3 1.3-1.3z"/>
    <path fill="#003d83" d="M76 37h11V22H76v15z"/>
    <path fill="#FFF" d="M89.1 21.9v1l.3-1h-.3z"/>
    <path fill="#003d83" d="M93 25l-4 1.1v2.8h13.1v-6.8h-2.6l-1.7 1.7c-2 .5-2.8.5-4.8 1.2zm-4 12h6v-6h-6v6zm7 0h6v-6h-6v6zm8.7-23.4c-.1-.1-.2-.3-.4-.4-.2-.3-.4-.5-.7-.8-.3-.4-.7-.7-1-1.1l-.6-.6c-.5-.5-1.1-1.1-1.6-1.7l-.1-.1-.1.1c-.7.7-1.3 1.2-1.7 1.7l-1.7 1.7-3.5 3.5c-.2.2-.1 1.1.2 1.4.6.7 1.3 1.4 2 2 .6.5 1.1 1.1 1.7 1.7.5.4.9.5 1.5 0l1.7-1.7 2.3-2.3 1.7-1.7.4-.4c.8-.9.8-.4-.1-1.3zm.8-8.3c-1.2-.2-3.9 1.4-4.3 2.7-.1.3.1.8.4 1 1.2 1.3 2.5 2.5 3.8 3.8.3.2.7.5 1 .4 1.1-.3 2.7-2.7 2.7-4-.1-1.6-1.9-3.6-3.6-3.9zm-8.9 16.6c-.8-.9-1.7-1.7-2.5-2.5-.7-.7-1.4-1.3-2-2-.3.7-.5 1.4-.7 2-.3.9-.5 1.7-.8 2.5-.2.8-.5 1.6-.9 2.5l.4.4c2.6-1.1 4.5-1.5 6.9-2.5l-.4-.4z"/>
    <g fill="#003d83">
        <path d="M44 20.7c-1 .9-2.1 1.8-3.1 2.7-.3.3-.5.2-.7-.1-.3-.4-.7-.7-1.1-1.1-.2-.2-.3-.2-.5 0-.4.4-.8.8-1.2 1.1-.4.4-.5.4-.8 0-.4-.4-.8-.7-1.1-1.1-.2-.2-.4-.2-.6 0l-1.2 1.2c-.3.2-.5.3-.7 0-.3-.4-.7-.7-1-1.1-.2-.2-.4-.3-.6 0l-1.2 1.2c-.2.2-.4.2-.6 0-.4-.4-.9-.8-1.3-1.2-.2-.2-.3-.2-.5 0-.4.3-.8.6-1.2 1-.3.4-.7.5-1.2.4-.3 0-.5.1-.6.4-2.5 5-9.3 5.6-12.6 1.1-3.5-4.6-.8-11.4 4.8-12.3 3.2-.5 6.4 1.2 7.8 4.2.2.3.3.4.7.4h15c.3 0 .6.1.9.3 1 .9 2 1.7 3 2.5-.4 0-.4.2-.4.4zm-26.6-.3c0-1.5-1.1-2.6-2.5-2.5-1.3 0-2.4 1.2-2.4 2.5 0 1.4 1.1 2.6 2.5 2.5 1.4.1 2.4-1.1 2.4-2.5z"/>
        <path d="M4 19.1c.2-.9.3-1.8.5-2.6 1.6-5.4 5.2-8.8 10.5-10 4.3-1 8.2.1 11.6 2.8 2 1.6 3.4 3.7 4.3 6.1 0 .1.1.2.1.5h-1.3c-.7.1-1.1-.2-1.5-.9-1.9-3.7-4.9-5.9-9-6.4-6.2-.8-11.9 3.6-12.9 9.9-.6 3.8.4 7.3 3 10.1 2 2.2 4.5 3.5 7.5 3.8 4.9.5 9.6-2.3 11.7-6.9.1-.3.2-.4.5-.4h2c-.1.4-.2.7-.3.9-1.9 4.3-5.1 7.1-9.6 8.3-4 1-7.7.3-11.1-2.1-2.8-2-4.7-4.7-5.6-8-.2-.8-.3-1.6-.5-2.4.1-1 .1-1.9.1-2.7zm35.2 21.2c0 .7-.5 1.4-1.4 1.8-.9.4-1.7.2-2.4-.4-2.1-2.1-4.2-4.2-6.2-6.4-.9-.9-.8-2.3 0-3.2.9-.9 2.3-.9 3.1 0 2.1 2.1 4.1 4.2 6.2 6.3.6.5.8 1 .7 1.9zm-9.3-9.8c-.1.2-.2.4-.3.5-.4.5-.9.9-1.3 1.4-.3.3-.7.3-.9 0-.3-.3-.3-.6 0-.9.5-.5.9-1 1.4-1.4.2-.1.5-.2.7-.1.1 0 .3.3.4.5z"/>
    </g>
    <path fill="#003d83" d="M44.1 607.2h-.8c-.2 0-.3-.1-.3-.3-.2-.5-.3-1-.6-1.4-.2-.3-.2-.3.1-.6.4-.4.8-.8 1.2-1.1l-1.5-1.5-.3.3-1 1c-.1.1-.1.1-.2.1h-.2c-.6-.3-1.1-.5-1.7-.7-.2-.1-.3-.1-.3-.3v-1.8h-2.1v1.8c0 .2-.1.3-.2.3-.6.2-1.1.4-1.6.7-.1 0-.2.1-.2.1-.1 0-.1 0-.2-.1l-1.1-1.1c-.1-.1-.2-.1-.2-.2l-1.4 1.4c.1.1.1.2.2.2l1 1c.2.2.2.3.1.4-.3.5-.4 1-.7 1.5-.1.3-.2.3-.3.3H30v2.1h1.8c.3 0 .3.1.3.3.2.4.3.9.5 1.3.3.5.3.3-.1.8l-.3.3-.8.8c.5.5 1 1 1.4 1.5.1-.1.2-.1.2-.2.3-.3.8-.7 1.1-1.1.1-.1.2-.1.3-.1s.2 0 .3.1c.4.3.9.4 1.4.6.6.2.4.1.5.6v1.6h2.1V614c0-.2.1-.3.3-.3.5-.2 1-.3 1.5-.6.2-.1.3-.2.3-.2l.3.3c.4.4.8.8 1.1 1.2l1.5-1.5-.3-.3-1.1-1.1c-.1-.1-.1-.3-.1-.3.3-.5.6-1.1.7-1.7 0-.2.1-.2.3-.2h1.9v-2.1h-1zm-4.3 1.6c0 .1 0 .1-.1.2 0 .1-.1.2-.1.3s-.1.1-.1.2-.1.2-.2.3c0 .1-.1.1-.1.2-.1.1-.1.2-.2.2 0-.2 0-.2-.1-.2l-.2.2c-.1 0-.1.1-.2.1s-.2.1-.3.1-.1 0-.2.1c-.1 0-.2.1-.3.1h-.6c-1.3 0-2.3-1.1-2.3-2.4 0-.2 0-.3.1-.4 0-.1 0-.1.1-.2 0-.1.1-.2.1-.3s.1-.1.1-.2.1-.2.2-.3c0-.1.1-.1.1-.2.1-.1.1-.2.2-.2.1-.1.1-.1.2-.1l.2-.2c.1 0 .1-.1.2-.1s.2-.1.3-.1.2 0 .2-.1c.1 0 .2-.1.3-.1h.5c1.3 0 2.3 1.1 2.3 2.4-.1.4-.1.5-.1.7zM159.4 44H132v-2.9c0-2.2 1.8-4 4-4h19.4c2.2 0 4 1.8 4 4V44zm-21.7-11.5h1.1v4.6h-1.1zm14.9 0h1.1v4.6h-1.1z"/>
    <path fill="none" stroke="#003d83" stroke-miterlimit="10" d="M162.2 15.2l3.8 4.4c.6 1.1 2 1.5 3 .9s1.4-2 .8-3.1l-4.1-11"/>
    <path fill="#003d83" d="M162.5 5c.8 0 1.4.3 2 .8 1.4 1.4.7 3.6-.3 5.1l-2.7 4-10.4 15.7c-1.5 2.2-3.8 2.5-5 2.5-.9 0-1.8-.2-2.6-.4-1.1-.4-2.3-1.2-3.5-2.4-.7-.7-1.7-2-2.4-3.6-1.2-2.8-.4-5.9 2.1-7.6L159.4 6c.3-.2.6-.4 1-.5.8-.4 1.5-.5 2.1-.5m0-1c-.8 0-1.7.2-2.5.6-.4.2-.7.4-1.1.6l-19.7 13.2c-2.9 2-3.8 5.6-2.5 8.8.7 1.7 1.9 3.2 2.6 3.9.7.7 2.1 2 3.9 2.6.9.3 1.9.5 2.9.5 2.3 0 4.5-.9 5.9-3l10.4-15.7 2.7-4c1.4-2 1.8-4.6.1-6.4-.8-.8-1.7-1.1-2.7-1.1zm6.1 16.8c-1.9 0-3.4 1.5-3.4 3.4h6.9c-.1-1.9-1.6-3.4-3.5-3.4z"/>
    <path fill="#003d83" d="M165.1 24.2h1.1v2.3h-1.1zm5.8 0h1.1v2.3h-1.1z"/>
    <path d="M137.7 83zm28.6 0v.4-.4z"/>
    <path fill="#003d83" d="M164.3 84.4v15.1c0 .5-.4.9-.9.9h-22.9c-.5 0-.9-.4-.9-.9V84.4h24.7m2-2h-28.5v17.1c0 1.6 1.3 2.9 2.9 2.9h22.9c1.6 0 2.9-1.3 2.9-2.9V82.8c-.2-.1-.2-.2-.2-.4z"/>
    <ellipse fill="#003d83" cx="152" cy="102.3" rx="4.3" ry="5.7"/>
    <path fill="#003d83" d="M152.7 70.8h-1.4v5h1.4v-5zm-15 12.2h-4.3c-.8 0-1.4.6-1.4 1.4v5.4c0 .1.1.3.3.3h.9c.1 0 .3-.1.3-.3v-5.2c0-.1.1-.3.3-.3h4V83h-.1zm32.9 0h-4.3v1.4h4c.1 0 .3.1.3.3v5.2c0 .1.1.3.3.3h.9c.1 0 .3-.1.3-.3v-5.4c-.1-.8-.7-1.5-1.5-1.5z"/>
    <circle fill="#003d83" cx="144.9" cy="73.9" r="1.4"/>
    <circle fill="#003d83" cx="159.1" cy="73.9" r="1.4"/>
    <path fill="#003d83" d="M159.6 70c2 0 3.6 1.6 3.6 3.6v.6c0 2-1.6 3.6-3.6 3.6h-16.2c-2 0-3.6-1.6-3.6-3.6v-.6c0-2 1.6-3.6 3.6-3.6h16.2m0-2h-16.2c-3.1 0-5.6 2.5-5.6 5.6v.6c0 3.1 2.5 5.6 5.6 5.6h16.2c3.1 0 5.6-2.5 5.6-5.6v-.6c0-3.1-2.5-5.6-5.6-5.6zm3.1 80.9c-.3-.1-.6-.1-1-.1h-17.8c-.8 0-1.6 0-2.4.1-1.2.1-2 1.2-1.9 2.4.2 1.2 1.1 1.9 2.4 1.9h16.1c1.4 0 2.8 0 4.3-.1 1.1-.1 1.9-1 1.9-2 .1-1.1-.6-2-1.6-2.2zm-.5 2.4c-.1.1-.3 0-.4 0h-19.9c-.1-.1-.3-.3-.3-.4 0-.1.2-.3.3-.4.1-.1.3 0 .5 0h19.9c.1.1.3.3.3.4-.1.2-.3.4-.4.4z"/>
    <path fill="none" d="M152.1 162.5h-3.4 5.9-2.5z"/>
    <path fill="#003d83" d="M137.7 157.7c.2.1.2.5.3.7.1 1.6.1 3.3.3 4.9.7 4.8 4.9 8.5 9.9 8.6 2.6.1 5.1.1 7.7 0 4.7-.1 9-3.7 9.7-8.1.3-1.7.3-3.5.4-5.3 0-.3.1-.7.3-.9.3-.3.5-.6.7-.9h-30c.1.4.4.7.7 1zm9.9 12.9c-.1-1.8 1.3-4.2 2.9-5 1-.5 2-.5 3 0 2 1.1 2.6 2.9 3 5h-8.9zm15.6-11.4c.1-1.2.1-1.2 1.5-1-.2 2.9.2 5.8-1.7 8.4-1.2 1.8-2.9 3-5 3.6-.4-1.2-.9-2.4-1.3-3.7.4.1.9.2 1.4.2 1.7.3 3.2-.5 4-2 .9-1.7 1-3.6 1.1-5.5zm-12-1.1c.1.5-.1 1.3.8 1.3.8 0 .7-.8.7-1.3h9c-.1 2.2 0 4.3-1.1 6.3-.4.8-1.2 1.3-2.1 1.1-1.6-.3-3.1-.3-4.6-1.1-1.3-.8-2.8-.6-4.2 0-.7.3-1.4.5-2.2.7-.6.2-1.3.3-2 .4-1.2.2-2-.3-2.6-1.4-.6-1.4-.8-2.9-.9-4.4 0-.5 0-1-.1-1.6h9.3zm-11.8.1c1.4-.2 1.4-.2 1.5 1 .1 1.7.2 3.5.9 5.1.9 2.1 2.2 2.8 4.6 2.4.3-.1.7-.1 1-.2-.4 1.2-.9 2.4-1.3 3.7-.7-.3-1.5-.6-2.2-1-2.7-1.7-4.1-4.2-4.2-7.3 0-1-.1-2.1-.2-3.1-.1-.2-.1-.4-.1-.6z"/>
    <path fill="#003d83" d="M148.7 162.5h6.7c.5 0 .9-.1.9-.7 0-.5-.4-.7-.9-.7h-6.7c-.5 0-.9.1-.9.6 0 .7.4.8.9.8z"/>
    <path fill="none" d="M139.6 145.4c-.7 0-.7 0-.7.7v10.4h26.3v-11.1h-25.6zm12.2-11.6c-6.8.1-11.6 5-12.6 9.8h25.6c-1.1-5.1-6.3-10-13-9.8z"/>
    <path fill="#003d83" d="M166.7 143.4c-2-8.5-11.1-13.4-19.6-10.6-5.7 1.9-9.9 7.2-10 12.9-.1 3.7 0 7.4 0 11.1 0 .9.7 1.5 1.6 1.5h26.6c1.2 0 1.8-.6 1.8-1.7v-8.5c-.1-1.6-.1-3.2-.4-4.7zm-14.9-9.6c6.8-.1 11.9 4.7 13 9.8h-25.6c.9-4.8 5.8-9.7 12.6-9.8zm13.3 22.7h-26.3v-10.4c0-.7 0-.7.7-.7h25.6v11.1z"/>
    <path fill="#003d83" d="M162.1 151.8h-20c-.5 0-.9-.4-.9-.9s.4-.9.9-.9h20c.5 0 .9.4.9.9s-.4.9-.9.9z"/>
    <g fill="#003d83">
        <path d="M140.4 196.5c-.2 0-.4.1-.6.1-1.1.3-1.9.9-2.5 1.9-.4.6-.6 1.3-.7 2v31c0 .2.1.4.1.6.3 1.1.9 1.9 1.9 2.5.6.4 1.3.6 2 .7h28.2v-39h-28.2c0 .2-.1.2-.2.2zm26.1 32.8v3.8h-25.3c-1.1 0-2-.6-2.2-1.6-.2-.6 0-1.3.4-1.8s1-.8 1.6-.9h25.6v.5zm-14.4-30.5h14.5v27.7h-25.4c-.6 0-1.1.1-1.6.2h-.7V201c0-1.1.6-1.9 1.5-2.2.2-.1.5-.1.8-.1 3.6.1 7.2.1 10.9.1z"/>
        <path d="M144.8 204.8h17.3v2.3h-17.3z"/>
    </g>
    <path fill="#003d83" d="M162 394v6.1c-3.9.5-7 3.9-7 7.9s3.1 7.4 7 7.9v6.1h-28v-28h28m2-2h-32v32h32v-10.1c-.3.1-.7.1-1 .1-3.3 0-6-2.7-6-6s2.7-6 6-6c.3 0 .7 0 1 .1V392z"/>
    <path fill="#003d83" d="M136 415h12v2h-12zm0 3h8v2h-8z"/>
    <path fill="none" d="M162 408c0 2-1.5 3.7-3.5 3.9 1 1.2 2.2 2 3.5 2h2v4.5c3.6-2.1 6-6.1 6-10.4s-2.4-8.3-6-10.4v4.5h-2c-1.5 0-2.7.8-3.6 2 2 .2 3.6 1.8 3.6 3.9z"/>
    <path fill="#003d83" d="M162 394.6v5.5c-3 0-5.2 2.1-6.3 4.6.6-.5 1.4-.7 2.3-.7h.4c.9-1.1 2.1-2 3.6-2h2v-4.5c3.6 2.1 6 6.1 6 10.4s-2.4 8.3-6 10.4v-4.5h-2c-1.2 0-2.5-.8-3.5-2-.2 0-.3.1-.5.1-.8 0-1.6-.3-2.2-.7 1.2 2.6 3.7 4.6 6.2 4.6v5.5c5.8-1.7 10-7.1 10-13.4s-4.2-11.6-10-13.3z"/>
    <path fill="#003d83" d="M158.5 411.9c2-.3 3.5-1.9 3.5-3.9 0-2.1-1.6-3.7-3.6-4-.9 1.2-1.4 2.7-1.4 4 0 1.4.6 2.8 1.5 3.9z"/>
    <path fill="#003d83" d="M158.5 411.9c-.9-1.1-1.5-2.5-1.5-3.9 0-1.2.5-2.8 1.4-4h-.4c-.8 0-1.6.3-2.3.7-.5 1.1-.7 2.2-.7 3.3 0 1.2.3 2.3.8 3.3.6.4 1.4.7 2.2.7.2 0 .3 0 .5-.1z"/>
    <path fill="none" stroke="#003d83" stroke-miterlimit="10" d="M134 518h36v36h-36z"/>
    <path fill="none" stroke="#003d83" stroke-width=".25" stroke-miterlimit="10" d="M141.2 518v36m7.2-36v36m7.7-36v36m6.9-36v36m7-23.7h-36m36 4.8h-36m36 15.3h-36m36-4.9h-36m26.1 4.9h-16.8c-3.3 0-6-2.7-6-6v-16.8c0-3.3 2.7-6 6-6h16.8c3.3 0 6 2.7 6 6v16.8c0 3.3-2.7 6-6 6z"/>
    <circle fill="none" stroke="#003d83" stroke-width=".25" stroke-miterlimit="10" cx="151.7" cy="536" r="14.4"/>
    <circle fill="none" stroke="#003d83" stroke-width=".25" stroke-miterlimit="10" cx="151.7" cy="536" r="7.2"/>
    <path fill="#003d83" d="M152.9 548.5v-5h2.1v-7.6h-5.8v7.6h2.4v5.1h-11.2v-5h2.1v-7.7h-2.2v-5.1h2.3v-.5c0-1.1.2-2 .6-2.8.8-1.6 2-2.6 4-3.2 1-.3 2.1-.4 3.3-.4.4 0 .9 0 1.3.1h.7l.5.1v5.3h-2.6c-.2 0-.4.1-.6.2-.3.1-.5.4-.5.7v.5h12.5v12.7h2.1v5.1h-11z"/>
    <path fill="#FFF" d="M150.4 524.3h1.7c.1 0 .2 0 .4.1v4.4h-2.1c-.3 0-.5.1-.8.2-.5.2-.7.6-.8 1.1v1h12.5v12.7h2.1v4.1h-9.9v-4h2.1v-8.6h-6.8v8.6h2.4v4.1H141v-4h2.1v-8.7h-2.2v-4.1h2.3v-1c0-.9.2-1.8.6-2.6.8-1.6 2.1-2.4 3.7-2.9.8-.3 1.8-.4 2.9-.4m0-1c-1.3 0-2.4.2-3.4.5-2.1.6-3.5 1.7-4.3 3.4-.4.9-.7 1.9-.7 3.1h-2.3v6.1h2.2v6.7h-2.1v6H152V543h-2.4v-6.6h4.8v6.6h-2.1v6h11.9v-6.1h-2.1v-12.7h-12.4c0-.2.1-.2.2-.3.1 0 .3-.1.4-.1h3.1v-6.3l-.8-.1h-.8c-.5-.1-1-.1-1.4-.1z"/>
    <path fill="#003d83" d="M158.3 529.9c-1.8 0-3.2-1.5-3.2-3.2 0-1.8 1.4-3.2 3.2-3.2.9 0 1.7.3 2.3 1 .6.6.9 1.4.9 2.3 0 1.7-1.5 3.1-3.2 3.1z"/>
    <path fill="#FFF" d="M158.3 524c1.5 0 2.7 1.2 2.7 2.7 0 1.5-1.2 2.7-2.7 2.7-1.5 0-2.7-1.2-2.7-2.7 0-1.5 1.2-2.7 2.7-2.7m0-1c-2 0-3.7 1.7-3.7 3.7s1.6 3.7 3.7 3.7c2 0 3.7-1.7 3.7-3.7 0-1-.4-1.9-1.1-2.6-.7-.7-1.6-1.1-2.6-1.1z"/>
    <g fill="#003d83">
        <path d="M139.2 657.8c-.5-.3-1.2-.1-1.5.4-.3.5-.1 1.2.4 1.5.5.3 1.2.1 1.5-.4.3-.6.1-1.2-.4-1.5z"/>
        <path d="M172 663.9c-.2-.5-.4-1-.5-1.4l-2.2-6c-.1-.2-.2-.5-.3-.7l-.4.4c-.6.5-1.1.9-1.7 1.4l-1.1 1c-1 .9-2.1 1.8-3.2 2.7-.1.1-.2.2-.2.3-.1.6-.3 1.2-.5 1.7-.1.2-.1.4-.2.6-1.3 4.8-2.5 9.6-3.8 14.4-.3-2.8-.6-5.4-.7-6 0-.1 0-.3-.1-.5-.3 0-.5 0-.8.1v-.5c.1-2 .9-3.8 2.2-5.4.8-1 1.7-1.9 2.6-2.9.1-.2.2-.2 0-.4-.5-.7-.9-1.4-1.3-2.2-2.4-4.1-4.5-8.4-6.6-12.7l-.9-1.8c-.1.1-.1.2-.2.3-.8 1.6-1.6 3.3-2.4 4.9-2 3.9-4 7.9-6.3 11.6-.1.1 0 .2.1.3.6.7 1.3 1.4 1.9 2.1 1 1.2 1.9 2.5 2.5 4 .3.9.5 1.8.5 2.8-.3 0-.5 0-.8-.1 0 .1 0 .1-.1.2-.1.6-.5 3.1-.8 5.7-.8-3.2-1.7-6.4-2.5-9.6-1-4-2.1-7.9-3.1-11.9-.1-.4-.3-.7-.7-1h-.7c-2.3.6-4.6 1.2-6.9 1.9-.6.2-.7.3-.5.9.9 3.5 1.8 7 2.8 10.4l3.3 12.3c.1.5.2.9.4 1.4h28.9c.1-.5.2-.9.4-1.4 1.4-5.5 2.9-10.9 4.3-16.4v-.1c-.4-.2-.4-.3-.4-.4zm-7.5-2.8c.2-.1.3-.3.5-.4.2-.2.4-.3.5-.5.4-.4.9-.7 1.3-1.1.2-.1.3-.2.5-.1.3.1.5.1.8.2.3.1.5.1.7.2.1 0 .3.1.3.3.3.9.7 1.8 1 2.7l.4 1-6.7-1.8.7-.5zm-11.4 1.4c.4.4.4 1 0 1.4-.4.4-1 .4-1.4 0-.4-.4-.4-1 0-1.4.4-.4 1-.4 1.4 0zm-5.8 3.2c-.7-1-1.5-1.8-2.3-2.8l-.2-.2c2.6-4.2 4.8-8.6 7-12.9v11.1c0 .2 0 .2-.2.3-1.1.5-1.6 1.8-1.1 2.9.6 1.1 1.9 1.5 3 .8.7-.5 1-1.2.9-2-.1-.8-.6-1.4-1.3-1.7h-.1s-.1 0 0 0v-11.3c1.1 2.1 2.2 4.3 3.3 6.5 1.1 2.2 2.4 4.3 3.6 6.4-.3.4-.7.8-1.1 1.2-1.1 1.2-2.1 2.5-2.8 4.1-.5 1.1-.7 2.2-.8 3.4v.2h-5.7c0-.4-.1-.7-.1-1.1-.2-1.8-1-3.4-2.1-4.9zm-5.9 14.9c0-.1-.1-.2-.1-.2-.3.1-.5.1-.8.2h-1.1c-.1-.6-.3-1.1-.4-1.6.6-.1 1.3-.3 1.9-.5-.1-.4-.2-.7-.3-1.1-.6.2-1.3.4-1.9.5-.2-.7-.3-1.3-.5-1.9.6-.2 1.3-.3 2-.5-.1-.4-.2-.7-.3-1.1-.6.2-1.3.4-1.9.6-.2-.7-.3-1.3-.5-1.9.6-.1 1.3-.3 1.9-.5-.1-.4-.2-.7-.3-1.1-.6.2-1.3.4-1.9.6-.2-.7-.3-1.3-.5-1.9.6-.1 1.3-.3 2-.5-.1-.4-.2-.7-.3-1.1-.6.2-1.3.4-1.9.6-.2-.7-.3-1.3-.5-1.9.6-.2 1.3-.3 2-.5-.1-.4-.2-.7-.3-1.1-.7.2-1.3.4-1.9.6-.2-.7-.3-1.2-.5-1.9.6-.1 1.3-.3 2-.4-.1-.4-.2-.8-.3-1.1-.6.2-1.2.4-1.9.5-.5-1.9-1-3.7-1.4-5.4 2.1-.6 4.3-1.2 6.5-1.8 2.1 8 4.2 16 6.4 24.1v.3h-5.2zm6.1 0c0-.1-.1-.2-.1-.3.4-2.9.8-6.1.9-6.6 0-.2.1-.5.1-.7h7.7v.3c.1.5.5 4.2.8 7.4h-9.4zm11 0l4.8-18.2 3.2.9-4.6 17.3h-3.4zm7.8 0H163l4.5-17 3.1.9-4.3 16.1z"/>
    </g>
    <path fill="#003d83" d="M235.9 41l-.1-.3-.1-.6c-.5-2.1-1.9-3.8-4-5.2-1.6-1-3.2-1.6-4.9-2.2-.3-.1-.5-.2-.8-.3h-.1c-.5-.2-1.1-.4-1.5-.6-.7-.3-1.3-.7-1.8-1.1-.1-.1-.1-.2-.1-.2 0-.8 0-1.6-.1-2.3v-.1c.9-.9 1.6-2.5 2-3.9.5-.3.9-.8 1.2-1.4.7-1.4.9-2.8.5-4.1 0-.1-.1-.4-.3-.7 0-.1 0-.2.1-.3.2-.8.3-1.5.4-2.2.1-.3.1-.6.2-.9.2-1.3.1-2.8-.3-4.4-.7-2.4-2.4-4-4.8-4.5-1.1-1.1-2.5-1.4-3.4-1.5-.4-.1-.7-.1-1-.1h-1.4l-.3.1c-1.8 0-3.4.4-5 1.1-1.8.8-3.1 2.2-3.9 3.9-.9 2.1-.9 4.2-.8 5.8.1.9.3 1.7.4 2.6 0 .2.1.3.1.5-.5.8-.7 1.7-.5 2.7.1.7.4 1.5.7 2.2.3.6.7.9 1.1 1.2h.1c.4 1.6 1 2.9 2 4v.7c0 .6 0 1.2-.1 1.7 0 .1-.2.2-.5.5l-1.5.9c-.6.2-1.1.5-1.8.7-.2.1-.4.2-.6.2-1.6.6-3.4 1.3-5.1 2.4-2.1 1.4-3.4 3.3-3.8 5.6 0 .1-.1.2-.1.3 0 .1 0 .2-.1.3l-.1.2V44h40v-2.7l.1-.3zm-25.8-8.5c.6-.4 1.2-.9 1.3-1.7.1-.8.1-1.6.1-2.5 0-.5 0-1-.4-1.4-1-1-1.5-2.3-1.7-3.7 0-.1-.2-.3-.4-.4-.3-.2-.6-.4-.8-.7-.3-.5-.5-1.1-.6-1.7-.1-.6 0-1.3.6-1.7.1-.1.1-.2.1-.4-.2-1.2-.5-2.3-.6-3.5-.1-1.7-.1-3.4.6-5 .6-1.4 1.6-2.4 3-3 1.3-.6 2.8-.9 4.3-.9h.2c.1 0 .2-.1.3-.1h.1c.1 0 .3.1.4.1.4 0 .8 0 1.2.1 1 .2 2 .4 2.6 1.3.1.1.2.2.4.2 1.9.3 3.3 1.5 3.8 3.3.3 1.2.5 2.4.3 3.6-.2 1-.3 2.1-.6 3.1-.1.6-.4 1.2.2 1.7 0 0 .1.1.1.2.3 1 .1 1.9-.4 2.7-.2.5-.6.8-1.2.9-.1 1.1-.9 3.1-1.6 3.8-.5.5-.6 1-.5 1.6.1.7.1 1.4.1 2.1 0 .6.2 1 .6 1.4.4.4.8.7 1.3 1-2.1 1.1-4.4 1.7-6.8 1.7-2.4 0-4.6-.6-6.6-1.6 0-.2.3-.3.6-.5zm25.8 70.7s0-.1-.1-.1c-.3-1.8-1.5-4.2-4.9-5.3-.6-.2-1.2-.4-1.7-.5-.9-.3-1.8-.5-2.6-.8-.2-.1-.3-.1-.5-.2-.3-.1-.6-.3-.9-.4.6 0 1.2-.1 1.7-.2 1.1-.9 2.1-1.8 3-2.9l-1.2-.8c-.1-.1-.4-.3-.7-.4-.6-.2-1-.6-1-1.6 0-1.5.2-3 .4-4.5v-.4c.3-2.4.6-4.9.1-7.5-1-4.7-4.7-8.3-9.5-9.1-.1 0-.2 0-.2-.1-.1 0-.2 0-.2-.1h-.2c-.5-.1-1-.2-1.5-.2s-.9.1-1.5.2h-.2l-.3.1c-.2 0-.4.1-.6.1-5.4 1.3-9 5.7-9.3 11.3-.1 1.9.2 3.7.4 5.5.1.6.2 1.2.2 1.8.1 1.2.2 2.3.1 3.3 0 .4-.2.8-.9 1.1-.2.1-.4.2-.5.2l-1.7.9c.9 1.1 1.9 2.1 3 3 .5.2 1.1.3 1.8.3h.1c-.3.2-.7.3-1 .4-.7.3-1.4.5-2 .8-.4.1-.8.2-1.3.4-.4.1-.8.2-1.3.3-3.6 1.1-4.8 3.5-5.1 5.4v.1l-.1.3v4.6h40v-4.5l.2-.5zM211 92.1c-1.2 1.2-2.9 1.9-4.3 1.9-.9 0-1.7-.2-2.3-.7.1 0 .2-.1.2-.1 1.3-.4 2.1-1.3 2.1-2.7.1-1.2 0-2.5-.1-3.7-.3-2.3-.7-4.6-.7-7 .2-4.8 3.2-8.5 7.9-9.6.3-.1.6-.1.9-.2.6-.1.9-.2 1.2-.2.3 0 .6 0 1.2.2.2.1.4.1.6.2 4 .7 7.1 3.8 8 7.7.5 2.3.2 4.6-.1 6.9-.2 1.7-.4 3.3-.5 5 0 1.6.6 2.8 2.3 3.4.1 0 .1.1.2.2-.8.5-1.6.7-2.5.7h-.1c-1.6 0-3-.5-4.1-1.9-.1.2-.1.3-.2.4-.4 1.4.2 2.4 1.1 3.3.6.6 1.4 1.1 2.2 1.5-2.5 1.3-5.3 2-8.2 2-2.9 0-5.7-.7-8.2-2 .8-.4 1.5-.9 2.1-1.5.7-.6 1.2-1.3 1.4-2.2.2-.6.1-1.1-.1-1.6z"/>
    <g fill="#003d83">
        <path d="M152 580h18.9c.8 0 1.1.3 1.1 1.2v37.6c0 .9-.3 1.3-1.2 1.3h-37.5c-.9 0-1.2-.3-1.2-1.3v-37.7c0-.7.3-1 1-1h8.4c3.4-.1 7-.1 10.5-.1zm18.1 2h-36.2v36h36.2v-36z"/>
        <path d="M152 596h-15.1c-.7 0-.9-.2-.9-1v-10c0-.8.2-1 .9-1h30.2c.7 0 .9.2.9 1v10c0 .7-.2 1-.9 1H152zm-14.7-1.7l12.3-4.2v-.1l-12.3-4.2v8.5zm29.4-8.6l-12.3 4.2v.1c4.1 1.4 8.1 2.8 12.3 4.2v-8.5zm-4 8.8l-.2-.2c-3.4-1.2-6.8-2.3-10.2-3.5-.2-.1-.4 0-.6 0-2.9 1-5.9 2-8.8 3-.5.2-1 .4-1.5.5v.1c7.1.1 14.2.1 21.3.1zm-21.4-9l.2.2c3.4 1.2 6.8 2.3 10.2 3.5.2.1.4 0 .6 0 3.3-1.1 6.7-2.3 10-3.4.1 0 .2-.1.4-.2-7.1-.1-14.2-.1-21.4-.1zm18.6 14.5h-6.2c-.2 0-.4 0-.5-.2-.1-.3-.3-.7-.3-1 0-.5.3-.8.7-.8h12.8c.3.1.5.5.5 1s-.2.8-.5 1h-6.5zm.1 3h-6.4c-.3-.1-.5-.5-.5-1s.2-.9.6-1h12.8c.3.1.6.4.6 1 0 .5-.3.9-.6 1H160zm0 3h-6.4c-.3-.1-.5-.5-.5-1s.2-.9.6-1h7.8c.3.1.6.4.6 1 0 .5-.3.9-.6 1H160zm-8-7c0-.7-.2-1-.9-1h-14.3c-.6 0-.9.3-.9 1v5.9c0 .8.2 1 .9 1H151c.6 0 .9-.3.9-1 .1-1.9.1-3.9.1-5.9zm-5 3.5c-.4-.2-.8-.4-1.2-.5l4.8-2.1v4.2c-1.2-.6-2.4-1.1-3.6-1.6zm.3-2.9c-1.1.5-2.3 1-3.4 1.5-1.1-.5-2.3-1-3.4-1.5h6.8zm-9.9.3c1.5.7 3.1 1.4 4.6 2-.4.2-.8.4-1.2.5-1.1.5-2.3 1-3.4 1.5v-4zm2.8 4.5c1.3-.5 2.5-1.1 3.8-1.6 1.3.5 2.5 1.1 3.8 1.6h-7.6zm19.7 5.6h-6.2c-.2 0-.4 0-.5-.2-.1-.3-.3-.7-.3-1 0-.5.3-.8.7-.8h12.8c.3.1.5.5.5 1s-.2.8-.5 1h-6.5zm.1 3h-6.4c-.3-.1-.5-.5-.5-1s.2-.9.6-1h12.8c.3.1.6.4.6 1 0 .5-.3.9-.6 1H160zm0 3h-6.4c-.3-.1-.5-.5-.5-1s.2-.9.6-1h7.8c.3.1.6.4.6 1 0 .5-.3.9-.6 1H160zm-8-7c0-.7-.2-1-.9-1h-14.3c-.6 0-.9.3-.9 1v5.9c0 .8.2 1 .9 1H151c.6 0 .9-.3.9-1 .1-1.9.1-3.9.1-5.9zm-5 3.5c-.4-.2-.8-.4-1.2-.5l4.8-2.1v4.2c-1.2-.6-2.4-1.1-3.6-1.6zm.3-2.9c-1.1.5-2.3 1-3.4 1.5-1.1-.5-2.3-1-3.4-1.5h6.8zm-9.9.3c1.5.7 3.1 1.4 4.6 2-.4.2-.8.4-1.2.5-1.1.5-2.3 1-3.4 1.5v-4zm2.8 4.5c1.3-.5 2.5-1.1 3.8-1.6 1.3.5 2.5 1.1 3.8 1.6h-7.6z"/>
    </g>
    <g fill="#003d83">
        <path d="M161.8 262c0-.6-.3-1.2-.8-1.5-.5-.4-1.2-.5-1.8-.4l-14.6 2.8c-1 .2-1.7 1-1.7 1.9v2.4l-6.9 6.5v22l13.9 4.3 1.1-.2 16.9-3.2v-22.2l-6.2-10.6V262zm-17.4 2.8c0-.3.2-.6.6-.6l14.6-2.8c.2 0 .5 0 .6.2.1.1.2.3.2.5v1.8l-16 3v-2.1zm-.7 3.5l5.1 8.8-10.9-3.4 5.8-5.4zm5.4 29.7l-11.3-3.5v-4.8l11.3 3.5v4.8zm0-6.5l-11.3-3.5v-12.8l11.3 3.5v12.8zm17.4 4l-16 3V293l16-3v5.5zm-15.6-3.9v-12.9l15.3-2.9v12.9l-15.3 2.9zm15.5-17.1l-.8.2-15.3 2.9-5.7-9.7 16.1-3.1 5.7 9.7z"/>
        <path d="M155.4 285.6v3.9l-1.1.1v-1.4l-.2.4-.2.4-.7.1-.3-.7-.1.7v.8l-1 .1v-3.8l1-.2.8 1.6.3-.7.5-1.1zm2.2-.3l-.1 3.8-1 .2v-3.9zm2.1-.4l-.1 2.9 1.7-.2-.1.9-2.6.5v-3.9zm5.9-.9l-.5.7-.9 1.1 1.4 2-1.2.2-.9-1.3v.1l-.2.2v1.2l-1.1.2v-3.9l1.1-.1v1.1l.4-.6.6-.7z"/>
    </g>
    <g fill="#003d83">
        <ellipse cx="148.4" cy="337.7" rx="1.8" ry="1.8"/>
        <path d="M152 358.2c-5 0-9.5-2.5-12.1-6.4h-2.1c2.9 4.9 8.2 8.2 14.3 8.2s11.4-3.3 14.3-8.2h-2.1c-2.8 3.8-7.3 6.4-12.3 6.4zm0-29.4c5 0 9.5 2.5 12.1 6.4h2.1c-2.9-4.9-8.2-8.2-14.3-8.2s-11.4 3.3-14.3 8.2h2.1c2.8-3.8 7.3-6.4 12.3-6.4z"/>
        <path d="M167.8 338.9h4.9l1.2-1.8h-11.8c-2.2-3.3-5.9-5.5-10.2-5.5-4.3 0-8 2.2-10.2 5.5H130l1.2 1.8h9.6c-.3.6-.4 1.2-.6 1.8h-7.8l1.8 2.8-1.8 2.8h7.8c.1.5.3 1.1.5 1.6l.1.2h-9.6l-1.2 1.8h11.8c2.3 3.5 6 5.5 10.1 5.5h.1c4.1 0 7.9-2.1 10.1-5.5h11.8l-1.2-1.8h-9.6v-.1c.2-.6.4-1.1.6-1.7h7.8l-1.8-2.8 1.8-2.8h-7.8l-.6-1.8h4.7zm-14.1-.3l-3.6 3.6-1.8-1.8-6 5.9c-.3-.9-.4-1.8-.4-2.7 0-5.5 4.5-9.9 10.1-10h.1c5.5 0 10 4.4 10 9.9 0 1-.1 2-.5 3l-7.9-7.9z"/>
    </g>
    <path fill="#003d83" d="M137 492v-35.9c0-.4 0-.4.4-.5.9-.1 1.7-.3 2.6-.4 1-.2 2.1-.3 3.1-.5 1.1-.2 2.1-.4 3.2-.6 1-.2 2-.3 3-.5 1.1-.2 2.1-.4 3.2-.6 1-.2 2-.3 3-.5.8-.1 1.6-.3 2.4-.4.3-.1.4 0 .4.3v2.9c0 .2.1.3.3.3h7c.4 0 .4 0 .4.4v35.4c0 .4 0 .4-.4.4h-27c-.4 0-.9.1-1.3.2h-.3zm19-37.3c-.3.1-.6.1-.9.2-.8.1-1.5.3-2.3.4-1 .2-2.1.4-3.1.6-.8.1-1.5.3-2.3.4-1 .2-2 .4-3.1.6-.8.1-1.5.3-2.3.4-.8.1-1.7.3-2.5.4-.2 0-.3.1-.3.3v31.4h.3c.7-.1 1.4-.3 2.1-.4.8-.1 1.5-.3 2.3-.4.7-.1 1.5-.3 2.2-.4.8-.1 1.5-.3 2.3-.4l3-.6c.5-.1 1-.2 1.5-.2.9-.2 1.7-.3 2.6-.5.4-.1.4-.1.4-.5v-31c.1-.1.1-.2.1-.3zm-5 34.8h12.3c.4 0 .4 0 .4-.4v-30.9c0-.4 0-.4-.3-.4h-4.8c-.3 0-.3.1-.3.3v2.6c0 .2.1.3.3.3h2.3c.2 0 .3.1.3.3v1c0 .2-.1.3-.3.3h-2.2c-.2 0-.3.1-.3.3v1.7c0 .3.1.3.3.3h2.2c.2 0 .3.1.3.3v1c0 .3-.1.3-.3.3h-2.2c-.2 0-.3.1-.3.3v1.8c0 .2.1.3.3.3h2.3c.2 0 .3.1.3.3v1c0 .2-.1.3-.3.3h-2.3c-.2 0-.3.1-.3.3v1.8c0 .2.1.3.3.3h2.2c.2 0 .4.1.3.3v1c0 .2-.1.3-.3.3h-2.3c-.2 0-.2.1-.2.2v1.8c0 .2.1.3.3.3h2.2c.3 0 .3.1.3.3v.9c0 .2-.1.3-.3.3h-2.2c-.2 0-.3.1-.3.3v1.7c0 .2.1.3.3.3h2.2c.3 0 .3 0 .3.4v.9c0 .3 0 .4-.4.4h-2.2c-.2 0-.3.1-.3.3v1.8c0 .2.1.3.3.3h2.3c.2 0 .3.1.3.3v1c0 .2-.1.3-.3.3h-2.3c-.3 0-.3.1-.3.3v1.3c0 .2-.1.3-.3.3-.9.2-1.9.3-2.8.5-.5.1-1 .2-1.4.2-1 .3-1.8.5-2.8.6z"/>
    <path fill="#003d83" d="M158.2 483.6c-.2-1-.8-2.1-2.6-2.4-.3 0-.6-.1-.9-.1-.5-.1-.9-.1-1.4-.2-.1 0-.2 0-.3-.1-.2 0-.3-.1-.5-.1.3-.1.6-.1.9-.3.6-.5 1.1-1.2 1.6-1.8l-.6-.3c-.1 0-.2-.1-.4-.1-.3 0-.5-.2-.5-.7 0-.8.1-1.6.2-2.4v-.2c.2-1.3.3-2.6 0-3.9-.5-2.4-2.5-3.9-5-3.9h-1c-.3 0-.5.1-.8.2l-.1.1c-.1 0-.2.1-.3.1-2.8 1.2-4.7 3.8-4.9 6.8 0 1 .1 1.9.2 2.8 0 .3.1.6.1.9.1.6.1 1.2.1 1.7 0 .2-.1.4-.5.6-.1.1-.2.1-.3.2l-.9.6c.5.5 1 .9 1.6 1.3h1c-.2.1-.3.2-.5.3-.4.2-.7.4-1.1.6-.2.1-.4.2-.7.3-.2.1-.4.2-.7.3-1.9.9-2.5 2.3-2.7 3.3l-.1.2v2.4l1-.2 9.5-1.7 9.5-1.7 1-.2v-2.4h.1zm-13.1-3.5c-.6.7-1.5 1.2-2.3 1.4-.5.1-.9 0-1.2-.2l.1-.1c.7-.4 1.1-.9 1.1-1.6 0-.6 0-1.3-.1-1.9-.1-1.2-.4-2.4-.3-3.6.1-2.5 1.7-4.8 4.1-5.8.2-.1.3-.1.5-.2.3-.1.5-.2.6-.2h.9c2.1 0 3.8 1.3 4.2 3.3.3 1.2.1 2.4-.1 3.6l-.3 2.7c0 .8.3 1.4 1.2 1.6 0 0 .1 0 .1.1-.4.3-.8.5-1.3.6-.8.1-1.6 0-2.1-.6 0 .1-.1.1-.1.2-.2.8.1 1.2.6 1.6.3.3.7.5 1.1.6-1.3.9-2.8 1.5-4.3 1.8-1.5.3-3 .1-4.3-.3.4-.3.8-.6 1.1-1 .4-.4.6-.8.7-1.3.3-.2.2-.4.1-.7zm-1.2-19.8l-1.3 1.7h-.2l-1.3-1.3v2.6l-1.3.2v-4.6l1.1-.2 1.6 1.5 1.6-2.1 1.1-.2v4.6l-1.3.2v-2.4zm3.7-2.7l1.5-.3 1.7 4.3-1.3.2-.3-.7-1.8.3-.3.8-1.3.2 1.8-4.8zm.2 2.8l1.2-.2-.6-1.5-.6 1.7zm7.8-2.3v2.1c-.4.4-1.3.9-2 1-1.4.2-2.5-.4-2.5-1.9s1.1-2.6 2.5-2.8c.7-.1 1.4 0 1.8.3l-.6 1.1c-.3-.2-.7-.3-1.2-.2-.7.1-1.1.6-1.1 1.4 0 .7.5 1.1 1.2 1 .2 0 .5-.1.7-.3v-.5l-1 .2v-.9l2.2-.5z"/>
    <defs>
        <path id="a" d="M194 132h44v40h-44z"/>
    </defs>
    <clipPath id="b">
        <use xlink:href="#a" overflow="visible"/>
    </clipPath>
    <path clip-path="url(#b)" fill="#003d83" d="M239.9 161.8v-.1c-.3-1.5-1.2-3.3-3.9-4.2-.5-.1-.9-.3-1.4-.4-.7-.2-1.4-.4-2.1-.7-.1 0-.3-.1-.4-.2-.2-.1-.5-.2-.7-.3.5 0 .9-.1 1.4-.2.9-.7 1.7-1.4 2.4-2.3l-.9-.7c-.1-.1-.3-.2-.6-.3-.5-.2-.8-.4-.8-1.2 0-1.2.2-2.3.3-3.6v-.4c.2-1.9.5-3.9.1-5.9-.8-3.7-3.7-6.6-7.5-7.2h-.4c-.4-.1-.8-.1-1.2-.1-.4 0-.7.1-1.2.1h-.2l-.2.1c-.1 0-.3.1-.4.1-4.3 1-7.2 4.5-7.3 9-.1 1.5.1 2.9.3 4.3.1.5.1.9.2 1.4.1 1 .1 1.9.1 2.7 0 .3-.1.6-.7.8-.2.1-.3.1-.4.2l-1.3.7c.7.9 1.5 1.7 2.4 2.4.4.1.9.2 1.4.2h.1c-.3.1-.5.2-.8.3-.5.2-1.1.4-1.6.6h-.2c-.2-.1-.4-.1-.6-.2-.2-.1-.4-.2-.6-.2h-.1c-.4-.2-.8-.3-1.2-.5-.5-.2-1-.5-1.4-.9l-.1-.1c0-.7 0-1.3-.1-1.8v-.1c.7-.7 1.3-2 1.6-3.1.4-.3.7-.6.9-1.1.6-1.1.7-2.2.4-3.2 0-.1-.1-.3-.3-.5 0-.1 0-.1.1-.2l.3-1.8c0-.2.1-.5.1-.7.2-1.1.1-2.2-.3-3.5-.5-1.9-1.9-3.2-3.8-3.6-.9-.9-2-1.1-2.7-1.2-.3-.1-.6-.1-.8-.1h-1l-.2.1c-1.4 0-2.7.3-3.9.9-1.4.7-2.5 1.7-3.1 3.1-.7 1.7-.7 3.3-.6 4.6.1.7.2 1.4.3 2 0 .1.1.3.1.4-.4.6-.5 1.3-.4 2.1.1.6.3 1.2.6 1.8.2.5.6.7.8.9h.1c.3 1.2.8 2.3 1.6 3.1v.6c0 .5 0 .9-.1 1.4 0 0-.1.2-.4.4-.4.3-.8.5-1.2.7-.4.2-.9.4-1.4.5-.2.1-.3.1-.5.2-1.3.5-2.7 1-4 1.9-1.7 1.1-2.7 1.8-3 3.7 0 .1 0 7.3-.1 7.4 0 .1 0 .1-.1.2v2.1h50.6v-10.4zm-19.7-8.7c-1 1-2.3 1.5-3.4 1.5-.7 0-1.3-.2-1.8-.6.1 0 .1-.1.2-.1 1-.4 1.6-1.1 1.7-2.1.1-1 0-1.9-.1-2.9-.2-1.8-.6-3.7-.5-5.5.1-3.8 2.6-6.8 6.2-7.6.2-.1.5-.1.7-.2.5-.1.7-.1 1-.1.3 0 .5 0 .9.1.2 0 .3.1.5.1 3.2.6 5.7 3 6.3 6.1.4 1.8.1 3.7-.1 5.5-.2 1.3-.4 2.6-.4 4 0 1.3.5 2.2 1.8 2.7.1 0 .1.1.2.1-.6.4-1.3.5-2 .5-1.3 0-2.4-.4-3.2-1.5-.1.1-.1.2-.1.3-.3 1.1.2 1.9.9 2.6.5.5 1.1.9 1.7 1.2-2 1-4.2 1.6-6.5 1.6s-4.5-.6-6.5-1.6c.6-.3 1.2-.7 1.7-1.2s1-1 1.1-1.8c0-.3-.1-.7-.3-1.1zm-19.7 3.5c.5-.3.9-.7 1-1.3.1-.6.1-1.3.1-2 0-.4 0-.8-.3-1.1-.8-.8-1.2-1.8-1.4-2.9 0-.1-.2-.2-.3-.3-.2-.2-.5-.3-.6-.6-.2-.4-.4-.9-.4-1.4-.1-.5 0-1 .4-1.4.1-.1.1-.2.1-.3-.2-.9-.4-1.8-.5-2.8-.1-1.3-.1-2.7.5-3.9.5-1.1 1.3-1.9 2.4-2.4 1.1-.5 2.2-.7 3.4-.7h.1c.1 0 .1 0 .2-.1h.1c.1 0 .2.1.3.1.3 0 .6 0 .9.1.8.2 1.6.3 2.1 1 .1.1.2.1.3.1 1.5.2 2.6 1.2 3 2.6.3.9.4 1.9.2 2.8-.1.8-.3 1.6-.4 2.4-.1.5-.3 1 .2 1.4 0 0 0 .1.1.1.2.8.1 1.5-.3 2.2-.2.4-.5.7-.9.7-.1.9-.7 2.4-1.3 3-.4.4-.5.8-.4 1.2 0 .6.1 1.1.1 1.7 0 .5.2.8.5 1.1.3.3.6.6 1 .8-1.6.9-3.4 1.3-5.4 1.3-1.9 0-3.6-.5-5.2-1.3 0 .1.2 0 .4-.1z"/>
    <g fill="#003d83">
        <path opacity=".3" d="M233.2 400.2h-20.6c-.4 0-.8-.3-.8-.8v-1.2c0-.4.3-.8.8-.8h20.6c.4 0 .8.3.8.8v1.2c0 .5-.3.8-.8.8z"/>
        <path opacity=".6" d="M233.2 412h-20.6c-.4 0-.8-.3-.8-.8V410c0-.4.3-.8.8-.8h20.6c.4 0 .8.3.8.8v1.2c0 .4-.3.8-.8.8z"/>
        <path d="M233.2 423.7h-20.6c-.4 0-.8-.3-.8-.8v-1.2c0-.4.3-.8.8-.8h20.6c.4 0 .8.3.8.8v1.2c0 .4-.3.8-.8.8z"/>
        <path opacity=".3" d="M208.2 392.4c-.5-.5-1.4-.5-2 0l-4.9 4.9-1-1c-.5-.5-1.4-.5-2 0-.5.5-.5 1.4 0 1.9l2 1.9c.5.5 1.4.5 2 0l5.9-5.8c.5-.5.5-1.4 0-1.9z"/>
        <path opacity=".6" d="M208.2 404.1c-.5-.5-1.4-.5-2 0l-4.9 4.9-1-1c-.5-.5-1.4-.5-2 0-.5.5-.5 1.4 0 1.9l2 1.9c.5.5 1.4.5 2 0l5.9-5.8c.5-.5.5-1.3 0-1.9z"/>
        <path d="M208.2 415.8c-.5-.5-1.4-.5-2 0l-4.9 4.9-1-1c-.5-.5-1.4-.5-2 0-.5.5-.5 1.4 0 1.9l2 1.9c.5.5 1.4.5 2 0l5.9-5.8c.5-.5.5-1.3 0-1.9z"/>
    </g>
    <path opacity=".3" fill="#003d83" d="M207.5 347.2c-.3-.7-.8-1.4-1.4-1.9-.6-.5-1.4-1-2.2-1.4-.8-.4-1.8-.7-2.8-1.1-1-.3-1.9-.7-2.5-1-.6-.3-1.1-.6-1.5-1-.3-.3-.6-.7-.7-1-.1-.4-.2-.8-.2-1.3s.1-1 .3-1.4c.2-.4.4-.8.8-1.1.3-.3.8-.6 1.3-.8 1-.4 2.7-.4 3.8.1.5.2 1 .5 1.3 1 .4.4.6.9.8 1.5.2.6.3 1.2.3 1.9v.5h3.2v-.5c0-2.2-.6-3.9-1.7-5.2-1-1.2-2.5-1.9-4.3-2.1V329h-2.9v3.2c-.8.1-1.5.3-2.2.6-.8.3-1.5.8-2.1 1.3-.6.6-1 1.2-1.3 2-.3.7-.5 1.6-.5 2.5 0 1 .2 1.9.5 2.6.3.7.8 1.4 1.5 1.9.6.5 1.4 1 2.2 1.4.8.4 1.8.7 2.9 1 .9.3 1.7.6 2.4 1 .6.3 1.1.6 1.5 1 .4.3.6.7.7 1.1.2.4.2.8.2 1.3s-.1 1-.3 1.4c-.2.4-.5.8-.9 1.1-.4.3-.9.6-1.4.8-1 .3-2.4.4-3.8.1-.6-.1-1.1-.4-1.6-.7-.5-.3-.8-.8-1.1-1.4-.3-.6-.4-1.3-.4-2.2v-.5H192v.5c0 1.3.2 2.3.6 3.2.4.9 1 1.6 1.7 2.2.7.6 1.5 1 2.4 1.3.7.2 1.4.4 2.2.5v2.9h2.9v-3c.8-.1 1.6-.3 2.3-.5.8-.3 1.6-.8 2.2-1.3.6-.5 1.1-1.2 1.4-2 .3-.7.5-1.6.5-2.5-.2-1-.4-1.9-.7-2.6z"/>
    <path opacity=".6" fill="#003d83" d="M223.5 347.2c-.3-.7-.8-1.4-1.4-1.9-.6-.5-1.4-1-2.2-1.4-.8-.4-1.8-.7-2.8-1.1-1-.3-1.9-.7-2.5-1-.6-.3-1.1-.6-1.5-1-.3-.3-.6-.7-.7-1-.1-.4-.2-.8-.2-1.3s.1-1 .3-1.4c.2-.4.4-.8.8-1.1.3-.3.8-.6 1.3-.8 1-.4 2.7-.4 3.8.1.5.2 1 .5 1.3 1 .4.4.6.9.8 1.5.2.6.3 1.2.3 1.9v.5h3.2v-.5c0-2.2-.6-3.9-1.7-5.2-1-1.2-2.5-1.9-4.3-2.1V329h-2.9v3.2c-.8.1-1.5.3-2.2.6-.8.3-1.5.8-2.1 1.3-.6.6-1 1.2-1.3 2-.3.7-.5 1.6-.5 2.5 0 1 .2 1.9.5 2.6.3.7.8 1.4 1.5 1.9.6.5 1.4 1 2.2 1.4.8.4 1.8.7 2.9 1 .9.3 1.7.6 2.4 1 .6.3 1.1.6 1.5 1 .4.3.6.7.7 1.1.2.4.2.8.2 1.3s-.1 1-.3 1.4c-.2.4-.5.8-.9 1.1-.4.3-.9.6-1.4.8-1 .3-2.4.4-3.8.1-.6-.1-1.1-.4-1.6-.7-.5-.3-.8-.8-1.1-1.4-.3-.6-.4-1.3-.4-2.2v-.5H208v.5c0 1.3.2 2.3.6 3.2.4.9 1 1.6 1.7 2.2.7.6 1.5 1 2.4 1.3.7.2 1.4.4 2.2.5v2.9h2.9v-3c.8-.1 1.6-.3 2.3-.5.8-.3 1.6-.8 2.2-1.3.6-.5 1.1-1.2 1.4-2 .3-.7.5-1.6.5-2.5-.2-1-.4-1.9-.7-2.6z"/>
    <path fill="#003d83" d="M239.5 347.2c-.3-.7-.8-1.4-1.4-1.9-.6-.5-1.4-1-2.2-1.4-.8-.4-1.8-.7-2.8-1.1-1-.3-1.9-.7-2.5-1-.6-.3-1.1-.6-1.5-1-.3-.3-.6-.7-.7-1-.1-.4-.2-.8-.2-1.3s.1-1 .3-1.4c.2-.4.4-.8.8-1.1.3-.3.8-.6 1.3-.8 1-.4 2.7-.4 3.8.1.5.2 1 .5 1.3 1 .4.4.6.9.8 1.5.2.6.3 1.2.3 1.9v.5h3.2v-.5c0-2.2-.6-3.9-1.7-5.2-1-1.2-2.5-1.9-4.3-2.1V329h-2.9v3.2c-.8.1-1.5.3-2.2.6-.8.3-1.5.8-2.1 1.3-.6.6-1 1.2-1.3 2-.3.7-.5 1.6-.5 2.5 0 1 .2 1.9.5 2.6.3.7.8 1.4 1.5 1.9.6.5 1.4 1 2.2 1.4.8.4 1.8.7 2.9 1 .9.3 1.7.6 2.4 1 .6.3 1.1.6 1.5 1 .4.3.6.7.7 1.1.2.4.2.8.2 1.3s-.1 1-.3 1.4c-.2.4-.5.8-.9 1.1-.4.3-.9.6-1.4.8-1 .3-2.4.4-3.8.1-.6-.1-1.1-.4-1.6-.7-.5-.3-.8-.8-1.1-1.4-.3-.6-.4-1.3-.4-2.2v-.5H224v.5c0 1.3.2 2.3.6 3.2.4.9 1 1.6 1.7 2.2.7.6 1.5 1 2.4 1.3.7.2 1.4.4 2.2.5v2.9h2.9v-3c.8-.1 1.6-.3 2.3-.5.8-.3 1.6-.8 2.2-1.3.6-.5 1.1-1.2 1.4-2 .3-.7.5-1.6.5-2.5-.2-1-.4-1.9-.7-2.6z"/>
    <g fill="#003d83">
        <path d="M216 454c-9.9 0-18 8.1-18 18s8.1 18 18 18 18-8.1 18-18-8.1-18-18-18zm0 33.9c-8.8 0-15.9-7.2-15.9-15.9s7.2-15.9 15.9-15.9 15.9 7.2 15.9 15.9-7.1 15.9-15.9 15.9z"/>
        <path d="M216.5 463h-2v10.6l9.4 5.6.9-1.5-8.3-5z"/>
    </g>
    <g fill="#003d83">
        <path d="M230.5 517.3H228v2.1h2.5c.8 0 1.4.6 1.4 1.4v5.4h-31.7v-5.4c0-.8.6-1.4 1.4-1.4h2.5v-2.1h-2.5c-1.9 0-3.5 1.6-3.5 3.5v31.7c0 1.9 1.6 3.5 3.5 3.5h28.9c1.9 0 3.5-1.6 3.5-3.5v-31.7c0-1.9-1.6-3.5-3.5-3.5zm1.4 11v24.2c0 .8-.6 1.4-1.4 1.4h-28.9c-.8 0-1.4-.6-1.4-1.4v-24.2h31.7z"/>
        <path d="M209.5 517.3h13v2.1h-13zm-2.7 5.6c.5 0 .8-.4.8-.8v-5.3c0-.4-.4-.8-.8-.8-.5 0-.8.4-.8.8v5.3c0 .5.3.8.8.8zm18.4 0c.5 0 .8-.4.8-.8v-5.3c0-.4-.4-.8-.8-.8-.5 0-.8.4-.8.8v5.3c0 .5.4.8.8.8zm-10.9 17.3h1.4c1.8 0 2.9-1.1 2.9-2.6 0-1.4-1.1-2.4-2.8-2.4-1.9 0-2.7 1.3-2.8 2.4h-1.5c0-1.7 1.4-3.7 4.3-3.7 2.7 0 4.4 1.5 4.4 3.5.1 2-1.5 3.3-2.7 3.4 1.3.1 3.2 1.1 3.2 3.4 0 2.4-2.1 4.1-5 4.1-3 0-4.6-1.8-4.7-3.9h1.5c.2 1.4 1.2 2.5 3.2 2.5 2.1 0 3.4-1.2 3.4-2.8 0-1.6-1.3-2.7-3.4-2.7h-1.5v-1.2z"/>
    </g>
    <g fill="#003d83">
        <path d="M230.5 581.3H228v2.1h2.5c.8 0 1.4.6 1.4 1.4v5.4h-31.7v-5.4c0-.8.6-1.4 1.4-1.4h2.5v-2.1h-2.5c-1.9 0-3.5 1.6-3.5 3.5v31.7c0 1.9 1.6 3.5 3.5 3.5h28.9c1.9 0 3.5-1.6 3.5-3.5v-31.7c0-1.9-1.6-3.5-3.5-3.5zm1.4 11v24.2c0 .8-.6 1.4-1.4 1.4h-28.9c-.8 0-1.4-.6-1.4-1.4v-24.2h31.7z"/>
        <path d="M209.5 581.3h13v2.1h-13zm-2.7 5.6c.5 0 .8-.4.8-.8v-5.3c0-.4-.4-.8-.8-.8-.5 0-.8.4-.8.8v5.3c0 .5.3.8.8.8zm18.4 0c.5 0 .8-.4.8-.8v-5.3c0-.4-.4-.8-.8-.8-.5 0-.8.4-.8.8v5.3c0 .5.4.8.8.8zm-4.8 11.2v1.4l-5.9 12.5h-1.7l6.1-12.5h-7.4v-1.4h8.9z"/>
    </g>
    <g fill="#003d83">
        <path d="M230.5 645.3H228v2.1h2.5c.8 0 1.4.6 1.4 1.4v5.4h-31.7v-5.4c0-.8.6-1.4 1.4-1.4h2.5v-2.1h-2.5c-1.9 0-3.5 1.6-3.5 3.5v31.7c0 1.9 1.6 3.5 3.5 3.5h28.9c1.9 0 3.5-1.6 3.5-3.5v-31.7c0-1.9-1.6-3.5-3.5-3.5zm1.4 11v24.2c0 .8-.6 1.4-1.4 1.4h-28.9c-.8 0-1.4-.6-1.4-1.4v-24.2h31.7z"/>
        <path d="M209.5 645.3h13v2.1h-13zm-2.7 5.6c.5 0 .8-.4.8-.8v-5.3c0-.4-.4-.8-.8-.8-.5 0-.8.4-.8.8v5.3c0 .5.3.8.8.8zm18.4 0c.5 0 .8-.4.8-.8v-5.3c0-.4-.4-.8-.8-.8-.5 0-.8.4-.8.8v5.3c0 .5.4.8.8.8zM199.8 664h32.4v1.7h-32.4zm0 8.7h32.4v1.7h-32.4z"/>
        <path d="M222.283 655.283v27h-1.8v-27zm-10.8 0v27h-1.8v-27z"/>
    </g>
    <path opacity=".6" fill="#003d83" d="M215.5 283.2c-.3-.7-.8-1.4-1.4-1.9-.6-.5-1.4-1-2.2-1.4-.8-.4-1.8-.7-2.8-1.1-1-.3-1.9-.7-2.5-1-.6-.3-1.1-.6-1.5-1-.3-.3-.6-.7-.7-1-.1-.4-.2-.8-.2-1.3s.1-1 .3-1.4c.2-.4.4-.8.8-1.1.3-.3.8-.6 1.3-.8 1-.4 2.7-.4 3.8.1.5.2 1 .5 1.3 1 .4.4.6.9.8 1.5.2.6.3 1.2.3 1.9v.5h3.2v-.5c0-2.2-.6-3.9-1.7-5.2-1-1.2-2.5-1.9-4.3-2.1V265h-2.9v3.2c-.8.1-1.5.3-2.2.6-.8.3-1.5.8-2.1 1.3-.6.6-1 1.2-1.3 2-.3.7-.5 1.6-.5 2.5 0 1 .2 1.9.5 2.6.3.7.8 1.4 1.5 1.9.6.5 1.4 1 2.2 1.4.8.4 1.8.7 2.9 1 .9.3 1.7.6 2.4 1 .6.3 1.1.6 1.5 1 .4.3.6.7.7 1.1.2.4.2.8.2 1.3s-.1 1-.3 1.4c-.2.4-.5.8-.9 1.1-.4.3-.9.6-1.4.8-1 .3-2.4.4-3.8.1-.6-.1-1.1-.4-1.6-.7-.5-.3-.8-.8-1.1-1.4-.3-.6-.4-1.3-.4-2.2v-.5H200v.5c0 1.3.2 2.3.6 3.2.4.9 1 1.6 1.7 2.2.7.6 1.5 1 2.4 1.3.7.2 1.4.4 2.2.5v2.9h2.9v-3c.8-.1 1.6-.3 2.3-.5.8-.3 1.6-.8 2.2-1.3.6-.5 1.1-1.2 1.4-2 .3-.7.5-1.6.5-2.5-.2-1-.4-1.9-.7-2.6z"/>
    <path fill="#003d83" d="M231.5 283.2c-.3-.7-.8-1.4-1.4-1.9-.6-.5-1.4-1-2.2-1.4-.8-.4-1.8-.7-2.8-1.1-1-.3-1.9-.7-2.5-1-.6-.3-1.1-.6-1.5-1-.3-.3-.6-.7-.7-1-.1-.4-.2-.8-.2-1.3s.1-1 .3-1.4c.2-.4.4-.8.8-1.1.3-.3.8-.6 1.3-.8 1-.4 2.7-.4 3.8.1.5.2 1 .5 1.3 1 .4.4.6.9.8 1.5.2.6.3 1.2.3 1.9v.5h3.2v-.5c0-2.2-.6-3.9-1.7-5.2-1-1.2-2.5-1.9-4.3-2.1V265h-2.9v3.2c-.8.1-1.5.3-2.2.6-.8.3-1.5.8-2.1 1.3-.6.6-1 1.2-1.3 2-.3.7-.5 1.6-.5 2.5 0 1 .2 1.9.5 2.6.3.7.8 1.4 1.5 1.9.6.5 1.4 1 2.2 1.4.8.4 1.8.7 2.9 1 .9.3 1.7.6 2.4 1 .6.3 1.1.6 1.5 1 .4.3.6.7.7 1.1.2.4.2.8.2 1.3s-.1 1-.3 1.4c-.2.4-.5.8-.9 1.1-.4.3-.9.6-1.4.8-1 .3-2.4.4-3.8.1-.6-.1-1.1-.4-1.6-.7-.5-.3-.8-.8-1.1-1.4-.3-.6-.4-1.3-.4-2.2v-.5H216v.5c0 1.3.2 2.3.6 3.2.4.9 1 1.6 1.7 2.2.7.6 1.5 1 2.4 1.3.7.2 1.4.4 2.2.5v2.9h2.9v-3c.8-.1 1.6-.3 2.3-.5.8-.3 1.6-.8 2.2-1.3.6-.5 1.1-1.2 1.4-2 .3-.7.5-1.6.5-2.5-.2-1-.4-1.9-.7-2.6zm-8-64c-.3-.7-.8-1.4-1.4-1.9-.6-.5-1.4-1-2.2-1.4-.8-.4-1.8-.7-2.8-1.1-1-.3-1.9-.7-2.5-1-.6-.3-1.1-.6-1.5-1-.3-.3-.6-.7-.7-1-.1-.4-.2-.8-.2-1.3s.1-1 .3-1.4c.2-.4.4-.8.8-1.1.3-.3.8-.6 1.3-.8 1-.4 2.7-.4 3.8.1.5.2 1 .5 1.3 1 .4.4.6.9.8 1.5.2.6.3 1.2.3 1.9v.5h3.2v-.5c0-2.2-.6-3.9-1.7-5.2-1-1.2-2.5-1.9-4.3-2.1V201h-2.9v3.2c-.8.1-1.5.3-2.2.6-.8.3-1.5.8-2.1 1.3-.6.6-1 1.2-1.3 2-.3.7-.5 1.6-.5 2.5 0 1 .2 1.9.5 2.6.3.7.8 1.4 1.5 1.9.6.5 1.4 1 2.2 1.4.8.4 1.8.7 2.9 1 .9.3 1.7.6 2.4 1 .6.3 1.1.6 1.5 1 .4.3.6.7.7 1.1.2.4.2.8.2 1.3s-.1 1-.3 1.4c-.2.4-.5.8-.9 1.1-.4.3-.9.6-1.4.8-1 .3-2.4.4-3.8.1-.6-.1-1.1-.4-1.6-.7-.5-.3-.8-.8-1.1-1.4-.3-.6-.4-1.3-.4-2.2v-.5H208v.5c0 1.3.2 2.3.6 3.2.4.9 1 1.6 1.7 2.2.7.6 1.5 1 2.4 1.3.7.2 1.4.4 2.2.5v2.9h2.9v-3c.8-.1 1.6-.3 2.3-.5.8-.3 1.6-.8 2.2-1.3.6-.5 1.1-1.2 1.4-2 .3-.7.5-1.6.5-2.5-.2-1-.4-1.9-.7-2.6z"/>
</svg>
