<svg xmlns="http://www.w3.org/2000/svg" viewBox="0 0 99528 16069">
    <defs>
        <style>
            .str0{stroke:#ccf;stroke-width:89.9869;stroke-opacity:.2}.fil0{fill:none}
        </style>
    </defs>
    <g id="Layer_x0020_1">
        <path class="fil0 str0" d="M95282 6305c114 154 275 285 172 554-62 160-250 310-515 234-405-117-469-879 343-788zm2909 49c534-291 850 424 439 688-492 316-926-422-439-688zm845-3808c49 2513 282 2009-2840 2009-2605 0-2179 431-2174-2692l5014 683zM93604 842c3 1060-50 3658 3 4588 27 485 307 727 727 817-391 1470 1043 1575 1455 888 193-322 110-538 32-850l1820-11c-35 361-161 641 106 950 185 213 568 412 969 253 651-259 740-1285-18-1559-308-112-3206-64-3913-62-746 2-826-160-743-990 409 206 3629 106 4380 106 1226 0 1072-1016 1034-2426l-17-315c-399-166-2097-330-2699-414-897-125-1817-263-2717-374 0-1099 215-771-1089-1337-482-209-673 164-199 377 287 130 578 238 869 359zM94595 15181c-268 235-415 431-937 369-355-41-783-313-635-718 178-489 1673-637 1572 349zm2738-1728c271-245 462-452 992-364 325 54 717 317 580 710-172 495-1690 627-1572-346zm-2284-3182c92-149-68-66 219-166l3675-1140c0 1181 106 955-443 1128l-3451 1074v-896zm3894 146v2426c-535-161-778-335-1391-97-338 131-703 468-667 949 66 875 1421 1187 2092 652 384-307 395-565 394-1184V9149c1-451 64-524-119-649-177-121-4502 1291-4584 1416-118 334-40 3647-49 4313-385-122-729-299-1232-160-1346 375-952 2002 511 1920 1210-69 1152-979 1152-1587-1-928-6-1857 6-2770l3887-1215zM81329 12248c1010-1081 2277-2222 3278-3278 172-182 228-541-115-467-44 9-3701 3573-3701 3745 0 154 2417 2500 2830 2913 330 330 715 831 1022 831 212-267 72-354-127-551l-1381-1381c-607-607-1233-1199-1806-1812zM17366 15541c-122-71-22 3-146-106-1205-1051-2869-2830-2345-4581 975-3263 5823-1942 4995 1350-248 985-1770 2975-2504 3337zm-369-6993c-1700 229-3204 1984-2478 3997 344 953 1028 1879 1676 2501l424 458c478 436 699 677 1014 404 628-544 1133-1033 1646-1708 2665-3507-150-5939-2282-5652z"/>
        <path class="fil0 str0" d="M18787 11994c-201 682-938 1256-1843 1008-655-179-1278-968-1006-1849 581-1879 3403-1036 2849 841zm-1903-2262c-881 243-1702 1161-1362 2344 304 1056 1363 1613 2331 1345 2474-685 1414-4345-969-3689zM7028 6242c-61 321-688 971-1065 1028-1216 184-3196-1425-3939-2366-347-440-1541-2136-1099-3014 80-160 708-1100 1184-718 210 169 1008 910 943 1186-202 382-542 463-728 824-66 785 1788 2608 2541 2595 369-209 559-695 1001-732 289 147 1033 907 1162 1197zm-2281-916c-496-196-1334-967-1605-1363-130-190-246-379-386-586 168-347 604-477 716-938 127-523-362-824-584-1047-174-175-620-727-962-765-497-56-850 455-1063 671-336 342-513 539-451 1220 148 1621 1860 3587 3234 4412 893 536 2274 1194 3116 384 965-927 917-1145 21-2049-1112-1123-1156-670-2036 61zM7808 3718c241-287-90-976-243-1293-369-764-999-1410-1727-1806-194-105-1133-504-1358-410-77 32-337 300 162 432 1348 355 2381 1152 2752 2539 88 331 35 582 414 538zM4291 1769c141 397 461 60 1208 719 404 357 488 721 691 1294 941 139-197-1467-407-1633-153-121-1347-981-1492-380zM337 9745l7638-20c99 320 99 5674-20 5974l-7605 20c-132-320-132-5674-13-5974zm-292 92v5770c0 284 34 369 321 369h7561c287 0 320-85 320-369V9837c0-284-33-369-320-369H366c-287 0-321 85-321 369z"/>
        <path class="fil0 str0" d="M5700 12231c805 581 1425 1574 1803 1403 28-195-574-695-838-931-1329-1188-620-1124-2455 700-220-198-479-572-769-667l-1668 1396c-648 571-856 602-848 969 280-20 562-304 722-458l1794-1552c626 431 1207 1445 1664 1429 0-303-109-332-276-493-148-143-244-259-397-372l1268-1424zM2126 11381c652-287 893 651 450 865-308 149-614-12-705-206-217-464 104-593 255-659zm-110-290c-964 421-367 1783 549 1461 320-114 647-546 471-1020-123-333-567-639-1020-441z"/>
    </g>
</svg>
