<svg xmlns="http://www.w3.org/2000/svg" viewBox="0 0 99643 17100">
    <defs>
        <style>
            .str0{stroke:#ccf;stroke-width:89.8517;stroke-opacity:.2}.fil0{fill:none}
        </style>
    </defs>
    <g id="Layer_x0020_1">
        <g id="_2816459173024">
            <path class="fil0 str0" d="M92604 7089c-92-526-25-1658-27-2251-2-475-113-692 416-698 402-4 748-55 1028 115l-25 2847c-242 169-868 147-1263 95-31-27-96-84-129-108zm1877 37c-76-300-25-1688-25-2108 0-2079 167-530 1267-2905 462-997 390-720 471-1626 1450 204-374 2269 455 2857 558 75 2645-615 2325 586-102 381 72 308 157 583 96 310-85 383-164 550-137 292 102 367 13 724-47 187-244 338-336 442-99 237 379 1105-1636 1039-857-29-1676-17-2527-142zm-340-3348c-2330-434-1996 531-1996 1839 0 527-151 1451 181 1807 307 329 1251 298 1730 152 809-246 4385 818 4959-675 164-427-133-130 269-746 191-293 146-528 100-897 244-498 296-517 71-1073-134-331 178-603-216-1038-509-563-1593-340-2375-230 32-705 486-1422 300-2132-174-661-1208-1090-1391-355-148 593 241 164-611 1842-497 978-874 1048-1021 1506zM92776 12828c391-41 796-113 1190-171 183-27 373-56 566-85 271-39 322-24 434-209 237-387 640-1470 886-1738 358 425 681 1639 1042 1898l2013 315c-144 260-492 515-727 740-1145 1095-733 360-409 2860-609-192-1360-800-1930-950l-1885 970c69-612 344-1619 308-2166l-1322-1250c-133-127-82-60-166-214zm1856-685c-188 20-2367 244-2498 461-147 246 432 659 754 962 326 306 636 622 963 900-62 556-431 2128-351 2554 312 104 886-287 1194-456 1458-802 933-741 2323-9l899 462c887 365-213-2040-30-2546 175-281 650-666 915-920 1066-1027 1542-1080-1726-1415l-863-1778c-412-837-519-457-1038 622-169 352-430 821-542 1163zM82025 11142c103-8 891-211 979-533 191-693-129-666 826-616 161 693 97 779 389 891l626 246c218 25 493-297 754-403l464 478c-81 243-219 323-341 542-119 215 210 1003 416 1079 144 54 513 92 673 136v700c-196 46-728 116-840 263l-130 335c-47 118-164 307-173 408-19 215 308 499 399 754l-474 466c-610-221-328-571-1115-240-773 326-382 106-645 986h-697c-46-196-117-728-263-839-35-26-77-40-119-57-960-387-556-278-1341 184l-492-505c108-250 285-384 400-644-13-127-255-784-346-880-439-464-862 430-802-922 201-46 732-100 837-266l109-299c251-686 312-304-216-1143 92-203 321-390 478-521 246 94 395 278 644 400zm567-656l-503 210c-607-336-598-685-1283-8-670 662-216 674 35 1277 0 8-108 375-237 469-477 348-861-300-861 1052 0 680 343 609 917 721l212 502c-412 670-636 647-5 1280 672 675 669 211 1275-34l457 180c179 872 67 920 1063 920 655 0 591-338 711-925l459-181c374 128 395 404 878 351 237-107 661-526 766-766 51-471-221-517-350-878l185-459c861-188 920-46 920-1062 0-682-332-569-922-714l-181-455c109-311 512-552 312-961-87-177-508-587-730-684-393-41-577 184-819 348-125-23-139-26-265-77-884-357 300-1025-1314-1025-677 0-608 345-720 919z"/>
            <path class="fil0 str0" d="M82335 13603c-368-1586 1960-2063 2308-572 171 731-326 1314-877 1434-735 161-1303-312-1431-862zm729-1840c-2087 614-1166 3666 862 3097 717-202 1401-980 1112-1990-211-735-1022-1387-1974-1107zM2706 592c1646-378 2941 843 3226 2105 374 1653-816 3001-2106 3279-1647 356-3012-817-3275-2119C244 2339 1149 951 2706 592zm2688 5126l1485 1507c177 177 299 418 631 323 92-322-118-432-291-605L5683 5429c155-391 1377-1798 437-3558l-467-712C5018 551 4402 67 3210 77 979 96-557 2308 274 4482c620 1621 2485 2380 4094 1805 472-169 690-439 1026-569zM922 11748c355-86 5045-71 5644-23 530 43 524 403 522 899v2902c1 455 71 884-385 998-318 79-5130 64-5692 19-531-43-524-405-522-901v-2902c-1-536-90-865 433-992zm-84-421c-1020 199-764 1352-764 2516v1625c-1 1833 520 1493 3424 1493 744 0 2663 95 3273-22 986-189 733-1526 733-2516 0-541-1-1083 0-1625 0-658 48-980-373-1311-420-331-2388-182-3052-182-727 0-2660-92-3241 22z"/>
            <path class="fil0 str0" d="M2824 14162c-432 284-984 899-1525 1371-204 177-393 238-318 596 408 100 840-518 1114-785l772-682c164-184 79-147 283-256 173 101 483 461 639 465 301-88 424-319 636-494 206 114 1166 1075 1540 1411 399 360 395 493 591 301 136-143 131-137-9-302l-776-735c-199-180-310-261-498-487-151-182-369-301-481-490l706-669c99-84 161-126 260-207 183-148 294-291 485-443 173-137 428-254 364-572-242-149-276-58-760 353-129 109-187 204-321 314-124 102-240 175-352 290-165 169-167 180-329 308-162 129-887 840-1056 921l-2059-1834c-109-104-207-159-322-262-459-410-529 29-384 211l1193 1070c230 232 406 250 607 607zM17098 13608c-3 4-105-57-69 172 27 170 325 292 468 370 800 439 1160 296 1349 765 126 316 76 691 57 1037-1861 874-3631 856-5489-2-97-1665 363-1278 1092-1645 186-94 804-325 787-578-27-405-556-3-907 166-733 353-1614 292-1398 2007 42 333 52 331 265 441 2628 1357 5851 260 6028-191 128-324 133-1347-277-1749-292-287-584-272-959-448-269-126-733-478-947-345z"/>
            <path class="fil0 str0" d="M15009 12026c-517-2587 2113-2676 2322-999 314 2521-1974 2744-2322 999zm774-2467c-1049 228-1386 1150-1206 2410 335 2341 3435 2193 3183-883-85-1045-822-1778-1977-1527z"/>
        </g>
    </g>
</svg>
