<svg xmlns="http://www.w3.org/2000/svg" viewBox="0 0 99731 16677">
    <defs>
        <style>
            .str0{stroke:#ccf;stroke-width:89.8799;stroke-opacity:.2}.fil0{fill:none}
        </style>
    </defs>
    <g id="Layer_x0020_1">
        <path class="fil0 str0" d="M5648 14332c1182-445 1748 1328 641 1711-1168 403-1733-1301-641-1711zm-4240-2445c1184-269 1532 1528 396 1777-1187 261-1615-1499-396-1777zm4385-2409c512-128 953 228 1066 629 154 541-226 1034-621 1140-1188 317-1712-1451-445-1769zm-1099 1303c-194 193-1819 1048-2024 1155-205-144-277-291-624-416-1679-601-2547 1923-923 2510 270 98 588 103 875 10 384-124 451-278 672-433l2031 1122c-281 1998 1772 2260 2440 1108 579-999-339-2186-1430-1959-473 98-558 301-814 467l-2031-1122c65-428 69-473-4-902l2030-1129c259 180 897 846 1745 333 480-292 913-982 542-1735-649-1320-2835-874-2485 991zM17154 15534c-250-164-597-567-835-804-566-565-2123-2000-2348-2520-602-1387 839-2795 2234-2117 570 278 755 683 890 712 438-55 1017-1298 2334-769 691 277 1311 1122 947 2094-226 603-1159 1380-1564 1781l-1658 1623zm0 542c294-91 1603-1486 1912-1793 430-427 1472-1327 1706-1989 399-1127-200-2131-903-2522-1498-834-2436 344-2715 500-197-123-271-271-485-408-182-117-384-231-636-303-1511-427-3061 977-2509 2686 234 725 1928 2241 2629 2942 229 228 699 800 1001 887zM3368 508c1923-277 3477 1158 3704 2810 271 1968-1129 3516-2812 3757C2307 7356 735 5936 505 4261c-145-1058 196-1891 682-2546l428-449c386-375 1156-671 1753-758zM58 4141c160 1933 1918 3564 4074 3380 1942-166 3573-1909 3388-4074C7354 1505 5611-126 3446 59 1495 225-122 1967 58 4141z"/>
        <path class="fil0 str0" d="M3458 3790c-176 321-1266 1281-1314 1346-162 219 67 428 263 324 11-6 182-196 201-215l762-761c179-178 228-264 419-363 338 193 1197 1198 1354 1307 195 136 173 74 267-19 212-217-74-346-546-821-245-247-584-503-744-798 175-322 1265-1282 1313-1346 163-220-67-427-264-326-73 38-1052 1162-1380 1341-658-359-1331-1627-1644-1313-206 205 103 384 187 465 142 137 240 241 380 381 247 247 584 502 746 798zM94063 15139c125-221 1637-1681 1946-1990 347-347 1711-1794 1997-1948 124 110 218 209 346 336 199 199 204 156 312 375l-3905 3875c-223-109-523-467-696-648zm2870-4955c165 70 75 9 216 148 73 71 103 106 174 178 120 121 202 214 327 309-120 217-3753 3850-3967 3969-178-241-507-444-652-728l3902-3876zm1969-254c375 370 532 1141 87 1612-214-94-707-650-878-821l-441-441c-164-164-305-265-380-437 473-448 1237-283 1612 87zm-4202 6396c302-33 360-182 540-362l2968-2966c407-406 1350-1167 1460-1935 143-1000-575-1819-1447-1909-1047-107-1717 798-2153 1234-1011 1011-2491 2427-3409 3406-245 261-254 926-317 1393-53 388-206 1102-120 1423 287 76 1526-51 1766-246 325-560-1220-195-1344-184l210-1595c407 186 1380 1418 1846 1741zM95041 1586c423-334 442-467 902-763l909 812c112 94 186 140 298 234 120 102 173 190 294 291l854 722c6 721 89 3772-82 4182l-1178-25c-133-397-40-1084-39-1555 3-997-291-861-1468-861-1089 0-443 1272-673 2427-414 39-837 45-1248-15-64-611-27-3261-27-4077l1458-1372zm902-1271c-323 82-1212 1014-1525 1292l-2069 1814c-323 312-78 601 214 390l605-503 12 3704c58 377 277 474 705 474 1385 0 1419 86 1419-1061-1-1227-143-1385 286-1385 1258 0 995-251 994 1385-1 631-83 1061 651 1061 1627 0 1484-1 1484-1767 0-794-15-1602 4-2395 293 132 560 705 921 515 146-289-122-393-293-531l-1444-1315c-435-346-1647-1544-1964-1678zM79557 16178c135-278 73-113 237-289 178-193 452-590 241-880-246-338-471-619-619-1142-285-1009-91-2135 414-2865 1404-2033 4268-1688 5320-231 2058 2851-499 6144-3607 5248-239-69-454-224-617-268-431-119-389 352-1369 427zm1265 16c1057 379 1671 636 2915 240 930-297 1510-863 1966-1491 501-692 749-1796 548-2815-212-1072-748-1638-1306-2147-2064-1883-5907-521-6105 2656-86 1381 430 1880 832 2639-430 937-983 474-687 1246 833 287 1221-101 1837-328z"/>
        <path class="fil0 str0" d="M84158 12552c185 0 335 150 335 335s-150 335-335 335c-186 0-335-150-335-335s149-335 335-335zM82685 12552c185 0 335 150 335 335s-150 335-335 335-335-150-335-335 150-335 335-335zM81212 12552c185 0 335 150 335 335s-150 335-335 335-335-150-335-335 150-335 335-335z"/>
    </g>
</svg>
