<svg xmlns="http://www.w3.org/2000/svg" viewBox="0 0 99767 16611">
    <defs>
        <style>
            .str0{stroke:#ccf;stroke-width:90.0739;stroke-opacity:.2}.fil0{fill:none}
        </style>
    </defs>
    <g id="Layer_x0020_1">
        <path class="fil0 str0" d="M3811 15264c633-300 1058 717 426 977-649 268-1107-655-426-977zm-3092-289c613-233 989 736 362 992-655 267-1119-703-362-992zm5686-530c271 800-866 459-306-54l306 54zm-2572-2754c1052-274 1333 1298 414 1565-1007 291-1560-1268-414-1565zm-2175-1191c-245-395 76-539 395-403 57 257 56 223-59 443l-336-40zm4867-1092c756-334 1007 729 463 952-459 188-907-167-745-684 78-251 103-189 282-268zm-2485 7158c740-21 1000-927 569-1383-160-169-333-127-460-314v-1233c106-159 399-233 535-273l1027 1036c-158 449 126 882 614 779 370-78 554-610 250-906-222-215-297-125-556-127-261-2-747-634-1134-996 287-654 311-679 8-1336l1300-1315c1108 579 1697-499 1188-1142-218-275-695-417-1089-164s-349 571-299 1098l-1305 1295c-860-266-479-282-1350 1-139-117-979-924-1002-1021-53-217 175-457-202-717-263-181-585-87-727 97-150 193-138 538 31 718 248 264 520 48 717 169 85 52 865 864 974 984-302 641-276 693 10 1332l-1738 1701c-277-157-582-314-959-58-1082 732 304 2141 1058 1234 337-406 85-705 129-916l1709-1749c138 43 432 117 537 276v1233c-134 198-312 131-486 345-423 518-83 1373 651 1352zM15318 10683l2853 3 476 1250c1205 0 1605-167 1605 507 0 653 72 3342-74 3786-143 53-223 86-437 86-942 0-5905 103-6418-86-146-444-74-3133-74-3786 0-674 400-507 1594-512l475-1248zm-1320 997c0-410-97-359 251-371v375h-137l-114-4zm501 4l-6-611-716-16-33 615c-526 60-747 203-747 771v3344c0 527 242 779 763 779h5977c525 0 767-252 767-779v-3344c0-942-756-759-1584-759-172-43-521-1071-566-1252h-3187l-400 1023c-105 251-32 189-268 229z"/>
        <path class="fil0 str0" d="M16436 11849c1175-208 2076 636 2268 1565 250 1209-608 2179-1557 2355-2650 493-3362-3450-711-3920zm-1890 2413c555 2827 4962 2085 4411-865-201-1079-1265-2052-2640-1788-1063 204-2041 1273-1771 2653z"/>
        <path class="fil0 str0" d="M16477 12609c711-190 1330 320 1475 860 201 754-314 1401-865 1543-1576 404-2305-1951-610-2403zm-1188 1535c377 1828 3324 1367 2926-638-378-1902-3341-1372-2926 638zM19716 12491l-11 389c-330 100-499-68-394-416l405 27zm-425-222c-262 128-383 348-215 661 116 216 415 320 689 184 462-230 181-1166-474-845zM6249 6426c89-55-119-32 181-63l863 31c71 281 88 918-15 1178l-1016-37-13-1109zM1614 2139l4373-20c91 265 91 5205 1 5450l-4374 20c-89-265-89-5205 0-5450zm-261 4287l-13 1109c-187 115-795 68-1016 37-103-260-85-897-14-1178 194-38 312-29 508-29 86 0 217-9 297-4l238 65zm4902-1221l10-221 1014 5 8 1131-210 30-824-5 2-940zM318 5003l1016-21 16 223-2 940-1033-7 3-1135zm5935-1439l1034 7-2 1135-1017 20-15-1162zm-5938 25l1033-28-4 1163-1021-5-8-1130zm5947-1415c74-46-5-29 118-52l898 14c103 260 86 898 15 1179-208 41-357 27-567 28-74 1-232 9-296 3-300-32-92-9-181-63l13-1109zm-4922 0l13 1109c-161 98-316 61-535 60-196 0-314 10-508-28-71-281-89-919 14-1179 221-31 829-78 1016 38zm6119-227c-205-169-5448-62-6524-63-559-1-878-173-883 390v5220c11 305 49 330 350 336 1255 25 6923 52 7057-69 77-76 47-20 79-161l7-5028c4-442 57-483-86-625z"/>
        <path class="fil0 str0" d="M3414 4224c157 38 885 501 1005 630-120 129-848 593-1005 630V4224zm-258-72c0 1001-163 1911 297 1654 312-175 1259-748 1373-952-121-216-1020-739-1335-928-244-146-335-125-335 226zM95590 9228c2001-233 3626 1298 3822 3055 223 2009-1289 3633-3048 3828-2015 223-3636-1287-3831-3048-225-2031 1282-3628 3057-3835zm-38-282c-1918 244-3569 1945-3303 4165 227 1898 1976 3546 4163 3284 1897-228 3544-1977 3282-4165-225-1881-1979-3559-4142-3284z"/>
        <path class="fil0 str0" d="M95563 13609c-558-227-1158-1093-1571-1042-29 295 301 443 687 753 1004 807 747 856 1518-12l940-1054c404-491 895-881 784-1131-292-65-459 338-625 529l-1733 1957zM79778 11060c296-80 6190-80 6498 0l-12 5087c-296 81-6190 81-6498 0l12-5087zm5-1380h748l35 480 1063-8 20-472 2733 1 44 477 1055-3 30-475h748l-5 1120h-6471V9680zm4877-498h594l9 746h-627l24-746zm-3857 0h592l8 746h-627l27-746zm-1239 270c-95 477-66 6795 22 6890 114 122 5138 64 6062 65 230 0 661 69 799-86 117-146 136-6342 31-6883l-967-8c0-363 73-488-323-504-233-9-541-11-735 33-186 386 118 483-494 473l-1936 2c-608 7-241-75-434-475-205-46-548-52-792-31-342 29-266 185-266 498l-967 26z"/>
        <path class="fil0 str0" d="M84265 14314l874-29-9 875-850-4-15-842zm-1120-23l872-3 4 659-26 214-844-6-6-864zm-1120-3l646-1 228 11-20 861-838 2-15-214-1-659zm-1125 0l875 8-4 851-842 15-29-874zm4223-1091c43 112 113 706 8 829-90 105-730 46-865 26-83-259-83-638 0-896 168-25 280-22 448-23 51-1 197-6 237-1 191 21 104-27 172 65zm-1978-26l872-3v871l-646 3-226-13v-858zm-1119-3l645-2 226 13v852l-227 8h-644v-871zm-1107 29c164-114 646-73 857-41 83 258 83 637 0 896-135 20-775 79-865-26-105-123-35-717 8-829zm3361-1146l850-4 9 876-874-30 15-842zm-1117-2l847-2 7 873-874-11 20-860zm-1116-3l844 6 6 864-875 3 25-873zm-1118-1l842 15 4 851-875 8 29-874zm-274 3340l4759 25-27-3588-4730-25-2 3588zM94158 7195c-74-256-88-844-30-1152h3685c53 308 39 896-36 1152-317 164-3301 164-3619 0zm-59-6138h3737l1 4736h-3738V1057zm59-654c299-165 3310-159 3632-2l47 407-3744-3 65-402zm77-298c-478 195-388 547-387 1123l17 5840c85 470 494 474 993 472 457-3 2610 49 2874-50 421-157 356-623 355-1120l-16-5840c-86-471-494-474-993-472-453 3-2597-53-2843 47z"/>
        <path class="fil0 str0" d="M96183 6469l-15 416-421-22 27-415 409 21zm-432-215c-260 129-364 343-215 663 92 198 398 318 688 178 463-222 201-1178-473-841zM99108 2631c210 114 316-96 401-257 736-1403-861-2311-287-1426 606 934-175 1424-114 1683zM92828 2631c58-249-702-755-139-1647 490-776-520-314-449 768 14 224 80 408 167 583 47 94 132 284 264 320 279 77 80 18 157-24z"/>
        <path class="fil0 str0" d="M93360 2358c16-267-239-307-242-721-2-414 262-496 246-711-1-1-127-276-366 195-306 606-4 1369 362 1237zM98562 952c31 244 243 285 254 688 13 442-219 486-255 742 300 182 492-313 504-687 11-304-260-1051-503-743zM95351 574c136 170 563 153 726 11-120-266-684-209-726-11zM96224 581c64 74-40 85 160 100 201 16 163-61 201-107-57-128 32-119-159-141-157-18-180 24-202 148z"/>
    </g>
</svg>
