<?xml version="1.0" encoding="UTF-8"?>
<!DOCTYPE svg PUBLIC "-//W3C//DTD SVG 1.1//EN" "http://www.w3.org/Graphics/SVG/1.1/DTD/svg11.dtd">
<!-- Creator: CorelDRAW X8 -->
<svg xmlns="http://www.w3.org/2000/svg" xml:space="preserve" width="1562px" height="1890px" version="1.1" style="shape-rendering:geometricPrecision; text-rendering:geometricPrecision; image-rendering:optimizeQuality; fill-rule:evenodd; clip-rule:evenodd"
viewBox="0 0 15618 18892"
 xmlns:xlink="http://www.w3.org/1999/xlink">
 <defs>
  <style type="text/css">
   <![CDATA[
    .fil3 {fill:url(#id0)}
    .fil2 {fill:url(#id1)}
    .fil4 {fill:url(#id2)}
    .fil0 {fill:url(#id3)}
    .fil1 {fill:url(#id4)}
   ]]>
  </style>
  <linearGradient id="id0" gradientUnits="userSpaceOnUse" x1="7236.65" y1="12.3268" x2="7236.65" y2="18810.9">
   <stop offset="0" style="stop-opacity:1; stop-color:#61A5D9"/>
   <stop offset="1" style="stop-opacity:1; stop-color:#3692D9"/>
  </linearGradient>
  <linearGradient id="id1" gradientUnits="userSpaceOnUse" x1="3718.03" y1="376.746" x2="6596.26" y2="3796.53">
   <stop offset="0" style="stop-opacity:1; stop-color:#646464"/>
   <stop offset="1" style="stop-opacity:1; stop-color:#323232"/>
  </linearGradient>
  <linearGradient id="id2" gradientUnits="userSpaceOnUse" xlink:href="#id0" x1="195.088" y1="12.3172" x2="195.088" y2="18814.2">
  </linearGradient>
  <linearGradient id="id3" gradientUnits="userSpaceOnUse" x1="2064.11" y1="261.062" x2="2064.11" y2="18863.2">
   <stop offset="0" style="stop-opacity:1; stop-color:#0065B2"/>
   <stop offset="1" style="stop-opacity:1; stop-color:#004174"/>
  </linearGradient>
  <linearGradient id="id4" gradientUnits="userSpaceOnUse" xlink:href="#id3" x1="8031.14" y1="260.799" x2="8031.14" y2="18844.2">
  </linearGradient>
 </defs>
 <g id="Layer_x0020_1">
  <metadata id="CorelCorpID_0Corel-Layer"/>
  <g id="_1825896234720">
   <path class="fil0" d="M5577 5117c-1093,-3467 -3115,-5117 -3115,-5117l-1985 0 0 18892 3694 0c790,-1848 1321,-3552 1649,-5118l-1202 0 0 -8657 959 0z"/>
   <path class="fil1" d="M7627 18873c816,-40 1557,-139 2225,-302 880,-216 1632,-532 2252,-951 624,-412 1196,-984 1724,-1710 523,-725 954,-1644 1289,-2752 334,-1109 501,-2380 501,-3814 0,-1684 -247,-3183 -744,-4494 -492,-1310 -1235,-2383 -2233,-3228 -766,-650 -1689,-1103 -2771,-1354 -773,-181 -1896,-268 -3363,-268l-1682 0c2106,1421 5560,4201 6380,7594 61,240 108,502 140,785l0 1c43,360 59,726 51,1093 -7,614 -66,1159 -177,1637 -721,3855 -3392,7494 -3592,7763l0 0z"/>
   <path class="fil2" d="M6991 5117c890,0 1535,77 1935,231 556,217 1027,643 1414,1281 166,271 296,593 390,965 -819,-3393 -4273,-6173 -6380,-7594l-1888 0c0,0 2022,1650 3115,5117l1414 0 0 0z"/>
   <path class="fil3" d="M10730 7594c62,240 109,502 140,785 0,0 0,0 0,1 44,360 60,726 52,1093 -7,614 -66,1159 -177,1637 -749,4007 -3605,7778 -3605,7778 166,-2 329,-7 489,-15 201,-269 2871,-3908 3592,-7763 111,-478 171,-1023 178,-1637 7,-367 -8,-733 -52,-1093l0 -1c-31,-283 -79,-545 -140,-785 -820,-3393 -4273,-6173 -6380,-7594l-477 0c2107,1421 5561,4201 6380,7594l0 0z"/>
   <polygon class="fil4" points="477,18892 477,0 0,0 0,18892 "/>
  </g>
 </g>
</svg>
