<?xml version="1.0" encoding="UTF-8"?>
<!DOCTYPE svg PUBLIC "-//W3C//DTD SVG 1.1//EN" "http://www.w3.org/Graphics/SVG/1.1/DTD/svg11.dtd">
<!-- Creator: CorelDRAW X8 -->
<svg xmlns="http://www.w3.org/2000/svg" xml:space="preserve" width="700px" height="460px" version="1.1" style="shape-rendering:geometricPrecision; text-rendering:geometricPrecision; image-rendering:optimizeQuality; fill-rule:evenodd; clip-rule:evenodd"
viewBox="0 0 7000 4600"
 xmlns:xlink="http://www.w3.org/1999/xlink">
 <defs>
  <style type="text/css">
   <![CDATA[
    .fil0 {fill:#60D9FA}
    .fil1 {fill:#60D9FA;fill-rule:nonzero}
   ]]>
  </style>
 </defs>
 <g id="Layer_x0020_1">
  <metadata id="CorelCorpID_0Corel-Layer"/>
  <g id="_1962828194944">
   <path class="fil0" d="M1979 3380c-66,27 -110,25 -164,-15 -150,-113 -230,-407 -265,-588 -2,-15 -4,-29 -9,-43l244 -47c51,-11 138,-33 189,-49 15,-5 15,-4 26,4 91,59 168,93 251,141 9,5 14,6 23,11l120 58c-3,16 -10,22 -17,36 -30,73 -101,186 -143,248 -46,69 -154,203 -255,244zm1153 -1295c14,12 80,119 93,141 77,131 152,300 158,449 2,34 -5,70 -17,98 -46,102 -229,105 -316,98 -161,-13 -258,-46 -402,-93l-41 -13c2,-9 5,-15 8,-25 3,-9 6,-15 9,-23l52 -149c5,-17 10,-31 15,-48l49 -178c6,-28 17,-22 72,-54 39,-23 77,-44 112,-66l156 -102c14,-9 39,-29 52,-35zm-676 618l-80 -37c-8,-4 -9,-6 -17,-9 -7,-3 -11,-5 -18,-8l-82 -44c-11,-5 -58,-28 -65,-37 53,-22 128,-46 183,-68 33,-14 56,-27 87,-39 33,-13 58,-27 88,-39 -5,24 -13,48 -20,72 -14,44 -62,189 -76,209zm333 -588c17,-82 41,-249 47,-334 1,-15 1,-36 8,-47l145 162c9,11 15,20 24,30 7,8 17,22 25,29 -13,6 -44,30 -59,40 -29,20 -161,108 -190,120zm-1286 169c13,3 26,17 36,27l229 176c14,10 27,18 39,28 -18,8 -121,29 -145,34 -24,4 -47,8 -70,13 -13,2 -20,3 -34,6 -11,2 -26,2 -37,6 -9,-57 -15,-187 -17,-253 0,-13 1,-25 -1,-37zm90 -849c33,-13 66,-33 84,-41 11,-4 19,-7 29,-13 18,-10 39,-16 57,-26 36,-22 305,-126 362,-141l62 -21 96 65c82,56 206,151 284,217 13,11 119,103 122,108 4,11 -3,67 -4,82l-14 161c-2,8 -2,12 -3,20 -12,126 -38,250 -63,373l-175 83c-20,12 -260,108 -296,118l-91 31c-11,3 -17,4 -32,10l-191 -134c-23,-17 -43,-32 -65,-49 -50,-37 -136,-110 -186,-153l-60 -57c-3,-9 8,-140 10,-161 13,-150 44,-327 74,-472zm-232 1159c-14,-1 -34,2 -50,3 -132,8 -338,4 -460,-33l-44 -13c-148,-51 -225,-122 -166,-276l18 -43c30,-63 55,-99 97,-156 50,-67 205,-228 279,-281 5,12 27,37 35,47 63,72 125,146 193,214 9,8 79,77 80,80l0 110c0,39 1,74 2,114l13 203c1,8 3,24 3,31zm1477 -1534c15,-2 33,-3 49,-4l152 -4c56,-1 135,5 191,14 46,7 92,14 136,27 63,20 169,59 196,125 18,45 19,70 8,118 -8,33 -18,55 -31,86 -4,9 -5,11 -10,19 -4,7 -6,12 -11,20 -28,50 -98,152 -138,190 -18,17 -40,45 -67,71 -25,24 -127,124 -151,134 -7,-14 -26,-33 -36,-46 -58,-72 -162,-185 -231,-252 -52,-50 -42,-29 -40,-93 2,-96 -4,-191 -7,-286l-5 -59c-2,-16 -6,-45 -5,-60zm-448 76l144 -32c25,-4 125,-25 143,-24l19 290c-12,-3 -28,-20 -39,-29l-75 -61c-14,-11 -24,-19 -38,-30 -13,-10 -26,-19 -38,-29l-116 -85zm-1036 784c-5,-10 -16,-19 -23,-26l-97 -108c-9,-10 -16,-19 -24,-29 -11,-13 -42,-48 -48,-62 14,-6 19,-12 30,-20 8,-5 21,-14 29,-20l123 -79c21,-13 45,-26 64,-40l-30 190c-3,19 -19,186 -24,194zm294 -692c-2,-12 28,-103 35,-123l58 -157 163 81c12,6 22,11 34,17l65 38 -226 88c-47,19 -82,37 -129,56zm-193 98c-53,22 -362,213 -389,243 -6,-10 -18,-25 -24,-36 -9,-13 -17,-25 -26,-38 -96,-145 -232,-413 -194,-585 23,-107 152,-127 245,-131 160,-7 312,42 462,86l62 24c-4,17 -14,33 -20,52l-109 356c-4,11 -6,18 -7,29zm1086 -811c58,142 67,178 99,322 4,15 5,25 8,40 3,14 5,31 9,43 -21,-1 -196,34 -218,39 -36,8 -196,46 -230,60 -14,-12 -78,-48 -99,-60l-202 -109c-9,-5 -16,-7 -25,-11l-52 -25c-11,-6 -15,-9 -27,-12 4,-20 12,-29 19,-42 3,-6 4,-10 7,-16l63 -116c69,-127 218,-330 365,-369 37,-10 69,-4 102,13 66,35 141,145 181,243zm-888 226c-13,-9 -28,-10 -43,-17l-136 -44c-75,-22 -155,-41 -234,-50 -16,-2 -32,-3 -48,-6 -87,-14 -243,-3 -322,29l-17 7c-224,91 -223,326 -165,520l40 116c7,18 12,23 19,38 32,73 68,140 109,209 16,27 71,103 81,124 -11,12 -34,30 -48,42 -17,15 -32,28 -49,43 -61,56 -123,116 -173,180 -24,32 -52,63 -74,96 -82,122 -176,307 -110,457 61,139 206,204 341,238 19,5 38,9 59,13 60,9 118,18 179,22l63 2c62,1 127,1 190,-3 22,-2 46,0 67,-7 5,12 7,33 9,45 3,16 6,30 9,45 40,209 138,511 311,646l62 39c11,6 20,11 33,15 37,12 71,19 112,17 117,-3 235,-89 310,-164 107,-107 178,-224 252,-353 18,-31 50,-104 65,-127 19,2 24,8 40,13l124 40c56,17 110,30 168,42 15,3 30,5 43,7 15,3 28,5 43,7 32,3 58,8 91,8 16,0 29,2 45,2 287,10 483,-135 441,-426 -27,-188 -122,-386 -226,-543 -15,-23 -42,-55 -52,-80 34,-23 67,-55 97,-83 33,-30 62,-57 91,-88 57,-62 110,-121 156,-187l72 -124 49 -138c2,-10 4,-19 6,-30 1,-11 1,-20 2,-31 20,-243 -227,-347 -419,-385l-89 -14c-51,-4 -102,-11 -153,-11 -20,0 -41,-1 -62,0 -54,0 -146,1 -197,9 -18,-113 -47,-249 -92,-360 -8,-19 -10,-32 -19,-54 -36,-88 -87,-182 -148,-254 -28,-32 -59,-62 -93,-84 -139,-89 -278,-58 -409,37 -29,21 -55,43 -80,70 -25,25 -48,47 -69,74 -72,90 -131,183 -187,282 -16,29 -51,108 -65,129z"/>
   <path class="fil0" d="M1796 1948c58,143 205,224 354,200 120,-18 209,-101 249,-195 61,-145 12,-308 -121,-398 -30,-20 -71,-36 -105,-46 -111,-29 -234,13 -313,96 -21,21 -53,70 -64,97 -29,77 -33,165 0,246z"/>
  </g>
  <g id="_1962828194144">
   <path class="fil0" d="M4688 2577c-10,21 -21,30 -43,32 -62,4 -145,-51 -192,-88 -4,-3 -8,-7 -12,-9l50 -64c10,-14 27,-38 36,-53 3,-4 3,-4 7,-4 36,-6 62,-14 93,-20 3,0 4,-1 8,-2l42 -12c2,5 2,8 4,13 8,25 15,68 18,92 3,27 5,83 -11,115zm6 -568c5,0 45,12 53,15 47,16 102,41 136,77 7,8 13,18 16,28 11,34 -33,75 -56,92 -43,31 -74,44 -120,64l-12 5c-2,-3 -2,-5 -4,-8 -1,-3 -2,-5 -3,-8l-19 -47c-2,-6 -4,-10 -7,-16l-26 -54c-4,-8 0,-9 6,-29 5,-14 10,-27 14,-40l16 -59c2,-5 3,-16 6,-20zm-34 298l-28 8c-3,1 -3,1 -6,2 -2,0 -4,1 -6,2l-30 7c-3,1 -20,5 -24,4 9,-16 22,-38 31,-56 5,-10 8,-18 13,-28 5,-11 8,-19 13,-29 4,7 7,15 10,22 7,14 26,60 27,68zm-45 -216c-13,-24 -43,-71 -60,-93 -3,-4 -8,-9 -8,-13l70 8c5,1 8,2 13,3 3,0 9,1 12,2 -2,4 -4,16 -6,22 -3,11 -16,61 -21,71zm-281 318c4,-2 11,-1 15,-1l95 -6c6,0 10,-1 15,-1 -2,6 -23,33 -28,39 -5,7 -10,13 -14,19 -3,3 -5,5 -8,9 -2,2 -6,6 -8,9 -14,-12 -43,-43 -58,-59 -3,-3 -5,-6 -9,-9zm-160 -228c5,-11 9,-23 12,-28 1,-4 3,-6 4,-10 2,-6 6,-12 8,-19 5,-13 48,-97 59,-113l11 -18 38 -5c32,-4 83,-7 116,-7 6,-1 52,-1 54,0 3,2 14,17 17,21l31 43c1,2 2,3 4,5 24,34 44,70 64,106l-25 58c-2,7 -41,83 -47,93l-16 27c-2,3 -4,5 -6,9l-76 9c-9,0 -17,1 -26,2 -21,1 -58,2 -79,2l-27 -1c-3,-2 -29,-36 -33,-42 -29,-40 -59,-90 -83,-132zm192 336c-3,2 -8,7 -11,11 -31,31 -83,74 -121,91l-14 6c-47,20 -81,19 -100,-32l-5 -14c-6,-22 -8,-37 -9,-60 -3,-27 1,-100 8,-129 4,2 14,3 19,4 31,4 62,9 93,11 4,0 36,2 37,2l24 28c8,9 16,18 25,27l47 48c2,1 6,5 7,7zm34 -697c3,-4 8,-8 11,-12l37 -34c13,-12 34,-27 50,-37 13,-9 25,-17 39,-23 20,-9 55,-22 75,-11 15,7 20,13 28,27 5,10 7,18 11,28 1,3 1,4 1,7 1,2 2,4 2,7 4,18 9,59 7,77 -1,8 0,19 -1,32 -1,11 -5,57 -9,65 -4,-2 -13,-2 -18,-3 -30,-6 -80,-11 -112,-13 -23,-1 -16,2 -30,-14 -20,-24 -42,-46 -63,-69l-14 -14c-4,-3 -11,-9 -14,-13zm-94 115l29 -39c5,-6 25,-33 30,-37l67 68c-4,2 -11,1 -16,1l-32 1c-5,0 -10,1 -16,1 -5,0 -10,1 -15,1l-47 4zm-86 417c-4,-2 -9,-1 -12,-2l-47 -5c-4,-1 -8,-2 -12,-2 -6,-1 -21,-3 -25,-5 2,-5 2,-7 3,-12 1,-3 2,-8 3,-11l13 -46c2,-8 5,-16 7,-23l33 53c4,5 36,50 37,53zm-77 -234c-3,-3 -16,-32 -18,-38l-20 -51 58 -16c4,-1 8,-2 12,-3l24 -4 -36 70c-8,15 -13,27 -20,42zm-27 66c-8,17 -43,130 -43,143 -4,-1 -10,-2 -14,-3 -5,-2 -10,-3 -14,-4 -56,-15 -147,-52 -175,-102 -17,-32 10,-65 33,-86 38,-36 86,-57 132,-78l21 -7c2,4 3,11 6,16l50 112c1,3 2,5 4,9zm93 -435c45,23 55,30 94,58 4,3 7,5 11,9 3,2 8,6 11,8 -5,4 -41,51 -45,57 -7,10 -39,53 -44,64 -6,0 -30,5 -37,7l-74 16c-3,1 -5,2 -8,3l-18 5c-4,1 -6,1 -10,3 -3,-6 -3,-10 -4,-14 -1,-3 -1,-4 -2,-6l-9 -42c-11,-46 -18,-128 10,-170 7,-10 16,-16 28,-18 24,-6 66,5 97,20zm-170 248c-5,0 -9,3 -14,5l-43 18c-24,11 -47,23 -69,38 -4,3 -8,6 -13,9 -24,16 -61,52 -73,77l-3 5c-35,71 15,128 72,164l34 20c6,3 8,3 13,5 24,11 47,20 72,28 10,3 40,10 47,13 0,6 -2,15 -3,21 -1,7 -2,14 -3,21 -2,27 -5,55 -3,82 0,13 0,26 2,39 6,48 23,114 72,137 44,21 94,6 135,-15 6,-3 11,-6 17,-9 17,-11 33,-22 49,-34l16 -13c16,-13 32,-27 46,-41 5,-6 12,-10 15,-17 4,2 9,7 12,10 4,3 8,6 12,9 55,43 144,96 216,92l24 -4c4,-1 7,-1 11,-3 12,-5 22,-11 31,-20 29,-26 39,-73 41,-107 4,-50 -4,-94 -13,-142 -3,-11 -11,-36 -12,-45 5,-4 8,-3 13,-5l39 -17c17,-8 34,-17 51,-26 4,-3 8,-5 12,-8 4,-2 8,-5 12,-8 8,-5 16,-10 24,-17 4,-3 7,-6 12,-9 72,-60 89,-138 16,-200 -47,-41 -113,-69 -172,-86 -9,-2 -23,-4 -30,-8 3,-13 4,-28 6,-41 1,-15 3,-28 3,-42 1,-27 1,-53 -2,-80l-9 -46 -17 -44c-2,-3 -3,-6 -5,-9 -3,-3 -5,-5 -7,-8 -47,-64 -130,-36 -186,-5l-25 16c-13,10 -27,19 -40,31 -5,4 -10,8 -16,13 -13,11 -35,32 -46,45 -29,-24 -65,-52 -100,-69 -6,-3 -10,-6 -17,-10 -28,-14 -60,-26 -91,-30 -14,-2 -28,-3 -41,-1 -54,8 -81,45 -93,97 -2,12 -4,23 -5,35 0,11 -1,22 -1,33 2,38 8,73 15,110 2,10 11,37 12,46z"/>
   <path class="fil0" d="M4334 2263c46,23 99,11 131,-27 25,-30 30,-70 19,-101 -16,-49 -63,-79 -116,-72 -11,1 -25,6 -35,11 -34,17 -55,54 -57,91 0,10 2,29 6,38 9,25 27,48 52,60z"/>
  </g>
  <polygon class="fil1" points="2854,4054 2854,3555 2956,3555 2956,3969 3209,3969 3209,4054 "/>
  <path id="1" class="fil1" d="M3627 3939l96 16c-12,35 -32,62 -58,80 -27,19 -61,28 -101,28 -63,0 -110,-21 -140,-62 -24,-33 -36,-75 -36,-126 0,-61 15,-108 47,-142 31,-35 71,-52 120,-52 54,0 97,18 128,54 31,36 46,91 45,165l-241 0c0,29 8,51 23,67 15,16 33,24 55,24 16,0 28,-4 38,-13 11,-8 18,-21 24,-39zm5 -98c0,-28 -8,-49 -21,-64 -14,-15 -31,-22 -50,-22 -21,0 -39,8 -52,23 -14,16 -21,37 -20,63l143 0z"/>
  <path id="2" class="fil1" d="M4014 3802l-87 -16c10,-36 27,-62 51,-79 24,-17 59,-26 107,-26 43,0 75,5 96,16 21,10 36,23 44,38 9,16 13,45 13,87l-1 112c0,32 1,56 4,71 3,15 9,32 18,49l-96 0c-2,-6 -6,-16 -9,-28 -2,-6 -3,-10 -4,-11 -16,16 -34,28 -52,36 -19,8 -39,12 -60,12 -38,0 -67,-10 -89,-30 -21,-21 -32,-47 -32,-78 0,-20 5,-39 15,-55 10,-16 23,-28 41,-37 18,-8 43,-16 77,-22 45,-9 76,-17 93,-24l0 -10c0,-18 -4,-32 -13,-40 -10,-8 -27,-12 -52,-12 -18,0 -31,4 -41,10 -9,7 -17,19 -23,37zm129 78c-12,4 -32,9 -58,14 -27,6 -45,12 -53,17 -12,9 -19,20 -19,34 0,14 5,25 15,35 10,10 23,15 39,15 17,0 34,-6 50,-17 11,-9 19,-20 23,-32 2,-8 3,-24 3,-47l0 -19z"/>
  <path id="3" class="fil1" d="M4561 4054l-96 0 0 -365 89 0 0 52c15,-25 29,-41 41,-48 13,-8 27,-12 42,-12 22,0 43,6 64,18l-30 85c-16,-11 -32,-16 -45,-16 -14,0 -26,4 -35,11 -9,7 -17,21 -22,40 -5,20 -8,60 -8,122l0 113z"/>
  <path id="4" class="fil1" d="M5210 4054l-97 0 0 -186c0,-39 -2,-65 -6,-76 -4,-12 -11,-21 -20,-27 -10,-7 -21,-10 -34,-10 -17,0 -32,5 -45,14 -14,9 -23,21 -28,36 -5,15 -7,43 -7,84l0 165 -97 0 0 -365 90 0 0 54c32,-41 72,-62 121,-62 21,0 40,4 58,12 18,8 31,17 40,29 9,12 16,26 19,41 4,15 6,36 6,64l0 227z"/>
  <path id="5" class="fil1" d="M5443 3640l0 -89 96 0 0 89 -96 0zm0 414l0 -365 96 0 0 365 -96 0z"/>
  <path id="6" class="fil1" d="M6105 4054l-96 0 0 -186c0,-39 -2,-65 -6,-76 -4,-12 -11,-21 -20,-27 -10,-7 -21,-10 -34,-10 -17,0 -32,5 -46,14 -13,9 -22,21 -27,36 -5,15 -8,43 -8,84l0 165 -96 0 0 -365 89 0 0 54c32,-41 73,-62 121,-62 22,0 41,4 59,12 18,8 31,17 40,29 9,12 15,26 19,41 4,15 5,36 5,64l0 227z"/>
  <path id="7" class="fil1" d="M6329 4077l111 14c2,13 6,21 12,26 10,7 24,11 44,11 25,0 44,-4 56,-12 9,-5 15,-13 20,-24 3,-8 4,-23 4,-44l1 -54c-30,40 -66,60 -110,60 -49,0 -88,-21 -117,-62 -22,-33 -33,-74 -33,-122 0,-61 14,-108 44,-140 29,-33 66,-49 110,-49 45,0 82,20 111,60l0 -52 90 0 0 327c0,43 -3,75 -10,97 -7,21 -17,38 -30,50 -13,12 -30,22 -51,28 -22,7 -49,11 -82,11 -62,0 -105,-11 -131,-32 -26,-22 -39,-48 -39,-81 0,-3 0,-7 0,-12zm87 -213c0,39 7,67 22,85 15,18 34,27 56,27 23,0 43,-9 59,-28 16,-18 24,-45 24,-81 0,-38 -7,-66 -23,-84 -15,-19 -35,-28 -59,-28 -23,0 -42,9 -57,27 -15,18 -22,45 -22,82z"/>
 </g>
</svg>
