<?xml version="1.0" encoding="UTF-8"?>
<!DOCTYPE svg PUBLIC "-//W3C//DTD SVG 1.1//EN" "http://www.w3.org/Graphics/SVG/1.1/DTD/svg11.dtd">
<!-- Creator: CorelDRAW X8 -->
<svg xmlns="http://www.w3.org/2000/svg" xml:space="preserve" width="57px" height="46px" version="1.1" style="shape-rendering:geometricPrecision; text-rendering:geometricPrecision; image-rendering:optimizeQuality; fill-rule:evenodd; clip-rule:evenodd"
viewBox="0 0 5708 4612"
 xmlns:xlink="http://www.w3.org/1999/xlink"
 enable-background="new 0 0 26 26">
 <defs>
  <style type="text/css">
   <![CDATA[
    .fil0 {fill:#F2A900}
   ]]>
  </style>
 </defs>
 <g id="Layer_x0020_1">
  <metadata id="CorelCorpID_0Corel-Layer"/>
  <g id="Paid-595b40b65ba036ed117d496c.svg">
   <path class="fil0" d="M2826 2c-49,7 -96,32 -130,69l-1447 1468 -1029 0c-132,0 -220,88 -220,219l0 439c0,132 88,220 220,220l20 0 597 2044c22,88 110,151 220,151l3622 0c88,0 175,-63 219,-151l590 -2044c132,0 220,-88 220,-220l0 -439c0,-131 -88,-219 -220,-219l-1008 0 -1468 -1475c-41,-41 -97,-64 -155,-64 -10,0 -20,1 -30,2l-1 0zm28 535l1008 1002 -1996 0 988 -1002zm1002 1612c43,0 83,16 116,48l158 151c66,66 66,181 0,247l-1317 1318c-66,65 -181,65 -247,0l-741 -748c-66,-66 -66,-175 0,-240l151 -158c66,-66 174,-66 240,0l487 487 1029 -1057c33,-32 80,-48 124,-48z" enable-background="accumulate"/>
  </g>
 </g>
</svg>
