<?xml version="1.0" encoding="UTF-8"?>
<!DOCTYPE svg PUBLIC "-//W3C//DTD SVG 1.1//EN" "http://www.w3.org/Graphics/SVG/1.1/DTD/svg11.dtd">
<!-- Creator: CorelDRAW X8 -->
<svg xmlns="http://www.w3.org/2000/svg" xml:space="preserve" width="700px" height="700px" version="1.1" style="shape-rendering:geometricPrecision; text-rendering:geometricPrecision; image-rendering:optimizeQuality; fill-rule:evenodd; clip-rule:evenodd"
viewBox="0 0 70000 70000"
 xmlns:xlink="http://www.w3.org/1999/xlink">
 <defs>
  <style type="text/css">
   <![CDATA[
    .str1 {stroke:black;stroke-width:312.402}
    .str0 {stroke:black;stroke-width:312.402}
    .str2 {stroke:black;stroke-width:299.882}
    .fil0 {fill:none}
    .fil1 {fill:black;fill-rule:nonzero}
   ]]>
  </style>
 </defs>
 <g id="Layer_x0020_1">
  <metadata id="CorelCorpID_0Corel-Layer"/>
  <g id="_2296295872992">
   <rect class="fil0 str0" x="3340" y="10200" width="63320" height="49600" rx="3304" ry="3304"/>
   <line class="fil0 str1" x1="3340" y1="16921" x2="35000" y2= "16921" />
   <circle class="fil0 str1" cx="9137" cy="13591" r="1470"/>
   <circle class="fil0 str1" cx="14336" cy="13591" r="1470"/>
   <circle class="fil0 str1" cx="19535" cy="13591" r="1470"/>
   <line class="fil0 str1" x1="17758" y1="16921" x2="17758" y2= "59800" />
   <g>
    <line class="fil0 str1" x1="6306" y1="19877" x2="16342" y2= "19877" />
    <line class="fil0 str1" x1="6306" y1="23761" x2="13660" y2= "23761" />
    <line class="fil0 str1" x1="6306" y1="31529" x2="14621" y2= "31529" />
    <line class="fil0 str1" x1="6306" y1="39297" x2="14112" y2= "39297" />
    <line class="fil0 str1" x1="6306" y1="47065" x2="12188" y2= "47065" />
    <line class="fil0 str1" x1="6306" y1="35413" x2="13658" y2= "35413" />
    <line class="fil0 str1" x1="6306" y1="43181" x2="11568" y2= "43181" />
    <line class="fil0 str1" x1="6306" y1="50949" x2="15779" y2= "50949" />
    <line class="fil0 str1" x1="6306" y1="54833" x2="12981" y2= "54833" />
    <line class="fil0 str1" x1="6306" y1="27645" x2="13658" y2= "27645" />
   </g>
   <polygon class="fil0 str1" points="21005,21431 34121,21431 34121,30025 21005,30025 "/>
   <g>
    <polygon class="fil0 str1" points="22724,34674 30369,34674 30369,43268 22724,43268 "/>
    <polygon class="fil0 str1" points="22724,45676 30369,45676 30369,54269 22724,54269 "/>
   </g>
   <polyline class="fil0 str1" points="35000,56079 20866,56079 20866,32864 35000,32864 "/>
   <line class="fil0 str2" x1="35000" y1="59800" x2="35000" y2= "10200" />
   <g>
    <line class="fil0 str2" x1="36691" y1="11666" x2="41648" y2= "11666" />
    <line class="fil0 str2" x1="43469" y1="11666" x2="51031" y2= "11666" />
    <line class="fil0 str2" x1="52852" y1="11666" x2="56362" y2= "11666" />
    <line class="fil0 str2" x1="58183" y1="11666" x2="64515" y2= "11666" />
   </g>
   <line class="fil0 str2" x1="36691" y1="38615" x2="43323" y2= "38615" />
   <line class="fil0 str2" x1="58183" y1="38615" x2="64515" y2= "38615" />
   <g>
    <line class="fil0 str2" x1="36691" y1="25141" x2="41648" y2= "25141" />
    <line class="fil0 str2" x1="43469" y1="25141" x2="51031" y2= "25141" />
    <line class="fil0 str2" x1="52852" y1="25141" x2="56362" y2= "25141" />
    <line class="fil0 str2" x1="58183" y1="25141" x2="64515" y2= "25141" />
   </g>
   <g>
    <line class="fil0 str2" x1="36691" y1="52091" x2="41648" y2= "52091" />
    <line class="fil0 str2" x1="43469" y1="52091" x2="51031" y2= "52091" />
    <line class="fil0 str2" x1="52852" y1="52091" x2="56362" y2= "52091" />
    <line class="fil0 str2" x1="58183" y1="52091" x2="64515" y2= "52091" />
   </g>
   <g>
    <line class="fil0 str2" x1="36691" y1="13592" x2="47003" y2= "13592" />
    <line class="fil0 str2" x1="48993" y1="13592" x2="56917" y2= "13592" />
    <line class="fil0 str2" x1="58907" y1="13592" x2="64515" y2= "13592" />
   </g>
   <line class="fil0 str2" x1="36691" y1="40542" x2="46362" y2= "40542" />
   <line class="fil0 str2" x1="51128" y1="40542" x2="56917" y2= "40542" />
   <line class="fil0 str2" x1="58907" y1="40542" x2="64515" y2= "40542" />
   <g>
    <line class="fil0 str2" x1="36691" y1="27066" x2="47003" y2= "27066" />
    <line class="fil0 str2" x1="48993" y1="27066" x2="56917" y2= "27066" />
    <line class="fil0 str2" x1="58907" y1="27066" x2="64515" y2= "27066" />
   </g>
   <g>
    <line class="fil0 str2" x1="36691" y1="54016" x2="47003" y2= "54016" />
    <line class="fil0 str2" x1="48993" y1="54016" x2="56917" y2= "54016" />
    <line class="fil0 str2" x1="58907" y1="54016" x2="64515" y2= "54016" />
   </g>
   <g>
    <line class="fil0 str2" x1="36691" y1="15517" x2="44703" y2= "15517" />
    <line class="fil0 str2" x1="46802" y1="15517" x2="52627" y2= "15517" />
    <line class="fil0 str2" x1="54726" y1="15517" x2="58597" y2= "15517" />
    <line class="fil0 str2" x1="60696" y1="15517" x2="64515" y2= "15517" />
   </g>
   <g>
    <line class="fil0 str2" x1="36691" y1="42466" x2="44703" y2= "42466" />
    <line class="fil0 str2" x1="46802" y1="42466" x2="52627" y2= "42466" />
    <line class="fil0 str2" x1="54726" y1="42466" x2="58597" y2= "42466" />
    <line class="fil0 str2" x1="60696" y1="42466" x2="64515" y2= "42466" />
   </g>
   <line class="fil0 str2" x1="36691" y1="28991" x2="42496" y2= "28991" />
   <line class="fil0 str2" x1="43962" y1="28991" x2="50197" y2= "28991" />
   <line class="fil0 str2" x1="54726" y1="28991" x2="58597" y2= "28991" />
   <line class="fil0 str2" x1="60696" y1="28991" x2="64515" y2= "28991" />
   <g>
    <line class="fil0 str2" x1="36691" y1="55940" x2="44703" y2= "55940" />
    <line class="fil0 str2" x1="46802" y1="55940" x2="52627" y2= "55940" />
    <line class="fil0 str2" x1="54726" y1="55940" x2="58597" y2= "55940" />
    <line class="fil0 str2" x1="60696" y1="55940" x2="64515" y2= "55940" />
   </g>
   <g>
    <line class="fil0 str2" x1="36691" y1="17442" x2="44579" y2= "17442" />
    <line class="fil0 str2" x1="46581" y1="17442" x2="49403" y2= "17442" />
    <line class="fil0 str2" x1="51405" y1="17442" x2="56724" y2= "17442" />
    <line class="fil0 str2" x1="58726" y1="17442" x2="64515" y2= "17442" />
   </g>
   <g>
    <line class="fil0 str2" x1="36691" y1="44391" x2="44579" y2= "44391" />
    <line class="fil0 str2" x1="46581" y1="44391" x2="49403" y2= "44391" />
    <line class="fil0 str2" x1="51405" y1="44391" x2="56724" y2= "44391" />
    <line class="fil0 str2" x1="58726" y1="44391" x2="64515" y2= "44391" />
   </g>
   <line class="fil0 str2" x1="36691" y1="30916" x2="44579" y2= "30916" />
   <line class="fil0 str2" x1="58726" y1="30916" x2="64515" y2= "30916" />
   <g>
    <line class="fil0 str2" x1="36691" y1="57865" x2="44579" y2= "57865" />
    <line class="fil0 str2" x1="46581" y1="57865" x2="49403" y2= "57865" />
    <line class="fil0 str2" x1="51405" y1="57865" x2="56724" y2= "57865" />
    <line class="fil0 str2" x1="58726" y1="57865" x2="64515" y2= "57865" />
   </g>
   <g>
    <line class="fil0 str2" x1="36691" y1="19366" x2="41304" y2= "19366" />
    <line class="fil0 str2" x1="43890" y1="19366" x2="51907" y2= "19366" />
    <line class="fil0 str2" x1="54493" y1="19366" x2="64515" y2= "19366" />
   </g>
   <g>
    <line class="fil0 str2" x1="36691" y1="46316" x2="41304" y2= "46316" />
    <line class="fil0 str2" x1="43890" y1="46316" x2="51907" y2= "46316" />
    <line class="fil0 str2" x1="54493" y1="46316" x2="64515" y2= "46316" />
   </g>
   <line class="fil0 str2" x1="36691" y1="32840" x2="41304" y2= "32840" />
   <line class="fil0 str2" x1="61878" y1="32840" x2="64515" y2= "32840" />
   <g>
    <line class="fil0 str2" x1="36691" y1="21291" x2="44671" y2= "21291" />
    <line class="fil0 str2" x1="46886" y1="21292" x2="54810" y2= "21292" />
    <line class="fil0 str2" x1="57026" y1="21292" x2="64515" y2= "21292" />
   </g>
   <g>
    <line class="fil0 str2" x1="36691" y1="48241" x2="44671" y2= "48241" />
    <line class="fil0 str2" x1="46886" y1="48241" x2="54810" y2= "48241" />
    <line class="fil0 str2" x1="57026" y1="48241" x2="64515" y2= "48241" />
   </g>
   <g>
    <line class="fil0 str2" x1="36691" y1="23216" x2="41214" y2= "23216" />
    <line class="fil0 str2" x1="43831" y1="23216" x2="47847" y2= "23216" />
    <line class="fil0 str2" x1="50464" y1="23216" x2="56109" y2= "23216" />
    <line class="fil0 str2" x1="58726" y1="23216" x2="64515" y2= "23216" />
   </g>
   <g>
    <line class="fil0 str2" x1="36691" y1="50166" x2="41214" y2= "50166" />
    <line class="fil0 str2" x1="43831" y1="50166" x2="47847" y2= "50166" />
    <line class="fil0 str2" x1="50464" y1="50166" x2="56109" y2= "50166" />
    <line class="fil0 str2" x1="58726" y1="50166" x2="64515" y2= "50166" />
   </g>
   <line class="fil0 str2" x1="36691" y1="36690" x2="39186" y2= "36690" />
   <line class="fil0 str2" x1="61543" y1="36690" x2="64515" y2= "36690" />
   <path class="fil1" d="M40835 35452l0 -1187 6832 -2894 0 1273 -5413 2222 5413 2251 0 1273 -6832 -2938zm7642 4704l3011 -10710 1025 0 -3010 10710 -1026 0z"/>
   <polygon class="fil1" points="62210,35373 55379,38311 55379,37037 60777,34786 55379,32565 55379,31291 62210,34186 "/>
  </g>
 </g>
</svg>
