<svg xmlns="http://www.w3.org/2000/svg" width="600" height="553" viewBox="0 0 5744 5291" shape-rendering="geometricPrecision" text-rendering="geometricPrecision" image-rendering="optimizeQuality" fill-rule="evenodd" clip-rule="evenodd">
    <defs>
        <style>
            .str2,.str3{stroke:#fff;stroke-width:44.4157}.str3{stroke-width:22.2063}.str0,.str1{stroke:#fff;stroke-width:16.6539}.str0{stroke-dasharray:16.653936 49.961809}.fil2{fill:none}.fil0{fill:#004174}.fil1{fill:#fff}
        </style>
    </defs>
    <g id="fs-wp-tools">
        <path class="fil0" d="M4094 2705c0-604-490-1094-1094-1094s-1094 490-1094 1094 490 1094 1094 1094 1094-490 1094-1094z"/>
        <path class="fil1" d="M3535 3171c60-173 137-382 192-550 39-120 44-197 37-323 47 46 94 255 100 324 23 246-48 445-195 636-79 101-141 131-233 197 12-16 85-244 99-284zm-518-385l270 740c-93 24-161 44-260 47-57 2-224-9-271-38l261-749zm414 439l-307-919-3-9 16-1c160 10 128-80 68-77-77 3-151 10-228 10l-228-11c-38 3-45 52-17 67 19 11 79 9 103 14 17 19 74 190 88 229 14 38 27 77 42 116 12 31 8 28-2 59-28 82-166 504-181 529l-313-934c26-1 101-3 119-16 15-13 16-38 3-52-14-16-35-12-55-10-86 6-171 10-258 8 6-26 84-113 106-135 328-329 871-342 1199-29-131 5-183 122-136 237 41 101 105 155 130 275 25 119-13 225-48 337-10 33-90 311-98 312zm-1223-870l411 1128c-53-9-205-133-245-175-71-77-128-158-170-255-48-114-72-228-72-352 0-97 27-261 76-346zm-161 508c59 370 341 680 704 776 127 33 273 41 403 20 201-33 384-127 529-271 119-120 207-270 250-433 42-159 42-341 0-499-15-59-36-111-61-167-117-252-354-446-623-517-127-34-276-41-407-20-93 15-172 41-258 81-99 47-190 113-267 190-119 119-207 269-250 433-34 128-41 275-20 407z"/>
        <path class="fil2 str0" d="M1906 2708h-637M3785 1919l448-447M3787 3492l442 442"/>
        <g id="_2837318063328">
            <path class="fil2 str0" d="M2997 1592V71"/>
            <circle class="fil2 str1" cx="2997" cy="27" r="19"/>
        </g>
        <path class="fil2 str0" d="M4094 2708h1322"/>
        <g id="_2837318067712">
            <path class="fil2 str0" d="M3000 3799v680l808 750"/>
            <circle class="fil2 str1" cx="3844" cy="5264" r="19"/>
        </g>
        <g id="_2837318070976">
            <path class="fil2 str0" d="M2233 1823l-547-547V387"/>
            <circle class="fil2 str1" cx="1686" cy="347" r="19"/>
        </g>
        <g id="_2837318075328">
            <path class="fil0" d="M5020 1148c0-256-207-464-463-464s-464 208-464 464 208 463 464 463 463-207 463-463z"/>
            <path class="fil2 str2" d="M4968 1154c0-228-184-412-411-412s-411 184-411 412c0 227 184 411 411 411s411-184 411-411z"/>
            <path class="fil1" d="M4712 1035s-111 190-125 207c-14 16-39 18-56 4-16-14-18-39-4-55 14-17 185-156 185-156z"/>
            <path d="M4313 1232c0-68 27-129 71-173s105-72 173-72c46 0 90 13 127 36-18 15-37 31-56 47-22-9-46-15-71-15-49 0-93 20-125 52s-51 76-51 125h-68zm416-173h1c44 44 71 105 71 173h-68c0-42-15-81-39-111 12-22 24-42 35-62z" fill="#fff" fill-rule="nonzero"/>
        </g>
        <g id="_2837318050304">
            <path class="fil0" d="M5020 4262c0-256-207-464-463-464s-463 208-463 464 207 463 463 463 463-207 463-463z"/>
            <path class="fil2 str2" d="M4968 4262c0-227-184-411-411-411s-411 184-411 411 184 411 411 411 411-184 411-411z"/>
            <path d="M4387 4413c9-2 17 5 19 12 2 10-4 18-12 20-21 5-29-27-7-32zm197-287c-5 25 1 32 2 47-77 77-154 155-231 232-23 41 16 81 57 60 1-1 4-2 6-5 76-75 152-151 227-227 8 1 14 3 22 4 63 4 117-65 93-119-14 14-48 59-69 51-11-5-37-31-41-42-7-17 39-57 51-68-46-22-107 19-117 67z" fill="#fefefe"/>
        </g>
        <g id="_2837398752496">
            <path class="fil0" d="M5740 2708c0-93-75-168-167-168-93 0-168 75-168 168 0 92 75 167 168 167 92 0 167-75 167-167z"/>
            <path class="fil2 str2" d="M5721 2708c0-83-66-149-148-149-83 0-149 66-149 149 0 82 66 149 149 149 82 0 148-67 148-149z"/>
        </g>
        <path fill="#484c4f" d="M0 2190"/>
        <path class="fil2 str0" d="M2200 3505l-423 424"/>
        <g id="_2837398754448">
            <path class="fil0" d="M1912 4256c0-256-207-463-463-463s-464 207-464 463 208 464 464 464 463-208 463-464z"/>
            <path class="fil2 str2" d="M1860 4256c0-227-184-411-411-411s-411 184-411 411 184 411 411 411 411-184 411-411z"/>
            <path class="fil1" d="M1488 4027c14 2 28 6 41 11-8 18-1 40 17 51 17 10 40 5 52-12 10 9 21 19 30 30-17 12-22 35-12 52 11 18 33 25 51 17 5 13 9 27 11 41-20 2-36 18-36 39s16 38 36 39c-2 15-6 28-11 42-18-9-40-2-51 16-10 18-5 40 12 52-9 11-20 21-30 30-12-17-35-22-52-12-18 11-25 33-17 51-13 5-27 9-41 11-2-20-19-36-39-36-21 0-38 16-39 36-15-2-28-6-42-11 9-18 2-40-16-51-18-10-40-5-52 12-11-9-21-19-30-30 17-12 22-34 11-52-10-18-32-25-50-16-5-14-9-27-11-42 20-1 36-18 36-39s-16-37-36-39c2-14 6-28 11-41 18 8 40 1 50-17 11-17 6-40-11-52 9-11 19-21 30-30 12 17 34 22 52 12 18-11 25-33 16-51 14-5 27-9 42-11 1 20 18 36 39 36 20 0 37-16 39-36zm-39 92c75 0 137 62 137 137 0 76-62 137-137 137-76 0-137-61-137-137 0-75 61-137 137-137z"/>
        </g>
        <g id="_2837398756912">
            <path class="fil0" d="M1266 2702c0-256-208-463-464-463s-463 207-463 463 207 464 463 464 464-208 464-464z"/>
            <path class="fil2 str2" d="M1213 2702c0-227-184-411-411-411s-411 184-411 411 184 412 411 412 411-185 411-412z"/>
            <path class="fil2 str3" d="M606 2812l79-78m32-7l57 21m38 4l55-10m31-19l102-129"/>
            <circle class="fil2 str3" cx="792" cy="2755" r="20"/>
            <circle class="fil2 str3" cx="699" cy="2720" r="20"/>
            <circle class="fil2 str3" cx="592" cy="2826" r="20"/>
            <circle class="fil2 str3" cx="886" cy="2739" r="20"/>
            <circle class="fil2 str3" cx="1012" cy="2578" r="20"/>
        </g>
    </g>
</svg>
