<?xml version="1.0" encoding="UTF-8"?>
<!DOCTYPE svg PUBLIC "-//W3C//DTD SVG 1.1//EN" "http://www.w3.org/Graphics/SVG/1.1/DTD/svg11.dtd">
<!-- Creator: CorelDRAW X8 -->
<svg xmlns="http://www.w3.org/2000/svg" xml:space="preserve" width="200px" height="1000px" version="1.1" style="shape-rendering:geometricPrecision; text-rendering:geometricPrecision; image-rendering:optimizeQuality; fill-rule:evenodd; clip-rule:evenodd"
viewBox="0 0 20000 100000"
 xmlns:xlink="http://www.w3.org/1999/xlink">
 <defs>
  <style type="text/css">
   <![CDATA[
    .str1 {stroke:black;stroke-width:99.9686}
    .str0 {stroke:black;stroke-width:99.9686}
    .str3 {stroke:#999999;stroke-width:99.9686}
    .str2 {stroke:black;stroke-width:28.8}
    .str4 {stroke:black;stroke-width:99.9686;stroke-dasharray:99.968630 499.843149}
    .str5 {stroke:#666666;stroke-width:99.9686;stroke-dasharray:99.968630 499.843149}
    .fil0 {fill:none}
    .fil5 {fill:black}
    .fil1 {fill:#999999}
    .fil4 {fill:white}
    .fil2 {fill:black;fill-rule:nonzero}
    .fil3 {fill:black;fill-rule:nonzero}
   ]]>
  </style>
   <clipPath id="id0">
    <rect x="-63500" y="43673" width="45000" height="35800"/>
   </clipPath>
 </defs>
 <g id="Layer_x0020_1">
  <metadata id="CorelCorpID_0Corel-Layer"/>
  <g id="_2134212524304">
   <rect class="fil0 str0" x="3000" y="24517" width="14000" height="10967" rx="730" ry="730"/>
   <line class="fil0 str1" x1="3000" y1="26003" x2="17000" y2= "26003" />
   <circle class="fil0 str1" cx="4282" cy="25267" r="325"/>
   <circle class="fil0 str1" cx="5431" cy="25267" r="325"/>
   <circle class="fil0 str1" cx="6581" cy="25267" r="325"/>
   <line class="fil0 str1" x1="6188" y1="26003" x2="6188" y2= "35483" />
   <g>
    <line class="fil0 str1" x1="3656" y1="26656" x2="5875" y2= "26656" />
    <line class="fil0 str1" x1="3656" y1="27515" x2="5282" y2= "27515" />
    <line class="fil0 str1" x1="3656" y1="29233" x2="5494" y2= "29233" />
    <line class="fil0 str1" x1="3656" y1="30950" x2="5382" y2= "30950" />
    <line class="fil0 str1" x1="3656" y1="32668" x2="4956" y2= "32668" />
    <line class="fil0 str1" x1="3656" y1="30091" x2="5281" y2= "30091" />
    <line class="fil0 str1" x1="3656" y1="31809" x2="4819" y2= "31809" />
    <line class="fil0 str1" x1="3656" y1="33526" x2="5750" y2= "33526" />
    <line class="fil0 str1" x1="3656" y1="34385" x2="5132" y2= "34385" />
    <line class="fil0 str1" x1="3656" y1="28374" x2="5281" y2= "28374" />
   </g>
   <g>
    <rect class="fil0 str1" x="6906" y="27000" width="2900" height="1900"/>
    <rect class="fil0 str1" x="10163" y="27000" width="2900" height="1900"/>
    <rect class="fil0 str1" x="13419" y="27000" width="2900" height="1900"/>
   </g>
   <rect class="fil0 str1" x="6875" y="29475" width="9444" height="5133"/>
  </g>
  <polygon class="fil0 str2" points="-5629,39151 -2656,39151 -2656,40541 -1388,40541 -2656,41569 -2656,41574 -2661,41574 -4138,42771 -5615,41574 -5629,41574 -5629,41563 -6888,40541 -5629,40541 "/>
  <g id="_2134212519856">
   <g>
    <ellipse class="fil0 str3" cx="10003" cy="70000" rx="4900" ry="7000"/>
    <ellipse class="fil0 str3" cx="10003" cy="70000" rx="2800" ry="7000"/>
   </g>
   <circle class="fil1 str0" cx="7608" cy="73753" r="500"/>
   <circle class="fil1 str1" cx="12703" cy="72607" r="500"/>
   <circle class="fil0 str1" cx="13403" cy="66469" r="500"/>
   <g>
    <path class="fil2" d="M12318 72872l65 76 -177 144 -181 131 -182 120 -185 107 -185 97 -186 85 -187 76 -185 66 -185 57 -183 48 -181 41 -178 33 -175 26 -171 20 -167 14 -162 9 -156 4 -150 0 -144 -4 -136 -6 -129 -10 -120 -11 -112 -13 -102 -13 -92 -14 -82 -14 -71 -14 -60 -12 -47 -10 -35 -8 -21 -6 -8 -2 26 -96 7 1 20 5 33 8 46 10 58 12 69 13 80 14 91 14 101 13 109 13 119 11 126 9 134 6 141 4 148 0 153 -4 159 -9 164 -14 168 -19 171 -26 175 -32 177 -40 179 -47 181 -56 182 -65 182 -74 182 -83 181 -94 180 -105 178 -117 177 -128 173 -141zm176 -11l-129 -38 73 85 -626 85 -18 -133 626 -85 74 86zm0 0l-74 -86 103 -14 -29 100zm-243 587l-64 -19 178 -606 129 38 -178 606 -65 -19z"/>
   </g>
   <path class="fil0 str4" d="M13701 66871c0,0 1452,2479 -771,5290"/>
   <path class="fil0 str4" d="M6397 68150c0,0 -67,4163 5883,4457"/>
   <circle class="fil0 str1" cx="10000" cy="70000" r="7000"/>
   <g id="_2134212518672">
    <line class="fil0 str3" x1="5004" y1="74900" x2="15002" y2= "74900" />
    <line class="fil0 str3" x1="5004" y1="65100" x2="15002" y2= "65100" />
    <line class="fil0 str3" x1="3585" y1="67201" x2="16421" y2= "67200" />
    <line class="fil0 str3" x1="3579" y1="72784" x2="16400" y2= "72800" />
   </g>
   <path class="fil0 str4" d="M6751 67515c0,0 2371,-3021 6225,-1046"/>
   <path class="fil0 str4" d="M13089 66858c0,0 -5244,296 -5362,6409"/>
   <path class="fil0 str4" d="M7146 73563c0,0 -2521,-1832 -970,-5407"/>
   <circle class="fil0 str1" cx="6274" cy="67666" r="500"/>
  </g>
  <g style="clip-path:url(#id0)">
   <image x="-63500" y="43673" width="45000" height="35800" xlink:href="10540-way-points-40803287-76e7-457b-8e61-3f08fd50c641_Images\10540-way-points-40803287-76e7-457b-8e61-3f08fd50c641_ImgID1.png"/>
  </g>
  <g>
   <g>
    <path class="fil3" d="M6766 88811l-3159 2957 -205 -219 3159 -2957 197 -7 8 226zm-205 -219l95 -89 102 82 -197 7zm1844 1711l-1836 -1485 189 -233 1835 1485 31 199 -219 34zm219 -34l-91 138 -128 -104 219 -34zm1958 -2955l-1958 2955 -250 -166 1958 -2954 113 -67 137 232zm-250 -165l40 -61 73 -6 -113 67zm3306 -10l-3170 242 -23 -299 3170 -242 130 241 -107 58zm107 -58l-40 53 -67 5 107 -58zm1395 -1803l-1395 1803 -237 -183 1394 -1804 238 184zm173 -264l-299 -25 199 154 -1331 467 -99 -283 1331 -467 199 154zm0 0l-199 -154 218 -76 -19 230zm-266 1394l-149 -12 116 -1407 299 25 -116 1406 -150 -12z"/>
   </g>
   <path class="fil4 str0" d="M5676 87483l1076 0c208,0 377,170 377,377l0 4520 -1830 0 0 -4520c0,-207 170,-377 377,-377z"/>
   <path class="fil4 str0" d="M7935 86089l1077 0c207,0 376,170 376,377l0 5914 -1829 0 0 -5914c0,-207 169,-377 376,-377z"/>
   <path class="fil4 str0" d="M10195 84695l1076 0c207,0 377,170 377,377l0 7308 -1830 0 0 -7308c0,-207 170,-377 377,-377z"/>
   <circle class="fil4 str0" cx="12400" cy="91823" r="3485"/>
   <path class="fil4 str0" d="M12400 91823l1265 -3904c1693,549 2839,2125 2839,3904l-4104 0z"/>
  </g>
  <g>
   <g>
    <circle class="fil0 str1" cx="9777" cy="9570" r="6558"/>
    <path class="fil0 str1" d="M6075 14125c-1371,-1114 -2168,-2788 -2168,-4555 0,-3242 2628,-5870 5870,-5870 1384,0 2724,489 3782,1381"/>
    <line class="fil0 str1" x1="12992" y1="5754" x2="13559" y2= "5081" />
    <line class="fil0 str1" x1="10653" y1="4658" x2="10808" y2= "3791" />
    <line class="fil0 str1" x1="8080" y1="4878" x2="7781" y2= "4050" />
    <line class="fil0 str1" x1="5961" y1="6355" x2="5288" y2= "5788" />
    <line class="fil0 str1" x1="4865" y1="8693" x2="3998" y2= "8539" />
    <line class="fil0 str1" x1="5085" y1="11267" x2="4257" y2= "11566" />
    <line class="fil0 str1" x1="6643" y1="13452" x2="6075" y2= "14125" />
    <path class="fil0 str1" d="M10031 8731c463,140 725,630 585,1093 -141,463 -630,725 -1093,584 -463,-140 -4155,-2468 -4155,-2468 0,0 4200,651 4663,791z"/>
   </g>
   <g>
    <circle class="fil4 str1" cx="13856" cy="14060" r="2951"/>
    <path class="fil0 str1" d="M11525 14908c-98,-271 -149,-558 -149,-848 0,-1369 1110,-2479 2480,-2479 1369,0 2479,1110 2479,2479 0,290 -50,577 -149,848"/>
    <g id="_2134212514064">
     <circle class="fil5 str1" transform="matrix(-0.01107 -0.116385 0.116384 -0.01107 13855.6 14060.3)" r="3150"/>
     <polygon class="fil5 str1" points="11739,14291 13235,14060 14731,13830 14748,14005 14765,14179 13252,14235 "/>
    </g>
   </g>
  </g>
  <g>
   <path class="fil0 str0" d="M3815 45850l4681 0 0 1280 -1134 0 1134 969 0 10 12 0 1329 1136 1329 -1136 5 0 0 -4 1141 -975 -1141 0 0 -1280 4688 0c153,0 278,132 278,293l0 3817c0,161 -125,293 -278,293l-12044 0c-153,0 -278,-132 -278,-293l0 -3817c0,-161 125,-293 278,-293z"/>
   <rect class="fil0 str0" x="3537" y="50500" width="12600" height="3338" rx="657" ry="222"/>
   <path class="fil0 str0" d="M3669 54084l12306 0c81,0 147,66 147,146l0 208 -939 1849 -950 0 -37 0 1106 -2178 -1106 2178 -950 0 -38 0 1106 -2178 -1106 2178 -950 0 -37 0 1106 -2178 -1106 2178 -950 0 -38 0 1106 -2178 -1106 2178 -950 0 -37 0 1106 -2178 -1106 2178 -950 0 -38 0 1106 -2178 -1106 2178 -950 0 -37 0 1105 -2178 -1105 2178 -950 0 -38 0 1106 -2178 -1106 2178 -950 0 -37 0 1105 -2178 -1105 2178 -951 0 -37 0 1106 -2178 -1106 2178 -950 0 -37 0 1105 -2178 -1105 2178 -652 0c-81,0 -147,-66 -147,-147l0 -162 0 -63 917 -1806 -917 1806 0 -1685c0,-80 66,-146 147,-146zm12453 354l0 12 0 1690c0,81 -66,147 -147,147l-754 0 -38 0 939 -1849z"/>
   <polyline class="fil0 str1" points="16073,45889 16105,45860 13666,43687 6008,43687 3569,45860 "/>
   <line class="fil0 str5" x1="3683" y1="51102" x2="16283" y2= "51190" />
   <line class="fil0 str5" x1="3683" y1="51892" x2="16283" y2= "51979" />
   <line class="fil0 str5" x1="3683" y1="52682" x2="16283" y2= "52769" />
   <line class="fil0 str5" x1="3683" y1="53471" x2="16283" y2= "53559" />
   <line class="fil0 str5" x1="3883" y1="50707" x2="16483" y2= "50795" />
   <line class="fil0 str5" x1="3883" y1="51497" x2="16483" y2= "51585" />
   <line class="fil0 str5" x1="3883" y1="52287" x2="16483" y2= "52374" />
   <line class="fil0 str5" x1="3883" y1="53077" x2="16483" y2= "53164" />
  </g>
 </g>
</svg>
