<?xml version="1.0" encoding="UTF-8"?>
<!DOCTYPE svg PUBLIC "-//W3C//DTD SVG 1.1//EN" "http://www.w3.org/Graphics/SVG/1.1/DTD/svg11.dtd">
<!-- Creator: CorelDRAW X8 -->
<svg xmlns="http://www.w3.org/2000/svg" xml:space="preserve" width="137px" height="141px" version="1.1" style="shape-rendering:geometricPrecision; text-rendering:geometricPrecision; image-rendering:optimizeQuality; fill-rule:evenodd; clip-rule:evenodd"
viewBox="0 0 13726 14139"
 xmlns:xlink="http://www.w3.org/1999/xlink">
 <defs>
  <style type="text/css">
   <![CDATA[
    .str0 {stroke:black;stroke-width:100.244}
    .fil0 {fill:none}
    .fil2 {fill:black}
    .fil1 {fill:white}
   ]]>
  </style>
 </defs>
 <g id="Layer_x0020_1">
  <metadata id="CorelCorpID_0Corel-Layer"/>
  <g id="_1779745534400">
   <g>
    <circle class="fil0 str0" cx="6626" cy="6626" r="6576"/>
    <path class="fil0 str0" d="M2914 11195c-1375,-1118 -2174,-2796 -2174,-4569 0,-3250 2636,-5886 5886,-5886 1388,0 2732,491 3793,1385"/>
    <line class="fil0 str0" x1="9850" y1="2800" x2="10419" y2= "2125" />
    <line class="fil0 str0" x1="7505" y1="1701" x2="7660" y2= "832" />
    <line class="fil0 str0" x1="4925" y1="1921" x2="4624" y2= "1091" />
    <line class="fil0 str0" x1="2800" y1="3403" x2="2125" y2= "2834" />
    <line class="fil0 str0" x1="1701" y1="5748" x2="832" y2= "5593" />
    <line class="fil0 str0" x1="1921" y1="8328" x2="1091" y2= "8628" />
    <line class="fil0 str0" x1="3483" y1="10519" x2="2914" y2= "11195" />
    <path class="fil0 str0" d="M6881 5785c465,141 727,632 586,1096 -140,465 -631,727 -1095,586 -465,-140 -4167,-2475 -4167,-2475 0,0 4212,653 4676,793z"/>
   </g>
   <g>
    <circle class="fil1 str0" cx="10716" cy="11129" r="2959"/>
    <path class="fil0 str0" d="M8380 11980c-100,-273 -150,-561 -150,-851 0,-1373 1113,-2486 2486,-2486 1373,0 2487,1113 2487,2486 0,290 -51,578 -150,851"/>
    <g>
     <circle class="fil2 str0" transform="matrix(-0.01107 -0.116385 0.116384 -0.01107 10716.2 11129.3)" r="3159"/>
     <polygon class="fil2 str0" points="8593,11360 10094,11129 11594,10898 11611,11073 11628,11248 10111,11304 "/>
    </g>
   </g>
  </g>
 </g>
</svg>
