<?xml version="1.0" encoding="UTF-8"?>
<!DOCTYPE svg PUBLIC "-//W3C//DTD SVG 1.1//EN" "http://www.w3.org/Graphics/SVG/1.1/DTD/svg11.dtd">
<!-- Creator: CorelDRAW X8 -->
<svg xmlns="http://www.w3.org/2000/svg" xml:space="preserve" width="141px" height="111px" version="1.1" style="shape-rendering:geometricPrecision; text-rendering:geometricPrecision; image-rendering:optimizeQuality; fill-rule:evenodd; clip-rule:evenodd"
viewBox="0 0 14100 11067"
 xmlns:xlink="http://www.w3.org/1999/xlink">
 <defs>
  <style type="text/css">
   <![CDATA[
    .str1 {stroke:black;stroke-width:99.9681}
    .str0 {stroke:black;stroke-width:99.9681}
    .fil0 {fill:none}
   ]]>
  </style>
 </defs>
 <g id="Layer_x0020_1">
  <metadata id="CorelCorpID_0Corel-Layer"/>
  <g id="_1779745535648">
   <rect class="fil0 str0" x="50" y="50" width="14000" height="10967" rx="730" ry="730"/>
   <line class="fil0 str1" x1="50" y1="1536" x2="14050" y2= "1536" />
   <circle class="fil0 str1" cx="1332" cy="800" r="325"/>
   <circle class="fil0 str1" cx="2481" cy="800" r="325"/>
   <circle class="fil0 str1" cx="3631" cy="800" r="325"/>
   <line class="fil0 str1" x1="3238" y1="1536" x2="3238" y2= "11017" />
   <g>
    <line class="fil0 str1" x1="706" y1="2190" x2="2925" y2= "2190" />
    <line class="fil0 str1" x1="706" y1="3048" x2="2332" y2= "3048" />
    <line class="fil0 str1" x1="706" y1="4766" x2="2544" y2= "4766" />
    <line class="fil0 str1" x1="706" y1="6483" x2="2432" y2= "6483" />
    <line class="fil0 str1" x1="706" y1="8201" x2="2006" y2= "8201" />
    <line class="fil0 str1" x1="706" y1="5625" x2="2331" y2= "5625" />
    <line class="fil0 str1" x1="706" y1="7342" x2="1869" y2= "7342" />
    <line class="fil0 str1" x1="706" y1="9059" x2="2800" y2= "9059" />
    <line class="fil0 str1" x1="706" y1="9918" x2="2182" y2= "9918" />
    <line class="fil0 str1" x1="706" y1="3907" x2="2331" y2= "3907" />
   </g>
   <g>
    <rect class="fil0 str1" x="3956" y="2533" width="2900" height="1900"/>
    <rect class="fil0 str1" x="7213" y="2533" width="2900" height="1900"/>
    <rect class="fil0 str1" x="10469" y="2533" width="2900" height="1900"/>
   </g>
   <rect class="fil0 str1" x="3925" y="5008" width="9444" height="5133"/>
  </g>
 </g>
</svg>
