<?xml version="1.0" encoding="UTF-8"?>
<!DOCTYPE svg PUBLIC "-//W3C//DTD SVG 1.1//EN" "http://www.w3.org/Graphics/SVG/1.1/DTD/svg11.dtd">
<!-- Creator: CorelDRAW X8 -->
<svg xmlns="http://www.w3.org/2000/svg" xml:space="preserve" width="132px" height="107px" version="1.1" style="shape-rendering:geometricPrecision; text-rendering:geometricPrecision; image-rendering:optimizeQuality; fill-rule:evenodd; clip-rule:evenodd"
viewBox="0 0 13156 10716"
 xmlns:xlink="http://www.w3.org/1999/xlink">
 <defs>
  <style type="text/css">
   <![CDATA[
    .str0 {stroke:black;stroke-width:99.9966}
    .fil1 {fill:white}
    .fil0 {fill:black;fill-rule:nonzero}
   ]]>
  </style>
 </defs>
 <g id="Layer_x0020_1">
  <metadata id="CorelCorpID_0Corel-Layer"/>
  <g id="_1779745536640">
   <g>
    <path class="fil0" d="M3365 4167l-3160 2957 -205 -219 3160 -2957 197 -7 8 226zm-205 -219l96 -89 101 82 -197 7zm1844 1711l-1836 -1485 189 -233 1836 1485 31 199 -220 34zm220 -34l-91 138 -129 -104 220 -34zm1958 -2955l-1958 2955 -250 -165 1958 -2956 113 -66 137 232zm-250 -166l40 -61 73 -5 -113 66zm3307 -9l-3171 242 -23 -299 3171 -242 130 241 -107 58zm107 -58l-40 53 -67 5 107 -58zm1395 -1804l-1395 1804 -237 -184 1395 -1804 237 184zm173 -264l-299 -25 200 154 -1332 468 -99 -284 1331 -467 199 154zm0 0l-199 -154 219 -77 -20 231zm-266 1394l-149 -12 116 -1407 299 25 -116 1407 -150 -13z"/>
   </g>
   <path class="fil1 str0" d="M2275 2839l1076 0c208,0 377,170 377,377l0 4521 -1830 0 0 -4521c0,-207 170,-377 377,-377z"/>
   <path class="fil1 str0" d="M4535 1445l1076 0c208,0 377,169 377,376l0 5916 -1830 0 0 -5916c0,-207 170,-376 377,-376z"/>
   <path class="fil1 str0" d="M6795 50l1077 0c207,0 376,170 376,377l0 7310 -1830 0 0 -7310c0,-207 170,-377 377,-377z"/>
   <circle class="fil1 str0" cx="9001" cy="7180" r="3486"/>
   <path class="fil1 str0" d="M9001 7180l1265 -3905c1693,548 2840,2125 2840,3905l-4105 0z"/>
  </g>
 </g>
</svg>
