<?xml version="1.0" encoding="UTF-8"?>
<!DOCTYPE svg PUBLIC "-//W3C//DTD SVG 1.1//EN" "http://www.w3.org/Graphics/SVG/1.1/DTD/svg11.dtd">
<!-- Creator: CorelDRAW X8 -->
<svg xmlns="http://www.w3.org/2000/svg" xml:space="preserve" width="700px" height="560px" version="1.1" style="shape-rendering:geometricPrecision; text-rendering:geometricPrecision; image-rendering:optimizeQuality; fill-rule:evenodd; clip-rule:evenodd"
viewBox="0 0 70000 56000"
 xmlns:xlink="http://www.w3.org/1999/xlink">
 <defs>
  <style type="text/css">
   <![CDATA[
    .str1 {stroke:black;stroke-width:312.402}
    .str0 {stroke:black;stroke-width:312.402}
    .str2 {stroke:black;stroke-width:299.882}
    .fil0 {fill:none}
    .fil1 {fill:black;fill-rule:nonzero}
   ]]>
  </style>
 </defs>
 <g id="Layer_x0020_1">
  <metadata id="CorelCorpID_0Corel-Layer"/>
  <g id="_2296295026112">
   <rect class="fil0 str0" x="900" y="1288" width="68200" height="53423" rx="3558" ry="3558"/>
   <line class="fil0 str1" x1="900" y1="8527" x2="35000" y2= "8527" />
   <circle class="fil0 str1" cx="7144" cy="4941" r="1583"/>
   <circle class="fil0 str1" cx="12744" cy="4941" r="1583"/>
   <circle class="fil0 str1" cx="18343" cy="4941" r="1583"/>
   <line class="fil0 str1" x1="16429" y1="8527" x2="16429" y2= "54711" />
   <g>
    <line class="fil0 str1" x1="4095" y1="11711" x2="14904" y2= "11711" />
    <line class="fil0 str1" x1="4095" y1="15895" x2="12015" y2= "15895" />
    <line class="fil0 str1" x1="4095" y1="24261" x2="13050" y2= "24261" />
    <line class="fil0 str1" x1="4095" y1="32628" x2="12502" y2= "32628" />
    <line class="fil0 str1" x1="4095" y1="40994" x2="10430" y2= "40994" />
    <line class="fil0 str1" x1="4095" y1="28445" x2="12013" y2= "28445" />
    <line class="fil0 str1" x1="4095" y1="36811" x2="9762" y2= "36811" />
    <line class="fil0 str1" x1="4095" y1="45178" x2="14297" y2= "45178" />
    <line class="fil0 str1" x1="4095" y1="49361" x2="11284" y2= "49361" />
    <line class="fil0 str1" x1="4095" y1="20078" x2="12013" y2= "20078" />
   </g>
   <polygon class="fil0 str1" points="19926,13385 34053,13385 34053,22641 19926,22641 "/>
   <g>
    <polygon class="fil0 str1" points="21778,27649 30012,27649 30012,36905 21778,36905 "/>
    <polygon class="fil0 str1" points="21778,39499 30012,39499 30012,48754 21778,48754 "/>
   </g>
   <polyline class="fil0 str1" points="35000,50704 19777,50704 19777,25700 35000,25700 "/>
   <line class="fil0 str2" x1="35000" y1="54711" x2="35000" y2= "1288" />
   <g>
    <line class="fil0 str2" x1="36821" y1="2867" x2="42160" y2= "2867" />
    <line class="fil0 str2" x1="44122" y1="2867" x2="52267" y2= "2867" />
    <line class="fil0 str2" x1="54228" y1="2867" x2="58009" y2= "2867" />
    <line class="fil0 str2" x1="59970" y1="2867" x2="66790" y2= "2867" />
   </g>
   <line class="fil0 str2" x1="36821" y1="31894" x2="43964" y2= "31894" />
   <line class="fil0 str2" x1="59970" y1="31894" x2="66790" y2= "31894" />
   <g>
    <line class="fil0 str2" x1="36821" y1="17381" x2="42160" y2= "17381" />
    <line class="fil0 str2" x1="44122" y1="17381" x2="52267" y2= "17381" />
    <line class="fil0 str2" x1="54228" y1="17381" x2="58009" y2= "17381" />
    <line class="fil0 str2" x1="59970" y1="17381" x2="66790" y2= "17381" />
   </g>
   <g>
    <line class="fil0 str2" x1="36821" y1="46408" x2="42160" y2= "46408" />
    <line class="fil0 str2" x1="44122" y1="46408" x2="52267" y2= "46408" />
    <line class="fil0 str2" x1="54228" y1="46408" x2="58009" y2= "46408" />
    <line class="fil0 str2" x1="59970" y1="46408" x2="66790" y2= "46408" />
   </g>
   <g>
    <line class="fil0 str2" x1="36821" y1="4942" x2="47928" y2= "4942" />
    <line class="fil0 str2" x1="50071" y1="4942" x2="58606" y2= "4942" />
    <line class="fil0 str2" x1="60749" y1="4942" x2="66790" y2= "4942" />
   </g>
   <line class="fil0 str2" x1="36821" y1="33969" x2="47238" y2= "33969" />
   <line class="fil0 str2" x1="52371" y1="33969" x2="58606" y2= "33969" />
   <line class="fil0 str2" x1="60749" y1="33969" x2="66790" y2= "33969" />
   <g>
    <line class="fil0 str2" x1="36821" y1="19455" x2="47928" y2= "19455" />
    <line class="fil0 str2" x1="50071" y1="19455" x2="58606" y2= "19455" />
    <line class="fil0 str2" x1="60749" y1="19455" x2="66790" y2= "19455" />
   </g>
   <g>
    <line class="fil0 str2" x1="36821" y1="48481" x2="47928" y2= "48481" />
    <line class="fil0 str2" x1="50071" y1="48481" x2="58606" y2= "48481" />
    <line class="fil0 str2" x1="60749" y1="48481" x2="66790" y2= "48481" />
   </g>
   <g>
    <line class="fil0 str2" x1="36821" y1="7015" x2="45451" y2= "7015" />
    <line class="fil0 str2" x1="47711" y1="7015" x2="53986" y2= "7015" />
    <line class="fil0 str2" x1="56246" y1="7015" x2="60416" y2= "7015" />
    <line class="fil0 str2" x1="62676" y1="7015" x2="66790" y2= "7015" />
   </g>
   <g>
    <line class="fil0 str2" x1="36821" y1="36042" x2="45451" y2= "36042" />
    <line class="fil0 str2" x1="47711" y1="36042" x2="53986" y2= "36042" />
    <line class="fil0 str2" x1="56246" y1="36042" x2="60416" y2= "36042" />
    <line class="fil0 str2" x1="62676" y1="36042" x2="66790" y2= "36042" />
   </g>
   <line class="fil0 str2" x1="36821" y1="21528" x2="43074" y2= "21528" />
   <line class="fil0 str2" x1="44653" y1="21528" x2="51369" y2= "21528" />
   <line class="fil0 str2" x1="56246" y1="21528" x2="60416" y2= "21528" />
   <line class="fil0 str2" x1="62676" y1="21528" x2="66790" y2= "21528" />
   <g>
    <line class="fil0 str2" x1="36821" y1="50554" x2="45451" y2= "50554" />
    <line class="fil0 str2" x1="47711" y1="50554" x2="53986" y2= "50554" />
    <line class="fil0 str2" x1="56246" y1="50554" x2="60416" y2= "50554" />
    <line class="fil0 str2" x1="62676" y1="50554" x2="66790" y2= "50554" />
   </g>
   <g>
    <line class="fil0 str2" x1="36821" y1="9088" x2="45317" y2= "9088" />
    <line class="fil0 str2" x1="47473" y1="9088" x2="50513" y2= "9088" />
    <line class="fil0 str2" x1="52669" y1="9088" x2="58398" y2= "9088" />
    <line class="fil0 str2" x1="60555" y1="9088" x2="66790" y2= "9088" />
   </g>
   <g>
    <line class="fil0 str2" x1="36821" y1="38115" x2="45317" y2= "38115" />
    <line class="fil0 str2" x1="47473" y1="38115" x2="50513" y2= "38115" />
    <line class="fil0 str2" x1="52669" y1="38115" x2="58398" y2= "38115" />
    <line class="fil0 str2" x1="60555" y1="38115" x2="66790" y2= "38115" />
   </g>
   <line class="fil0 str2" x1="36821" y1="23601" x2="45317" y2= "23601" />
   <line class="fil0 str2" x1="60555" y1="23601" x2="66790" y2= "23601" />
   <g>
    <line class="fil0 str2" x1="36821" y1="52628" x2="45317" y2= "52628" />
    <line class="fil0 str2" x1="47473" y1="52628" x2="50513" y2= "52628" />
    <line class="fil0 str2" x1="52669" y1="52628" x2="58398" y2= "52628" />
    <line class="fil0 str2" x1="60555" y1="52628" x2="66790" y2= "52628" />
   </g>
   <g>
    <line class="fil0 str2" x1="36821" y1="11162" x2="41790" y2= "11162" />
    <line class="fil0 str2" x1="44575" y1="11162" x2="53210" y2= "11162" />
    <line class="fil0 str2" x1="55995" y1="11162" x2="66790" y2= "11162" />
   </g>
   <g>
    <line class="fil0 str2" x1="36821" y1="40188" x2="41790" y2= "40188" />
    <line class="fil0 str2" x1="44575" y1="40188" x2="53210" y2= "40188" />
    <line class="fil0 str2" x1="55995" y1="40188" x2="66790" y2= "40188" />
   </g>
   <line class="fil0 str2" x1="36821" y1="25674" x2="41790" y2= "25674" />
   <line class="fil0 str2" x1="63950" y1="25674" x2="66790" y2= "25674" />
   <g>
    <line class="fil0 str2" x1="36821" y1="13235" x2="45416" y2= "13235" />
    <line class="fil0 str2" x1="47802" y1="13235" x2="56337" y2= "13235" />
    <line class="fil0 str2" x1="58723" y1="13235" x2="66790" y2= "13235" />
   </g>
   <g>
    <line class="fil0 str2" x1="36821" y1="42261" x2="45416" y2= "42261" />
    <line class="fil0 str2" x1="47802" y1="42262" x2="56337" y2= "42262" />
    <line class="fil0 str2" x1="58723" y1="42262" x2="66790" y2= "42262" />
   </g>
   <g>
    <line class="fil0 str2" x1="36821" y1="15308" x2="41692" y2= "15308" />
    <line class="fil0 str2" x1="44511" y1="15308" x2="48837" y2= "15308" />
    <line class="fil0 str2" x1="51656" y1="15308" x2="57736" y2= "15308" />
    <line class="fil0 str2" x1="60555" y1="15308" x2="66790" y2= "15308" />
   </g>
   <g>
    <line class="fil0 str2" x1="36821" y1="44335" x2="41692" y2= "44335" />
    <line class="fil0 str2" x1="44511" y1="44335" x2="48837" y2= "44335" />
    <line class="fil0 str2" x1="51656" y1="44335" x2="57736" y2= "44335" />
    <line class="fil0 str2" x1="60555" y1="44335" x2="66790" y2= "44335" />
   </g>
   <line class="fil0 str2" x1="36821" y1="29821" x2="39509" y2= "29821" />
   <line class="fil0 str2" x1="63589" y1="29821" x2="66790" y2= "29821" />
   <path class="fil1" d="M41285 28487l0 -1278 7358 -3118 0 1372 -5830 2393 5830 2424 0 1372 -7358 -3165zm8231 5066l3243 -11535 1104 0 -3243 11535 -1104 0z"/>
   <polygon class="fil1" points="64307,28401 56949,31566 56949,30194 62764,27770 56949,25377 56949,24005 64307,27123 "/>
  </g>
 </g>
</svg>
