<?xml version="1.0" encoding="UTF-8"?>
<!DOCTYPE svg PUBLIC "-//W3C//DTD SVG 1.1//EN" "http://www.w3.org/Graphics/SVG/1.1/DTD/svg11.dtd">
<!-- Creator: CorelDRAW X8 -->
<svg xmlns="http://www.w3.org/2000/svg" xml:space="preserve" width="373px" height="344px" version="1.1" style="shape-rendering:geometricPrecision; text-rendering:geometricPrecision; image-rendering:optimizeQuality; fill-rule:evenodd; clip-rule:evenodd"
viewBox="0 0 37300 34355"
 xmlns:xlink="http://www.w3.org/1999/xlink">
 <defs>
  <style type="text/css">
   <![CDATA[
    .str0 {stroke:black;stroke-width:90.0008}
    .fil1 {fill:none;fill-rule:nonzero}
    .fil0 {fill:black;fill-rule:nonzero}
   ]]>
  </style>
 </defs>
 <g id="Layer_x0020_1">
  <metadata id="CorelCorpID_0Corel-Layer"/>
  <g id="_2357641804592">
   <g>
    <path class="fil0" d="M7850 17155l-7800 0 0 -100 7800 0 50 50 -50 50zm0 -100l50 0 0 50 -50 -50zm-50 5813l0 -5763 100 0 0 5763 -65 48 -35 -48zm100 0l0 69 -65 -21 65 -48zm-6103 -2808l-76 65 66 -74 6 4 21 14 34 21 47 30 61 38 73 44 86 53 99 58 111 65 124 71 136 77 147 82 159 87 170 92 182 96 193 99 203 104 214 106 225 109 235 112 245 114 255 116 265 117 274 118 284 119 292 120 302 119 310 119 319 118 327 118 336 116 343 114 -30 95 -345 -115 -337 -116 -328 -118 -320 -118 -311 -120 -303 -120 -294 -119 -284 -120 -275 -118 -266 -118 -256 -116 -246 -114 -235 -113 -226 -109 -215 -107 -204 -104 -194 -100 -182 -96 -171 -92 -159 -87 -148 -83 -137 -77 -124 -71 -112 -66 -99 -59 -87 -52 -74 -45 -61 -38 -48 -30 -34 -22 -21 -14 -7 -5 65 -74zm6103 5400l-100 0 21 41 -343 -246 -336 -245 -327 -245 -319 -245 -311 -243 -302 -242 -293 -239 -284 -236 -275 -234 -265 -229 -256 -224 -246 -220 -236 -214 -225 -208 -215 -202 -205 -194 -193 -187 -183 -179 -171 -170 -160 -160 -149 -151 -136 -141 -124 -130 -113 -118 -99 -107 -87 -93 -75 -82 -61 -67 -48 -54 -35 -38 -20 -24 -8 -9 76 -65 7 8 20 23 35 39 47 53 61 67 74 81 87 93 99 106 112 118 124 130 136 140 148 150 159 161 171 169 182 178 193 187 204 193 215 201 225 208 235 214 245 219 255 224 265 229 274 232 284 236 292 238 301 241 310 243 318 244 327 245 334 244 343 245 21 41zm-21 -41l21 15 0 26 -21 -41zm-79 8886l0 -8845 100 0 0 8845 -50 50 -50 -50zm100 0l0 50 -50 0 50 -50zm-7850 -50l7800 0 0 100 -7800 0 -50 -50 50 -50zm0 100l-50 0 0 -50 50 50zm50 -17250l0 17200 -100 0 0 -17200 50 -50 50 50zm-100 0l0 -50 50 0 -50 50zm7800 8355l0 -2592 100 0 0 2592 -79 41 -21 -41zm100 0l0 96 -79 -55 79 -41zm-6113 -5409l-55 83 65 -74 7 8 20 23 35 39 47 53 61 67 74 81 87 93 99 106 112 118 124 130 136 140 148 150 159 161 171 169 182 178 193 187 204 193 215 201 225 208 235 214 245 219 255 224 265 229 274 232 284 236 292 238 301 241 310 243 318 244 327 245 334 244 343 245 -58 82 -343 -246 -336 -245 -327 -245 -319 -245 -311 -243 -302 -242 -293 -239 -284 -236 -275 -234 -265 -229 -256 -224 -246 -220 -236 -214 -225 -208 -215 -202 -205 -194 -193 -187 -183 -179 -171 -170 -160 -160 -149 -151 -136 -141 -124 -130 -113 -118 -99 -107 -87 -93 -75 -82 -61 -67 -48 -54 -35 -38 -20 -24 -8 -9 66 -74zm6113 2817l-100 0 35 48 -345 -115 -337 -116 -328 -118 -320 -118 -311 -120 -303 -120 -294 -119 -284 -120 -275 -118 -266 -118 -256 -116 -246 -114 -235 -113 -226 -109 -215 -107 -204 -104 -194 -100 -182 -96 -171 -92 -159 -87 -148 -83 -137 -77 -124 -71 -112 -66 -99 -59 -87 -52 -74 -45 -61 -38 -48 -30 -34 -22 -21 -14 -7 -5 55 -83 6 4 21 14 34 21 47 30 61 38 73 44 86 53 99 58 111 65 124 71 136 77 147 82 159 87 170 92 182 96 193 99 203 104 214 106 225 109 235 112 245 114 255 116 265 117 274 118 284 119 292 120 302 119 310 119 319 118 327 118 336 116 343 114 35 47zm-35 -47l35 11 0 36 -35 -47z"/>
   </g>
   <g>
    <path class="fil0" d="M17650 13855l-7800 0 0 -100 7800 0 50 50 -50 50zm0 -100l50 0 0 50 -50 -50zm-50 10448l0 -10398 100 0 0 10398 -47 50 -53 -50zm100 0l0 47 -47 3 47 -50zm-7900 -758l100 0 -38 -48 217 53 218 52 221 50 222 49 225 48 226 46 228 44 231 43 232 41 233 40 236 37 237 35 239 34 241 32 242 29 244 27 246 25 247 23 248 21 250 18 251 16 253 13 254 10 256 8 257 6 258 2 259 0 261 -3 261 -6 263 -10 264 -12 265 -15 6 100 -266 15 -265 12 -264 9 -263 6 -261 4 -261 0 -259 -3 -258 -5 -256 -8 -255 -10 -254 -14 -253 -15 -251 -19 -249 -20 -248 -23 -247 -25 -244 -28 -244 -29 -241 -32 -240 -34 -238 -35 -237 -38 -234 -39 -233 -42 -231 -42 -229 -45 -228 -46 -225 -48 -223 -49 -222 -51 -219 -52 -217 -53 -38 -49zm38 49l-38 -10 0 -39 38 49zm62 -9689l0 9640 -100 0 0 -9640 50 -50 50 50zm-100 0l0 -50 50 0 -50 50zm7800 15990l0 -5592 100 0 0 5592 -58 49 -42 -49zm100 0l0 58 -58 -9 58 -49zm-7900 -3030l100 0 -24 -42 217 129 219 128 222 126 223 125 225 124 227 121 229 120 231 119 232 116 234 114 236 112 238 110 239 107 241 105 242 102 244 100 246 97 247 94 248 92 250 88 251 86 252 82 254 78 255 76 256 72 257 68 259 65 260 61 260 58 262 53 262 49 264 45 -16 99 -265 -45 -264 -50 -264 -54 -262 -57 -261 -62 -260 -65 -258 -69 -258 -72 -256 -76 -255 -79 -254 -83 -252 -85 -251 -89 -249 -92 -248 -95 -247 -97 -245 -100 -243 -103 -242 -106 -240 -107 -239 -111 -237 -112 -235 -115 -234 -116 -231 -119 -230 -120 -228 -122 -226 -124 -224 -126 -222 -127 -220 -128 -218 -130 -24 -43zm24 43l-24 -14 0 -29 24 43zm76 -3363l0 3320 -100 0 0 -3320 62 -48 38 48zm-100 0l0 -64 62 16 -62 48zm7900 758l-100 0 53 50 -266 15 -265 12 -264 9 -263 6 -261 4 -261 0 -259 -3 -258 -5 -256 -8 -255 -10 -254 -14 -253 -15 -251 -19 -249 -20 -248 -23 -247 -25 -244 -28 -244 -29 -241 -32 -240 -34 -238 -35 -237 -38 -234 -39 -233 -42 -231 -42 -229 -45 -228 -46 -225 -48 -223 -49 -222 -51 -219 -52 -217 -53 24 -97 217 53 218 52 221 50 222 49 225 48 226 46 228 44 231 43 232 41 233 40 236 37 237 35 239 34 241 32 242 29 244 27 246 25 247 23 248 21 250 18 251 16 253 13 254 10 256 8 257 6 258 2 259 0 261 -3 261 -6 263 -10 264 -12 265 -15 53 50zm-53 -50l53 -3 0 53 -53 -50zm-47 10152l0 -4510 100 0 0 4510 -50 50 -50 -50zm100 0l0 50 -50 0 50 -50zm-7850 -50l7800 0 0 100 -7800 0 -50 -50 50 -50zm0 100l-50 0 0 -50 50 50zm50 -7590l0 7540 -100 0 0 -7540 76 -42 24 42zm-100 0l0 -88 76 46 -76 42zm7900 3030l-100 0 42 49 -265 -45 -264 -50 -264 -54 -262 -57 -261 -62 -260 -65 -258 -69 -258 -72 -256 -76 -255 -79 -254 -83 -252 -85 -251 -89 -249 -92 -248 -95 -247 -97 -245 -100 -243 -103 -242 -106 -240 -107 -239 -111 -237 -112 -235 -115 -234 -116 -231 -119 -230 -120 -228 -122 -226 -124 -224 -126 -222 -127 -220 -128 -218 -130 52 -85 217 129 219 128 222 126 223 125 225 124 227 121 229 120 231 119 232 116 234 114 236 112 238 110 239 107 241 105 242 102 244 100 246 97 247 94 248 92 250 88 251 86 252 82 254 78 255 76 256 72 257 68 259 65 260 61 260 58 262 53 262 49 264 45 42 50z"/>
   </g>
   <g>
    <path class="fil0" d="M27450 10555l-7800 0 0 -100 7800 0 50 50 -50 50zm0 -100l50 0 0 50 -50 -50zm-50 7921l0 -7871 100 0 0 7871 -35 48 -65 -48zm100 0l0 37 -35 11 35 -48zm-2416 446l-100 0 48 -50 70 -1 69 -3 70 -3 70 -5 70 -5 71 -5 71 -7 71 -7 72 -8 72 -8 72 -10 73 -10 73 -11 73 -12 74 -12 74 -13 75 -15 75 -15 76 -15 76 -17 76 -17 77 -18 78 -19 78 -20 79 -20 79 -22 80 -22 81 -23 81 -24 82 -24 82 -26 83 -26 30 95 -83 26 -83 26 -83 25 -81 24 -82 23 -80 23 -80 21 -80 21 -79 20 -78 19 -78 18 -78 18 -77 17 -76 16 -76 15 -76 14 -75 13 -75 13 -74 12 -74 11 -74 10 -73 10 -73 9 -72 8 -73 7 -71 6 -72 6 -72 5 -70 4 -71 4 -71 3 -70 1 49 -50zm-100 0l0 -48 48 -2 -48 50zm2516 931l-100 0 28 45 -140 -68 -137 -64 -133 -60 -129 -57 -125 -53 -122 -51 -117 -47 -113 -44 -110 -42 -105 -38 -101 -37 -96 -33 -93 -31 -88 -29 -84 -27 -79 -25 -75 -23 -71 -21 -66 -19 -62 -18 -57 -17 -52 -15 -48 -14 -43 -14 -39 -12 -34 -12 -30 -11 -26 -12 -22 -12 -20 -14 -18 -22 -9 -34 100 0 -4 -16 -3 -3 6 4 14 7 20 9 26 10 32 11 37 12 42 13 47 14 52 15 57 17 62 18 66 19 71 22 76 23 80 25 85 27 89 29 93 31 98 34 101 36 106 40 111 41 114 45 118 48 122 50 127 54 130 58 134 61 137 64 142 68 28 45zm-28 -45l28 14 0 31 -28 -45zm-72 1475l0 -1430 100 0 0 1430 -24 43 -76 -43zm100 0l0 28 -24 15 24 -43zm-7900 2804l100 0 -58 -50 238 -38 238 -41 239 -43 239 -47 240 -49 240 -52 240 -56 242 -58 241 -61 242 -65 243 -68 242 -70 243 -74 244 -78 243 -80 244 -84 245 -88 244 -91 245 -94 245 -98 245 -101 245 -105 245 -109 246 -112 245 -116 246 -120 246 -123 245 -127 246 -132 245 -135 246 -139 246 -143 51 86 -247 144 -247 139 -246 136 -247 132 -247 128 -247 124 -247 120 -246 117 -247 113 -246 109 -247 105 -246 102 -246 98 -245 95 -246 91 -245 88 -246 84 -244 81 -245 78 -244 74 -244 72 -244 68 -243 64 -242 62 -243 59 -241 55 -242 53 -241 49 -240 47 -240 44 -239 41 -238 38 -58 -49zm58 49l-58 9 0 -58 58 49zm42 -13531l0 13482 -100 0 0 -13482 50 -50 50 50zm-100 0l0 -50 50 0 -50 50zm7800 9248l0 -1377 100 0 0 1377 -72 45 -28 -45zm100 0l0 80 -72 -35 72 -45zm-2468 -981l3 100 49 -50 -4 -16 -3 -3 6 4 14 7 20 9 26 10 32 11 37 12 42 13 47 14 52 15 57 17 62 18 66 19 71 22 76 23 80 25 85 27 89 29 93 31 98 34 101 36 106 40 111 41 114 45 118 48 122 50 127 54 130 58 134 61 137 64 142 68 -44 90 -140 -68 -137 -64 -133 -60 -129 -57 -125 -53 -122 -51 -117 -47 -113 -44 -110 -42 -105 -38 -101 -37 -96 -33 -93 -31 -88 -29 -84 -27 -79 -25 -75 -23 -71 -21 -66 -19 -62 -18 -57 -17 -52 -15 -48 -14 -43 -14 -39 -12 -34 -12 -30 -11 -26 -12 -22 -12 -20 -14 -18 -22 -9 -34 48 -50zm-48 50l0 -48 48 -2 -48 50zm2516 -446l-100 0 65 48 -83 26 -83 26 -83 25 -81 24 -82 23 -80 23 -80 21 -80 21 -79 20 -78 19 -78 18 -78 18 -77 17 -76 16 -76 15 -76 14 -75 13 -75 13 -74 12 -74 11 -74 10 -73 10 -73 9 -72 8 -73 7 -71 6 -72 6 -72 5 -70 4 -71 4 -71 3 -70 1 -3 -100 70 -1 69 -3 70 -3 70 -5 70 -5 71 -5 71 -7 71 -7 72 -8 72 -8 72 -10 73 -10 73 -11 73 -12 74 -12 74 -13 75 -15 75 -15 76 -15 76 -17 76 -17 77 -18 78 -19 78 -20 79 -20 79 -22 80 -22 81 -23 81 -24 82 -24 82 -26 83 -26 65 47zm-100 9545l0 -6738 100 0 0 6738 -24 42 -76 -42zm100 0l0 28 -24 14 24 -42zm-7900 2071l100 0 -48 -50 239 6 239 3 240 -2 240 -6 241 -10 241 -14 241 -19 242 -22 242 -27 243 -32 242 -36 243 -40 243 -45 244 -50 243 -55 244 -59 244 -64 244 -69 244 -74 245 -79 244 -85 244 -89 245 -95 244 -100 244 -106 244 -111 245 -116 244 -122 243 -128 244 -133 244 -140 243 -145 52 85 -245 147 -245 140 -245 134 -246 129 -245 123 -246 117 -246 112 -246 106 -246 101 -246 95 -246 90 -247 85 -246 80 -246 75 -246 69 -245 65 -246 60 -245 55 -245 50 -246 45 -244 41 -245 36 -244 32 -244 27 -243 23 -244 18 -242 15 -243 10 -242 6 -241 1 -241 -2 -241 -6 -48 -50zm48 50l-48 -1 0 -49 48 50zm52 -6055l0 6005 -100 0 0 -6005 42 -50 58 50zm-100 0l0 -43 42 -7 -42 50zm7900 -2804l-100 0 76 43 -247 144 -247 139 -246 136 -247 132 -247 128 -247 124 -247 120 -246 117 -247 113 -246 109 -247 105 -246 102 -246 98 -245 95 -246 91 -245 88 -246 84 -244 81 -245 78 -244 74 -244 72 -244 68 -243 64 -242 62 -243 59 -241 55 -242 53 -241 49 -240 47 -240 44 -239 41 -238 38 -16 -99 238 -38 238 -41 239 -43 239 -47 240 -49 240 -52 240 -56 242 -58 241 -61 242 -65 243 -68 242 -70 243 -74 244 -78 243 -80 244 -84 245 -88 244 -91 245 -94 245 -98 245 -101 245 -105 245 -109 246 -112 245 -116 246 -120 246 -123 245 -127 246 -132 245 -135 246 -139 246 -143 75 43zm-75 -43l75 -45 0 88 -75 -43zm-25 13165l0 -6384 100 0 0 6384 -50 50 -50 -50zm100 0l0 50 -50 0 50 -50zm-7850 -50l7800 0 0 100 -7800 0 -50 -50 50 -50zm0 100l-50 0 0 -50 50 50zm50 -4363l0 4313 -100 0 0 -4313 52 -50 48 50zm-100 0l0 -51 52 1 -52 50zm7900 -2071l-100 0 76 42 -245 147 -245 140 -245 134 -246 129 -245 123 -246 117 -246 112 -246 106 -246 101 -246 95 -246 90 -247 85 -246 80 -246 75 -246 69 -245 65 -246 60 -245 55 -245 50 -246 45 -244 41 -245 36 -244 32 -244 27 -243 23 -244 18 -242 15 -243 10 -242 6 -241 1 -241 -2 -241 -6 4 -100 239 6 239 3 240 -2 240 -6 241 -10 241 -14 241 -19 242 -22 242 -27 243 -32 242 -36 243 -40 243 -45 244 -50 243 -55 244 -59 244 -64 244 -69 244 -74 245 -79 244 -85 244 -89 245 -95 244 -100 244 -106 244 -111 245 -116 244 -122 243 -128 244 -133 244 -140 243 -145 76 43z"/>
   </g>
   <g>
    <path class="fil0" d="M37250 7255l-7800 0 0 -100 7800 0 50 50 -50 50zm0 -100l50 0 0 50 -50 -50zm-50 27150l0 -27100 100 0 0 27100 -50 50 -50 -50zm100 0l0 50 -50 0 50 -50zm-7850 -50l7800 0 0 100 -7800 0 -50 -50 50 -50zm0 100l-50 0 0 -50 50 50zm50 -7867l0 7817 -100 0 0 -7817 18 -38 82 38zm-100 0l0 -23 18 -15 -18 38zm3105 -3112l-70 72 74 -5 -93 114 -93 113 -93 111 -94 110 -93 109 -94 108 -93 106 -94 106 -94 104 -94 104 -94 102 -94 101 -95 100 -94 99 -95 97 -94 97 -95 96 -95 94 -95 93 -95 93 -95 91 -95 90 -95 90 -95 88 -96 87 -95 86 -96 85 -96 84 -95 83 -96 82 -96 81 -96 80 -64 -77 96 -80 95 -80 95 -82 96 -83 95 -83 95 -85 95 -85 95 -87 95 -88 95 -88 94 -90 95 -91 95 -92 94 -93 94 -94 95 -95 94 -96 94 -98 94 -98 94 -99 94 -101 93 -102 94 -103 93 -104 94 -105 93 -106 93 -107 93 -109 93 -110 93 -110 93 -112 92 -114 74 -4zm-74 4l35 -42 39 38 -74 4zm2285 2504l100 -6 -88 35 -75 -88 -74 -88 -75 -87 -74 -86 -74 -85 -73 -85 -74 -84 -73 -83 -74 -82 -72 -82 -73 -80 -73 -81 -72 -79 -72 -79 -72 -78 -72 -77 -72 -76 -71 -76 -71 -75 -71 -75 -71 -73 -71 -73 -70 -73 -70 -71 -70 -71 -70 -71 -69 -69 -70 -69 -69 -68 -69 -68 -68 -67 -69 -66 70 -72 69 66 68 68 69 67 70 69 69 69 70 70 70 70 70 72 71 71 70 73 71 73 71 74 71 75 72 75 71 76 72 77 72 78 72 78 72 79 73 79 73 80 73 82 73 82 74 82 73 83 74 84 74 85 74 86 74 86 75 87 74 88 75 89 -88 35zm850 -11536l-50 -87 74 53 -67 364 -65 364 -62 363 -59 363 -57 363 -54 363 -52 362 -48 363 -46 362 -43 362 -41 361 -37 362 -35 361 -32 361 -29 361 -27 361 -23 361 -21 361 -17 360 -15 361 -12 361 -9 360 -6 360 -3 361 0 360 3 360 6 361 10 360 12 360 15 361 18 360 22 361 -100 6 -21 -361 -19 -362 -15 -361 -12 -361 -9 -361 -7 -362 -3 -361 0 -361 3 -361 6 -361 9 -361 12 -362 15 -361 18 -361 20 -362 24 -362 26 -361 29 -362 32 -362 35 -362 38 -362 40 -363 44 -363 46 -362 48 -363 52 -364 54 -363 57 -364 59 -364 62 -364 65 -364 68 -365 74 53zm-50 -87l94 -54 -20 107 -74 -53zm-6116 3322l100 0 -71 -45 151 -69 152 -71 155 -74 156 -75 159 -77 162 -80 164 -81 166 -84 168 -86 171 -87 174 -90 176 -93 179 -94 181 -96 184 -99 187 -101 190 -103 193 -105 195 -107 198 -110 202 -112 204 -114 208 -117 210 -118 214 -121 217 -124 220 -125 223 -128 227 -131 230 -132 234 -135 237 -138 50 87 -237 137 -234 135 -230 133 -227 130 -224 128 -220 126 -217 124 -214 121 -210 118 -208 117 -205 114 -201 112 -199 110 -195 108 -193 105 -190 103 -187 101 -185 99 -182 97 -179 94 -176 92 -174 90 -171 88 -169 86 -167 84 -164 82 -162 79 -159 78 -157 76 -156 73 -152 71 -151 70 -71 -46zm71 46l-71 32 0 -78 71 46zm29 -10424l0 10378 -100 0 0 -10378 50 -50 50 50zm-100 0l0 -50 50 0 -50 50zm0 19283l100 0 -82 -38 96 -80 95 -80 95 -82 96 -83 95 -83 95 -85 95 -85 95 -87 95 -88 95 -88 94 -90 95 -91 95 -92 94 -93 94 -94 95 -95 94 -96 94 -98 94 -98 94 -99 94 -101 93 -102 94 -103 93 -104 94 -105 93 -106 93 -107 93 -109 93 -110 93 -110 93 -112 92 -114 78 63 -93 114 -93 113 -93 111 -94 110 -93 109 -94 108 -93 106 -94 106 -94 104 -94 104 -94 102 -94 101 -95 100 -94 99 -95 97 -94 97 -95 96 -95 94 -95 93 -95 93 -95 91 -95 90 -95 90 -95 88 -96 87 -95 86 -96 85 -96 84 -95 83 -96 82 -96 81 -96 80 -82 -39zm82 39l-82 68 0 -107 82 39zm18 -5566l0 5527 -100 0 0 -5527 0 0 100 0zm0 0l0 0 -100 0 0 0 0 0 100 0zm0 -3378l0 3378 -100 0 0 -3378 29 -45 71 45zm-100 0l0 -32 29 -13 -29 45zm6190 -3269l-98 -19 74 53 -237 137 -234 135 -230 133 -227 130 -224 128 -220 126 -217 124 -214 121 -210 118 -208 117 -205 114 -201 112 -199 110 -195 108 -193 105 -190 103 -187 101 -185 99 -182 97 -179 94 -176 92 -174 90 -171 88 -169 86 -167 84 -164 82 -162 79 -159 78 -157 76 -156 73 -152 71 -151 70 -42 -91 151 -69 152 -71 155 -74 156 -75 159 -77 162 -80 164 -81 166 -84 168 -86 171 -87 174 -90 176 -93 179 -94 181 -96 184 -99 187 -101 190 -103 193 -105 195 -107 198 -110 202 -112 204 -114 208 -117 210 -118 214 -121 217 -124 220 -125 223 -128 227 -131 230 -132 234 -135 237 -138 74 53zm-74 -53l94 -54 -20 107 -74 -53zm-788 11652l76 -64 -88 35 -21 -361 -19 -362 -15 -361 -12 -361 -9 -361 -7 -362 -3 -361 0 -361 3 -361 6 -361 9 -361 12 -362 15 -361 18 -361 20 -362 24 -362 26 -361 29 -362 32 -362 35 -362 38 -362 40 -363 44 -363 46 -362 48 -363 52 -364 54 -363 57 -364 59 -364 62 -364 65 -364 68 -365 98 19 -67 364 -65 364 -62 363 -59 363 -57 363 -54 363 -52 362 -48 363 -46 362 -43 362 -41 361 -37 362 -35 361 -32 361 -29 361 -27 361 -23 361 -21 361 -17 360 -15 361 -12 361 -9 360 -6 360 -3 361 0 360 3 360 6 361 10 360 12 360 15 361 18 360 22 361 -88 35zm-2219 -2470l-78 -63 74 -4 69 66 68 68 69 67 70 69 69 69 70 70 70 70 70 72 71 71 70 73 71 73 71 74 71 75 72 75 71 76 72 77 72 78 72 78 72 79 73 79 73 80 73 82 73 82 74 82 73 83 74 84 74 85 74 86 74 86 75 87 74 88 75 89 -76 64 -75 -88 -74 -88 -75 -87 -74 -86 -74 -85 -73 -85 -74 -84 -73 -83 -74 -82 -72 -82 -73 -80 -73 -81 -72 -79 -72 -79 -72 -78 -72 -77 -72 -76 -71 -76 -71 -75 -71 -75 -71 -73 -71 -73 -70 -73 -70 -71 -70 -71 -70 -71 -69 -69 -70 -69 -69 -68 -69 -68 -68 -67 -69 -66 74 -5zm-78 -63l35 -42 39 38 -74 4z"/>
   </g>
   <path class="fil0" d="M1851 14911l307 -24c23,150 75,262 158,338 82,75 182,112 301,112 142,0 262,-53 359,-159 97,-107 145,-248 145,-423 0,-168 -46,-299 -139,-396 -93,-97 -215,-145 -368,-145 -95,0 -180,22 -256,65 -75,43 -134,100 -177,168l-277 -40 230 -1226 1184 0 0 280 -950 0 -127 644c143,-101 293,-151 450,-151 207,0 383,72 526,217 142,144 214,330 214,556 0,217 -63,403 -188,560 -153,194 -362,290 -626,290 -217,0 -394,-61 -531,-182 -137,-122 -215,-283 -235,-484zm2017 626l0 -333 334 0 0 333 -334 0zm763 -633l293 -40c34,167 91,287 172,360 80,73 179,110 296,110 139,0 256,-48 351,-143 94,-96 141,-214 141,-355 0,-135 -44,-246 -132,-334 -88,-87 -199,-131 -335,-131 -56,0 -125,11 -208,33l33 -257c20,3 36,4 47,4 126,0 238,-33 339,-98 100,-65 150,-165 150,-300 0,-107 -37,-196 -110,-267 -72,-70 -166,-105 -281,-105 -115,0 -210,36 -286,108 -76,72 -125,181 -147,325l-293 -53c36,-197 117,-350 245,-458 126,-108 285,-162 473,-162 130,0 250,28 360,84 110,55 194,131 251,227 59,97 88,199 88,308 0,102 -28,196 -83,280 -56,85 -138,152 -246,202 141,32 250,100 329,203 77,102 116,231 116,385 0,208 -76,385 -227,530 -153,145 -345,217 -577,217 -210,0 -383,-62 -522,-187 -139,-125 -217,-287 -237,-486z"/>
   <path class="fil0" d="M11656 11574l307 -23c23,149 75,261 158,337 82,75 182,113 301,113 142,0 262,-54 359,-160 97,-106 145,-248 145,-423 0,-167 -46,-299 -139,-396 -93,-96 -215,-145 -368,-145 -95,0 -180,22 -256,65 -75,44 -134,100 -177,169l-277 -40 230 -1227 1184 0 0 280 -950 0 -127 644c143,-101 293,-151 450,-151 207,0 383,73 526,217 142,144 214,330 214,557 0,216 -63,402 -188,560 -153,193 -362,290 -626,290 -217,0 -394,-61 -531,-183 -137,-122 -215,-283 -235,-484zm2017 627l0 -334 334 0 0 334 -334 0zm1700 0l0 -570 -1037 0 0 -270 1090 -1547 240 0 0 1547 323 0 0 270 -323 0 0 570 -293 0zm0 -840l0 -1074 -749 1074 749 0z"/>
   <path class="fil0" d="M21451 8311l307 -24c23,150 75,262 158,338 82,75 182,112 301,112 143,0 262,-53 359,-159 97,-107 145,-248 145,-423 0,-168 -46,-299 -139,-396 -92,-97 -215,-145 -368,-145 -95,0 -180,22 -255,65 -75,43 -134,99 -178,168l-276 -40 230 -1226 1183 0 0 280 -950 0 -127 644c143,-101 293,-151 450,-151 208,0 383,72 526,217 143,144 214,330 214,556 0,216 -62,403 -188,560 -153,194 -362,290 -626,290 -217,0 -393,-61 -531,-182 -137,-122 -215,-283 -235,-484zm2017 626l0 -333 334 0 0 333 -334 0zm2287 -1803l-290 23c-27,-115 -64,-198 -112,-251 -80,-84 -178,-125 -295,-125 -93,0 -177,26 -248,78 -93,67 -165,165 -219,294 -53,129 -81,313 -83,552 70,-108 157,-188 259,-239 103,-53 209,-79 321,-79 196,0 363,73 500,216 138,144 207,330 207,558 0,150 -33,289 -97,418 -65,129 -153,227 -267,296 -113,68 -241,102 -384,102 -244,0 -443,-90 -598,-269 -154,-180 -231,-476 -231,-888 0,-461 86,-797 256,-1006 149,-182 349,-273 602,-273 188,0 342,52 462,157 120,105 193,250 217,436zm-1200 1030c0,101 21,198 64,290 43,92 103,162 179,211 77,48 158,72 244,72 125,0 231,-50 320,-150 88,-100 133,-235 133,-407 0,-165 -44,-295 -132,-390 -87,-95 -198,-143 -333,-143 -132,0 -245,48 -337,143 -92,95 -138,220 -138,374z"/>
   <path class="fil0" d="M31491 3665l0 -281 1544 0 0 227c-152,162 -303,377 -452,645 -150,268 -265,545 -346,828 -59,200 -96,419 -112,657l-300 0c3,-188 40,-415 110,-681 71,-267 171,-523 303,-771 132,-247 272,-455 420,-624l-1167 0zm2001 2076l0 -333 333 0 0 333 -333 0zm1863 0l-294 0 0 -1868c-70,68 -163,135 -278,203 -114,67 -217,117 -308,151l0 -284c163,-76 307,-170 430,-280 122,-109 210,-215 261,-319l189 0 0 2397z"/>
   <path class="fil1 str0" d="M50 7205l0 -7160 2703 0c475,0 839,23 1090,68 352,59 647,170 885,334 239,165 430,395 575,690 145,295 217,620 217,975 0,606 -193,1121 -582,1541 -386,422 -1088,632 -2101,632l-1837 0 0 2920 -950 0zm950 -3760l1850 0c613,0 1047,-113 1305,-342 257,-228 385,-548 385,-963 0,-298 -75,-555 -227,-768 -151,-214 -351,-355 -598,-424 -160,-41 -455,-63 -883,-63l-1832 0 0 2560zm5760 3760l0 -7160 950 0 0 2950 3700 0 0 -2950 950 0 0 7160 -950 0 0 -3370 -3700 0 0 3370 -950 0zm7182 0l0 -7160 2703 0c475,0 838,23 1090,68 352,59 647,170 885,334 238,165 430,395 575,690 145,295 217,620 217,975 0,606 -194,1121 -582,1541 -387,422 -1088,632 -2102,632l-1836 0 0 2920 -950 0zm950 -3760l1850 0c613,0 1046,-113 1305,-342 256,-228 385,-548 385,-963 0,-298 -75,-555 -227,-768 -152,-214 -352,-355 -598,-424 -160,-41 -455,-63 -884,-63l-1831 0 0 2560z"/>
  </g>
 </g>
</svg>
