<?xml version="1.0" encoding="UTF-8"?>
<!DOCTYPE svg PUBLIC "-//W3C//DTD SVG 1.1//EN" "http://www.w3.org/Graphics/SVG/1.1/DTD/svg11.dtd">
<!-- Creator: CorelDRAW X8 -->
<svg xmlns="http://www.w3.org/2000/svg" xml:space="preserve" width="700px" height="560px" version="1.1" style="shape-rendering:geometricPrecision; text-rendering:geometricPrecision; image-rendering:optimizeQuality; fill-rule:evenodd; clip-rule:evenodd"
viewBox="0 0 70000 56000"
 xmlns:xlink="http://www.w3.org/1999/xlink">
 <defs>
  <style type="text/css">
   <![CDATA[
    .str2 {stroke:#B3B3B3;stroke-width:99.9214}
    .str3 {stroke:#E6E6E6;stroke-width:99.9214}
    .str1 {stroke:black;stroke-width:312.402}
    .str0 {stroke:black;stroke-width:312.402}
    .str4 {stroke:#CCCCCC;stroke-width:90.0001}
    .fil0 {fill:none}
    .fil2 {fill:#B3B3B3}
    .fil1 {fill:#E6E6E6}
    .fil3 {fill:#FDFDFD}
   ]]>
  </style>
 </defs>
 <g id="Layer_x0020_1">
  <metadata id="CorelCorpID_0Corel-Layer"/>
  <rect class="fil0 str0" x="900" y="1288" width="68200" height="53423" rx="3558" ry="3558"/>
  <line class="fil0 str1" x1="900" y1="8527" x2="69100" y2= "8527" />
  <circle class="fil0 str1" cx="7144" cy="4941" r="1583"/>
  <circle class="fil0 str1" cx="12744" cy="4941" r="1583"/>
  <circle class="fil0 str1" cx="18343" cy="4941" r="1583"/>
  <line class="fil0 str1" x1="16429" y1="8527" x2="16429" y2= "54711" />
  <g id="_2296458896448">
   <line class="fil0 str1" x1="4095" y1="11711" x2="14904" y2= "11711" />
   <line class="fil0 str1" x1="4095" y1="15895" x2="12015" y2= "15895" />
   <line class="fil0 str1" x1="4095" y1="24261" x2="13050" y2= "24261" />
   <line class="fil0 str1" x1="4095" y1="32628" x2="12502" y2= "32628" />
   <line class="fil0 str1" x1="4095" y1="40994" x2="10430" y2= "40994" />
   <line class="fil0 str1" x1="4095" y1="28445" x2="12013" y2= "28445" />
   <line class="fil0 str1" x1="4095" y1="36811" x2="9762" y2= "36811" />
   <line class="fil0 str1" x1="4095" y1="45178" x2="14297" y2= "45178" />
   <line class="fil0 str1" x1="4095" y1="49361" x2="11284" y2= "49361" />
   <line class="fil0 str1" x1="4095" y1="20078" x2="12013" y2= "20078" />
  </g>
  <g id="_2296458894464">
   <circle class="fil1 str2" cx="31998" cy="40486" r="12200"/>
   <circle class="fil2 str3" cx="31998" cy="40486" r="8797"/>
   <g>
    <path class="fil3 str4" d="M29265 45046c1655,0 3445,153 4891,-417 702,-277 1082,-792 1653,-1074l-6830 -6867c-708,887 -1126,1213 -1389,2759 -121,719 -46,3809 -144,4017 -197,416 -2082,1509 -854,2573 1282,1110 2021,-991 2673,-991z"/>
    <path class="fil3 str4" d="M33826 40543c147,229 735,774 967,1009 580,588 452,388 1050,-206 268,-266 1874,-1820 1943,-2044 164,-533 -381,-1084 -667,-1240 -705,-385 -1013,156 -1319,465 -417,420 -1727,1630 -1974,2016z"/>
    <path class="fil3 str4" d="M30521 37230l1396 1411c500,-552 1078,-1091 1610,-1627 469,-473 1511,-1081 639,-1998 -911,-956 -1504,11 -2018,530 -273,275 -1519,1474 -1627,1684z"/>
   </g>
  </g>
  <g id="_2296458893888">
   <circle class="fil1 str2" cx="57562" cy="42925" r="8471"/>
   <circle class="fil2 str3" cx="57562" cy="42925" r="6109"/>
   <g>
    <path class="fil3 str4" d="M55665 46092c1149,0 2392,106 3396,-290 487,-192 751,-550 1148,-745l-4743 -4768c-491,616 -782,842 -964,1915 -85,500 -32,2645 -100,2789 -137,289 -1446,1048 -593,1787 890,771 1403,-688 1856,-688z"/>
    <path class="fil3 str4" d="M58832 42965c102,159 510,538 671,701 403,408 314,269 730,-143 185,-185 1301,-1264 1349,-1420 113,-370 -265,-752 -463,-860 -490,-268 -704,108 -916,322 -290,292 -1200,1132 -1371,1400z"/>
    <path class="fil3 str4" d="M56537 40665l970 980c347,-384 748,-758 1117,-1130 326,-329 1050,-751 444,-1387 -632,-664 -1045,7 -1402,367 -189,192 -1054,1024 -1129,1170z"/>
   </g>
  </g>
  <g id="_2296458892320">
   <circle class="fil1 str2" cx="62405" cy="28632" r="4374"/>
   <circle class="fil2 str3" cx="62405" cy="28632" r="3154"/>
   <g>
    <path class="fil3 str4" d="M61426 30267c593,0 1235,55 1753,-150 252,-99 388,-284 593,-385l-2449 -2462c-254,318 -404,435 -498,990 -44,257 -16,1365 -52,1440 -70,149 -746,541 -306,922 460,398 725,-355 959,-355z"/>
    <path class="fil3 str4" d="M63061 28652c52,83 263,278 346,362 209,211 163,139 377,-74 96,-95 672,-652 697,-733 58,-191 -137,-388 -239,-444 -253,-138 -364,56 -473,166 -150,151 -620,585 -708,723z"/>
    <path class="fil3 str4" d="M61876 27465l501 506c179,-199 386,-392 577,-584 168,-170 542,-388 229,-716 -327,-343 -540,4 -724,190 -98,98 -544,528 -583,604z"/>
   </g>
  </g>
  <g id="_2296458891008">
   <circle class="fil1 str2" cx="49429" cy="26018" r="5232"/>
   <circle class="fil2 str3" cx="49429" cy="26018" r="3773"/>
   <g>
    <path class="fil3 str4" d="M48258 27973c709,0 1477,66 2097,-178 301,-119 464,-340 709,-461l-2929 -2945c-303,381 -483,520 -596,1183 -52,309 -19,1634 -62,1723 -84,178 -892,647 -366,1103 550,476 867,-425 1147,-425z"/>
    <path class="fil3 str4" d="M50214 26042c62,99 314,332 414,433 249,252 194,166 450,-88 115,-114 804,-781 834,-877 70,-229 -164,-465 -286,-532 -303,-165 -435,67 -566,200 -179,180 -741,699 -846,864z"/>
    <path class="fil3 str4" d="M48796 24622l599 605c214,-237 462,-468 690,-698 201,-203 648,-464 274,-857 -390,-410 -645,5 -865,227 -117,118 -652,633 -698,723z"/>
   </g>
  </g>
  <g id="_2296458888288">
   <circle class="fil1 str2" cx="46820" cy="12943" r="2271"/>
   <circle class="fil2 str3" cx="46820" cy="12943" r="1638"/>
   <g>
    <path class="fil3 str4" d="M46311 13792c308,0 641,28 910,-78 131,-51 202,-147 308,-200l-1271 -1278c-132,165 -210,226 -259,514 -23,133 -8,709 -27,747 -37,78 -388,281 -159,479 239,207 377,-184 498,-184z"/>
    <path class="fil3 str4" d="M47160 12954c27,42 137,144 180,187 108,110 84,73 196,-38 49,-49 349,-339 361,-381 31,-99 -71,-201 -124,-230 -131,-72 -188,29 -245,86 -78,78 -322,304 -368,376z"/>
    <path class="fil3 str4" d="M46545 12337l260 262c93,-102 200,-203 299,-302 88,-89 282,-202 119,-372 -169,-178 -280,2 -375,98 -51,51 -283,275 -303,314z"/>
   </g>
  </g>
  <g id="_2296458887360">
   <circle class="fil1 str2" cx="59616" cy="15106" r="5680"/>
   <circle class="fil2 str3" cx="59616" cy="15106" r="4096"/>
   <g>
    <path class="fil3 str4" d="M58344 17229c770,0 1604,71 2277,-194 327,-129 504,-369 769,-500l-3180 -3197c-329,413 -524,565 -646,1285 -57,334 -21,1772 -67,1869 -92,194 -969,703 -397,1198 596,517 940,-461 1244,-461z"/>
    <path class="fil3 str4" d="M60467 15133c69,106 342,360 450,469 271,274 211,181 489,-96 125,-123 873,-847 905,-951 76,-248 -178,-505 -310,-577 -329,-180 -472,72 -615,216 -194,196 -804,759 -919,939z"/>
    <path class="fil3 str4" d="M58929 13590l650 657c232,-257 502,-508 749,-757 218,-221 704,-504 297,-930 -423,-446 -700,5 -939,246 -127,128 -707,686 -757,784z"/>
   </g>
  </g>
  <g id="_2296458884160">
   <circle class="fil1 str2" cx="22595" cy="23949" r="4374"/>
   <circle class="fil2 str3" cx="22595" cy="23949" r="3154"/>
   <g>
    <path class="fil3 str4" d="M21616 25584c593,0 1235,55 1753,-149 252,-99 388,-284 593,-385l-2449 -2462c-254,318 -404,435 -498,989 -43,258 -16,1365 -52,1440 -70,149 -746,541 -306,923 460,398 725,-356 959,-356z"/>
    <path class="fil3 str4" d="M23251 23970c53,82 263,277 347,362 208,210 162,139 376,-74 96,-96 672,-653 697,-733 58,-191 -137,-389 -239,-445 -253,-138 -364,56 -473,167 -150,151 -620,584 -708,723z"/>
    <path class="fil3 str4" d="M22066 22782l501 506c179,-198 386,-391 577,-583 168,-170 542,-388 229,-717 -327,-343 -539,4 -724,190 -98,99 -544,529 -583,604z"/>
   </g>
  </g>
  <g id="_2296458882688">
   <circle class="fil1 str2" cx="34385" cy="16842" r="7416"/>
   <circle class="fil2 str3" cx="34385" cy="16842" r="5348"/>
   <g>
    <path class="fil3 str4" d="M32725 19614c1005,0 2093,93 2972,-254 427,-168 658,-481 1005,-652l-4152 -4175c-430,540 -684,738 -844,1678 -74,437 -28,2314 -87,2441 -120,253 -1266,917 -519,1564 779,675 1228,-602 1625,-602z"/>
    <path class="fil3 str4" d="M35497 16877c89,139 446,470 587,613 353,357 275,236 639,-125 163,-162 1139,-1106 1181,-1243 99,-324 -232,-659 -405,-753 -429,-234 -616,94 -802,282 -254,256 -1050,991 -1200,1226z"/>
    <path class="fil3 str4" d="M33488 14863l849 858c304,-336 655,-664 978,-989 285,-288 919,-658 388,-1215 -553,-581 -914,7 -1226,322 -166,167 -924,896 -989,1024z"/>
   </g>
  </g>
 </g>
</svg>
