<?xml version="1.0" encoding="UTF-8"?>
<!DOCTYPE svg PUBLIC "-//W3C//DTD SVG 1.1//EN" "http://www.w3.org/Graphics/SVG/1.1/DTD/svg11.dtd">
<!-- Creator: CorelDRAW X8 -->
<svg xmlns="http://www.w3.org/2000/svg" xml:space="preserve" width="508px" height="475px" version="1.1" style="shape-rendering:geometricPrecision; text-rendering:geometricPrecision; image-rendering:optimizeQuality; fill-rule:evenodd; clip-rule:evenodd"
viewBox="0 0 50800 47450"
 xmlns:xlink="http://www.w3.org/1999/xlink">
 <defs>
  <style type="text/css">
   <![CDATA[
    .str1 {stroke:black;stroke-width:99.8671}
    .str0 {stroke:black;stroke-width:89.9512}
    .fil2 {fill:none}
    .fil1 {fill:none;fill-rule:nonzero}
    .fil3 {fill:gray}
    .fil0 {fill:black;fill-rule:nonzero}
    .fil4 {fill:gray;fill-rule:nonzero}
    .fil5 {fill:#CCCCCC;fill-rule:nonzero}
   ]]>
  </style>
    <clipPath id="id0" style="clip-rule:nonzero">
     <path d="M37408 23504c-1,-1049 -91,-2099 -272,-3137l106 0c181,1038 270,2089 271,3137l-105 0z"/>
    </clipPath>
    <clipPath id="id1">
     <path d="M37408 23504c-1,-1049 -91,-2099 -272,-3137l106 0c181,1038 270,2089 271,3137l-105 0z"/>
    </clipPath>
    <clipPath id="id2" style="clip-rule:nonzero">
     <path d="M26522 39641c699,-248 1382,-544 2044,-888l0 117c-663,342 -1346,636 -2044,882l0 -111z"/>
    </clipPath>
    <clipPath id="id3">
     <path d="M26522 39641c699,-248 1382,-544 2044,-888l0 117c-663,342 -1346,636 -2044,882l0 -111z"/>
    </clipPath>
    <clipPath id="id4" style="clip-rule:nonzero">
     <path d="M6279 32151c516,925 1130,1804 1846,2620 140,160 286,320 436,478 195,207 394,407 596,601l0 146c-229,-217 -453,-442 -673,-674 -146,-155 -292,-315 -438,-482 -734,-836 -1362,-1739 -1887,-2689l120 0z"/>
    </clipPath>
    <clipPath id="id5">
     <path d="M6279 32151c516,925 1130,1804 1846,2620 140,160 286,320 436,478 195,207 394,407 596,601l0 146c-229,-217 -453,-442 -673,-674 -146,-155 -292,-315 -438,-482 -734,-836 -1362,-1739 -1887,-2689l120 0z"/>
    </clipPath>
    <clipPath id="id6" style="clip-rule:nonzero">
     <path d="M6511 16127c-1286,2114 -2023,4534 -2201,7009l-105 0c176,-2473 907,-4892 2184,-7009l122 0z"/>
    </clipPath>
    <clipPath id="id7">
     <path d="M6511 16127c-1286,2114 -2023,4534 -2201,7009l-105 0c176,-2473 907,-4892 2184,-7009l122 0z"/>
    </clipPath>
    <clipPath id="id8" style="clip-rule:nonzero">
     <path d="M17223 9952c-2739,57 -5385,900 -7543,2569 -16,-29 -36,-56 -59,-79l-1 -1 -4 -4c2177,-1683 4845,-2533 7607,-2590l0 105z"/>
    </clipPath>
    <clipPath id="id9">
     <path d="M17223 9952c-2739,57 -5385,900 -7543,2569 -16,-29 -36,-56 -59,-79l-1 -1 -4 -4c2177,-1683 4845,-2533 7607,-2590l0 105z"/>
    </clipPath>
    <clipPath id="id10" style="clip-rule:nonzero">
     <path d="M32759 23504c-66,-1053 -260,-2107 -583,-3137l110 0c320,1030 513,2085 578,3137l-105 0z"/>
    </clipPath>
    <clipPath id="id11">
     <path d="M32759 23504c-66,-1053 -260,-2107 -583,-3137l110 0c320,1030 513,2085 578,3137l-105 0z"/>
    </clipPath>
    <clipPath id="id12" style="clip-rule:nonzero">
     <path d="M26493 34887c729,-380 1424,-841 2073,-1383l0 137c-645,530 -1333,982 -2054,1355 -4,-37 -11,-73 -19,-109z"/>
    </clipPath>
    <clipPath id="id13">
     <path d="M26493 34887c729,-380 1424,-841 2073,-1383l0 137c-645,530 -1333,982 -2054,1355 -4,-37 -11,-73 -19,-109z"/>
    </clipPath>
    <clipPath id="id14" style="clip-rule:nonzero">
     <path d="M11199 32021c703,731 1464,1369 2268,1911l-186 0c-771,-532 -1501,-1152 -2177,-1858 33,-16 65,-34 95,-53z"/>
    </clipPath>
    <clipPath id="id15">
     <path d="M11199 32021c703,731 1464,1369 2268,1911l-186 0c-771,-532 -1501,-1152 -2177,-1858 33,-16 65,-34 95,-53z"/>
    </clipPath>
    <clipPath id="id16" style="clip-rule:nonzero">
     <path d="M17223 14294c-2256,143 -4437,1018 -6163,2649 -1775,1676 -2779,3878 -3015,6193l-106 0c237,-2343 1252,-4573 3049,-6270 1746,-1650 3953,-2535 6235,-2678l0 106z"/>
    </clipPath>
    <clipPath id="id17">
     <path d="M17223 14294c-2256,143 -4437,1018 -6163,2649 -1775,1676 -2779,3878 -3015,6193l-106 0c237,-2343 1252,-4573 3049,-6270 1746,-1650 3953,-2535 6235,-2678l0 106z"/>
    </clipPath>
    <clipPath id="id18" style="clip-rule:nonzero">
     <path d="M17225 18614c-1154,176 -2252,681 -3145,1525 -1230,1162 -1842,2747 -1835,4369 6,1623 631,3285 1872,4599 1659,1755 3827,2714 5991,2845 2164,132 4324,-564 5969,-2117 1644,-1553 2460,-3671 2452,-5838 -5,-1225 -273,-2466 -804,-3630l115 0c525,1165 790,2405 794,3630 1,235 -8,470 -26,704 -28,115 -42,236 -42,359l0 52c-230,1795 -1035,3494 -2417,4799 -1666,1575 -3855,2279 -6047,2146 -2190,-133 -4384,-1103 -6061,-2878 -1261,-1334 -1895,-3021 -1901,-4671 -7,-1650 616,-3262 1868,-4445 913,-863 2035,-1378 3215,-1555l0 29c0,26 0,51 2,77z"/>
    </clipPath>
    <clipPath id="id19">
     <path d="M17225 18614c-1154,176 -2252,681 -3145,1525 -1230,1162 -1842,2747 -1835,4369 6,1623 631,3285 1872,4599 1659,1755 3827,2714 5991,2845 2164,132 4324,-564 5969,-2117 1644,-1553 2460,-3671 2452,-5838 -5,-1225 -273,-2466 -804,-3630l115 0c525,1165 790,2405 794,3630 1,235 -8,470 -26,704 -28,115 -42,236 -42,359l0 52c-230,1795 -1035,3494 -2417,4799 -1666,1575 -3855,2279 -6047,2146 -2190,-133 -4384,-1103 -6061,-2878 -1261,-1334 -1895,-3021 -1901,-4671 -7,-1650 616,-3262 1868,-4445 913,-863 2035,-1378 3215,-1555l0 29c0,26 0,51 2,77z"/>
    </clipPath>
    <clipPath id="id20" style="clip-rule:nonzero">
     <path d="M20034 23516c-407,-431 -940,-667 -1471,-699 -530,-32 -1060,138 -1463,519 -403,380 -603,899 -601,1431 2,532 207,1077 615,1508 824,873 1902,1350 2978,1415 1075,65 2148,-280 2964,-1052 817,-771 1223,-1823 1219,-2900 -4,-1077 -420,-2180 -1244,-3053 -104,-110 -211,-216 -321,-318l154 0c83,79 164,161 244,246 843,892 1267,2022 1272,3125 4,1105 -413,2185 -1251,2977 -839,792 -1940,1147 -3043,1080 -1102,-67 -2205,-555 -3049,-1447 -426,-452 -641,-1023 -643,-1581 -2,-560 209,-1107 634,-1508 425,-401 983,-581 1541,-547 557,34 1115,281 1542,732l-77 72z"/>
    </clipPath>
    <clipPath id="id21">
     <path d="M20034 23516c-407,-431 -940,-667 -1471,-699 -530,-32 -1060,138 -1463,519 -403,380 -603,899 -601,1431 2,532 207,1077 615,1508 824,873 1902,1350 2978,1415 1075,65 2148,-280 2964,-1052 817,-771 1223,-1823 1219,-2900 -4,-1077 -420,-2180 -1244,-3053 -104,-110 -211,-216 -321,-318l154 0c83,79 164,161 244,246 843,892 1267,2022 1272,3125 4,1105 -413,2185 -1251,2977 -839,792 -1940,1147 -3043,1080 -1102,-67 -2205,-555 -3049,-1447 -426,-452 -641,-1023 -643,-1581 -2,-560 209,-1107 634,-1508 425,-401 983,-581 1541,-547 557,34 1115,281 1542,732l-77 72z"/>
    </clipPath>
 </defs>
 <g id="Layer_x0020_1">
  <metadata id="CorelCorpID_0Corel-Layer"/>
  <g id="_2355901389456">
   <path class="fil0" d="M37408 23504c-1,-1049 -91,-2099 -272,-3137l106 0c181,1038 270,2089 271,3137l-105 0z"/>
   <g style="clip-path:url(#id0)">
   </g>
   <path id="1" class="fil1" d="M37408 23504c-1,-1049 -91,-2099 -272,-3137l106 0c181,1038 270,2089 271,3137l-105 0z"/>
   <g style="clip-path:url(#id1)">
    <path id="2" class="fil2 str0" d="M37136 20367l377 3137m0 -3137l-377 3137"/>
   </g>
   <path class="fil0" d="M26522 39641c699,-248 1382,-544 2044,-888l0 117c-663,342 -1346,636 -2044,882l0 -111z"/>
   <g style="clip-path:url(#id2)">
   </g>
   <path id="1" class="fil1" d="M26522 39641c699,-248 1382,-544 2044,-888l0 117c-663,342 -1346,636 -2044,882l0 -111z"/>
   <g style="clip-path:url(#id3)">
    <path id="2" class="fil2 str0" d="M26522 38753l2044 999m0 -999l-2044 999"/>
   </g>
   <path class="fil0" d="M6279 32151c516,925 1130,1804 1846,2620 140,160 286,320 436,478 195,207 394,407 596,601l0 146c-229,-217 -453,-442 -673,-674 -146,-155 -292,-315 -438,-482 -734,-836 -1362,-1739 -1887,-2689l120 0z"/>
   <g style="clip-path:url(#id4)">
   </g>
   <path id="1" class="fil1" d="M6279 32151c516,925 1130,1804 1846,2620 140,160 286,320 436,478 195,207 394,407 596,601l0 146c-229,-217 -453,-442 -673,-674 -146,-155 -292,-315 -438,-482 -734,-836 -1362,-1739 -1887,-2689l120 0z"/>
   <g style="clip-path:url(#id5)">
    <path id="2" class="fil2 str0" d="M6159 32151l2998 3845m0 -3845l-2998 3845"/>
   </g>
   <path class="fil0" d="M6511 16127c-1286,2114 -2023,4534 -2201,7009l-105 0c176,-2473 907,-4892 2184,-7009l122 0z"/>
   <g style="clip-path:url(#id6)">
   </g>
   <path id="1" class="fil1" d="M6511 16127c-1286,2114 -2023,4534 -2201,7009l-105 0c176,-2473 907,-4892 2184,-7009l122 0z"/>
   <g style="clip-path:url(#id7)">
    <path id="2" class="fil2 str0" d="M4205 16127l2306 7009m0 -7009l-2306 7009"/>
   </g>
   <path class="fil0" d="M17223 9952c-2739,57 -5385,900 -7543,2569 -16,-29 -36,-56 -59,-79l-1 -1 -4 -4c2177,-1683 4845,-2533 7607,-2590l0 105z"/>
   <g style="clip-path:url(#id8)">
   </g>
   <path id="1" class="fil1" d="M17223 9952c-2739,57 -5385,900 -7543,2569 -16,-29 -36,-56 -59,-79l-1 -1 -4 -4c2177,-1683 4845,-2533 7607,-2590l0 105z"/>
   <g style="clip-path:url(#id9)">
    <path id="2" class="fil2 str0" d="M9616 9847l7607 2674m0 -2674l-7607 2674"/>
   </g>
   <path class="fil0" d="M32759 23504c-66,-1053 -260,-2107 -583,-3137l110 0c320,1030 513,2085 578,3137l-105 0z"/>
   <g style="clip-path:url(#id10)">
   </g>
   <path id="1" class="fil1" d="M32759 23504c-66,-1053 -260,-2107 -583,-3137l110 0c320,1030 513,2085 578,3137l-105 0z"/>
   <g style="clip-path:url(#id11)">
    <path id="2" class="fil2 str0" d="M32176 20367l688 3137m0 -3137l-688 3137"/>
   </g>
   <path class="fil0" d="M26493 34887c729,-380 1424,-841 2073,-1383l0 137c-645,530 -1333,982 -2054,1355 -4,-37 -11,-73 -19,-109z"/>
   <g style="clip-path:url(#id12)">
   </g>
   <path id="1" class="fil1" d="M26493 34887c729,-380 1424,-841 2073,-1383l0 137c-645,530 -1333,982 -2054,1355 -4,-37 -11,-73 -19,-109z"/>
   <g style="clip-path:url(#id13)">
    <path id="2" class="fil2 str0" d="M26493 33504l2073 1492m0 -1492l-2073 1492"/>
   </g>
   <path class="fil0" d="M11199 32021c703,731 1464,1369 2268,1911l-186 0c-771,-532 -1501,-1152 -2177,-1858 33,-16 65,-34 95,-53z"/>
   <g style="clip-path:url(#id14)">
   </g>
   <path id="1" class="fil1" d="M11199 32021c703,731 1464,1369 2268,1911l-186 0c-771,-532 -1501,-1152 -2177,-1858 33,-16 65,-34 95,-53z"/>
   <g style="clip-path:url(#id15)">
    <path id="2" class="fil2 str0" d="M11104 32021l2363 1911m0 -1911l-2363 1911"/>
   </g>
   <path class="fil0" d="M17223 14294c-2256,143 -4437,1018 -6163,2649 -1775,1676 -2779,3878 -3015,6193l-106 0c237,-2343 1252,-4573 3049,-6270 1746,-1650 3953,-2535 6235,-2678l0 106z"/>
   <g style="clip-path:url(#id16)">
   </g>
   <path id="1" class="fil1" d="M17223 14294c-2256,143 -4437,1018 -6163,2649 -1775,1676 -2779,3878 -3015,6193l-106 0c237,-2343 1252,-4573 3049,-6270 1746,-1650 3953,-2535 6235,-2678l0 106z"/>
   <g style="clip-path:url(#id17)">
    <path id="2" class="fil2 str0" d="M7939 14188l9284 8948m0 -8948l-9284 8948"/>
   </g>
   <path class="fil0" d="M17225 18614c-1154,176 -2252,681 -3145,1525 -1230,1162 -1842,2747 -1835,4369 6,1623 631,3285 1872,4599 1659,1755 3827,2714 5991,2845 2164,132 4324,-564 5969,-2117 1644,-1553 2460,-3671 2452,-5838 -5,-1225 -273,-2466 -804,-3630l115 0c525,1165 790,2405 794,3630 1,235 -8,470 -26,704 -28,115 -42,236 -42,359l0 52c-230,1795 -1035,3494 -2417,4799 -1666,1575 -3855,2279 -6047,2146 -2190,-133 -4384,-1103 -6061,-2878 -1261,-1334 -1895,-3021 -1901,-4671 -7,-1650 616,-3262 1868,-4445 913,-863 2035,-1378 3215,-1555l0 29c0,26 0,51 2,77z"/>
   <g style="clip-path:url(#id18)">
   </g>
   <path id="1" class="fil1" d="M17225 18614c-1154,176 -2252,681 -3145,1525 -1230,1162 -1842,2747 -1835,4369 6,1623 631,3285 1872,4599 1659,1755 3827,2714 5991,2845 2164,132 4324,-564 5969,-2117 1644,-1553 2460,-3671 2452,-5838 -5,-1225 -273,-2466 -804,-3630l115 0c525,1165 790,2405 794,3630 1,235 -8,470 -26,704 -28,115 -42,236 -42,359l0 52c-230,1795 -1035,3494 -2417,4799 -1666,1575 -3855,2279 -6047,2146 -2190,-133 -4384,-1103 -6061,-2878 -1261,-1334 -1895,-3021 -1901,-4671 -7,-1650 616,-3262 1868,-4445 913,-863 2035,-1378 3215,-1555l0 29c0,26 0,51 2,77z"/>
   <g style="clip-path:url(#id19)">
    <path id="2" class="fil2 str0" d="M12140 18508l16494 13565m0 -13565l-16494 13565"/>
   </g>
   <path class="fil0" d="M20034 23516c-407,-431 -940,-667 -1471,-699 -530,-32 -1060,138 -1463,519 -403,380 -603,899 -601,1431 2,532 207,1077 615,1508 824,873 1902,1350 2978,1415 1075,65 2148,-280 2964,-1052 817,-771 1223,-1823 1219,-2900 -4,-1077 -420,-2180 -1244,-3053 -104,-110 -211,-216 -321,-318l154 0c83,79 164,161 244,246 843,892 1267,2022 1272,3125 4,1105 -413,2185 -1251,2977 -839,792 -1940,1147 -3043,1080 -1102,-67 -2205,-555 -3049,-1447 -426,-452 -641,-1023 -643,-1581 -2,-560 209,-1107 634,-1508 425,-401 983,-581 1541,-547 557,34 1115,281 1542,732l-77 72z"/>
   <g style="clip-path:url(#id20)">
   </g>
   <path id="1" class="fil1" d="M20034 23516c-407,-431 -940,-667 -1471,-699 -530,-32 -1060,138 -1463,519 -403,380 -603,899 -601,1431 2,532 207,1077 615,1508 824,873 1902,1350 2978,1415 1075,65 2148,-280 2964,-1052 817,-771 1223,-1823 1219,-2900 -4,-1077 -420,-2180 -1244,-3053 -104,-110 -211,-216 -321,-318l154 0c83,79 164,161 244,246 843,892 1267,2022 1272,3125 4,1105 -413,2185 -1251,2977 -839,792 -1940,1147 -3043,1080 -1102,-67 -2205,-555 -3049,-1447 -426,-452 -641,-1023 -643,-1581 -2,-560 209,-1107 634,-1508 425,-401 983,-581 1541,-547 557,34 1115,281 1542,732l-77 72z"/>
   <g style="clip-path:url(#id21)">
    <path id="2" class="fil2 str0" d="M16394 20367l7986 7436m0 -7436l-7986 7436"/>
   </g>
   <g>
    <polygon class="fil3" points="23505,11356 25719,14891 26546,16212 29249,11897 33337,5368 37425,11897 40335,16544 40335,18425 33337,18425 27932,18425 25160,18425 23505,18425 20185,18425 20185,16658 21292,14891 "/>
    <path class="fil4" d="M24428 10779l2118 3383 6791 -10845 7921 12650 171 577 0 2975 -22338 0 0 -2861 171 -577 4243 -6775 923 1473zm368 4688l-1291 -2060 -2226 3555 0 370 4684 0 -1167 -1865zm2673 1322l-340 543 12112 0 0 -485 -5904 -9429 -5868 9371z"/>
    <path class="fil5" d="M19024 0l22473 0c499,0 955,205 1288,537l5 4c331,333 536,789 536,1289l0 16683c0,499 -205,956 -536,1289l-5 4c-333,331 -789,537 -1288,537l-22473 0c-499,0 -956,-206 -1289,-537l-4 -4c-332,-333 -537,-790 -537,-1289l0 -16683c0,-500 205,-956 537,-1289l4 -4c333,-332 790,-537 1289,-537zm22115 2188l-21757 0 0 15967 21757 0 0 -15967z"/>
    <path class="fil3" d="M22902 2830c1218,0 2206,988 2206,2206 0,1218 -988,2206 -2206,2206 -1218,0 -2206,-988 -2206,-2206 0,-1218 988,-2206 2206,-2206z"/>
   </g>
   <g>
    <polygon class="fil3" points="33950,33158 35831,36163 36535,37286 38832,33618 42308,28067 45783,33618 48257,37568 48257,39168 42308,39168 37713,39168 35357,39168 33950,39168 31127,39168 31127,37665 32068,36163 "/>
    <path class="fil4" d="M34734 32668l1801 2875 5773 -9219 6734 10754 145 490 0 2530 -18989 0 0 -2433 145 -490 3607 -5760 784 1253zm313 3985l-1097 -1752 -1893 3023 0 314 3982 0 -992 -1585zm2272 1124l-288 461 10296 0 0 -412 -5019 -8015 -4989 7966z"/>
    <path class="fil5" d="M30140 23504l19105 0c424,0 812,175 1095,456l4 4c281,283 456,671 456,1096l0 14182c0,424 -175,813 -456,1096l-4 3c-283,282 -671,457 -1095,457l-19105 0c-424,0 -813,-175 -1096,-457l-3 -3c-282,-283 -457,-672 -457,-1096l0 -14182c0,-425 175,-813 457,-1096l3 -4c283,-281 672,-456 1096,-456zm18800 1860l-18496 0 0 13574 18496 0 0 -13574z"/>
    <path class="fil3" d="M33437 25910c1035,0 1875,840 1875,1875 0,1036 -840,1875 -1875,1875 -1036,0 -1875,-839 -1875,-1875 0,-1035 839,-1875 1875,-1875z"/>
   </g>
   <g>
    <polygon class="fil3" points="13414,41479 14885,43827 15435,44705 17231,41838 19948,37499 22664,41838 24598,44926 24598,46176 19948,46176 16356,46176 14514,46176 13414,46176 11208,46176 11208,45002 11944,43827 "/>
    <path class="fil4" d="M14028 41095l1407 2248 4512 -7206 5264 8405 114 384 0 1977 -14844 0 0 -1901 114 -384 2819 -4502 614 979zm244 3116l-858 -1370 -1479 2363 0 245 3113 0 -776 -1238zm1776 878l-225 360 8048 0 0 -321 -3924 -6266 -3899 6227z"/>
    <path class="fil5" d="M10436 33932l14934 0c332,0 635,137 856,357l3 3c220,221 357,524 357,856l0 11086c0,332 -137,635 -357,857l-3 2c-221,221 -524,357 -856,357l-14934 0c-331,0 -635,-136 -856,-357l-3 -2c-220,-222 -356,-525 -356,-857l0 -11086c0,-332 136,-635 356,-856l3 -3c221,-220 525,-357 856,-357zm14696 1454l-14458 0 0 10610 14458 0 0 -10610z"/>
    <path class="fil3" d="M13013 35813c810,0 1466,656 1466,1466 0,809 -656,1466 -1466,1466 -809,0 -1465,-657 -1465,-1466 0,-810 656,-1466 1465,-1466z"/>
   </g>
   <g>
    <polygon class="fil3" points="2797,28168 3778,29735 4145,30320 5342,28408 7154,25515 8966,28408 10255,30467 10255,31301 7154,31301 4759,31301 3531,31301 2797,31301 1326,31301 1326,30518 1816,29735 "/>
    <path class="fil4" d="M3206 27913l939 1499 3009 -4806 3510 5606 76 255 0 1319 -9899 0 0 -1268 76 -256 1880 -3002 409 653zm163 2077l-572 -913 -987 1576 0 163 2076 0 -517 -826zm1185 586l-151 240 5368 0 0 -214 -2617 -4179 -2600 4153z"/>
    <path class="fil5" d="M811 23136l9959 0c222,0 424,91 571,238l2 1c147,148 238,350 238,572l0 7393c0,221 -91,424 -238,571l-2 2c-147,147 -349,238 -571,238l-9959 0c-221,0 -424,-91 -571,-238l-2 -2c-147,-147 -238,-350 -238,-571l0 -7393c0,-222 91,-424 238,-572l2 -1c147,-147 350,-238 571,-238zm9801 969l-9642 0 0 7076 9642 0 0 -7076z"/>
    <path class="fil3" d="M2530 24390c539,0 977,437 977,977 0,540 -438,978 -977,978 -540,0 -978,-438 -978,-978 0,-540 438,-977 978,-977z"/>
   </g>
   <g>
    <polygon class="fil3" points="3818,15312 4543,16471 4815,16904 5700,15490 7040,13349 8380,15490 9334,17013 9334,17629 7040,17629 5269,17629 4360,17629 3818,17629 2730,17629 2730,17050 3092,16471 "/>
    <path class="fil4" d="M4120 15123l695 1109 2225 -3555 2597 4147 56 189 0 975 -7322 0 0 -938 56 -189 1391 -2221 302 483zm121 1537l-423 -675 -730 1165 0 121 1535 0 -382 -611zm876 433l-111 178 3970 0 0 -159 -1936 -3090 -1923 3071z"/>
    <path class="fil5" d="M2349 11590l7366 0c164,0 313,67 422,176l2 1c108,110 176,259 176,423l0 5468c0,164 -68,313 -176,423l-2 1c-109,109 -258,176 -422,176l-7366 0c-164,0 -313,-67 -423,-176l-1 -1c-109,-110 -176,-259 -176,-423l0 -5468c0,-164 67,-313 176,-423l1 -1c110,-109 259,-176 423,-176zm7249 717l-7132 0 0 5234 7132 0 0 -5234z"/>
    <path class="fil3" d="M3620 12518c399,0 723,323 723,723 0,399 -324,723 -723,723 -399,0 -723,-324 -723,-723 0,-400 324,-723 723,-723z"/>
   </g>
   <path class="fil2 str1" d="M18405 24567c262,336 460,675 858,293 344,-328 381,-852 -142,-1179 -524,-326 -1102,-56 -1393,333 -339,455 -198,1092 257,1408 454,316 1318,408 1839,-302 383,-522 585,-1474 -14,-1770"/>
   <path class="fil2 str1" d="M18405 24567c262,336 460,675 858,293 344,-328 381,-852 -142,-1179 -524,-326 -1102,-56 -1393,333 -339,455 -198,1092 257,1408 454,316 1318,408 1839,-302 383,-522 585,-1474 -14,-1770"/>
  </g>
 </g>
</svg>
