<?xml version="1.0" encoding="UTF-8"?>
<!DOCTYPE svg PUBLIC "-//W3C//DTD SVG 1.1//EN" "http://www.w3.org/Graphics/SVG/1.1/DTD/svg11.dtd">
<!-- Creator: CorelDRAW X8 -->
<svg xmlns="http://www.w3.org/2000/svg" xml:space="preserve" width="540px" height="492px" version="1.1" style="shape-rendering:geometricPrecision; text-rendering:geometricPrecision; image-rendering:optimizeQuality; fill-rule:evenodd; clip-rule:evenodd"
viewBox="0 0 56926 51946"
 xmlns:xlink="http://www.w3.org/1999/xlink">
 <defs>
  <style type="text/css">
   <![CDATA[
    .str0 {stroke:black;stroke-width:105.423}
    .str1 {stroke:black;stroke-width:94.9555}
    .fil0 {fill:none}
    .fil2 {fill:black;fill-rule:nonzero}
    .fil1 {fill:black;fill-rule:nonzero}
   ]]>
  </style>
 </defs>
 <g id="Layer_x0020_1">
  <metadata id="CorelCorpID_0Corel-Layer"/>
  <g id="_1469302911664">
   <path class="fil0 str0" d="M56860 18216l-7911 -7911m-14245 0l14245 0 0 7911 7911 0c-2639,11606 -1044,12442 0,23425 -7385,0 -14770,0 -22156,0 2659,-9826 2827,-20232 0,-31336z"/>
   <polygon class="fil0 str0" points="24629,20592 29289,23283 33949,25973 29289,28663 24629,31354 24629,28716 14919,28716 14919,23230 24629,23230 "/>
   <path class="fil1 str1" d="M49602 27094l779 -70c37,315 123,573 258,776 136,201 346,365 631,490 284,124 605,187 961,187 317,0 595,-47 838,-142 242,-95 421,-225 539,-389 119,-165 178,-345 178,-537 0,-196 -57,-367 -170,-514 -114,-146 -302,-268 -565,-369 -168,-64 -540,-166 -1116,-305 -576,-139 -979,-268 -1209,-391 -300,-158 -521,-353 -667,-585 -148,-232 -221,-493 -221,-781 0,-318 91,-614 270,-888 180,-276 441,-484 787,-627 344,-143 728,-215 1149,-215 464,0 874,75 1229,225 354,149 627,369 818,661 191,290 294,620 308,988l-796 61c-43,-396 -187,-695 -434,-896 -246,-203 -611,-304 -1093,-304 -501,0 -868,92 -1097,276 -229,184 -344,406 -344,666 0,224 82,410 244,555 160,145 576,295 1250,447 674,153 1137,286 1387,400 364,167 634,379 807,637 174,257 260,553 260,889 0,334 -95,646 -286,941 -191,294 -464,524 -821,687 -358,163 -759,245 -1207,245 -566,0 -1040,-83 -1422,-248 -384,-165 -683,-413 -901,-746 -218,-331 -332,-706 -344,-1124z"/>
   <path class="fil2" d="M43763 27094l779 -70c37,315 123,573 259,776 135,201 345,365 630,490 284,124 605,187 961,187 317,0 596,-47 838,-142 242,-95 421,-225 540,-389 118,-165 178,-345 178,-537 0,-196 -57,-367 -171,-514 -114,-146 -302,-268 -565,-369 -167,-64 -540,-166 -1116,-305 -576,-139 -979,-268 -1209,-391 -299,-158 -521,-353 -667,-585 -147,-232 -220,-493 -220,-781 0,-318 90,-614 270,-888 179,-276 440,-484 786,-627 344,-143 728,-215 1150,-215 464,0 874,75 1228,225 355,149 627,369 819,661 191,290 293,620 307,988l-796 61c-43,-396 -187,-695 -434,-896 -246,-203 -611,-304 -1092,-304 -502,0 -868,92 -1097,276 -229,184 -345,406 -345,666 0,224 82,410 244,555 160,145 576,295 1250,447 674,153 1137,286 1388,400 363,167 633,379 806,637 174,257 260,553 260,889 0,334 -95,646 -286,941 -191,294 -464,524 -821,687 -358,163 -759,245 -1207,245 -566,0 -1040,-83 -1422,-248 -384,-165 -683,-413 -900,-746 -219,-331 -333,-706 -345,-1124z"/>
   <path class="fil2" d="M42177 26908l832 210c-174,682 -486,1200 -937,1557 -450,358 -1002,537 -1654,537 -674,0 -1223,-137 -1646,-413 -423,-274 -744,-672 -964,-1193 -221,-523 -331,-1081 -331,-1680 0,-652 124,-1221 373,-1707 250,-485 604,-855 1064,-1107 459,-252 965,-378 1517,-378 627,0 1154,159 1580,479 427,319 725,767 893,1345l-814 192c-145,-455 -356,-787 -632,-995 -276,-208 -623,-312 -1042,-312 -480,0 -882,115 -1205,346 -322,230 -550,541 -680,929 -131,390 -197,791 -197,1204 0,533 78,998 232,1395 155,398 396,694 723,891 326,197 680,295 1060,295 464,0 855,-134 1176,-401 321,-269 539,-666 652,-1194z"/>
   <g>
    <g>
     <path class="fil0 str0" d="M10436 3760l-3708 -3707m-6675 0l6675 0 0 3707 3708 0c0,0 0,10977 0,10977 -3461,0 -6922,0 -10383,0 0,0 0,-14684 0,-14684z"/>
     <g>
      <path class="fil1 str1" d="M6918 7920l365 -33c17,148 58,269 121,364 64,94 162,171 296,230 133,58 283,87 450,87 149,0 279,-22 393,-66 113,-45 197,-106 253,-183 55,-77 83,-161 83,-251 0,-92 -27,-172 -80,-241 -53,-68 -141,-126 -265,-173 -78,-30 -253,-78 -523,-143 -270,-65 -458,-126 -566,-183 -141,-74 -244,-166 -313,-274 -69,-109 -103,-231 -103,-366 0,-149 42,-288 126,-416 84,-130 207,-227 369,-294 161,-67 341,-101 539,-101 217,0 409,35 575,105 166,70 294,173 384,310 89,136 137,291 144,463l-373 29c-20,-186 -88,-326 -203,-420 -116,-95 -287,-142 -512,-142 -235,0 -407,43 -514,129 -108,86 -162,190 -162,312 0,105 38,192 114,260 76,68 270,138 586,209 316,72 533,134 650,188 171,78 297,177 379,298 81,121 121,260 121,417 0,156 -44,303 -134,441 -89,138 -217,245 -385,322 -167,76 -355,115 -565,115 -265,0 -488,-39 -667,-117 -179,-77 -320,-193 -422,-349 -102,-155 -155,-331 -161,-527z"/>
      <path class="fil2" d="M4182 7920l365 -33c17,148 57,269 121,364 64,94 162,171 295,230 134,58 284,87 451,87 148,0 279,-22 392,-66 114,-45 198,-106 253,-183 56,-77 84,-161 84,-251 0,-92 -27,-172 -80,-241 -54,-68 -142,-126 -265,-173 -78,-30 -253,-78 -523,-143 -270,-65 -459,-126 -567,-183 -140,-74 -244,-166 -312,-274 -69,-109 -103,-231 -103,-366 0,-149 42,-288 126,-416 84,-130 207,-227 369,-294 161,-67 341,-101 538,-101 218,0 410,35 576,105 166,70 294,173 384,310 89,136 137,291 144,463l-373 29c-20,-186 -88,-326 -203,-420 -116,-95 -287,-142 -512,-142 -236,0 -407,43 -515,129 -107,86 -161,190 -161,312 0,105 38,192 114,260 75,68 270,138 586,209 316,72 533,134 650,188 171,78 297,177 378,298 82,121 122,260 122,417 0,156 -44,303 -134,441 -89,138 -217,245 -385,322 -167,76 -355,115 -565,115 -266,0 -488,-39 -667,-117 -180,-77 -320,-193 -422,-349 -102,-155 -156,-331 -161,-527z"/>
      <path class="fil2" d="M3439 7833l389 99c-81,319 -227,562 -438,729 -212,167 -470,252 -776,252 -316,0 -573,-65 -771,-194 -198,-128 -349,-315 -452,-559 -103,-245 -155,-507 -155,-787 0,-306 58,-572 175,-800 117,-228 283,-401 498,-519 216,-118 453,-177 711,-177 294,0 541,75 741,224 200,150 340,360 418,631l-381 90c-68,-213 -167,-369 -296,-466 -129,-98 -292,-147 -488,-147 -225,0 -414,54 -565,162 -151,108 -258,254 -319,436 -61,182 -92,370 -92,564 0,249 36,468 109,653 72,187 185,326 338,418 153,93 319,138 497,138 218,0 401,-63 551,-188 151,-125 252,-311 306,-559z"/>
     </g>
    </g>
    <g>
     <path class="fil0 str0" d="M10436 22338l-3708 -3707m-6675 0l6675 0 0 3707 3708 0c0,0 0,10977 0,10977 -3461,0 -6922,0 -10383,0 0,0 0,-14684 0,-14684z"/>
     <g>
      <path class="fil1 str1" d="M6918 26498l365 -33c17,148 58,269 121,364 64,94 162,171 296,230 133,58 283,87 450,87 149,0 279,-22 393,-66 113,-44 197,-105 253,-183 55,-77 83,-161 83,-251 0,-92 -27,-172 -80,-241 -53,-68 -141,-126 -265,-173 -78,-30 -253,-78 -523,-143 -270,-65 -458,-126 -566,-183 -141,-74 -244,-165 -313,-274 -69,-109 -103,-231 -103,-366 0,-149 42,-288 126,-416 84,-129 207,-227 369,-294 161,-67 341,-101 539,-101 217,0 409,35 575,106 166,69 294,173 384,309 89,136 137,291 144,463l-373 29c-20,-185 -88,-326 -203,-420 -116,-95 -287,-142 -512,-142 -235,0 -407,43 -514,129 -108,86 -162,190 -162,312 0,105 38,192 114,260 76,68 270,138 586,209 316,72 533,135 650,188 171,79 297,178 379,299 81,120 121,259 121,416 0,157 -44,303 -134,441 -89,138 -217,245 -385,322 -167,77 -355,115 -565,115 -265,0 -488,-39 -667,-116 -179,-78 -320,-194 -422,-350 -102,-155 -155,-331 -161,-527z"/>
      <path class="fil2" d="M4182 26498l365 -33c17,148 57,269 121,364 64,94 162,171 295,230 134,58 284,87 451,87 148,0 279,-22 392,-66 114,-44 198,-105 253,-183 56,-77 84,-161 84,-251 0,-92 -27,-172 -80,-241 -54,-68 -142,-126 -265,-173 -78,-30 -253,-78 -523,-143 -270,-65 -459,-126 -567,-183 -140,-74 -244,-165 -312,-274 -69,-109 -103,-231 -103,-366 0,-149 42,-288 126,-416 84,-129 207,-227 369,-294 161,-67 341,-101 538,-101 218,0 410,35 576,106 166,69 294,173 384,309 89,136 137,291 144,463l-373 29c-20,-185 -88,-326 -203,-420 -116,-95 -287,-142 -512,-142 -236,0 -407,43 -515,129 -107,86 -161,190 -161,312 0,105 38,192 114,260 75,68 270,138 586,209 316,72 533,135 650,188 171,79 297,178 378,299 82,120 122,259 122,416 0,157 -44,303 -134,441 -89,138 -217,245 -385,322 -167,77 -355,115 -565,115 -266,0 -488,-39 -667,-116 -180,-78 -320,-194 -422,-350 -102,-155 -156,-331 -161,-527z"/>
      <path class="fil2" d="M3439 26411l389 99c-81,319 -227,562 -438,729 -212,168 -470,252 -776,252 -316,0 -573,-64 -771,-194 -198,-128 -349,-315 -452,-559 -103,-245 -155,-506 -155,-787 0,-305 58,-572 175,-800 117,-227 283,-400 498,-519 216,-118 453,-177 711,-177 294,0 541,75 741,225 200,149 340,359 418,630l-381 90c-68,-213 -167,-369 -296,-466 -129,-98 -292,-146 -488,-146 -225,0 -414,54 -565,162 -151,108 -258,253 -319,435 -61,183 -92,371 -92,564 0,250 36,468 109,654 72,186 185,325 338,418 153,92 319,138 497,138 218,0 401,-63 551,-188 151,-126 252,-312 306,-560z"/>
     </g>
    </g>
    <g>
     <path class="fil0 str0" d="M10436 40916l-3708 -3707m-6675 0l6675 0 0 3707 3708 0c0,0 0,10977 0,10977 -3461,0 -6922,0 -10383,0 0,0 0,-14684 0,-14684z"/>
     <g>
      <path class="fil1 str1" d="M6918 45076l365 -32c17,147 58,268 121,363 64,95 162,171 296,230 133,58 283,88 450,88 149,0 279,-22 393,-67 113,-44 197,-105 253,-182 55,-78 83,-162 83,-252 0,-91 -27,-171 -80,-241 -53,-68 -141,-125 -265,-172 -78,-31 -253,-79 -523,-143 -270,-65 -458,-126 -566,-184 -141,-74 -244,-165 -313,-274 -69,-109 -103,-231 -103,-366 0,-149 42,-287 126,-416 84,-129 207,-227 369,-294 161,-67 341,-100 539,-100 217,0 409,34 575,105 166,70 294,173 384,309 89,137 137,291 144,463l-373 29c-20,-185 -88,-325 -203,-420 -116,-95 -287,-142 -512,-142 -235,0 -407,43 -514,129 -108,86 -162,190 -162,312 0,105 38,192 114,261 76,67 270,138 586,209 316,72 533,134 650,187 171,79 297,178 379,299 81,120 121,259 121,416 0,157 -44,303 -134,441 -89,138 -217,246 -385,322 -167,77 -355,115 -565,115 -265,0 -488,-39 -667,-116 -179,-77 -320,-194 -422,-349 -102,-156 -155,-331 -161,-528z"/>
      <path class="fil2" d="M4182 45076l365 -32c17,147 57,268 121,363 64,95 162,171 295,230 134,58 284,88 451,88 148,0 279,-22 392,-67 114,-44 198,-105 253,-182 56,-78 84,-162 84,-252 0,-91 -27,-171 -80,-241 -54,-68 -142,-125 -265,-172 -78,-31 -253,-79 -523,-143 -270,-65 -459,-126 -567,-184 -140,-74 -244,-165 -312,-274 -69,-109 -103,-231 -103,-366 0,-149 42,-287 126,-416 84,-129 207,-227 369,-294 161,-67 341,-100 538,-100 218,0 410,34 576,105 166,70 294,173 384,309 89,137 137,291 144,463l-373 29c-20,-185 -88,-325 -203,-420 -116,-95 -287,-142 -512,-142 -236,0 -407,43 -515,129 -107,86 -161,190 -161,312 0,105 38,192 114,261 75,67 270,138 586,209 316,72 533,134 650,187 171,79 297,178 378,299 82,120 122,259 122,416 0,157 -44,303 -134,441 -89,138 -217,246 -385,322 -167,77 -355,115 -565,115 -266,0 -488,-39 -667,-116 -180,-77 -320,-194 -422,-349 -102,-156 -156,-331 -161,-528z"/>
      <path class="fil2" d="M3439 44990l389 98c-81,319 -227,562 -438,730 -212,167 -470,251 -776,251 -316,0 -573,-64 -771,-193 -198,-129 -349,-316 -452,-560 -103,-244 -155,-506 -155,-786 0,-306 58,-573 175,-801 117,-227 283,-400 498,-518 216,-119 453,-177 711,-177 294,0 541,74 741,224 200,149 340,359 418,630l-381 90c-68,-213 -167,-369 -296,-466 -129,-98 -292,-146 -488,-146 -225,0 -414,54 -565,162 -151,108 -258,253 -319,435 -61,183 -92,371 -92,564 0,250 36,468 109,654 72,187 185,325 338,418 153,92 319,138 497,138 218,0 401,-63 551,-188 151,-126 252,-312 306,-559z"/>
     </g>
    </g>
   </g>
  </g>
 </g>
</svg>
